<?xml version="1.0" encoding="utf-8"?>
<!-- Generator: Adobe Illustrator 19.2.1, SVG Export Plug-In . SVG Version: 6.00 Build 0)  -->
<!DOCTYPE svg PUBLIC "-//W3C//DTD SVG 1.1//EN" "http://www.w3.org/Graphics/SVG/1.1/DTD/svg11.dtd">
<svg version="1.1" id="group-12" xmlns="http://www.w3.org/2000/svg" xmlns:xlink="http://www.w3.org/1999/xlink" x="0px" y="0px"
	 viewBox="0 0 271 191" style="enable-background:new 0 0 271 191;" xml:space="preserve">
<style type="text/css">
	.st0{fill:#D5D5D5;}
	.st1{enable-background:new    ;}
</style>
<rect id="rectangle-5" class="st0" width="271" height="191"/>
<g class="st1">
	<path d="M42.3,107.1c-9.7,0.9-12.6-3.5-12.6-9.2c0-5.2,3.2-9.8,12.6-9.8l0.2,4.2c-7.2-0.4-8.2,1.2-8.2,5.1c0,4.8,2,6.4,8.4,6
		L42.3,107.1z"/>
	<path d="M55.1,105.4c-1.1,1.1-2.5,2-4.6,2c-2.7,0-4.5-1.5-4.5-4c0-3,2.6-5.5,8.8-5.4c-0.2-2.3-1.7-2.8-7.9-3l0.4-3.6
		c9.5,0,11.7,2,11.7,8c0,2.7,0.2,5.4,0.3,7.4l-3.9,0.2L55.1,105.4z M54.9,103.4c-0.1-0.8-0.1-1.6-0.1-2.6c-3.9-0.4-4.6,0.4-4.6,1.7
		c0,1.1,0.8,1.8,2,1.8C53.1,104.2,54,103.9,54.9,103.4z"/>
	<path d="M74.6,95.2c-5.1-0.4-6.9-0.1-6.9,0.8c0,1.6,7.8,2.6,7.8,6.4c0,2.8-2.9,5.1-11.9,4.8l0.1-3.6c5.5,0.3,7.3,0,7.3-1
		c0-1.6-7.7-2.3-7.7-6.1c0-2.8,3-5.3,11.2-4.9L74.6,95.2z"/>
	<path d="M83.7,95.7V107h-4.3V85.9l4.3-0.4v7.5c1.1-0.9,2.5-1.7,4.3-1.7c2.6,0,4.2,1.5,4.2,5.2V107H88v-8.8c0-2.4-0.8-3.1-2-3.1
		C85.1,95,84.4,95.3,83.7,95.7z"/>
	<path d="M119,100.9l-2.1,0.1v6h-4.4V88.4c9.9-1.1,12.7,1.4,12.7,5.2c0,2.3-1.2,3.8-2.9,5l4.3,8l-4.7,0.5L119,100.9z M116.9,97.9
		l2.4-0.1c1-0.8,1.7-1.9,1.7-3.2c0-2.2-1.4-3.2-4.1-2.9V97.9z"/>
	<path d="M128.5,99.7c0-4.7,3.6-8.3,7.6-8.3c4.3,0,6.4,3.4,5.8,8.9l-9.1,0.2c0.5,2.5,2.7,3.2,8.8,3.3l-0.4,3.5
		C131,107.6,128.5,104.7,128.5,99.7z M132.7,98.1c1.4,0,3.6-0.1,5.1-0.2c-0.1-2-0.8-3.1-2.5-3.1C133.7,94.9,132.8,95.7,132.7,98.1z"
		/>
	<path d="M146.7,108.5c6.3-0.5,7-0.8,7.1-4.1c-0.9,0.6-2,1.1-3.5,1.1c-3.1,0-5.5-2.4-5.5-6.2c0-4.7,3.7-7.9,8.4-7.9
		c1.6,0,3.2,0.3,4.7,0.8c0.1,2.2,0.1,6.9,0.1,10.1c0,5.8-2,9.6-11,10L146.7,108.5z M153.8,101.9c0-1.7,0-4.4,0-6.6
		c-0.8-0.2-1.4-0.3-2.1-0.3c-1.6,0-2.6,1.1-2.6,3.3c0,2.7,1.3,3.9,2.9,3.9C152.6,102.2,153.2,102.1,153.8,101.9z"/>
	<path d="M161.9,107v-3.2h4.9v-8.7l-5-0.2l0.3-3h9v12h4.9l-0.4,3.2H161.9z M166.6,89.7l0.3-4.3h4.5l-0.3,4.3H166.6z"/>
	<path d="M190.1,95.2c-5.1-0.4-6.9-0.1-6.9,0.8c0,1.6,7.8,2.6,7.8,6.4c0,2.8-2.9,5.1-11.9,4.8l0.2-3.6c5.5,0.3,7.3,0,7.3-1
		c0-1.6-7.7-2.3-7.7-6.1c0-2.8,3-5.3,11.2-4.9L190.1,95.2z"/>
	<path d="M197.6,101.8V95h-3.1l0.4-3.2h2.7v-4l4.2-0.4v4.3h5.3V95h-5.3v6.1c0,2.1,1.4,2.6,5.6,2.6l-0.5,3.5
		C199.9,107.4,197.6,105.8,197.6,101.8z"/>
	<path d="M211,99.7c0-4.7,3.6-8.3,7.6-8.3c4.3,0,6.4,3.4,5.8,8.9l-9.1,0.2c0.5,2.5,2.7,3.2,8.8,3.3l-0.4,3.5
		C213.5,107.6,211,104.7,211,99.7z M215.2,98.1c1.4,0,3.6-0.1,5.1-0.2c-0.1-2-0.8-3.1-2.5-3.1C216.2,94.9,215.3,95.7,215.2,98.1z"/>
	<path d="M227.9,107v-3.2h3.4c0-3.6-0.1-6.4-0.1-8.7l-3.4-0.2l0.3-3h6.7l0.3,2.6c1.3-1.6,3.3-2.9,5.9-3.3l0.2,4.5
		c-2.2,0.1-4.1,0.5-5.9,1.1c0,1.9,0.1,4.1,0.1,7h4.1l-0.4,3.2H227.9z"/>
</g>
</svg>
