<?xml version="1.0" encoding="utf-8"?>
<!-- Generator: Adobe Illustrator 19.2.1, SVG Export Plug-In . SVG Version: 6.00 Build 0)  -->
<!DOCTYPE svg PUBLIC "-//W3C//DTD SVG 1.1//EN" "http://www.w3.org/Graphics/SVG/1.1/DTD/svg11.dtd">
<svg version="1.1" id="group-15" xmlns="http://www.w3.org/2000/svg" xmlns:xlink="http://www.w3.org/1999/xlink" x="0px" y="0px"
	 viewBox="0 0 271 191" style="enable-background:new 0 0 271 191;" xml:space="preserve">
<style type="text/css">
	.st0{fill:#020306;}
	.st1{enable-background:new    ;}
	.st2{fill:#FFFFFF;}
</style>
<rect id="rectangle-5" class="st0" width="271" height="191"/>
<g class="st1">
	<path class="st2" d="M106.8,115h-9.5v-14.3h-11V115h-9.5V80h9.5v13h11V80h9.5V115z"/>
	<path class="st2" d="M113.6,81.1c0-1.4,0.4-2.4,1.2-3.1c0.8-0.7,2-1,3.8-1c1.7,0,3,0.4,3.8,1.1c0.8,0.7,1.2,1.7,1.2,3.1
		c0,2.7-1.7,4.1-5,4.1C115.3,85.3,113.6,83.9,113.6,81.1z M123.2,115h-9.4V87.9h9.4V115z"/>
	<path class="st2" d="M143,115V80h9.5v27.3h13.5v7.6H143z"/>
	<path class="st2" d="M196.9,101.4c0,4.4-1.2,7.9-3.6,10.4c-2.4,2.5-5.7,3.7-10,3.7c-4.1,0-7.4-1.3-9.8-3.8c-2.4-2.5-3.6-6-3.6-10.3
		c0-4.4,1.2-7.9,3.6-10.3c2.4-2.4,5.7-3.7,10-3.7c2.7,0,5,0.6,7.1,1.7s3.6,2.8,4.7,4.9S196.9,98.6,196.9,101.4z M179.3,101.4
		c0,2.3,0.3,4.1,0.9,5.3c0.6,1.2,1.7,1.8,3.1,1.8c1.5,0,2.5-0.6,3.1-1.8c0.6-1.2,0.9-3,0.9-5.3c0-2.3-0.3-4.1-0.9-5.2
		c-0.6-1.2-1.6-1.8-3.1-1.8c-1.4,0-2.5,0.6-3.1,1.8C179.6,97.3,179.3,99.1,179.3,101.4z"/>
</g>
</svg>
