<svg id="group-11" xmlns="http://www.w3.org/2000/svg" viewBox="-860 -805 271 191">
  <defs>
    <style>
      .cls-1 {
        fill: #fcfaf7;
      }

      .cls-2 {
        fill: #545351;
      }
    </style>
  </defs>
  <rect id="rectangle-5" class="cls-1" width="271" height="191" transform="translate(-860 -805)"/>
  <g id="group-10" transform="translate(-824 -758)">
    <g id="group">
      <rect id="rectangle" class="cls-2" width="76.353" height="76.353" transform="translate(10.099 10.215)"/>
      <g id="group-2" data-name="group">
        <path id="path" class="cls-2" d="M3.5,23.175H0V0H23.175V3.5H3.5Z"/>
      </g>
      <g id="group-3" data-name="group" transform="translate(73.668 73.26)">
        <path id="path-2" data-name="path" class="cls-2" d="M149.316,148.616H126.2v-3.5h19.614V125.5h3.5Z" transform="translate(-126.2 -125.5)"/>
      </g>
    </g>
    <g id="group-4" data-name="group" transform="translate(106.241 23.058)">
      <g id="group-5" data-name="group">
        <path id="path-3" data-name="path" class="cls-2" d="M182,57.712,184.452,40.2h3.678l-2.452,17.512Z" transform="translate(-182 -39.791)"/>
        <path id="path-4" data-name="path" class="cls-2" d="M204.748,57.712l-3.619-14.418a50.686,50.686,0,0,1-.467,7.764l-.992,6.655H196.4L198.852,40.2h4.612L207.2,54.618a35.1,35.1,0,0,1,.292-6.888l1.051-7.53h3.269l-2.452,17.512Z" transform="translate(-187.994 -39.791)"/>
        <path id="path-5" data-name="path" class="cls-2" d="M239.077,41.718,237.034,43.7a4.759,4.759,0,0,0-3.561-1.459c-1.634,0-2.86.817-2.86,2.16,0,1.109.7,1.576,3.035,2.393,2.685.876,4.495,2.16,4.495,4.962,0,2.568-1.751,6.071-7.355,6.071a8.136,8.136,0,0,1-6.188-2.51l2.16-2.1a5.286,5.286,0,0,0,4.028,1.751c1.985,0,3.444-.934,3.444-2.627,0-1.226-.7-1.926-2.86-2.685-3.211-.992-4.611-2.452-4.611-4.845,0-2.452,1.926-5.312,6.655-5.312A7.506,7.506,0,0,1,239.077,41.718Z" transform="translate(-199.733 -39.5)"/>
        <path id="path-6" data-name="path" class="cls-2" d="M261.131,43.119l-2.043,14.594H255.41l2.043-14.594H252.9l.408-2.919h13.018l-.817,2.919Z" transform="translate(-211.513 -39.791)"/>
        <path id="path-7" data-name="path" class="cls-2" d="M275.812,53.8l-1.518,3.911H270.5L278.264,40.2h4.495l2.86,17.512h-3.853l-.409-3.911Zm4.261-11.033L276.921,51h4.086Z" transform="translate(-218.839 -39.791)"/>
      </g>
      <g id="group-6" data-name="group" transform="translate(0.292 26.91)">
        <path id="path-8" data-name="path" class="cls-2" d="M197.269,87.86l-2.16,1.926a4.362,4.362,0,0,0-3.269-1.343c-4.261,0-5.546,5.079-5.546,8.99,0,2.744,1.109,3.794,3.152,3.794a5.154,5.154,0,0,0,2.627-.642l.642-4.261h-2.452V93.639h6.363l-1.168,8.581a11.843,11.843,0,0,1-6.3,1.81c-4.32,0-6.655-2.393-6.655-6.947,0-5.2,2.685-11.383,9.4-11.383A7.323,7.323,0,0,1,197.269,87.86Z" transform="translate(-182.5 -85.642)"/>
        <path id="path-9" data-name="path" class="cls-2" d="M222.057,100.935l-.759,2.977H211.2L213.652,86.4h3.678l-2.043,14.535Z" transform="translate(-194.446 -85.933)"/>
        <path id="path-10" data-name="path" class="cls-2" d="M236.512,100l-1.518,3.911H231.2L238.964,86.4h4.495l2.86,17.512h-3.853L242.058,100Zm4.261-11.033L237.621,97.2h4.086Z" transform="translate(-202.772 -85.933)"/>
        <path id="path-11" data-name="path" class="cls-2" d="M269.789,103.912l-3.619-14.418a50.727,50.727,0,0,1-.467,7.764l-.934,6.655H261.5L263.951,86.4h4.612l3.736,14.418a35.113,35.113,0,0,1,.292-6.888l1.051-7.53h3.269l-2.452,17.512Z" transform="translate(-215.384 -85.933)"/>
        <path id="path-12" data-name="path" class="cls-2" d="M306.093,87.7l-2.043,1.985a4.018,4.018,0,0,0-2.919-1.226c-3.97,0-5.137,5.079-5.137,8.348,0,2.977,1.284,4.2,3.269,4.2a6.475,6.475,0,0,0,3.678-1.518l1.459,2.277a8.568,8.568,0,0,1-5.546,2.16c-4.086,0-6.654-2.51-6.654-7.238,0-4.787,2.393-11.091,8.873-11.091A6.664,6.664,0,0,1,306.093,87.7Z" transform="translate(-228.164 -85.6)"/>
        <path id="path-13" data-name="path" class="cls-2" d="M323.579,89.085l-.642,4.553h5.429l-.35,2.685h-5.429l-.7,4.845h6.655l-.409,2.744H317.8L320.252,86.4h10.274l-.759,2.685Z" transform="translate(-238.82 -85.933)"/>
      </g>
    </g>
  </g>
</svg>
