<svg xmlns="http://www.w3.org/2000/svg" viewBox="-934 -177.537 385.859 54.537">
  <defs>
    <style>
      .cls-1 {
        fill: #545351;
      }

      .cls-2 {
        fill: none;
        stroke: #42413f;
        stroke-width: 5px;
      }
    </style>
  </defs>
  <g id="group-7" transform="translate(-979 -232)">
    <g id="group-2" transform="translate(45 54.463)">
      <path id="path" class="cls-1" d="M25.283,2.152V9.538c-3.528-1.915-6.615-3.009-9.261-3.009A8.022,8.022,0,0,0,9.7,9.128C8.085,10.769,7.35,13.095,7.35,15.967a8.995,8.995,0,0,0,2.5,6.566A9.214,9.214,0,0,0,16.61,25c2.5,0,5.439-.958,8.82-2.736v7.387a32.253,32.253,0,0,1-9.555,1.778A15.344,15.344,0,0,1,4.7,26.91,15.159,15.159,0,0,1,0,15.831,15.464,15.464,0,0,1,4.7,4.614,15.25,15.25,0,0,1,16.169.1,23.657,23.657,0,0,1,25.283,2.152Z" transform="translate(0 0.037)"/>
      <path id="path-2" data-name="path" class="cls-1" d="M20.8.4h7.056V12.164H39.468V.4h7.056V30.767H39.468V18.73H27.856V30.767H20.8Z" transform="translate(9.775 0.147)"/>
      <path id="path-3" data-name="path" class="cls-1" d="M42.8.4H53.531a11.647,11.647,0,0,1,7.791,2.462,8.073,8.073,0,0,1,2.793,6.429,10.229,10.229,0,0,1-1.323,4.788,9.179,9.179,0,0,1-4.851,3.967l9.114,12.721H58.969L50.591,19h-.735V30.767H42.8Zm7.056,5.335v7.934h1.47c3.675,0,5.439-1.368,5.439-4.24a3.125,3.125,0,0,0-1.47-2.736,6.728,6.728,0,0,0-3.969-.958h-1.47Z" transform="translate(20.114 0.147)"/>
      <path id="path-4" data-name="path" class="cls-1" d="M62.8.4h7.056V30.767H62.8Z" transform="translate(29.512 0.147)"/>
      <path id="path-5" data-name="path" class="cls-1" d="M90.979,3.213l-4.41,4.514c-2.352-1.231-3.969-1.915-5-1.915a3.012,3.012,0,0,0-2.058.821,2.613,2.613,0,0,0-.882,1.915c0,1.5,1.47,2.736,4.41,3.83A24.52,24.52,0,0,1,87.892,14.7a9.135,9.135,0,0,1,2.793,2.873,7.812,7.812,0,0,1,1.176,3.967,8.928,8.928,0,0,1-3.381,6.839A12.076,12.076,0,0,1,80.4,31.254c-3.381,0-6.762-1.5-10-4.377l4.557-5.061c2.058,2.052,3.969,3.009,5.88,3.009a4.056,4.056,0,0,0,2.5-1.094,3.01,3.01,0,0,0,1.176-2.189c0-1.641-1.764-3.009-5.439-4.24a21.831,21.831,0,0,1-4.41-1.915,6.789,6.789,0,0,1-2.2-2.6,7.943,7.943,0,0,1-.882-3.556,8.165,8.165,0,0,1,2.793-6.566A10.968,10.968,0,0,1,81.718.2C85.54.067,88.627,1.024,90.979,3.213Z" transform="translate(33.084 0.07)"/>
      <path id="path-6" data-name="path" class="cls-1" d="M88.6.4h6.909V24.2h9.555v6.566H88.6Z" transform="translate(41.637 0.147)"/>
      <path id="path-7" data-name="path" class="cls-1" d="M103,.4h7.056V30.767H103Z" transform="translate(48.404 0.147)"/>
      <path id="path-8" data-name="path" class="cls-1" d="M133.9.4h6.909V30.767H133.9l-14.846-19.7v19.7H112V.4h6.909L133.9,19.961Z" transform="translate(52.633 0.147)"/>
      <path id="path-9" data-name="path" class="cls-1" d="M136,.4h11.172c4.7,0,8.526,1.368,11.466,4.24q4.41,4.1,4.41,11.08c0,4.514-1.47,8.207-4.557,10.943q-4.41,4.1-11.907,4.1H136Zm7.056,5.745v18.74h2.793A10.478,10.478,0,0,0,152.9,22.7c1.911-1.5,2.793-3.967,2.793-7.387a10.719,10.719,0,0,0-1.323-5.335,7,7,0,0,0-3.822-3.146,16.487,16.487,0,0,0-4.851-.821h-2.646Z" transform="translate(63.912 0.147)"/>
      <path id="path-10" data-name="path" class="cls-1" d="M157.3,15.657a14.145,14.145,0,0,1,4.851-11.08A16.4,16.4,0,0,1,173.469.2a17.451,17.451,0,0,1,12.053,4.377,14.216,14.216,0,0,1,4.7,11.08,14.515,14.515,0,0,1-4.7,11.08,17.985,17.985,0,0,1-23.519,0A14.023,14.023,0,0,1,157.3,15.657Zm16.463-9.438a8.45,8.45,0,0,0-6.615,2.6,10.011,10.011,0,0,0-2.5,6.976,9.559,9.559,0,0,0,2.5,6.7,8.338,8.338,0,0,0,6.468,2.6,8.449,8.449,0,0,0,6.614-2.6,10.011,10.011,0,0,0,2.5-6.976,9.665,9.665,0,0,0-2.5-6.839A8.745,8.745,0,0,0,173.763,6.219Z" transform="translate(73.922 0.074)"/>
      <path id="path-11" data-name="path" class="cls-1" d="M183.6.4h10.73a11.647,11.647,0,0,1,7.791,2.462,8.073,8.073,0,0,1,2.793,6.429,10.229,10.229,0,0,1-1.323,4.788,9.178,9.178,0,0,1-4.851,3.967l9.114,12.721h-8.085L191.39,19h-.735V30.767H183.6Zm7.056,5.335v7.934h1.47c3.675,0,5.439-1.368,5.439-4.24a3.125,3.125,0,0,0-1.47-2.736,6.728,6.728,0,0,0-3.969-.958Z" transform="translate(86.281 0.147)"/>
      <path id="path-12" data-name="path" class="cls-1" d="M203.3,21.093a3.613,3.613,0,0,1,1.176-2.6,4.111,4.111,0,0,1,5.586,0,3.46,3.46,0,0,1,0,5.2,4.111,4.111,0,0,1-5.586,0A3.39,3.39,0,0,1,203.3,21.093Z" transform="translate(95.539 6.401)"/>
      <path id="path-13" data-name="path" class="cls-1" d="M227.375,0h6.468V30.914h-6.321v-3.42h-.147a8.382,8.382,0,0,1-6.908,3.693,7.936,7.936,0,0,1-6.321-3.009,10.6,10.6,0,0,1-2.646-7.25,10.952,10.952,0,0,1,2.646-7.387,8.219,8.219,0,0,1,6.468-3.009,8.369,8.369,0,0,1,3.528.684,10.945,10.945,0,0,1,2.94,2.325V0Zm-4.7,16.415a3.929,3.929,0,0,0-2.94,1.368,5.015,5.015,0,0,0-1.323,3.693,4.672,4.672,0,0,0,1.176,3.146,3.824,3.824,0,0,0,2.94,1.231,4.408,4.408,0,0,0,3.381-1.368,4.8,4.8,0,0,0,1.323-3.42,4.4,4.4,0,0,0-1.323-3.146A4.221,4.221,0,0,0,222.671,16.415Z" transform="translate(99.393)"/>
      <path id="path-14" data-name="path" class="cls-1" d="M251.455,19.427H236.168a5.664,5.664,0,0,0,1.323,3.146,4.052,4.052,0,0,0,2.94,1.231,5.149,5.149,0,0,0,4.557-2.462l5.88,1.778q-3.307,5.335-10.142,5.335a11.311,11.311,0,0,1-8.085-2.873,9.931,9.931,0,0,1-2.94-7.66,9.547,9.547,0,0,1,3.087-7.25A11.071,11.071,0,0,1,240.577,7.8a10.377,10.377,0,0,1,7.644,3.146,10.455,10.455,0,0,1,3.087,7.66v.821Zm-15.14-3.967h8.525c-.588-2.462-1.911-3.693-4.116-3.693a4.841,4.841,0,0,0-3.087.958A5.446,5.446,0,0,0,236.315,15.46Z" transform="translate(107.945 2.869)"/>
      <path id="path-15" data-name="path" class="cls-1" d="M245.4,8h6.762l5.88,11.627L263.922,8h6.614l-10,19.834H255.4Z" transform="translate(115.323 2.943)"/>
    </g>
    <line id="line-1" class="cls-2" x2="385" transform="translate(45.5 106.5)"/>
  </g>
</svg>
