<?xml version="1.0" encoding="utf-8"?>
<!-- Generator: Adobe Illustrator 19.2.1, SVG Export Plug-In . SVG Version: 6.00 Build 0)  -->
<!DOCTYPE svg PUBLIC "-//W3C//DTD SVG 1.1//EN" "http://www.w3.org/Graphics/SVG/1.1/DTD/svg11.dtd">
<svg version="1.1" id="group-14" xmlns="http://www.w3.org/2000/svg" xmlns:xlink="http://www.w3.org/1999/xlink" x="0px" y="0px"
	 viewBox="0 0 271 191" style="enable-background:new 0 0 271 191;" xml:space="preserve">
<style type="text/css">
	.st0{fill:#FF4230;}
	.st1{enable-background:new    ;}
	.st2{fill:#FFFFFF;}
</style>
<rect id="rectangle-5" class="st0" width="271" height="191"/>
<g class="st1">
	<path class="st2" d="M48.1,88.3c0-1.5,0.4-3,1.2-4.4c0.8-1.4,1.9-2.4,3.2-3.3c1.4-0.8,2.8-1.2,4.4-1.2s3.1,0.4,4.4,1.2
		c1.4,0.8,2.4,1.9,3.2,3.2c0.8,1.4,1.2,2.8,1.2,4.4c0,1.5-0.4,3-1.2,4.3c-0.8,1.3-1.8,2.4-3.2,3.2c-1.4,0.8-2.9,1.2-4.5,1.2
		c-1.6,0-3.1-0.4-4.4-1.2c-1.4-0.8-2.4-1.8-3.2-3.2C48.5,91.4,48.1,89.9,48.1,88.3z M53.8,88.3c0,0.8,0.3,1.5,0.9,2.1
		c0.6,0.6,1.4,0.9,2.2,0.9s1.6-0.3,2.2-0.9c0.6-0.6,0.9-1.3,0.9-2.1c0-0.8-0.3-1.6-0.9-2.2c-0.6-0.6-1.3-1-2.2-1
		c-0.9,0-1.6,0.3-2.2,1C54.1,86.8,53.8,87.5,53.8,88.3z"/>
	<path class="st2" d="M86.6,87.3c-2.2,0-4,0.9-5.3,2.8c-1.3,1.8-1.9,4.4-1.9,7.6c0,6.7,2.6,10.1,7.7,10.1c1.5,0,3-0.2,4.5-0.6
		c1.5-0.4,2.9-0.9,4.4-1.6v8c-2.9,1.3-6.2,1.9-9.9,1.9c-5.3,0-9.3-1.5-12.1-4.6c-2.8-3.1-4.2-7.5-4.2-13.3c0-3.6,0.7-6.8,2-9.5
		c1.4-2.7,3.3-4.9,5.9-6.3c2.6-1.5,5.6-2.2,9-2.2c3.8,0,7.4,0.8,10.8,2.5l-2.9,7.4c-1.3-0.6-2.6-1.1-3.9-1.5
		C89.5,87.5,88.1,87.3,86.6,87.3z"/>
	<path class="st2" d="M128.3,108.1c1.3,0,2.8-0.3,4.5-0.9v6.8c-1.3,0.5-2.5,0.9-3.6,1.2c-1.1,0.2-2.5,0.3-4,0.3
		c-3.1,0-5.4-0.8-6.8-2.3s-2.1-3.9-2.1-7.1V94.9h-3.3v-3.8l4.2-2.9l2.4-5.7h6.1v5.4h6.7v7h-6.7v10.6
		C125.8,107.2,126.6,108.1,128.3,108.1z"/>
	<path class="st2" d="M163.5,101.4c0,4.4-1.2,7.9-3.6,10.4c-2.4,2.5-5.7,3.7-10,3.7c-4.1,0-7.4-1.3-9.8-3.8c-2.4-2.5-3.6-6-3.6-10.3
		c0-4.4,1.2-7.9,3.6-10.3c2.4-2.4,5.7-3.7,10-3.7c2.7,0,5,0.6,7.1,1.7s3.6,2.8,4.7,4.9S163.5,98.6,163.5,101.4z M145.9,101.4
		c0,2.3,0.3,4.1,0.9,5.3c0.6,1.2,1.7,1.8,3.1,1.8c1.5,0,2.5-0.6,3.1-1.8c0.6-1.2,0.9-3,0.9-5.3c0-2.3-0.3-4.1-0.9-5.2
		c-0.6-1.2-1.6-1.8-3.1-1.8c-1.4,0-2.5,0.6-3.1,1.8C146.2,97.3,145.9,99.1,145.9,101.4z"/>
	<path class="st2" d="M179.8,88.3c0-1.5,0.4-3,1.2-4.4c0.8-1.4,1.9-2.4,3.2-3.3s2.8-1.2,4.4-1.2s3.1,0.4,4.4,1.2s2.4,1.9,3.2,3.2
		c0.8,1.4,1.2,2.8,1.2,4.4c0,1.5-0.4,3-1.2,4.3s-1.8,2.4-3.2,3.2c-1.4,0.8-2.9,1.2-4.5,1.2c-1.6,0-3.1-0.4-4.4-1.2
		c-1.4-0.8-2.4-1.8-3.2-3.2C180.2,91.4,179.8,89.9,179.8,88.3z M185.5,88.3c0,0.8,0.3,1.5,0.9,2.1c0.6,0.6,1.4,0.9,2.2,0.9
		s1.6-0.3,2.2-0.9s0.9-1.3,0.9-2.1c0-0.8-0.3-1.6-0.9-2.2c-0.6-0.6-1.3-1-2.2-1c-0.9,0-1.6,0.3-2.2,1
		C185.8,86.8,185.5,87.5,185.5,88.3z"/>
	<path class="st2" d="M212.1,115h-9.3V80h20.7v7.6h-11.4v6.7h10.5v7.6h-10.5V115z"/>
</g>
</svg>
