<?xml version="1.0" encoding="utf-8"?>
<!-- Generator: Adobe Illustrator 19.2.1, SVG Export Plug-In . SVG Version: 6.00 Build 0)  -->
<!DOCTYPE svg PUBLIC "-//W3C//DTD SVG 1.1//EN" "http://www.w3.org/Graphics/SVG/1.1/DTD/svg11.dtd">
<svg version="1.1" id="group-13" xmlns="http://www.w3.org/2000/svg" xmlns:xlink="http://www.w3.org/1999/xlink" x="0px" y="0px"
	 viewBox="0 0 271 191" style="enable-background:new 0 0 271 191;" xml:space="preserve">
<style type="text/css">
	.st0{fill:#00CCD8;}
	.st1{enable-background:new    ;}
	.st2{fill:#FFFFFF;}
</style>
<rect id="rectangle-5" class="st0" width="271" height="191"/>
<g class="st1">
	<path class="st2" d="M86.7,109.2c1.4,0,3.1-0.3,5.1-1v7.7c-1.4,0.6-2.8,1-4,1.3c-1.3,0.3-2.8,0.4-4.5,0.4c-3.5,0-6.1-0.9-7.6-2.6
		c-1.6-1.7-2.3-4.4-2.3-8V94.4h-3.7v-4.3l4.7-3.3l2.7-6.4h6.9v6.1h7.5v7.9h-7.5v11.8C83.8,108.3,84.8,109.2,86.7,109.2z"/>
	<path class="st2" d="M126.1,101.7c0,5-1.3,8.9-4,11.6c-2.7,2.8-6.4,4.2-11.2,4.2c-4.6,0-8.3-1.4-11-4.3c-2.7-2.8-4.1-6.7-4.1-11.5
		c0-5,1.3-8.8,4-11.6c2.7-2.7,6.4-4.1,11.3-4.1c3,0,5.6,0.6,7.9,1.9c2.3,1.3,4.1,3.1,5.3,5.5C125.5,95.8,126.1,98.6,126.1,101.7z
		 M106.4,101.7c0,2.6,0.3,4.6,1,6c0.7,1.4,1.9,2.1,3.5,2.1c1.6,0,2.8-0.7,3.5-2.1c0.7-1.4,1-3.4,1-6c0-2.6-0.3-4.6-1-5.9
		c-0.7-1.3-1.8-2-3.5-2c-1.6,0-2.8,0.7-3.5,2C106.7,97.1,106.4,99.1,106.4,101.7z"/>
	<path class="st2" d="M166,96.5c0,6.6-1.8,11.6-5.4,15.1c-3.6,3.5-8.7,5.3-15.2,5.3h-12.7V77.7h13.6c6.3,0,11.2,1.6,14.6,4.8
		C164.3,85.8,166,90.4,166,96.5z M155,96.9c0-3.6-0.7-6.3-2.1-8c-1.4-1.7-3.6-2.6-6.5-2.6h-3.1v22h2.4c3.2,0,5.6-0.9,7.1-2.8
		C154.3,103.6,155,100.8,155,96.9z"/>
	<path class="st2" d="M201.5,101.7c0,5-1.3,8.9-4,11.6s-6.4,4.2-11.2,4.2c-4.6,0-8.3-1.4-11-4.3c-2.7-2.8-4.1-6.7-4.1-11.5
		c0-5,1.3-8.8,4-11.6s6.4-4.1,11.3-4.1c3,0,5.6,0.6,7.9,1.9c2.3,1.3,4.1,3.1,5.3,5.5C200.9,95.8,201.5,98.6,201.5,101.7z
		 M181.8,101.7c0,2.6,0.3,4.6,1,6c0.7,1.4,1.9,2.1,3.5,2.1c1.6,0,2.8-0.7,3.5-2.1c0.7-1.4,1-3.4,1-6c0-2.6-0.3-4.6-1-5.9
		s-1.8-2-3.5-2c-1.6,0-2.8,0.7-3.5,2C182.2,97.1,181.8,99.1,181.8,101.7z"/>
</g>
</svg>
