<?xml version="1.0" encoding="utf-8"?>
<!-- Generator: Adobe Illustrator 20.1.0, SVG Export Plug-In . SVG Version: 6.00 Build 0)  -->
<!DOCTYPE svg PUBLIC "-//W3C//DTD SVG 1.1//EN" "http://www.w3.org/Graphics/SVG/1.1/DTD/svg11.dtd">
<svg version="1.1" id="Layer_1" xmlns="http://www.w3.org/2000/svg" xmlns:xlink="http://www.w3.org/1999/xlink" x="0px" y="0px"
	 viewBox="0 0 792 612" style="enable-background:new 0 0 792 612;" xml:space="preserve">
<style type="text/css">
	.st0{enable-background:new    ;}
	.st1{fill:#0056A5;}
	.st2{fill:none;stroke:#0056A5;stroke-width:7;stroke-miterlimit:10;}
	.st3{fill:#94C5EA;}
	.st4{fill:#9C979B;}
	.st5{fill:#9E989C;}
	.st6{fill:#9E989D;}
	.st7{fill:#9D979C;}
	.st8{fill:#9D979B;}
	.st9{fill:#F4F3F4;}
	.st10{fill:#E2E0E7;}
	.st11{fill:#F1EFEF;}
	.st12{fill:#DDDBE2;}
	.st13{opacity:0.5;}
	.st14{clip-path:url(#SVGID_2_);}
	.st15{fill:#B0D0E8;}
	.st16{fill:#C1C1C0;}
	.st17{fill:#FFFFFF;}
	.st18{fill:#F9F9FA;}
	.st19{opacity:0.64;}
	.st20{clip-path:url(#SVGID_4_);}
	.st21{fill:#5F8DC9;}
	.st22{fill:none;}
</style>
<g>
	<g>
		<g class="st0">
			<path class="st1" d="M330.7,275.5l-10.4,9.6l-5.5-6.5l16.7-13.9h8.5v55.2h-9.4V275.5z"/>
		</g>
		<g class="st0">
			<path class="st1" d="M345,292.3c0-4.4,0.4-8.1,1.1-11.2c0.7-3.1,1.6-5.7,2.8-7.8c1.1-2.1,2.4-3.8,3.9-5.1
				c1.4-1.3,2.9-2.2,4.4-2.9c1.5-0.6,2.9-1.1,4.3-1.3c1.4-0.2,2.6-0.3,3.6-0.3c1,0,2.2,0.1,3.6,0.3c1.4,0.2,2.8,0.6,4.3,1.3
				c1.5,0.7,2.9,1.6,4.4,2.9c1.4,1.3,2.7,3,3.9,5.1c1.1,2.1,2.1,4.7,2.8,7.8c0.7,3.1,1.1,6.8,1.1,11.2s-0.4,8.1-1.1,11.2
				c-0.7,3.1-1.6,5.7-2.8,7.8c-1.1,2.1-2.4,3.8-3.9,5.1c-1.4,1.3-2.9,2.2-4.4,2.9c-1.5,0.7-2.9,1.1-4.3,1.3
				c-1.4,0.2-2.6,0.3-3.6,0.3c-1,0-2.2-0.1-3.6-0.3c-1.4-0.2-2.8-0.6-4.3-1.3c-1.5-0.6-2.9-1.6-4.4-2.9c-1.4-1.3-2.7-3-3.9-5.1
				c-1.1-2.1-2.1-4.7-2.8-7.8C345.4,300.4,345,296.7,345,292.3z M354.4,292.3c0,1.7,0.1,3.7,0.4,6c0.2,2.3,0.7,4.4,1.4,6.4
				c0.7,2,1.8,3.7,3.2,5.1c1.4,1.4,3.3,2.1,5.6,2.1c2.3,0,4.2-0.7,5.6-2.1c1.4-1.4,2.5-3.1,3.2-5.1c0.7-2,1.2-4.2,1.4-6.4
				c0.2-2.3,0.4-4.2,0.4-6c0-1.7-0.1-3.7-0.4-6c-0.2-2.3-0.7-4.4-1.4-6.4c-0.7-2-1.8-3.7-3.2-5.1s-3.3-2.1-5.6-2.1
				c-2.3,0-4.2,0.7-5.6,2.1s-2.5,3.1-3.2,5.1c-0.7,2-1.2,4.2-1.4,6.4C354.5,288.6,354.4,290.6,354.4,292.3z"/>
			<path class="st1" d="M388.2,292.3c0-4.4,0.4-8.1,1.1-11.2c0.7-3.1,1.6-5.7,2.8-7.8c1.1-2.1,2.4-3.8,3.9-5.1
				c1.4-1.3,2.9-2.2,4.4-2.9c1.5-0.6,2.9-1.1,4.3-1.3c1.4-0.2,2.6-0.3,3.6-0.3s2.2,0.1,3.6,0.3c1.4,0.2,2.8,0.6,4.3,1.3
				c1.5,0.7,2.9,1.6,4.4,2.9c1.4,1.3,2.7,3,3.9,5.1c1.1,2.1,2.1,4.7,2.8,7.8c0.7,3.1,1.1,6.8,1.1,11.2s-0.4,8.1-1.1,11.2
				c-0.7,3.1-1.6,5.7-2.8,7.8c-1.1,2.1-2.4,3.8-3.9,5.1c-1.4,1.3-2.9,2.2-4.4,2.9c-1.5,0.7-2.9,1.1-4.3,1.3
				c-1.4,0.2-2.6,0.3-3.6,0.3s-2.2-0.1-3.6-0.3c-1.4-0.2-2.8-0.6-4.3-1.3c-1.5-0.6-2.9-1.6-4.4-2.9c-1.4-1.3-2.7-3-3.9-5.1
				c-1.1-2.1-2.1-4.7-2.8-7.8C388.5,300.4,388.2,296.7,388.2,292.3z M397.5,292.3c0,1.7,0.1,3.7,0.4,6c0.2,2.3,0.7,4.4,1.4,6.4
				c0.7,2,1.8,3.7,3.2,5.1c1.4,1.4,3.3,2.1,5.6,2.1c2.3,0,4.2-0.7,5.6-2.1c1.4-1.4,2.5-3.1,3.2-5.1s1.2-4.2,1.4-6.4
				c0.2-2.3,0.4-4.2,0.4-6c0-1.7-0.1-3.7-0.4-6c-0.2-2.3-0.7-4.4-1.4-6.4s-1.8-3.7-3.2-5.1c-1.4-1.4-3.3-2.1-5.6-2.1
				c-2.3,0-4.2,0.7-5.6,2.1c-1.4,1.4-2.5,3.1-3.2,5.1c-0.7,2-1.2,4.2-1.4,6.4C397.7,288.6,397.5,290.6,397.5,292.3z"/>
			<path class="st1" d="M434.4,264.7h9.8v23.4h0.5l22.8-23.4h13.2L455,290.2l27.5,29.7h-13.8l-23.9-27.1h-0.5v27.1h-9.8V264.7z"/>
		</g>
	</g>
	<g class="st0">
		<path class="st1" d="M314.9,327.3h7.7c1.3,0,2.5,0.2,3.7,0.6c1.2,0.4,2.2,1,3.2,1.8c0.9,0.8,1.6,1.8,2.2,3
			c0.5,1.2,0.8,2.6,0.8,4.3c0,1.7-0.3,3.1-0.9,4.3c-0.6,1.2-1.4,2.2-2.4,3c-1,0.8-2.1,1.4-3.3,1.8c-1.2,0.4-2.4,0.6-3.6,0.6h-7.2
			V327.3z M320.9,343.6c1.1,0,2.1-0.1,3.1-0.4c1-0.2,1.8-0.6,2.5-1.2c0.7-0.5,1.3-1.2,1.7-2c0.4-0.8,0.6-1.8,0.6-3
			c0-1.2-0.2-2.2-0.5-3c-0.4-0.8-0.9-1.5-1.5-2c-0.6-0.5-1.4-0.9-2.3-1.2c-0.9-0.2-1.9-0.4-2.9-0.4h-3.2v13.2H320.9z"/>
		<path class="st1" d="M334.7,337.1c0-1.6,0.3-3,0.8-4.2c0.5-1.3,1.2-2.4,2.1-3.3c0.9-0.9,2-1.6,3.2-2.1c1.3-0.5,2.6-0.7,4.1-0.7
			c1.5,0,2.9,0.2,4.2,0.7c1.3,0.5,2.4,1.1,3.3,2c0.9,0.9,1.6,2,2.1,3.2c0.5,1.3,0.8,2.7,0.8,4.2c0,1.5-0.3,2.9-0.8,4.1
			c-0.5,1.2-1.2,2.3-2.1,3.2c-0.9,0.9-2,1.6-3.3,2.1c-1.3,0.5-2.7,0.8-4.2,0.8c-1.5,0-2.9-0.2-4.1-0.7s-2.3-1.2-3.2-2.1
			c-0.9-0.9-1.6-2-2.1-3.2C334.9,340,334.7,338.7,334.7,337.1z M338.3,336.9c0,1,0.2,2,0.5,2.9c0.3,0.9,0.8,1.6,1.4,2.3
			c0.6,0.6,1.3,1.1,2.1,1.5c0.8,0.4,1.7,0.5,2.7,0.5s1.9-0.2,2.7-0.5c0.8-0.4,1.5-0.9,2.1-1.5c0.6-0.6,1-1.4,1.4-2.3
			c0.3-0.9,0.5-1.8,0.5-2.9c0-1-0.2-1.9-0.5-2.7c-0.3-0.8-0.8-1.6-1.4-2.2c-0.6-0.6-1.3-1.1-2.1-1.5c-0.8-0.4-1.7-0.5-2.7-0.5
			s-1.9,0.2-2.7,0.5c-0.8,0.4-1.5,0.9-2.1,1.5c-0.6,0.6-1,1.4-1.4,2.2C338.4,335,338.3,335.9,338.3,336.9z"/>
		<path class="st1" d="M358.5,327.3h4.6l9.4,14.4h0.1v-14.4h3.5v19.4h-4.4l-9.6-14.9H362v14.9h-3.5V327.3z"/>
		<path class="st1" d="M386.7,327.3h3l8.4,19.4h-4l-1.8-4.4h-8.4l-1.8,4.4h-3.9L386.7,327.3z M391,339.4l-3-7.9l-3,7.9H391z"/>
		<path class="st1" d="M401.6,330.5h-6v-3.1H411v3.1h-6v16.3h-3.5V330.5z"/>
		<path class="st1" d="M413.3,327.3h3.5v19.4h-3.5V327.3z"/>
		<path class="st1" d="M420,337.1c0-1.6,0.3-3,0.8-4.2c0.5-1.3,1.2-2.4,2.1-3.3c0.9-0.9,2-1.6,3.2-2.1c1.3-0.5,2.6-0.7,4.1-0.7
			c1.5,0,2.9,0.2,4.2,0.7c1.3,0.5,2.4,1.1,3.3,2c0.9,0.9,1.6,2,2.1,3.2c0.5,1.3,0.8,2.7,0.8,4.2c0,1.5-0.3,2.9-0.8,4.1
			s-1.2,2.3-2.1,3.2c-0.9,0.9-2,1.6-3.3,2.1c-1.3,0.5-2.7,0.8-4.2,0.8c-1.5,0-2.9-0.2-4.1-0.7c-1.3-0.5-2.3-1.2-3.2-2.1
			c-0.9-0.9-1.6-2-2.1-3.2C420.2,340,420,338.7,420,337.1z M423.6,336.9c0,1,0.2,2,0.5,2.9c0.3,0.9,0.8,1.6,1.4,2.3
			c0.6,0.6,1.3,1.1,2.1,1.5c0.8,0.4,1.7,0.5,2.7,0.5s1.9-0.2,2.7-0.5c0.8-0.4,1.5-0.9,2.1-1.5c0.6-0.6,1-1.4,1.4-2.3
			s0.5-1.8,0.5-2.9c0-1-0.2-1.9-0.5-2.7c-0.3-0.8-0.8-1.6-1.4-2.2c-0.6-0.6-1.3-1.1-2.1-1.5s-1.7-0.5-2.7-0.5s-1.9,0.2-2.7,0.5
			s-1.5,0.9-2.1,1.5s-1,1.4-1.4,2.2C423.8,335,423.6,335.9,423.6,336.9z"/>
		<path class="st1" d="M443.9,327.3h4.6l9.4,14.4h0.1v-14.4h3.5v19.4H457l-9.6-14.9h-0.1v14.9h-3.5V327.3z"/>
		<path class="st1" d="M475.2,331.5c-0.4-0.5-0.9-0.9-1.5-1.2c-0.6-0.2-1.3-0.4-1.9-0.4c-0.4,0-0.8,0-1.2,0.1s-0.7,0.2-1,0.4
			s-0.5,0.5-0.7,0.8c-0.2,0.3-0.3,0.7-0.3,1.1c0,0.7,0.2,1.2,0.7,1.5c0.5,0.3,1,0.6,1.7,0.9c0.7,0.3,1.4,0.5,2.2,0.7s1.5,0.6,2.2,1
			s1.2,1,1.7,1.7c0.5,0.7,0.7,1.6,0.7,2.8c0,1-0.2,2-0.6,2.7c-0.4,0.8-0.9,1.4-1.5,1.9c-0.6,0.5-1.4,0.9-2.3,1.2
			c-0.9,0.3-1.8,0.4-2.7,0.4c-1.2,0-2.4-0.2-3.5-0.6c-1.1-0.4-2.1-1.1-2.9-2l2.6-2.5c0.4,0.6,1,1.1,1.7,1.5s1.4,0.5,2.2,0.5
			c0.4,0,0.8-0.1,1.2-0.2s0.8-0.3,1.1-0.5c0.3-0.2,0.6-0.5,0.8-0.8c0.2-0.3,0.3-0.7,0.3-1.2c0-0.7-0.2-1.3-0.7-1.6
			c-0.5-0.4-1-0.7-1.7-1c-0.7-0.3-1.4-0.5-2.2-0.8s-1.5-0.6-2.2-1c-0.7-0.4-1.2-1-1.7-1.6s-0.7-1.6-0.7-2.8c0-1,0.2-1.9,0.6-2.6
			s1-1.3,1.6-1.8c0.7-0.5,1.4-0.8,2.3-1.1c0.9-0.2,1.7-0.4,2.6-0.4c1,0,2,0.2,3,0.5c1,0.3,1.8,0.8,2.6,1.5L475.2,331.5z"/>
	</g>
</g>
<g>
	<rect x="76.4" y="74.7" class="st1" width="4" height="10"/>
	<path class="st1" d="M82.4,66.6h3.8v-4h-3.8c-3.3,0-6,2.7-6,6l0,0h4C80.4,67.5,81.3,66.6,82.4,66.6z"/>
	<rect x="92.2" y="62.6" class="st1" width="10" height="4"/>
	<rect x="76.4" y="90.7" class="st1" width="4" height="10"/>
	<rect x="108.2" y="62.6" class="st1" width="10" height="4"/>
	<rect x="131.6" y="73.1" class="st1" width="4" height="10"/>
	<path class="st1" d="M129.6,107.3h-1.4h-2.3h-10.4h-5.7H107c0.5,1.2,0.8,2.6,0.8,4h1.9h5.7h10.4h2.3h1.4c3.3,0,6-2.7,6-6l0,0h-4
		C131.6,106.4,130.7,107.3,129.6,107.3z"/>
	<rect x="131.6" y="89.2" class="st1" width="4" height="10"/>
	<path class="st1" d="M131.4,67.9l3.7-1.5c-0.9-2.3-3.1-3.8-5.6-3.8h-5.3v4h5.3C130.4,66.6,131.1,67.1,131.4,67.9z"/>
	<path class="st1" d="M82.4,107.3c-0.8,0-1.5-0.5-1.9-1.3l-3.7,1.5c0.9,2.3,3.1,3.7,5.6,3.7h1.1h3c0-1.4,0.3-2.8,0.8-4h-3.9h-1
		V107.3z"/>
	<ellipse class="st1" cx="152.6" cy="111.3" rx="7.7" ry="7.4"/>
	<ellipse class="st1" cx="97.2" cy="111.3" rx="7.7" ry="7.4"/>
	<path class="st1" d="M169.5,96.8L157,76.3c-0.6-0.9-1.9-1.7-3-1.7h-13.4c-1.1,0-2,0.9-2,2v32.7c0,1.1,0.9,2,2,2h1.3
		c0-5.7,4.8-10.4,10.7-10.4s10.7,4.7,10.7,10.4h5.2c1.1,0,2-0.9,2-2v-8.8C170.5,99.5,170,97.8,169.5,96.8z M160.9,91.8L143.5,87
		c-0.5-0.1-1-0.7-1-1.3v-6.2c0-0.5,0.5-1,1-1h9.2c0.5,0,1.2,0.4,1.5,0.9l7.1,11.7C161.6,91.7,161.4,91.9,160.9,91.8z"/>
</g>
<path class="st2" d="M176.3,180.2H70.6c-9.7,0-17.6-7.9-17.6-17.6V57c0-9.7,7.9-17.6,17.6-17.6h105.7c9.7,0,17.6,7.9,17.6,17.6
	v105.7C193.8,172.3,186,180.2,176.3,180.2z"/>
<path class="st2" d="M492.4,376.4H305.7c-9.7,0-17.6-7.9-17.6-17.6V253.2c0-9.7,7.9-17.6,17.6-17.6h186.7c9.7,0,17.6,7.9,17.6,17.6
	v105.7C509.9,368.5,502,376.4,492.4,376.4z"/>
<g class="st0">
	<path class="st1" d="M80.5,145.7c-0.4-0.5-0.9-0.8-1.5-1.1s-1.3-0.3-1.8-0.3c-0.3,0-0.7,0-1.1,0.1c-0.4,0.1-0.7,0.2-1,0.4
		c-0.3,0.2-0.6,0.4-0.8,0.7c-0.2,0.3-0.3,0.6-0.3,1c0,0.6,0.2,1.1,0.7,1.5c0.5,0.3,1.1,0.6,1.8,0.9c0.7,0.2,1.5,0.5,2.4,0.7
		s1.6,0.6,2.4,1c0.7,0.4,1.3,1,1.8,1.8c0.5,0.7,0.7,1.7,0.7,3c0,1.2-0.2,2.2-0.7,3.1s-1,1.6-1.8,2.2c-0.8,0.6-1.6,1-2.6,1.3
		s-2,0.4-3.1,0.4c-1.4,0-2.7-0.2-3.8-0.6s-2.3-1.1-3.3-2l3.3-3.7c0.5,0.6,1.1,1.1,1.8,1.5c0.7,0.4,1.5,0.5,2.3,0.5
		c0.4,0,0.8,0,1.2-0.1c0.4-0.1,0.7-0.2,1.1-0.4c0.3-0.2,0.6-0.4,0.8-0.7c0.2-0.3,0.3-0.6,0.3-1c0-0.6-0.2-1.1-0.7-1.5
		c-0.5-0.4-1.1-0.7-1.8-0.9c-0.7-0.3-1.5-0.5-2.4-0.8c-0.9-0.3-1.7-0.6-2.4-1.1c-0.7-0.4-1.4-1-1.8-1.7c-0.5-0.7-0.7-1.7-0.7-2.9
		c0-1.1,0.2-2.1,0.7-3c0.5-0.9,1.1-1.6,1.8-2.2c0.8-0.6,1.6-1,2.6-1.3c1-0.3,2-0.4,3-0.4c1.2,0,2.4,0.2,3.5,0.5
		c1.1,0.3,2.1,0.9,3,1.7L80.5,145.7z"/>
	<path class="st1" d="M87.2,140.5h7.1l4.9,13.9h0.1l4.9-13.9h7.1v21.3h-4.7v-16.3h-0.1l-5.6,16.3h-3.6L92,145.5h-0.1v16.3h-4.7
		V140.5z"/>
	<path class="st1" d="M122.6,140.5h3.9l9.3,21.3h-5.3l-1.8-4.5h-8.3l-1.8,4.5h-5.2L122.6,140.5z M124.4,146.7l-2.6,6.6h5.2
		L124.4,146.7z"/>
	<path class="st1" d="M137.9,140.5h7c1.7,0,3.3,0.2,4.9,0.6c1.5,0.4,2.9,1,4,1.8c1.1,0.9,2,2,2.7,3.3c0.7,1.4,1,3,1,5
		c0,1.7-0.3,3.2-1,4.6s-1.5,2.4-2.6,3.3c-1.1,0.9-2.4,1.6-3.8,2s-3,0.7-4.5,0.7h-7.7V140.5z M142.6,157.5h2.4c1.1,0,2.1-0.1,3-0.3
		s1.7-0.6,2.4-1.1c0.7-0.5,1.2-1.2,1.6-2c0.4-0.8,0.6-1.8,0.6-3.1c0-1-0.2-1.9-0.6-2.7c-0.4-0.8-0.9-1.4-1.6-1.9
		c-0.7-0.5-1.4-0.9-2.3-1.1c-0.9-0.2-1.8-0.4-2.8-0.4h-2.8V157.5z"/>
	<path class="st1" d="M174.6,146c-0.5-0.6-1-1-1.7-1.3c-0.7-0.3-1.4-0.5-2.3-0.5c-0.9,0-1.7,0.2-2.5,0.5c-0.8,0.3-1.4,0.8-2,1.4
		s-1,1.3-1.3,2.2c-0.3,0.8-0.5,1.8-0.5,2.7c0,1,0.2,1.9,0.5,2.8c0.3,0.8,0.7,1.6,1.3,2.2c0.5,0.6,1.2,1.1,1.9,1.4
		c0.7,0.3,1.5,0.5,2.4,0.5c1,0,1.8-0.2,2.6-0.6c0.7-0.4,1.4-1,1.8-1.7l3.9,2.9c-0.9,1.3-2,2.2-3.4,2.8c-1.4,0.6-2.8,0.9-4.3,0.9
		c-1.7,0-3.2-0.3-4.6-0.8c-1.4-0.5-2.6-1.3-3.6-2.2c-1-1-1.8-2.1-2.4-3.5c-0.6-1.4-0.9-2.9-0.9-4.6c0-1.7,0.3-3.2,0.9-4.6
		c0.6-1.4,1.4-2.6,2.4-3.5s2.2-1.7,3.6-2.2c1.4-0.5,2.9-0.8,4.6-0.8c0.6,0,1.2,0.1,1.9,0.2c0.7,0.1,1.3,0.3,1.9,0.5
		c0.6,0.2,1.2,0.6,1.8,1c0.6,0.4,1.1,0.9,1.6,1.5L174.6,146z"/>
</g>
<g>
	<path class="st2" d="M452.4,169.3H346.7c-9.7,0-17.6-7.9-17.6-17.6V46.1c0-9.7,7.9-17.6,17.6-17.6h105.7c9.7,0,17.6,7.9,17.6,17.6
		v105.7C469.9,161.5,462,169.3,452.4,169.3z"/>
	<g class="st0">
		<path class="st1" d="M362.9,134.9c-0.4-0.5-0.9-0.8-1.5-1.1s-1.3-0.3-1.8-0.3c-0.3,0-0.7,0-1.1,0.1c-0.4,0.1-0.7,0.2-1,0.4
			c-0.3,0.2-0.6,0.4-0.8,0.7c-0.2,0.3-0.3,0.6-0.3,1c0,0.6,0.2,1.1,0.7,1.5c0.5,0.3,1.1,0.6,1.8,0.9c0.7,0.2,1.5,0.5,2.4,0.7
			s1.6,0.6,2.4,1c0.7,0.4,1.3,1,1.8,1.8c0.5,0.7,0.7,1.7,0.7,3c0,1.2-0.2,2.2-0.7,3.1s-1,1.6-1.8,2.2c-0.8,0.6-1.6,1-2.6,1.3
			s-2,0.4-3.1,0.4c-1.4,0-2.7-0.2-3.8-0.6s-2.3-1.1-3.3-2l3.3-3.7c0.5,0.6,1.1,1.1,1.8,1.5c0.7,0.4,1.5,0.5,2.3,0.5
			c0.4,0,0.8,0,1.2-0.1c0.4-0.1,0.7-0.2,1.1-0.4c0.3-0.2,0.6-0.4,0.8-0.7c0.2-0.3,0.3-0.6,0.3-1c0-0.6-0.2-1.1-0.7-1.5
			c-0.5-0.4-1.1-0.7-1.8-0.9c-0.7-0.3-1.5-0.5-2.4-0.8c-0.9-0.3-1.7-0.6-2.4-1.1c-0.7-0.4-1.4-1-1.8-1.7c-0.5-0.7-0.7-1.7-0.7-2.9
			c0-1.1,0.2-2.1,0.7-3c0.5-0.9,1.1-1.6,1.8-2.2c0.8-0.6,1.6-1,2.6-1.3c1-0.3,2-0.4,3-0.4c1.2,0,2.4,0.2,3.5,0.5
			c1.1,0.3,2.1,0.9,3,1.7L362.9,134.9z"/>
		<path class="st1" d="M369.7,129.6h7.1l4.9,13.9h0.1l4.9-13.9h7.1v21.3H389v-16.3H389l-5.6,16.3h-3.6l-5.4-16.3h-0.1v16.3h-4.7
			V129.6z"/>
		<path class="st1" d="M398.1,129.6h7.9c0.9,0,1.8,0.1,2.8,0.2c0.9,0.1,1.8,0.4,2.5,0.8c0.7,0.4,1.3,0.9,1.8,1.6
			c0.5,0.7,0.7,1.6,0.7,2.8c0,1.2-0.3,2.2-1,3c-0.7,0.8-1.6,1.4-2.7,1.7v0.1c0.7,0.1,1.3,0.3,1.9,0.6c0.6,0.3,1.1,0.7,1.5,1.1
			s0.7,1,0.9,1.6s0.3,1.2,0.3,1.9c0,1.1-0.2,2.1-0.7,2.8c-0.5,0.8-1.1,1.4-1.9,1.8c-0.8,0.5-1.6,0.8-2.6,1c-1,0.2-1.9,0.3-2.8,0.3
			h-8.7V129.6z M402.7,138.2h3.4c0.4,0,0.7,0,1.1-0.1c0.4-0.1,0.7-0.2,0.9-0.4c0.3-0.2,0.5-0.4,0.7-0.7c0.2-0.3,0.3-0.7,0.3-1.1
			c0-0.4-0.1-0.8-0.3-1.1c-0.2-0.3-0.4-0.5-0.7-0.7s-0.6-0.3-1-0.3s-0.8-0.1-1.1-0.1h-3.2V138.2z M402.7,147h4.2
			c0.4,0,0.7,0,1.1-0.1c0.4-0.1,0.7-0.2,1-0.4s0.5-0.5,0.7-0.8c0.2-0.3,0.3-0.7,0.3-1.2c0-0.5-0.1-0.9-0.4-1.2
			c-0.3-0.3-0.6-0.5-0.9-0.7c-0.4-0.2-0.8-0.3-1.2-0.3c-0.4-0.1-0.9-0.1-1.2-0.1h-3.5V147z"/>
		<path class="st1" d="M417.5,129.6h4.7v21.3h-4.7V129.6z"/>
		<path class="st1" d="M426.4,129.6h6.4l9,14.8h0.1v-14.8h4.7v21.3h-6.1l-9.3-15.2h-0.1v15.2h-4.7V129.6z"/>
	</g>
	<g>
		<path class="st1" d="M354.4,43c0.1,0,0.3,0,0.4,0c0,10.2,0,20.4,0,30.6c0,1.2,0.2,1.8,1.6,1.8c3.3-0.1,6.6-0.1,9.9,0
			c1.4,0,1.6-0.6,1.6-1.8c0-10.2,0-20.4,0-30.6c0.1,0,0.3,0,0.4,0c0,10.2,0,20.4,0,30.6c0,1.2,0.2,1.8,1.6,1.8
			c3.4-0.1,6.8-0.1,10.2,0c1.4,0,1.6-0.6,1.6-1.8c0-10.2,0-20.4,0-30.6c0.1,0,0.3,0,0.4,0c0,10.2,0,20.3,0,30.5
			c0,1.4,0.4,1.8,1.8,1.8c4-0.1,8,0,12,0c0,6.4,0.1,12.9,0.1,19.3c-2.9,1.5-5.9,2.9-9,4c-4,0-8,0-11.9-0.1
			c-1.4-8.6-9.2-13.6-16.8-12.3c-5.9,1-11.2,6.4-11.6,12.3c-1.5,0-3.5,0.5-4.4-0.3c-1.1-0.9-0.3-3-0.3-4.5c0-6.2,0-12.4,0-18.5
			c3.6,0,7.2,0,10.8,0c1.4,0,1.8-0.5,1.8-1.8C354.4,63.4,354.4,53.2,354.4,43z"/>
		<path class="st1" d="M395.8,75.3c-4,0-8,0-12,0c-1.4,0-1.8-0.4-1.8-1.8c0.1-10.2,0-20.3,0-30.5c3.3,0,6.7-0.1,10,0
			c2.2,0,3.7,1.6,3.7,3.7C395.9,56.2,395.8,65.8,395.8,75.3z"/>
		<path class="st1" d="M381.7,43c0,10.2,0,20.4,0,30.6c0,1.2-0.2,1.8-1.6,1.8c-3.4-0.1-6.8-0.1-10.2,0c-1.4,0-1.6-0.6-1.6-1.8
			c0-10.2,0-20.4,0-30.6C372.7,43,377.2,43,381.7,43z"/>
		<path class="st1" d="M367.8,43c0,10.2,0,20.4,0,30.6c0,1.2-0.2,1.8-1.6,1.8c-3.3-0.1-6.6-0.1-9.9,0c-1.4,0-1.6-0.6-1.6-1.8
			c0-10.2,0-20.4,0-30.6C359.2,43,363.5,43,367.8,43z"/>
		<path class="st1" d="M354.4,43c0,10.2,0,20.3,0,30.5c0,1.3-0.4,1.8-1.8,1.8c-3.6-0.1-7.2,0-10.8,0c0-9.5-0.1-19,0-28.6
			c0-2.2,1.6-3.7,3.7-3.7C348.5,42.9,351.5,43,354.4,43z"/>
		<path class="st3" d="M386.9,98.6c3.1-1.1,6.1-2.5,9-4c4.1-1.8,8.1-3.6,12.2-5.3c0.9-0.4,0.6-0.9,0.5-1.6c-0.4-1.8-1.5-3.3-1.3-5.3
			c0.5-0.1,1-0.1,1.5-0.2c0.5,1.4,1,2.8,1.4,4.3c0.3,1.1,0.7,1.4,1.9,0.9c8.2-3.8,16.4-7.6,24.7-11.1c1.9-0.8,0.7-2,0.9-3
			c0.5-0.1,1-0.3,1.5-0.4c1.8,3.6,2.8,7.6,4.3,11.3c0.4,1,0.5,2,1.2,2.9c0.1,0.8,0.3,1.5,0.8,2.1c-0.1,0.7,0.2,1.3,0.5,1.9
			c0.5,1.6,1.1,3.2,1.6,4.8c0.4,1.1,0.7,2.2,1.5,3.1c-0.4,0.5-0.9,0.9-0.9,1.6c-1.4-0.7-1.7-2.1-2.2-3.4c-0.7-1.6-1-3.4-2-4.9
			c0-0.7-0.2-1.3-0.6-1.9c-0.3-0.8-0.5-1.6-0.8-2.4c-0.6-1.6-0.8-4-1.9-4.5c-1.3-0.6-2.8,1.5-4.2,2.4c-6.1,4.2-12.2,8.5-18.2,12.7
			c-0.3-0.5-0.7-1.1-1-1.6c2.1-1.5,4.1-3,6.2-4.5c5.2-3.6,10.3-7.3,15.5-10.8c1.8-1.2,0.3-2.3,0-3.4c-0.4-1.4-1.3-0.3-1.9-0.1
			c-8.1,3.6-16.2,7.3-24.4,10.9c-1.4,0.6-1.6,1.3-1.1,2.6c0.5,1.1,0.7,2.4,1.1,3.6c-0.6,0.2-1.3,0.4-1.9,0.7
			c-0.4-1.4-0.8-2.8-1.1-4.2c-0.2-0.8-0.5-1.1-1.4-0.7c-4.2,2-8.4,3.9-12.7,5.8c-1.1,0.3-2.2,0.8-3.1,1.5c-0.9,0.2-1.7,0.5-2.7,1.2
			c6.2,0,12.1,0,18,0c0,0.7,0,1.3,0,2c-11.4,0-22.9,0-34.3,0.1c-1,0-2.1,0-3.1,0c-1.7,0-3.4-0.1-5.1-0.1c0-0.6,0-1.3,0-1.9
			c1.7,0,3.4-0.1,5.1-0.1c0.6,0,1.2,0,1.9,0.1c0.8,1.3,1.6,1.3,2.5,0c2.8,0,5.5,0,8.3,0C384.6,99.8,385.9,99.5,386.9,98.6z"/>
		<path class="st1" d="M446.1,91.1c-0.3-0.6-0.6-1.2-0.5-1.9c2.2-0.5,4.3-1.1,6.6-0.5c0.9,0.3,1.3-0.4,1.8-0.9
			c5.9,2.1,9.5,7.3,9.2,12.9c-0.3,6.4-4.3,11.1-10.5,12.5c-8.4,1.9-16.6-5.2-15.8-13.8c0.1-0.6,0.1-1.2,0.1-1.8c1.8-0.7,2-2.6,3-3.9
			c1-1.4,2.2-2.6,3.6-3.5c0.4,0.6,0.5,1.2,0.6,1.9c-4.3,3.3-5.5,8.3-3.2,12.9c2.2,4.3,7.3,6.5,11.8,5.1c5.6-1.7,8.6-7.5,6.8-12.9
			C457.6,91.7,451.9,89,446.1,91.1z"/>
		<path class="st1" d="M370.6,101.8c1,0,2.1,0,3.1,0c-1,7.2-6.5,12-13.5,11.8c-5.6-0.1-12.4-4.3-12.8-13.1c1.8,0.2,1.3-1.3,1.5-2.2
			c1-5.8,6.5-10.3,12.2-10c6.4,0.4,11.2,5.2,11.5,11.3c-0.6,0-1.2,0-1.9-0.1c0-0.4-0.1-0.7-0.1-1.1c-1.3-5-5.4-8.5-10.1-8.3
			c-4.8,0.1-8.8,3.6-9.6,8.2c-0.3,0.3-0.3,0.7-0.4,1.1c-0.5,5.5,3.6,10.2,9.2,10.9C365,111.1,369.9,107.2,370.6,101.8z"/>
		<path class="st4" d="M372.5,99.8c-0.3-6.1-5.2-10.9-11.5-11.3c-5.6-0.4-11.1,4.2-12.2,10c-0.1,0.8,0.4,2.4-1.5,2.2
			c-1.5-0.1-0.8-1.2-0.9-2c0.4-5.8,5.7-11.3,11.6-12.3c7.6-1.3,15.5,3.7,16.8,12.3c0,0.4,0,0.8,0,1.2
			C374.2,101.1,373.4,101,372.5,99.8z"/>
		<path class="st1" d="M417.5,97c0.3,0.5,0.7,1.1,1,1.6c1.5,4.6-1.8,8.4-6.4,7.5c-0.1-0.8,0.5-1.3,0.8-2c2.8,0,4-1.3,3.8-4
			c-0.2-0.8-0.6-1.4-1.3-1.8c-0.2-0.4-0.7-0.4-1.1-0.6c-0.9-0.4-1.7,0-2.4,0.5c-0.8,0.2-1.2,0.8-1.3,1.6c-0.4,0.7-0.5,1.3,0,2
			c-0.1,0.7,0.5,1,0.8,1.5c-0.2,0.7-0.2,1.6-1.3,1.7c-1.1-0.8-1.5-2.1-2-3.2c0-0.7,0-1.3,0-2c0.6-1.5,1.4-2.9,2.9-3.7
			c0.6-0.2,1.3-0.4,1.9-0.7c0.6,0,1.2,0.1,1.8,0.1c0.7,0.3,1.4,0.7,2.1,1C417,96.7,417.3,96.8,417.5,97z"/>
		<path class="st5" d="M439.2,73c-0.5,0.1-1,0.3-1.5,0.4c-0.7-1.9-1.4-3.8-2.1-5.7c-0.5-1.2-0.1-1.7,1.1-1.9
			c1.2-0.2,2.3-0.6,3.4-0.8c1.3-0.2,1.3-0.9,0.7-1.8c-0.9-1.6-2.3-2.5-4.1-2.5c-1.6,0-3.1,0-4.7,0c-0.5,0-1.1,0-1.1-0.8
			s0.6-0.8,1.1-0.8c1.8,0,3.7-0.1,5.5,0.1c2.8,0.2,5.2,2.8,5.6,5.6c0.1,0.9-0.3,1.3-1.1,1.5c-1.6,0.4-3.9,0.2-4.4,1.4
			c-0.5,1.2,0.8,3,1.3,4.6C439,72.5,439.1,72.7,439.2,73z"/>
		<path class="st1" d="M403.3,69.8c-0.6,0.1-1.2,0.2-1.7,0.3c-3.2,0.2-2.5,1.1-2.7-2.3c-0.1-1.2,0.4-1.4,1.5-1.4
			c3.1,0.1,6.2,0,9.2,0c0.7,0,1.4-0.1,1.5,1c0,1-0.5,1.2-1.3,1.3c-1.5,0.2-3,0.5-4.4,0.7C404.7,69.6,404,69.7,403.3,69.8z"/>
		<path class="st4" d="M443.5,90.4c-1.4,0.9-2.6,2.1-3.6,3.5c-0.9,1.3-1.2,3.2-3,3.9c-1.3-2.3,0.3-4,1.4-5.7s2.7-3,4.4-4.1
			C443,88.8,443.3,89.6,443.5,90.4z"/>
		<path class="st6" d="M403.3,69.8c0.7-0.1,1.4-0.3,2-0.4c-0.3,0.4-0.3,0.8-0.2,1.3c1.2,3.9,2.4,7.7,3.6,11.6
			c-0.5,0.1-1,0.1-1.5,0.2C405.7,78.4,404.6,74.1,403.3,69.8z"/>
		<path class="st4" d="M453.9,87.9c-0.5,0.5-0.9,1.1-1.8,0.9c-2.2-0.7-4.4-0.1-6.6,0.5c-0.5-0.6-0.7-1.3-0.8-2.1
			c2.5-1.2,5.2-0.9,7.8-0.8C453.6,86.4,453.9,87,453.9,87.9z"/>
		<path class="st7" d="M412.8,104.1c-0.3,0.7-0.8,1.2-0.8,2c-0.7,0.7-1,1.7-1.5,2.5c-0.3,0.4-0.5,0.8-1.1,0.6
			c-0.6-0.3-0.5-0.8-0.3-1.3c0.3-0.9,1.4-1.7,0.8-2.9c1.1-0.1,1-1,1.3-1.7c0.5-0.4,0.7-0.9,0.7-1.5c0.6-0.4,0.4-1.6,1.5-1.6
			c0.6,0,0.8,0.6,0.8,1.1C413.9,102.2,413.4,103.2,412.8,104.1z"/>
		<path class="st4" d="M365.5,101.7c-2,3.7-5,4.7-7.8,2.6c-2-1.5-1.8-3.6-1.7-5.7c2.8-4.1,6.9-4.1,9.1,0c0.1,0.4,0.3,0.8,0.4,1.1
			C365.5,100.4,365.5,101.1,365.5,101.7z M360.3,99c-0.6,0.1-1.2,0.6-1.2,1.5c0,1,0.6,1.5,1.4,1.5c1,0,1.6-0.6,1.5-1.6
			C362.1,99.5,361.6,98.9,360.3,99z"/>
		<path class="st8" d="M447.7,95.9c0.7,0,1.3-0.1,2-0.1c2.4-0.1,4.3,1.2,4.9,3.1c0.6,2-0.2,4.5-1.8,5.6c-1.8,1.2-4.2,1.1-5.9-0.2
			c-1.6-1.3-2.2-3.8-1.3-5.9c0.2-0.4,0.4-0.8,0.6-1.2c0.5,1.3,0.8,2.7,2.2,3.4c0.3,1,0.9,1.6,2,1.3c0.8-0.2,1.3-0.8,1.1-1.6
			c-0.2-1.3-1.2-1.4-2.2-1.3C448.3,98.1,448.1,96.9,447.7,95.9z"/>
		<path class="st1" d="M449.2,99c1.1-0.1,2,0.1,2.2,1.3c0.1,0.8-0.3,1.4-1.1,1.6c-1.1,0.3-1.7-0.4-2-1.3
			C448.3,99.9,448.8,99.5,449.2,99z"/>
		<path class="st1" d="M395.8,97c0.2,1.1,0,1.8-1.4,1.6c-0.6-0.1-1.2-0.1-1.8-0.1C393.7,97.8,394.7,97.4,395.8,97z"/>
		<path class="st1" d="M370.6,98.6c-1.8,0-3.7,0-5.5,0c-2.1-4.1-6.3-4.1-9.1,0c-1.7,0-3.4,0-5.1-0.1c0.8-4.6,4.9-8.1,9.6-8.2
			C365.2,90.2,369.3,93.6,370.6,98.6z"/>
		<path class="st3" d="M414.4,101.3c0-0.6-0.2-1.1-0.8-1.1c-1.1-0.1-0.9,1.1-1.5,1.6c-0.5,0-1.1,0-1.6,0c-0.5-0.7-0.4-1.3,0-2
			c1.3,0.2,2.1,0,1.3-1.6c0.7-0.6,1.5-0.9,2.4-0.5c-0.8,0.3-0.4,1-0.1,1.2c0.6,0.4,0.9-0.2,1.2-0.6c0.7,0.4,1.1,1.1,1.3,1.8
			C415.9,100.5,415.1,100.9,414.4,101.3z"/>
		<path class="st9" d="M414.4,101.3c0.8-0.4,1.5-0.9,2.3-1.3c0.2,2.8-1,4-3.8,4C413.4,103.2,413.9,102.2,414.4,101.3z"/>
		<path class="st8" d="M414.7,95.5c1-0.5,1.1-1.7,1.7-2.5c0.3-0.4,0.6-0.7,1.1-0.5c0.5,0.3,0.5,0.7,0.4,1.2c-0.3,1-1.2,1.7-1,2.9
			C416.1,96.2,415.4,95.9,414.7,95.5z"/>
		<path class="st10" d="M411.8,98.2c0.8,1.6,0,1.8-1.3,1.6C410.6,99,411,98.4,411.8,98.2z"/>
		<path class="st11" d="M410.5,101.8c0.5,0,1.1,0,1.6,0c-0.1,0.6-0.3,1.1-0.7,1.5C411,102.8,410.4,102.5,410.5,101.8z"/>
		<path class="st12" d="M415.3,98.2c-0.3,0.4-0.6,1-1.2,0.6c-0.3-0.2-0.7-0.9,0.1-1.2C414.6,97.8,415.1,97.8,415.3,98.2z"/>
		<path class="st1" d="M360.3,99c1.2,0,1.8,0.5,1.8,1.4c0.1,1-0.6,1.6-1.5,1.6s-1.4-0.5-1.4-1.5C359.2,99.5,359.8,99.1,360.3,99z"/>
	</g>
</g>
<path class="st2" d="M747.3,186.1H641.6c-9.7,0-17.6-7.9-17.6-17.6V62.9c0-9.7,7.9-17.6,17.6-17.6h105.7c9.7,0,17.6,7.9,17.6,17.6
	v105.7C764.8,178.3,757,186.1,747.3,186.1z"/>
<g class="st0">
	<path class="st1" d="M654.6,147.6c-0.7,0.4-1.4,0.6-2.2,0.8s-1.5,0.2-2.3,0.2c-0.8,0-1.6-0.1-2.3-0.4c-0.7-0.3-1.3-0.6-1.8-1.1
		c-0.5-0.5-0.9-1.1-1.2-1.8s-0.4-1.5-0.4-2.3c0-0.9,0.1-1.6,0.4-2.3c0.3-0.7,0.7-1.3,1.2-1.8c0.5-0.5,1.1-0.9,1.8-1.1
		c0.7-0.3,1.5-0.4,2.3-0.4c0.9,0,1.6,0.1,2.4,0.3s1.4,0.6,1.9,1.1l-1.7,1.8c-0.3-0.3-0.7-0.6-1.1-0.8c-0.4-0.2-0.9-0.3-1.5-0.3
		c-0.5,0-1,0.1-1.4,0.3c-0.4,0.2-0.8,0.4-1.1,0.7c-0.3,0.3-0.5,0.7-0.7,1.1s-0.2,0.9-0.2,1.4c0,0.5,0.1,1,0.2,1.4s0.4,0.8,0.7,1.1
		c0.3,0.3,0.6,0.5,1.1,0.7s0.9,0.3,1.4,0.3c0.5,0,1-0.1,1.3-0.2c0.4-0.1,0.7-0.2,0.9-0.4v-1.7h-1.9V142h4.2V147.6z"/>
	<path class="st1" d="M656.7,137.7h4c0.6,0,1.1,0.1,1.6,0.2s0.9,0.3,1.3,0.5c0.4,0.2,0.7,0.6,0.9,1c0.2,0.4,0.3,0.9,0.3,1.6
		c0,0.6-0.1,1.2-0.3,1.6c-0.2,0.4-0.5,0.8-0.8,1s-0.8,0.4-1.3,0.5c-0.5,0.1-1,0.2-1.6,0.2h-1.7v4.2h-2.4V137.7z M659.1,142.2h1.6
		c0.2,0,0.4,0,0.6-0.1c0.2,0,0.4-0.1,0.5-0.2s0.3-0.2,0.4-0.4c0.1-0.2,0.1-0.4,0.1-0.6c0-0.3-0.1-0.5-0.2-0.7
		c-0.1-0.2-0.3-0.3-0.5-0.4c-0.2-0.1-0.4-0.1-0.7-0.2c-0.2,0-0.5,0-0.7,0h-1.2V142.2z"/>
	<path class="st1" d="M671.5,140.3c-0.2-0.2-0.5-0.4-0.8-0.5c-0.3-0.1-0.6-0.2-0.9-0.2c-0.2,0-0.3,0-0.5,0.1s-0.4,0.1-0.5,0.2
		c-0.2,0.1-0.3,0.2-0.4,0.3c-0.1,0.1-0.2,0.3-0.2,0.5c0,0.3,0.1,0.6,0.4,0.7c0.2,0.2,0.5,0.3,0.9,0.4c0.4,0.1,0.8,0.2,1.2,0.4
		s0.8,0.3,1.2,0.5c0.4,0.2,0.7,0.5,0.9,0.9s0.4,0.9,0.4,1.5c0,0.6-0.1,1.1-0.3,1.6c-0.2,0.4-0.5,0.8-0.9,1.1
		c-0.4,0.3-0.8,0.5-1.3,0.7c-0.5,0.1-1,0.2-1.6,0.2c-0.7,0-1.3-0.1-1.9-0.3c-0.6-0.2-1.2-0.6-1.7-1l1.7-1.8c0.2,0.3,0.5,0.6,0.9,0.7
		c0.4,0.2,0.7,0.3,1.1,0.3c0.2,0,0.4,0,0.6-0.1c0.2,0,0.4-0.1,0.5-0.2c0.2-0.1,0.3-0.2,0.4-0.3c0.1-0.1,0.1-0.3,0.1-0.5
		c0-0.3-0.1-0.6-0.4-0.8s-0.6-0.3-0.9-0.5s-0.8-0.3-1.2-0.4s-0.8-0.3-1.2-0.5s-0.7-0.5-0.9-0.9c-0.2-0.4-0.4-0.8-0.4-1.4
		c0-0.6,0.1-1.1,0.3-1.5c0.2-0.4,0.5-0.8,0.9-1.1c0.4-0.3,0.8-0.5,1.3-0.7s1-0.2,1.5-0.2c0.6,0,1.2,0.1,1.8,0.3
		c0.6,0.2,1.1,0.5,1.5,0.9L671.5,140.3z"/>
	<path class="st1" d="M687.3,145.9l2.4,2.5h-2.9l-0.9-1c-0.4,0.5-0.9,0.8-1.4,1s-1.1,0.3-1.7,0.3c-0.5,0-1-0.1-1.4-0.2
		c-0.5-0.1-0.9-0.3-1.2-0.6c-0.4-0.3-0.6-0.6-0.9-1c-0.2-0.4-0.3-0.9-0.3-1.4c0-0.3,0.1-0.7,0.2-1c0.1-0.3,0.3-0.6,0.5-0.8
		s0.4-0.5,0.7-0.7c0.3-0.2,0.6-0.3,0.9-0.4c-0.2-0.2-0.3-0.4-0.5-0.5c-0.1-0.2-0.3-0.4-0.4-0.5c-0.1-0.2-0.2-0.4-0.2-0.6
		c-0.1-0.2-0.1-0.4-0.1-0.7c0-0.5,0.1-0.9,0.3-1.2c0.2-0.3,0.4-0.6,0.7-0.8s0.7-0.4,1.1-0.5c0.4-0.1,0.8-0.2,1.2-0.2
		c0.4,0,0.8,0.1,1.2,0.2c0.4,0.1,0.7,0.3,1,0.5c0.3,0.2,0.5,0.5,0.7,0.8c0.2,0.3,0.3,0.7,0.3,1.2c0,0.3-0.1,0.6-0.2,0.9
		c-0.1,0.3-0.2,0.5-0.4,0.8c-0.2,0.2-0.4,0.4-0.6,0.6c-0.2,0.2-0.5,0.4-0.8,0.5l1.4,1.5l1-1.4h2.6L687.3,145.9z M682.6,143.8
		c-0.2,0.1-0.3,0.2-0.4,0.3c-0.1,0.1-0.3,0.2-0.4,0.3c-0.1,0.1-0.2,0.2-0.3,0.4s-0.1,0.3-0.1,0.5c0,0.2,0,0.4,0.1,0.5
		c0.1,0.2,0.2,0.3,0.3,0.4c0.1,0.1,0.3,0.2,0.5,0.3c0.2,0.1,0.4,0.1,0.5,0.1c0.4,0,0.7-0.1,0.9-0.2c0.3-0.2,0.5-0.3,0.8-0.6
		L682.6,143.8z M683.4,139.2c-0.3,0-0.5,0.1-0.7,0.3c-0.2,0.2-0.3,0.4-0.3,0.7c0,0.1,0,0.3,0.1,0.4c0.1,0.1,0.1,0.2,0.2,0.4
		c0.1,0.1,0.2,0.2,0.3,0.3c0.1,0.1,0.2,0.2,0.3,0.3c0.1-0.1,0.3-0.2,0.4-0.2c0.1-0.1,0.3-0.2,0.4-0.3c0.1-0.1,0.2-0.2,0.3-0.4
		s0.1-0.3,0.1-0.4c0-0.3-0.1-0.6-0.3-0.7C683.9,139.3,683.6,139.2,683.4,139.2z"/>
	<path class="st1" d="M695.4,137.7h4.1c0.5,0,1.1,0.1,1.6,0.2c0.5,0.1,0.9,0.3,1.3,0.5s0.7,0.6,0.9,1c0.2,0.4,0.3,0.9,0.3,1.6
		c0,0.8-0.2,1.4-0.6,1.9c-0.4,0.5-1,0.9-1.7,1l2.7,4.5h-2.8l-2.2-4.3h-1.2v4.3h-2.4V137.7z M697.7,142.1h1.4c0.2,0,0.4,0,0.7,0
		c0.2,0,0.5-0.1,0.6-0.1c0.2-0.1,0.3-0.2,0.5-0.4c0.1-0.2,0.2-0.4,0.2-0.7c0-0.3-0.1-0.5-0.2-0.7c-0.1-0.2-0.3-0.3-0.4-0.4
		c-0.2-0.1-0.4-0.1-0.6-0.2c-0.2,0-0.4,0-0.7,0h-1.5V142.1z"/>
	<path class="st1" d="M704.6,143c0-0.9,0.1-1.6,0.4-2.3c0.3-0.7,0.7-1.3,1.2-1.8s1.1-0.9,1.8-1.1c0.7-0.3,1.5-0.4,2.3-0.4
		c0.8,0,1.6,0.1,2.3,0.4c0.7,0.3,1.3,0.6,1.8,1.1c0.5,0.5,0.9,1.1,1.2,1.8c0.3,0.7,0.4,1.5,0.4,2.3c0,0.9-0.1,1.6-0.4,2.3
		s-0.7,1.3-1.2,1.8c-0.5,0.5-1.1,0.9-1.8,1.1c-0.7,0.3-1.5,0.4-2.3,0.4c-0.8,0-1.6-0.1-2.3-0.4c-0.7-0.3-1.3-0.6-1.8-1.1
		s-0.9-1.1-1.2-1.8C704.7,144.7,704.6,143.9,704.6,143z M707,143c0,0.5,0.1,1,0.2,1.4s0.4,0.8,0.7,1.1s0.6,0.5,1.1,0.7
		s0.9,0.3,1.4,0.3s1-0.1,1.4-0.3s0.8-0.4,1.1-0.7c0.3-0.3,0.5-0.7,0.7-1.1s0.2-0.9,0.2-1.4c0-0.5-0.1-1-0.2-1.4s-0.4-0.8-0.7-1.1
		c-0.3-0.3-0.6-0.5-1.1-0.7c-0.4-0.2-0.9-0.3-1.4-0.3s-1,0.1-1.4,0.3c-0.4,0.2-0.8,0.4-1.1,0.7s-0.5,0.7-0.7,1.1S707,142.6,707,143z
		"/>
	<path class="st1" d="M726.8,144.3c0,0.6-0.1,1.2-0.3,1.8c-0.2,0.5-0.5,1-0.9,1.4c-0.4,0.4-0.9,0.7-1.4,0.9c-0.6,0.2-1.2,0.3-2,0.3
		c-0.7,0-1.4-0.1-2-0.3s-1-0.5-1.4-0.9s-0.7-0.9-0.9-1.4c-0.2-0.5-0.3-1.1-0.3-1.8v-6.6h2.4v6.5c0,0.3,0.1,0.6,0.2,0.9
		c0.1,0.3,0.3,0.5,0.4,0.7c0.2,0.2,0.4,0.4,0.7,0.5c0.3,0.1,0.6,0.2,0.9,0.2c0.3,0,0.6-0.1,0.9-0.2c0.3-0.1,0.5-0.3,0.7-0.5
		c0.2-0.2,0.3-0.5,0.4-0.7s0.2-0.6,0.2-0.9v-6.5h2.4V144.3z"/>
	<path class="st1" d="M731,139.8H728v-2.1h8.5v2.1h-3.1v8.6H731V139.8z"/>
	<path class="st1" d="M737.7,137.7h7.3v2.2h-4.9v2h4.6v2.2h-4.6v2.2h5.2v2.2h-7.5V137.7z"/>
</g>
<g class="st0">
	<path class="st1" d="M641.3,161.2c0-0.9,0.1-1.6,0.4-2.3c0.3-0.7,0.7-1.3,1.2-1.8c0.5-0.5,1.1-0.9,1.8-1.1c0.7-0.3,1.5-0.4,2.3-0.4
		c0.8,0,1.6,0.1,2.3,0.4c0.7,0.3,1.3,0.6,1.8,1.1c0.5,0.5,0.9,1.1,1.2,1.8c0.3,0.7,0.4,1.5,0.4,2.3c0,0.9-0.1,1.6-0.4,2.3
		c-0.3,0.7-0.7,1.3-1.2,1.8c-0.5,0.5-1.1,0.9-1.8,1.1c-0.7,0.3-1.5,0.4-2.3,0.4c-0.8,0-1.6-0.1-2.3-0.4c-0.7-0.3-1.3-0.6-1.8-1.1
		c-0.5-0.5-0.9-1.1-1.2-1.8S641.3,162.1,641.3,161.2z M643.7,161.2c0,0.5,0.1,1,0.2,1.4s0.4,0.8,0.7,1.1c0.3,0.3,0.6,0.5,1.1,0.7
		c0.4,0.2,0.9,0.3,1.4,0.3c0.5,0,1-0.1,1.4-0.3c0.4-0.2,0.8-0.4,1.1-0.7c0.3-0.3,0.5-0.7,0.7-1.1s0.2-0.9,0.2-1.4
		c0-0.5-0.1-1-0.2-1.4s-0.4-0.8-0.7-1.1c-0.3-0.3-0.6-0.5-1.1-0.7c-0.4-0.2-0.9-0.3-1.4-0.3c-0.5,0-1,0.1-1.4,0.3
		c-0.4,0.2-0.8,0.4-1.1,0.7c-0.3,0.3-0.5,0.7-0.7,1.1S643.7,160.8,643.7,161.2z"/>
	<path class="st1" d="M654.4,155.9h4c0.6,0,1.1,0.1,1.6,0.2s0.9,0.3,1.3,0.5c0.4,0.2,0.7,0.6,0.9,1c0.2,0.4,0.3,0.9,0.3,1.6
		c0,0.6-0.1,1.2-0.3,1.6c-0.2,0.4-0.5,0.8-0.8,1c-0.4,0.3-0.8,0.4-1.3,0.5c-0.5,0.1-1,0.2-1.6,0.2h-1.7v4.2h-2.4V155.9z
		 M656.8,160.4h1.6c0.2,0,0.4,0,0.6-0.1c0.2,0,0.4-0.1,0.5-0.2s0.3-0.2,0.4-0.4c0.1-0.2,0.1-0.4,0.1-0.6c0-0.3-0.1-0.5-0.2-0.7
		c-0.1-0.2-0.3-0.3-0.5-0.4c-0.2-0.1-0.4-0.1-0.7-0.2c-0.2,0-0.5,0-0.7,0h-1.2V160.4z"/>
	<path class="st1" d="M666,158H663v-2.1h8.5v2.1h-3.1v8.6H666V158z"/>
	<path class="st1" d="M672.6,155.9h2.4v10.7h-2.4V155.9z"/>
	<path class="st1" d="M677.1,155.9h3.6l2.5,7h0l2.5-7h3.6v10.7h-2.4v-8.2h0l-2.8,8.2h-1.8l-2.7-8.2h0v8.2h-2.4V155.9z"/>
	<path class="st1" d="M691.4,155.9h2.4v10.7h-2.4V155.9z"/>
	<path class="st1" d="M695.3,164.4l5.4-6.4h-5.2v-2.1h8.1v2.1l-5.3,6.4h5.5v2.2h-8.5V164.4z"/>
	<path class="st1" d="M708.9,155.9h2l4.7,10.7h-2.7l-0.9-2.3h-4.2l-0.9,2.3h-2.6L708.9,155.9z M709.8,159l-1.3,3.3h2.6L709.8,159z"
		/>
	<path class="st1" d="M717.3,158h-3.1v-2.1h8.5v2.1h-3.1v8.6h-2.4V158z"/>
	<path class="st1" d="M723.9,155.9h2.4v10.7h-2.4V155.9z"/>
	<path class="st1" d="M727.8,161.2c0-0.9,0.1-1.6,0.4-2.3c0.3-0.7,0.7-1.3,1.2-1.8c0.5-0.5,1.1-0.9,1.8-1.1c0.7-0.3,1.5-0.4,2.3-0.4
		s1.6,0.1,2.3,0.4c0.7,0.3,1.3,0.6,1.8,1.1c0.5,0.5,0.9,1.1,1.2,1.8c0.3,0.7,0.4,1.5,0.4,2.3c0,0.9-0.1,1.6-0.4,2.3
		c-0.3,0.7-0.7,1.3-1.2,1.8c-0.5,0.5-1.1,0.9-1.8,1.1s-1.5,0.4-2.3,0.4s-1.6-0.1-2.3-0.4s-1.3-0.6-1.8-1.1c-0.5-0.5-0.9-1.1-1.2-1.8
		C728,162.9,727.8,162.1,727.8,161.2z M730.3,161.2c0,0.5,0.1,1,0.2,1.4s0.4,0.8,0.7,1.1c0.3,0.3,0.6,0.5,1.1,0.7s0.9,0.3,1.4,0.3
		s1-0.1,1.4-0.3s0.8-0.4,1.1-0.7c0.3-0.3,0.5-0.7,0.7-1.1s0.2-0.9,0.2-1.4c0-0.5-0.1-1-0.2-1.4s-0.4-0.8-0.7-1.1
		c-0.3-0.3-0.6-0.5-1.1-0.7c-0.4-0.2-0.9-0.3-1.4-0.3s-1,0.1-1.4,0.3c-0.4,0.2-0.8,0.4-1.1,0.7c-0.3,0.3-0.5,0.7-0.7,1.1
		S730.3,160.8,730.3,161.2z"/>
	<path class="st1" d="M741,155.9h3.2l4.6,7.4h0v-7.4h2.4v10.7H748l-4.7-7.6h0v7.6H741V155.9z"/>
</g>
<g>
	<g class="st13">
		<g>
			<g>
				<defs>
					<rect id="SVGID_1_" x="651.7" y="118.4" width="88.5" height="12.7"/>
				</defs>
				<clipPath id="SVGID_2_">
					<use xlink:href="#SVGID_1_"  style="overflow:visible;"/>
				</clipPath>
				<g class="st14">
					
						<image style="overflow:visible;enable-background:new    ;" width="375" height="63" xlink:href="7E0E26CCB796025D.png"  transform="matrix(0.2357 0 0 0.2357 651.8356 117.8292)">
					</image>
				</g>
			</g>
		</g>
	</g>
	<g>
		<g>
			<polygon class="st3" points="680.5,76.2 666.1,94.2 666.1,94.2 661.1,91.6 651.7,86.6 651.7,76.2 			"/>
		</g>
		<g>
			<polygon class="st3" points="679.3,103.4 671.3,114.6 658.1,107.3 666.6,96.6 			"/>
		</g>
		<g>
			<path class="st15" d="M680.5,76.2l-14.4,18l-5-2.6l-9.4-5v2.1l13.2,7l-8.4,10.6l-4.7-2.6v21.7h34.1V76.2H680.5z M666.6,96.6
				l12.7,6.7l-8,11.3l-13.2-7.4l0,0L666.6,96.6z"/>
		</g>
		<g>
			<polygon class="st3" points="713,112.4 713,120 685.9,125.4 685.9,106.8 699.2,100.1 700.3,101.3 703,104.3 711,113.2 			"/>
		</g>
		<g>
			<polygon class="st3" points="713,69.9 713,81.8 712.2,82.5 709.8,92.6 709.8,92.6 685.9,104.7 685.9,104.7 685.9,97.4 
				686.6,96.4 708.1,71.1 			"/>
		</g>
		<g>
			<polygon class="st3" points="686.6,96.4 685.9,97.4 685.9,76.2 705,71.8 708.1,71.1 			"/>
		</g>
		<g>
			<polygon class="st3" points="713,81.8 713,112.4 711,113.2 703,104.3 700.3,101.3 699.2,100.1 685.9,106.8 685.9,104.7 
				685.9,104.7 709.8,92.6 709.8,92.6 712.2,82.5 			"/>
		</g>
		<g>
			<polygon class="st15" points="740.2,76.2 740.2,86.3 713,91.1 713,87.1 713.9,83.6 727.1,73.2 			"/>
		</g>
		<g>
			<polygon class="st15" points="727.1,73.2 713.9,83.6 713,87.1 713,69.9 724.8,72.6 			"/>
		</g>
		<g>
			<polygon class="st15" points="740.2,88.2 740.2,116.2 718.3,108.9 714.4,99.8 713,96.5 713,93.1 713.3,92.9 			"/>
		</g>
		<g>
			<polygon class="st15" points="740.2,118.2 740.2,125.4 726.9,122.8 719.8,111.4 			"/>
		</g>
		<g>
			<polygon class="st15" points="740.2,118.2 719.8,111.4 726.9,122.8 724.4,122.3 713,120 713,96.5 714.4,99.8 718.3,108.9 
				740.2,116.2 			"/>
		</g>
		<g>
			<polygon class="st16" points="740.2,86.3 740.2,88.2 713.3,92.9 713,93.1 713,91.1 			"/>
		</g>
		<g>
			<g>
				<polygon class="st1" points="740.2,89.9 740.2,93.9 714.4,99.8 713,100.1 712.6,100.2 710.2,100.8 704.8,103.4 703,104.3 
					685.9,112.7 685.9,112.7 685.1,113 672.2,125.4 661.4,125.4 668.5,123.7 682.8,109.8 685.9,108.3 685.9,108.3 700.3,101.3 
					702,100.4 708.9,97 711,96.6 712.9,96.1 713,96.1 				"/>
			</g>
		</g>
		<path class="st17" d="M713,93.1l0.3-0.2l26.9-4.8v-1.9L713,91.1l0,0h-0.2h-0.1l-0.7,0.4l1-4.4l0.8-3.6l13.3-10.4l-2.4-0.5
			L713,81.8l-0.8,0.7l-2.4,10.1l0,0l-23.9,12.1l0,0l0,0l-3.8-2l3.8-5.3l0,0l0.7-1l21.5-25.3l0,0l-3.1,0.7l0,0l-19.2,22.6l0,0
			l-0.7,0.8l0,0l-4.7,6.6l-12.6-6.7l15.1-18.9h-2.4l-14.4,18l-5-2.6l-9.4-5v2.1l13.2,7l-8.4,10.6l-4.7-2.6v2.2l3.5,2l-3.5,4.4v3
			l5.2-6.5l14.9,8.3l9.2-12.8l4.9,2.6l0,0l0,0l0,0l13.4-6.8l1.1,1.2l2.7,3l8,8.9l2-0.8l4.2-1.6l7.2,11.4l2.5,0.5l-7.1-11.4l20.4,6.8
			v-2l-21.9-7.3l-3.9-9.1l-1.4-3.3L713,96l-1-2.4L713,93.1L713,93.1z M671.3,114.6l-13.2-7.4l0,0l8.5-10.6l12.7,6.7L671.3,114.6z
			 M711,96.6l1.6,3.6l0.5,1.1l3.3,7.8l-3.3,1.3l-1.5,0.6l-6.8-7.6l-2.7-3l-1.1-1.2l9.2-4.6l0,0L711,96.6z"/>
		<g>
			<polygon class="st3" points="664.9,95.7 656.5,106.3 651.7,103.7 651.7,88.7 			"/>
		</g>
	</g>
	<g>
		<g>
			<path class="st1" d="M706.6,79.5L706.6,79.5L697,92.4l-9.7-12.9l0,0c-1.6-2.1-2.6-4.6-2.6-7.5c0-6.7,5.5-12.2,12.2-12.2
				s12.2,5.5,12.2,12.2C709.2,74.8,708.2,77.4,706.6,79.5z"/>
		</g>
		<g>
			<circle class="st18" cx="697" cy="72" r="6.3"/>
		</g>
		<g class="st19">
			<g>
				<g>
					<defs>
						<path id="SVGID_3_" d="M706.6,79.5L706.6,79.5L697,92.4V59.8c6.7,0,12.2,5.5,12.2,12.2C709.2,74.8,708.2,77.4,706.6,79.5z"/>
					</defs>
					<clipPath id="SVGID_4_">
						<use xlink:href="#SVGID_3_"  style="overflow:visible;"/>
					</clipPath>
					<g class="st20">
						
							<image style="overflow:visible;enable-background:new    ;" width="58" height="146" xlink:href="7E0E26CCB796025F.png"  transform="matrix(0.2276 0 0 0.2276 696.5051 60.0038)">
						</image>
					</g>
				</g>
			</g>
		</g>
	</g>
</g>
<g>
	<path class="st2" d="M625.8,592.9H520.1c-9.7,0-17.6-7.9-17.6-17.6V469.7c0-9.7,7.9-17.6,17.6-17.6h105.7c9.7,0,17.6,7.9,17.6,17.6
		v105.7C643.3,585.1,635.5,592.9,625.8,592.9z"/>
	<g class="st0">
		<path class="st1" d="M541.7,539.9h5c1.2,0,2.4,0.1,3.4,0.4s2,0.7,2.8,1.3c0.8,0.6,1.5,1.4,1.9,2.4c0.5,1,0.7,2.1,0.7,3.5
			c0,1.2-0.2,2.3-0.7,3.2c-0.5,0.9-1.1,1.7-1.9,2.3c-0.8,0.6-1.7,1.1-2.7,1.4c-1,0.3-2.1,0.5-3.2,0.5h-5.4V539.9z M545,551.9h1.7
			c0.8,0,1.5-0.1,2.1-0.2c0.7-0.2,1.2-0.4,1.7-0.8c0.5-0.4,0.9-0.8,1.1-1.4c0.3-0.6,0.4-1.3,0.4-2.2c0-0.7-0.1-1.4-0.4-1.9
			s-0.7-1-1.1-1.4c-0.5-0.4-1-0.6-1.7-0.8c-0.6-0.2-1.3-0.3-2-0.3h-2V551.9z"/>
		<path class="st1" d="M562.9,539.9h2.8l6.6,15.1h-3.8l-1.3-3.2h-5.9L560,555h-3.7L562.9,539.9z M564.2,544.3l-1.8,4.7h3.7
			L564.2,544.3z"/>
		<path class="st1" d="M574.7,542.8h-4.3v-2.9h12v2.9H578V555h-3.3V542.8z"/>
		<path class="st1" d="M587,539.9h2.8l6.6,15.1h-3.8l-1.3-3.2h-5.9l-1.3,3.2h-3.7L587,539.9z M588.3,544.3l-1.8,4.7h3.7L588.3,544.3
			z"/>
	</g>
	<g class="st0">
		<path class="st1" d="M536.3,569.2c-0.3-0.3-0.6-0.6-1.1-0.8c-0.5-0.2-0.9-0.2-1.3-0.2c-0.2,0-0.5,0-0.7,0.1
			c-0.3,0.1-0.5,0.1-0.7,0.3s-0.4,0.3-0.6,0.5c-0.1,0.2-0.2,0.4-0.2,0.7c0,0.5,0.2,0.8,0.5,1c0.3,0.2,0.8,0.4,1.3,0.6
			c0.5,0.2,1.1,0.3,1.7,0.5s1.2,0.4,1.7,0.7c0.5,0.3,1,0.7,1.3,1.3c0.3,0.5,0.5,1.2,0.5,2.1c0,0.8-0.2,1.6-0.5,2.2
			c-0.3,0.6-0.7,1.1-1.3,1.6c-0.5,0.4-1.2,0.7-1.9,0.9c-0.7,0.2-1.4,0.3-2.2,0.3c-1,0-1.9-0.2-2.7-0.4c-0.8-0.3-1.6-0.8-2.3-1.5
			l2.4-2.6c0.3,0.5,0.8,0.8,1.3,1.1s1.1,0.4,1.6,0.4c0.3,0,0.5,0,0.8-0.1c0.3-0.1,0.5-0.2,0.7-0.3c0.2-0.1,0.4-0.3,0.5-0.5
			s0.2-0.4,0.2-0.7c0-0.5-0.2-0.8-0.5-1.1c-0.3-0.3-0.8-0.5-1.3-0.7c-0.5-0.2-1.1-0.4-1.7-0.6c-0.6-0.2-1.2-0.4-1.7-0.7
			c-0.5-0.3-1-0.7-1.3-1.2s-0.5-1.2-0.5-2c0-0.8,0.2-1.5,0.5-2.1s0.7-1.1,1.3-1.5c0.5-0.4,1.1-0.7,1.8-0.9s1.4-0.3,2.2-0.3
			c0.9,0,1.7,0.1,2.5,0.4c0.8,0.2,1.5,0.6,2.2,1.2L536.3,569.2z"/>
		<path class="st1" d="M550.9,569.4c-0.3-0.4-0.7-0.7-1.2-0.9c-0.5-0.2-1-0.3-1.7-0.3s-1.2,0.1-1.7,0.4c-0.5,0.2-1,0.6-1.4,1
			c-0.4,0.4-0.7,1-0.9,1.5s-0.3,1.2-0.3,1.9c0,0.7,0.1,1.4,0.3,2s0.5,1.1,0.9,1.5c0.4,0.4,0.8,0.8,1.4,1c0.5,0.2,1.1,0.4,1.7,0.4
			c0.7,0,1.3-0.1,1.8-0.4c0.5-0.3,1-0.7,1.3-1.2l2.8,2.1c-0.6,0.9-1.5,1.6-2.4,2c-1,0.4-2,0.6-3,0.6c-1.2,0-2.3-0.2-3.3-0.6
			s-1.9-0.9-2.6-1.6c-0.7-0.7-1.3-1.5-1.7-2.5c-0.4-1-0.6-2.1-0.6-3.3s0.2-2.3,0.6-3.3c0.4-1,1-1.8,1.7-2.5c0.7-0.7,1.6-1.2,2.6-1.6
			s2.1-0.6,3.3-0.6c0.4,0,0.9,0,1.3,0.1c0.5,0.1,0.9,0.2,1.4,0.4c0.4,0.2,0.9,0.4,1.3,0.7c0.4,0.3,0.8,0.6,1.1,1L550.9,569.4z"/>
		<path class="st1" d="M555.6,565.5h3.3v15.1h-3.3V565.5z"/>
		<path class="st1" d="M562.1,565.5h10.3v3.1h-6.9v2.8h6.6v3.1h-6.6v3.1h7.3v3.1h-10.7V565.5z"/>
		<path class="st1" d="M575.5,565.5h4.5l6.4,10.5h0v-10.5h3.3v15.1h-4.4l-6.6-10.8h0v10.8h-3.3V565.5z"/>
		<path class="st1" d="M602.7,569.4c-0.3-0.4-0.7-0.7-1.2-0.9c-0.5-0.2-1-0.3-1.7-0.3s-1.2,0.1-1.7,0.4c-0.5,0.2-1,0.6-1.4,1
			c-0.4,0.4-0.7,1-0.9,1.5s-0.3,1.2-0.3,1.9c0,0.7,0.1,1.4,0.3,2s0.5,1.1,0.9,1.5c0.4,0.4,0.8,0.8,1.4,1c0.5,0.2,1.1,0.4,1.7,0.4
			c0.7,0,1.3-0.1,1.8-0.4c0.5-0.3,1-0.7,1.3-1.2l2.8,2.1c-0.6,0.9-1.5,1.6-2.4,2c-1,0.4-2,0.6-3,0.6c-1.2,0-2.3-0.2-3.3-0.6
			s-1.9-0.9-2.6-1.6c-0.7-0.7-1.3-1.5-1.7-2.5c-0.4-1-0.6-2.1-0.6-3.3s0.2-2.3,0.6-3.3c0.4-1,1-1.8,1.7-2.5c0.7-0.7,1.6-1.2,2.6-1.6
			s2.1-0.6,3.3-0.6c0.4,0,0.9,0,1.3,0.1c0.5,0.1,0.9,0.2,1.4,0.4c0.4,0.2,0.9,0.4,1.3,0.7c0.4,0.3,0.8,0.6,1.1,1L602.7,569.4z"/>
		<path class="st1" d="M607.6,565.5h10.3v3.1h-6.9v2.8h6.6v3.1h-6.6v3.1h7.3v3.1h-10.7V565.5z"/>
	</g>
	<g>
		<path class="st1" d="M548.3,520c-17.7-19.8-7.8-51.3,18-57.5c19.5-4.6,39,8.1,42.6,27.9c3.4,19.1-9.1,37.3-28.3,40.7
			c-10.8,1.9-20.6-0.8-29-7.9c-0.3-0.2-0.5-0.5-0.9-0.6C550.2,521.5,549.1,520.9,548.3,520z M601.1,513.4c0.4-0.5,0.8-1.1,1.1-1.7
			c3.3-6.2,4.5-12.9,3.5-19.9c-2.1-14.4-14.5-25.9-29.1-26.7c-10.2-0.6-18.9,2.8-25.7,10.5c-7.2,8.1-9.8,17.7-7.3,28.2
			c2.8,12,10.4,20,22.3,23.3c12,3.3,22.6,0.2,31.5-8.7c1.4-1.4,2.8-2.8,3.5-4.7C601,513.5,601.1,513.5,601.1,513.4z"/>
		<path class="st1" d="M547.5,526c0.2,1.2-0.3,2.1-1.2,3c-1.5,1.5-3,3-4.5,4.5c-1.5,1.4-3.2,1.6-4.5,0.3s-1.2-3.1,0.3-4.6
			c1.3-1.3,2.7-2.6,3.9-4c1.1-1.2,2.2-1.9,3.8-1.7C546.5,524.1,547.2,524.9,547.5,526z"/>
		<path class="st21" d="M547.5,526c-0.3-1.1-1.1-1.9-2.1-2.5c0.5-1,1.5-1.6,2.2-2.4c0.3-0.3,0.8-0.6,0.8-1.1
			c0.8,0.9,1.8,1.5,2.3,2.6C549.8,523.9,548.5,524.8,547.5,526z"/>
		<path class="st21" d="M557.1,486.8c0.6-1.2,0.7-2.6,1.1-3.8c0.2-0.7,0.4-1.1,1.1-1.1c0.7,0,1,0.5,1.1,1.2c0.3,1.3,0.4,2.6,0.9,3.8
			c0.1,0.7,0.2,1.4,0.3,2.1c1.4,7.2,2.9,14.5,4.3,21.8c0.5-0.2,0.5-0.7,0.6-1c1.3-4,2.6-8.1,3.8-12.1c0.2-0.6,0.3-1.1,1-1.2
			c0.7-0.2,1.1,0.4,1.4,0.9c1,1.3,1.9,2.7,3,4.2c1.2-2.8,2.3-5.5,3.4-8.1c0.1-0.2,0.1-0.4,0.2-0.6c0.2-0.5,0.5-0.9,1.1-1
			c0.7,0,1,0.4,1.2,1c1.1,2.7,2.3,5.5,3.5,8.2c0.6,1.5,1.3,3.1,1.9,4.6c0.3,0.8,0.7,1,1.5,1c3.7,0,7.5,0,11.2,0c0.6,0,1.1,0,1.4,0.6
			c0.4,0.8-0.1,1.5-1.2,1.5c-4.3,0-8.6,0-13,0c-0.9,0-1.2-0.5-1.5-1.2c-1.5-3.5-3-7.1-4.4-10.6c-0.1-0.3-0.3-0.6-0.5-1.1
			c-1.1,2.6-2.1,5.2-3.2,7.7c-0.2,0.6-0.4,1.2-1.1,1.3c-0.7,0.1-1.1-0.4-1.4-0.9c-0.9-1.3-1.8-2.6-2.9-4c-1.3,4-2.5,7.9-3.7,11.7
			c-0.2,0.7-0.5,1.3-0.5,2.1c-0.6,0.6-0.6,1.4-0.9,2.2c-0.2,0.6-0.5,0.9-1.1,0.9s-1-0.4-1.1-1.1c-0.1-0.7-0.3-1.3-0.5-1.9
			c-0.2-0.7-0.3-1.4-0.5-2.1c-0.3-3.1-1.1-6.1-1.7-9.1c-0.8-4.5-1.8-9-2.7-13.6c-0.6,0.3-0.6,0.8-0.6,1.2
			c-1.4,5.7-2.7,11.4-4.1,17.1c-0.4,1.9-1.1,2.1-2.6,0.9c-1.9-1.7-3.9-3.5-5.8-5.2c-0.6-0.5-0.9-1.1-0.3-1.8
			c0.6-0.7,1.2-0.3,1.8,0.2c1.7,1.5,3.3,2.9,5.1,4.5c0.6-2.6,1.2-5.1,1.8-7.6c0.7-3.1,1.4-6.2,2.1-9.3
			C557,488.2,557.1,487.5,557.1,486.8z"/>
		<path class="st15" d="M561.7,488.9c-0.1-0.7-0.2-1.4-0.3-2.1c1.6,0,3.2,0,4.8,0c11.7,0,23.5,0,35.2,0c0.3,0,0.6,0,1,0
			c0.7,0,1,0.4,1.1,1c0,0.7-0.4,1.1-1.1,1.1c-0.3,0-0.6,0-1,0c-12.7,0-25.4,0-38,0C562.7,488.9,562.2,488.9,561.7,488.9z"/>
		<path class="st15" d="M567.8,513.5c0-0.7,0.4-1.4,0.5-2.1c10.3,0,20.7,0,31,0c1.8,0,1.9,0.1,1.8,1.9c-0.2,0-0.2,0.1-0.2,0.2
			c-10.5,0-21.1,0-31.6,0C568.8,513.6,568.3,513.6,567.8,513.5z"/>
		<path class="st15" d="M563.8,511.5c0.2,0.7,0.3,1.4,0.5,2.1c-4.4,0-8.9,0-13.3,0c-0.9,0-1.6-0.2-1.5-1.2c0.1-0.8,0.7-1,1.4-0.9
			C555.2,511.5,559.5,511.5,563.8,511.5z"/>
		<path class="st15" d="M557.1,486.8c0,0.7-0.2,1.4-0.4,2c-3,0-5.9,0-8.9,0c-0.7,0-1.2-0.3-1.2-1.1c0-0.7,0.5-1,1.2-1
			C550.9,486.7,554,486.8,557.1,486.8z"/>
	</g>
</g>
<g>
	<path class="st2" d="M287.4,588.9H181.8c-9.7,0-17.6-7.9-17.6-17.6V465.7c0-9.7,7.9-17.6,17.6-17.6h105.7c9.7,0,17.6,7.9,17.6,17.6
		v105.7C305,581.1,297.1,588.9,287.4,588.9z"/>
	<g class="st0">
		<path class="st1" d="M201.1,539.5h4.3l3,8.4h0l3-8.4h4.3v12.8h-2.8v-9.9h0l-3.4,9.9h-2.2l-3.2-9.9h0v9.9h-2.8V539.5z"/>
		<path class="st1" d="M217.5,545.9c0-1,0.2-2,0.5-2.8s0.8-1.5,1.4-2.1c0.6-0.6,1.3-1,2.2-1.4c0.8-0.3,1.8-0.5,2.8-0.5
			s1.9,0.2,2.8,0.5c0.8,0.3,1.6,0.8,2.2,1.4c0.6,0.6,1.1,1.3,1.4,2.1s0.5,1.8,0.5,2.8c0,1-0.2,2-0.5,2.8s-0.8,1.5-1.4,2.1
			c-0.6,0.6-1.3,1-2.2,1.4s-1.8,0.5-2.8,0.5s-1.9-0.2-2.8-0.5c-0.8-0.3-1.6-0.8-2.2-1.4c-0.6-0.6-1.1-1.3-1.4-2.1
			S217.5,546.9,217.5,545.9z M220.4,545.9c0,0.6,0.1,1.2,0.3,1.7c0.2,0.5,0.5,0.9,0.8,1.3c0.4,0.4,0.8,0.7,1.3,0.9
			c0.5,0.2,1,0.3,1.6,0.3s1.2-0.1,1.6-0.3c0.5-0.2,0.9-0.5,1.3-0.9c0.4-0.4,0.6-0.8,0.8-1.3c0.2-0.5,0.3-1.1,0.3-1.7
			c0-0.6-0.1-1.1-0.3-1.7c-0.2-0.5-0.5-0.9-0.8-1.3c-0.4-0.4-0.8-0.7-1.3-0.9c-0.5-0.2-1-0.3-1.6-0.3s-1.2,0.1-1.6,0.3
			c-0.5,0.2-0.9,0.5-1.3,0.9c-0.4,0.4-0.6,0.8-0.8,1.3C220.5,544.7,220.4,545.3,220.4,545.9z"/>
		<path class="st1" d="M233.3,539.5h4.8c0.6,0,1.1,0,1.7,0.1c0.6,0.1,1.1,0.2,1.5,0.5c0.4,0.2,0.8,0.6,1.1,1c0.3,0.4,0.4,1,0.4,1.7
			c0,0.7-0.2,1.3-0.6,1.8c-0.4,0.5-0.9,0.8-1.6,1v0c0.4,0.1,0.8,0.2,1.2,0.4c0.3,0.2,0.6,0.4,0.9,0.7s0.4,0.6,0.6,1
			c0.1,0.4,0.2,0.8,0.2,1.2c0,0.7-0.1,1.2-0.4,1.7c-0.3,0.5-0.7,0.8-1.1,1.1c-0.5,0.3-1,0.5-1.6,0.6c-0.6,0.1-1.1,0.2-1.7,0.2h-5.3
			V539.5z M236.1,544.6h2.1c0.2,0,0.4,0,0.6-0.1c0.2,0,0.4-0.1,0.6-0.2c0.2-0.1,0.3-0.3,0.4-0.4c0.1-0.2,0.2-0.4,0.2-0.7
			c0-0.3-0.1-0.5-0.2-0.7c-0.1-0.2-0.3-0.3-0.4-0.4c-0.2-0.1-0.4-0.2-0.6-0.2c-0.2,0-0.5-0.1-0.7-0.1h-1.9V544.6z M236.1,549.9h2.5
			c0.2,0,0.4,0,0.7-0.1c0.2,0,0.4-0.1,0.6-0.3c0.2-0.1,0.3-0.3,0.4-0.5s0.2-0.4,0.2-0.7c0-0.3-0.1-0.5-0.2-0.7
			c-0.2-0.2-0.3-0.3-0.6-0.4s-0.5-0.2-0.7-0.2c-0.3,0-0.5-0.1-0.7-0.1h-2.1V549.9z"/>
		<path class="st1" d="M245,539.5h2.8v12.8H245V539.5z"/>
		<path class="st1" d="M250.5,539.5h2.8v10.2h5.2v2.6h-8.1V539.5z"/>
		<path class="st1" d="M260.3,539.5h8.7v2.6h-5.9v2.4h5.6v2.6h-5.6v2.6h6.2v2.6h-9.1V539.5z"/>
	</g>
	<g class="st0">
		<path class="st1" d="M181.3,561.3h4.8c0.7,0,1.3,0.1,1.9,0.2s1.1,0.3,1.6,0.6c0.4,0.3,0.8,0.7,1.1,1.2c0.3,0.5,0.4,1.1,0.4,1.9
			c0,0.8-0.1,1.4-0.4,1.9c-0.2,0.5-0.6,0.9-1,1.2c-0.4,0.3-0.9,0.5-1.5,0.6s-1.2,0.2-1.9,0.2h-2.1v5h-2.8V561.3z M184.1,566.7h1.9
			c0.3,0,0.5,0,0.7-0.1c0.2,0,0.4-0.1,0.6-0.2s0.3-0.3,0.5-0.5c0.1-0.2,0.2-0.5,0.2-0.8c0-0.3-0.1-0.6-0.2-0.8
			c-0.2-0.2-0.3-0.4-0.6-0.5c-0.2-0.1-0.5-0.2-0.8-0.2c-0.3,0-0.6,0-0.8,0h-1.5V566.7z"/>
		<path class="st1" d="M192.8,561.3h2.8v10.2h5.2v2.6h-8.1V561.3z"/>
		<path class="st1" d="M206.7,561.3h2.3l5.6,12.8h-3.2l-1.1-2.7h-5l-1.1,2.7h-3.1L206.7,561.3z M207.8,565l-1.6,4h3.1L207.8,565z"/>
		<path class="st1" d="M216.7,563.8H213v-2.5h10.2v2.5h-3.7v10.3h-2.8V563.8z"/>
		<path class="st1" d="M224.7,561.3h8.6v2.6h-5.8v2.6h5.4v2.6h-5.4v5h-2.8V561.3z"/>
		<path class="st1" d="M234.7,567.7c0-1,0.2-2,0.5-2.8s0.8-1.5,1.4-2.1c0.6-0.6,1.3-1,2.2-1.4c0.8-0.3,1.8-0.5,2.8-0.5
			s1.9,0.2,2.8,0.5c0.8,0.3,1.6,0.8,2.2,1.4c0.6,0.6,1.1,1.3,1.4,2.1s0.5,1.8,0.5,2.8c0,1-0.2,2-0.5,2.8s-0.8,1.5-1.4,2.1
			c-0.6,0.6-1.3,1-2.2,1.4s-1.8,0.5-2.8,0.5s-1.9-0.2-2.8-0.5c-0.8-0.3-1.6-0.8-2.2-1.4c-0.6-0.6-1.1-1.3-1.4-2.1
			S234.7,568.7,234.7,567.7z M237.6,567.7c0,0.6,0.1,1.2,0.3,1.7c0.2,0.5,0.5,0.9,0.8,1.3c0.4,0.4,0.8,0.7,1.3,0.9
			c0.5,0.2,1,0.3,1.6,0.3s1.2-0.1,1.6-0.3c0.5-0.2,0.9-0.5,1.3-0.9c0.4-0.4,0.6-0.8,0.8-1.3c0.2-0.5,0.3-1.1,0.3-1.7
			c0-0.6-0.1-1.1-0.3-1.7c-0.2-0.5-0.5-0.9-0.8-1.3c-0.4-0.4-0.8-0.7-1.3-0.9c-0.5-0.2-1-0.3-1.6-0.3s-1.2,0.1-1.6,0.3
			c-0.5,0.2-0.9,0.5-1.3,0.9c-0.4,0.4-0.6,0.8-0.8,1.3C237.7,566.5,237.6,567.1,237.6,567.7z"/>
		<path class="st1" d="M250.5,561.3h5c0.7,0,1.3,0.1,1.9,0.2c0.6,0.1,1.1,0.3,1.5,0.6c0.4,0.3,0.8,0.7,1.1,1.2
			c0.3,0.5,0.4,1.1,0.4,1.9c0,0.9-0.2,1.7-0.7,2.3c-0.5,0.6-1.2,1-2.1,1.2l3.3,5.4h-3.4l-2.7-5.1h-1.4v5.1h-2.8V561.3z M253.3,566.6
			h1.7c0.3,0,0.5,0,0.8,0s0.5-0.1,0.8-0.2c0.2-0.1,0.4-0.2,0.6-0.4s0.2-0.5,0.2-0.8c0-0.3-0.1-0.6-0.2-0.8s-0.3-0.3-0.5-0.4
			c-0.2-0.1-0.4-0.2-0.7-0.2s-0.5-0.1-0.8-0.1h-1.9V566.6z"/>
		<path class="st1" d="M262.3,561.3h4.3l3,8.4h0l3-8.4h4.3v12.8h-2.8v-9.9h0l-3.4,9.9h-2.2l-3.2-9.9h0v9.9h-2.8V561.3z"/>
		<path class="st1" d="M285.7,564.4c-0.2-0.3-0.5-0.5-0.9-0.6c-0.4-0.1-0.8-0.2-1.1-0.2c-0.2,0-0.4,0-0.6,0.1
			c-0.2,0-0.4,0.1-0.6,0.2c-0.2,0.1-0.4,0.2-0.5,0.4c-0.1,0.2-0.2,0.4-0.2,0.6c0,0.4,0.1,0.7,0.4,0.9c0.3,0.2,0.7,0.4,1.1,0.5
			c0.4,0.1,0.9,0.3,1.4,0.4c0.5,0.1,1,0.4,1.4,0.6c0.4,0.3,0.8,0.6,1.1,1.1c0.3,0.4,0.4,1,0.4,1.8c0,0.7-0.1,1.3-0.4,1.9
			s-0.6,1-1.1,1.3c-0.5,0.4-1,0.6-1.6,0.8c-0.6,0.2-1.2,0.3-1.9,0.3c-0.8,0-1.6-0.1-2.3-0.4c-0.7-0.3-1.4-0.7-2-1.2l2-2.2
			c0.3,0.4,0.7,0.7,1.1,0.9s0.9,0.3,1.4,0.3c0.2,0,0.5,0,0.7-0.1s0.4-0.1,0.6-0.2c0.2-0.1,0.3-0.2,0.5-0.4c0.1-0.2,0.2-0.4,0.2-0.6
			c0-0.4-0.1-0.7-0.4-0.9c-0.3-0.2-0.7-0.4-1.1-0.6c-0.4-0.2-0.9-0.3-1.5-0.5c-0.5-0.2-1-0.4-1.5-0.6c-0.4-0.3-0.8-0.6-1.1-1.1
			s-0.4-1-0.4-1.7c0-0.7,0.1-1.3,0.4-1.8s0.6-1,1.1-1.3s1-0.6,1.6-0.8c0.6-0.2,1.2-0.3,1.8-0.3c0.7,0,1.4,0.1,2.1,0.3
			c0.7,0.2,1.3,0.6,1.8,1L285.7,564.4z"/>
	</g>
	<g id="phone">
		<g>
			<path class="st22" d="M247,467.7h-23.6c-1.1,0-2,0.9-2,2v51.2c0,1.1,0.9,2,2,2H247c1.1,0,2-0.9,2-2v-51.1
				C249,468.6,248.1,467.7,247,467.7z M235.2,520.8c-2.2,0-3.9-1.8-3.9-3.9s1.8-3.9,3.9-3.9s3.9,1.8,3.9,3.9
				C239.1,519.1,237.4,520.8,235.2,520.8z M239.1,473.6h-7.9c-1.1,0-2-0.9-2-2s0.9-2,2-2h7.9c1.1,0,2,0.9,2,2
				S240.2,473.6,239.1,473.6z"/>
			<path class="st1" d="M247,463.8h-23.6c-3.3,0-5.9,2.6-5.9,5.9v51.2c0,3.3,2.6,5.9,5.9,5.9H247c3.3,0,5.9-2.6,5.9-5.9v-51.2
				C252.9,466.4,250.3,463.8,247,463.8z M249,520.8c0,1.1-0.9,2-2,2h-23.6c-1.1,0-2-0.9-2-2v-51.2c0-1.1,0.9-2,2-2H247
				c1.1,0,2,0.9,2,2V520.8z"/>
			<path class="st1" d="M235.2,513c-2.2,0-3.9,1.8-3.9,3.9c0,2.2,1.8,3.9,3.9,3.9s3.9-1.8,3.9-3.9C239.1,514.7,237.4,513,235.2,513z
				"/>
			<path class="st1" d="M239.1,469.7h-7.9c-1.1,0-2,0.9-2,2s0.9,2,2,2h7.9c1.1,0,2-0.9,2-2S240.2,469.7,239.1,469.7z"/>
		</g>
	</g>
</g>
<g>
	<g>
		<path class="st1" d="M73.7,318.9c0.1,0.1,0.2,0.3,0.2,0.5s-0.1,0.3-0.2,0.5c-0.1,0.1-0.3,0.2-0.5,0.2s-0.3-0.1-0.5-0.2
			c-0.1-0.1-0.2-0.3-0.2-0.5s0.1-0.3,0.2-0.5c0.1-0.1,0.3-0.2,0.5-0.2C73.5,318.7,73.6,318.8,73.7,318.9L73.7,318.9z M73.8,318.8
			c-0.2-0.2-0.3-0.2-0.5-0.2s-0.4,0.1-0.5,0.2c-0.2,0.2-0.2,0.3-0.2,0.6c0,0.2,0.1,0.4,0.2,0.6c0.1,0.1,0.3,0.2,0.6,0.2
			c0.2,0,0.4-0.1,0.5-0.2c0.2-0.2,0.2-0.3,0.2-0.6C74.1,319.2,74,319,73.8,318.8L73.8,318.8z M73.4,319.3L73.4,319.3h-0.2v-0.2h0.1
			c0.1,0,0.1,0,0.1,0l0.1,0.1C73.4,319.3,73.4,319.3,73.4,319.3L73.4,319.3z M73.2,319.5L73.2,319.5L73.2,319.5c0.1,0,0.2,0,0.2,0
			s0.1,0,0.1,0.1v0.1c0,0.1,0,0.1,0,0.1h0.2l0,0l0,0l0,0v-0.1c0-0.1,0-0.2-0.1-0.2h-0.1c0.1,0,0.1,0,0.1-0.1c0,0,0.1-0.1,0.1-0.2
			s0-0.2-0.1-0.2c0,0-0.1,0-0.2,0c0,0-0.1,0-0.2,0s-0.2,0-0.2,0v0.9h0.2V319.5L73.2,319.5z"/>
		<g>
			<circle class="st1" cx="56.3" cy="313.9" r="0.4"/>
			<path class="st1" d="M62.7,313.5c-0.2,0-0.4,0.2-0.4,0.4c0,0.2,0.2,0.4,0.4,0.4s0.4-0.2,0.4-0.4l0,0l0,0
				C63.1,313.6,62.9,313.5,62.7,313.5z"/>
			<circle class="st1" cx="59.5" cy="313.9" r="0.4"/>
			<circle class="st1" cx="53.1" cy="314" r="0.4"/>
			<path class="st1" d="M50.3,287.1v31.2h23.8v-31.2H50.3z M51.9,305v-3l0,0H53c1.8,0,3.5-0.9,4.4-2.3L56,299
				c-0.7,0.9-1.8,1.5-3.1,1.5h-1h-0.1v-11.8H60h1.3v10.4c0,3.7-3,6.6-6.6,6.6l0,0h-2.8V305z M52.9,316.8c-0.8,0.1-0.9,0-0.9,0
				c-0.1,0-0.1-0.1-0.1-0.1V316c0-0.1,0.1-0.1,0.1-0.1h0.4c0.4,0,0.6-0.1,0.8-0.4l0.1-0.1c0-0.1-0.1-0.2-0.2-0.2H53l0,0
				c-0.2,0.2-0.3,0.3-0.6,0.3h-0.1H52c-0.1,0-0.1-0.1-0.1-0.1v-2.5c0-0.1,0.1-0.1,0.1-0.1h2.2c0.1,0,0.1,0.1,0.1,0.1v2.2v0.2
				C54.3,316.2,53.4,316.8,52.9,316.8z M57.6,315c0,0.1-0.1,0.1-0.2,0.1h-2.2c-0.1,0-0.2-0.1-0.2-0.1v-2.1c0-0.1,0.1-0.1,0.2-0.1
				h2.2c0.1,0,0.2,0.1,0.2,0.1V315z M60.8,315c0,0.1-0.1,0.1-0.2,0.1h-2.2c-0.1,0-0.2-0.1-0.2-0.1v-2.1c0-0.1,0.1-0.1,0.2-0.1h2.2
				c0.1,0,0.2,0.1,0.2,0.1V315z M64,315c0,0.1-0.1,0.1-0.1,0.1h-0.5l0,0h-1.8c-0.1,0-0.1-0.1-0.1-0.1v-2.1c0-0.1,0.1-0.1,0.1-0.1H63
				c0.1,0,0.1-0.1,0.1-0.1v-0.9c0-0.1,0.1-0.1,0.1-0.1h0.6c0.1,0,0.1,0.1,0.1,0.1v3.2H64z M68.1,315c0,0.1-0.1,0.1-0.1,0.1h-0.6l0,0
				h-0.7l0,0H66l0,0h-0.7l0,0h-0.5h-0.1c-0.1,0-0.1-0.1-0.1-0.1v-2.1c0-0.1,0.1-0.1,0.1-0.1h0.6c0.1,0,0.1,0.1,0.1,0.1v1v0.3
				c0,0.1,0.1,0.1,0.1,0.1h0.2c0.1,0,0.1-0.1,0.1-0.1v-0.3v-1c0-0.1,0.1-0.1,0.1-0.1h0.6c0.1,0,0.1,0.1,0.1,0.1v1v0.3
				c0,0.1,0.1,0.1,0.1,0.1h0.2c0.1,0,0.1-0.1,0.1-0.1l0,0v-0.3v-1c0-0.1,0.1-0.1,0.1-0.1h0.6c0.1,0,0.1,0.1,0.1,0.1v2.1H68.1z
				 M69.6,315c0,0.1-0.1,0.1-0.1,0.1h-0.6c-0.1,0-0.1-0.1-0.1-0.1v-2.1c0-0.1,0.1-0.1,0.1-0.1h0.6c0.1,0,0.1,0.1,0.1,0.1V315z
				 M69.6,312.4c0,0.1-0.1,0.1-0.1,0.1h-0.6c-0.1,0-0.1-0.1-0.1-0.1v-0.6c0-0.1,0.1-0.1,0.1-0.1h0.6c0.1,0,0.1,0.1,0.1,0.1V312.4z
				 M71,315c0,0.1-0.1,0.1-0.1,0.1h-0.6c-0.1,0-0.1-0.1-0.1-0.1v-3.3c0-0.1,0.1-0.1,0.1-0.1h0.6c0.1,0,0.1,0.1,0.1,0.1V315z
				 M72.5,315c0,0.1-0.1,0.1-0.1,0.1h-0.6c-0.1,0-0.1-0.1-0.1-0.1v-3.3c0-0.1,0.1-0.1,0.1-0.1h0.6c0.1,0,0.1,0.1,0.1,0.1V315z
				 M72.5,310.4H51.9v-2v-1.1h2.8c4.6,0,8.3-3.7,8.3-8.3v-10.4h1h8.5V310.4z"/>
			<circle class="st1" cx="56.6" cy="293.7" r="2.1"/>
		</g>
		<g>
			<g>
				<path class="st1" d="M78.8,300.8v-13.7h4.8l4.2,7.6l0,0v-7.6h4v13.7h-4.6l-4.5-7.7v7.7H78.8z"/>
			</g>
			<g>
				<path class="st1" d="M96.9,300.8v-3.9l-4.7-9.9H97l2,5.4l2-5.4h4.8l-4.7,9.9v3.9H96.9z"/>
			</g>
			<g>
				<path class="st1" d="M78.8,318.1v-13.7h4.8l4.2,7.6l0,0v-7.6h4v13.7h-4.6l-4.5-7.7v7.7H78.8z"/>
			</g>
			<g>
				<path class="st1" d="M99.7,313.1v-8.7h4.2v8.3c0,2-0.3,3.4-0.9,4.2c-0.8,1.1-2.2,1.6-4.3,1.6c-2.1,0-3.6-0.4-4.4-1.3
					c-0.9-0.9-1.3-2.5-1.3-5h4.2c0,1,0,1.6,0.1,1.9c0.2,0.6,0.5,0.9,1.1,0.9C99.2,315.2,99.7,314.5,99.7,313.1z"/>
			</g>
		</g>
	</g>
	<path class="st2" d="M155.8,409.6H50.1c-9.7,0-17.6-7.9-17.6-17.6V286.4c0-9.7,7.9-17.6,17.6-17.6h105.7c9.7,0,17.6,7.9,17.6,17.6
		V392C173.4,401.7,165.5,409.6,155.8,409.6z"/>
	<g class="st0">
		<path class="st1" d="M52.7,363.5h4c0.5,0,0.9,0,1.4,0.1c0.5,0.1,0.9,0.2,1.3,0.4c0.4,0.2,0.7,0.5,0.9,0.8c0.2,0.4,0.3,0.8,0.3,1.4
			c0,0.6-0.2,1.1-0.5,1.5c-0.3,0.4-0.8,0.7-1.3,0.9v0c0.4,0,0.7,0.1,1,0.3c0.3,0.1,0.5,0.3,0.7,0.6s0.4,0.5,0.5,0.8
			c0.1,0.3,0.2,0.6,0.2,1c0,0.6-0.1,1-0.4,1.4s-0.6,0.7-0.9,0.9c-0.4,0.2-0.8,0.4-1.3,0.5s-1,0.2-1.4,0.2h-4.4V363.5z M55.1,367.8
			h1.7c0.2,0,0.4,0,0.5-0.1c0.2,0,0.3-0.1,0.5-0.2s0.3-0.2,0.3-0.4c0.1-0.2,0.1-0.3,0.1-0.5c0-0.2,0-0.4-0.1-0.6
			c-0.1-0.1-0.2-0.3-0.4-0.3c-0.2-0.1-0.3-0.1-0.5-0.2c-0.2,0-0.4-0.1-0.6-0.1h-1.6V367.8z M55.1,372.2h2.1c0.2,0,0.4,0,0.6-0.1
			c0.2,0,0.4-0.1,0.5-0.2c0.2-0.1,0.3-0.2,0.4-0.4s0.1-0.4,0.1-0.6c0-0.3-0.1-0.5-0.2-0.6s-0.3-0.3-0.5-0.4s-0.4-0.1-0.6-0.2
			s-0.4,0-0.6,0h-1.8V372.2z"/>
		<path class="st1" d="M62.5,363.5h4.1c0.5,0,1.1,0.1,1.5,0.2c0.5,0.1,0.9,0.3,1.3,0.5c0.4,0.2,0.7,0.6,0.9,1s0.3,0.9,0.3,1.6
			c0,0.8-0.2,1.4-0.6,1.9c-0.4,0.5-1,0.9-1.7,1l2.7,4.5h-2.8l-2.2-4.3h-1.2v4.3h-2.4V363.5z M64.9,367.9h1.4c0.2,0,0.4,0,0.7,0
			c0.2,0,0.5-0.1,0.6-0.1c0.2-0.1,0.4-0.2,0.5-0.4s0.2-0.4,0.2-0.7c0-0.3-0.1-0.5-0.2-0.6c-0.1-0.2-0.3-0.3-0.4-0.4
			s-0.4-0.1-0.6-0.2c-0.2,0-0.4,0-0.6,0h-1.5V367.9z"/>
		<path class="st1" d="M75.8,363.5h1.9l4.7,10.7h-2.7l-0.9-2.3h-4.2l-0.9,2.3h-2.6L75.8,363.5z M76.7,366.6l-1.3,3.3h2.6L76.7,366.6
			z"/>
		<path class="st1" d="M83.5,363.5h3.2l4.5,7.4h0v-7.4h2.4v10.7h-3.1l-4.7-7.6h0v7.6h-2.4V363.5z"/>
		<path class="st1" d="M95.8,363.5h3.5c0.9,0,1.7,0.1,2.4,0.3c0.8,0.2,1.4,0.5,2,0.9c0.6,0.4,1,1,1.4,1.7c0.3,0.7,0.5,1.5,0.5,2.5
			c0,0.9-0.2,1.6-0.5,2.3c-0.3,0.7-0.8,1.2-1.3,1.7c-0.6,0.4-1.2,0.8-1.9,1c-0.7,0.2-1.5,0.3-2.3,0.3h-3.9V363.5z M98.2,372h1.2
			c0.5,0,1.1-0.1,1.5-0.2c0.5-0.1,0.9-0.3,1.2-0.6c0.3-0.3,0.6-0.6,0.8-1c0.2-0.4,0.3-0.9,0.3-1.5c0-0.5-0.1-1-0.3-1.4
			c-0.2-0.4-0.5-0.7-0.8-1s-0.7-0.4-1.2-0.6s-0.9-0.2-1.4-0.2h-1.4V372z"/>
		<path class="st1" d="M107.3,363.5h2.4v10.7h-2.4V363.5z"/>
		<path class="st1" d="M111.8,363.5h3.2l4.5,7.4h0v-7.4h2.4v10.7h-3.1l-4.7-7.6h0v7.6h-2.4V363.5z"/>
		<path class="st1" d="M133.8,373.4c-0.7,0.4-1.4,0.6-2.2,0.8c-0.8,0.2-1.5,0.2-2.3,0.2c-0.8,0-1.6-0.1-2.3-0.4
			c-0.7-0.3-1.3-0.6-1.8-1.1c-0.5-0.5-0.9-1.1-1.2-1.8c-0.3-0.7-0.4-1.5-0.4-2.3s0.1-1.6,0.4-2.3c0.3-0.7,0.7-1.3,1.2-1.8
			c0.5-0.5,1.1-0.9,1.8-1.1c0.7-0.3,1.5-0.4,2.3-0.4c0.9,0,1.6,0.1,2.4,0.3c0.7,0.2,1.4,0.6,1.9,1.1l-1.7,1.8
			c-0.3-0.3-0.7-0.6-1.1-0.8c-0.4-0.2-0.9-0.3-1.5-0.3c-0.5,0-1,0.1-1.4,0.3c-0.4,0.2-0.8,0.4-1.1,0.7c-0.3,0.3-0.5,0.7-0.7,1.1
			c-0.2,0.4-0.2,0.9-0.2,1.4c0,0.5,0.1,1,0.2,1.4c0.2,0.4,0.4,0.8,0.7,1.1c0.3,0.3,0.6,0.5,1.1,0.7c0.4,0.2,0.9,0.3,1.4,0.3
			c0.5,0,1-0.1,1.3-0.2c0.4-0.1,0.7-0.2,0.9-0.4V370h-1.9v-2.2h4.2V373.4z"/>
		<path class="st1" d="M148.2,371.7l2.4,2.5h-2.9l-0.9-1c-0.4,0.5-0.9,0.8-1.4,1c-0.5,0.2-1.1,0.3-1.7,0.3c-0.5,0-1-0.1-1.4-0.2
			c-0.5-0.1-0.9-0.3-1.2-0.6c-0.4-0.3-0.6-0.6-0.9-1s-0.3-0.9-0.3-1.4c0-0.3,0.1-0.7,0.2-1c0.1-0.3,0.3-0.6,0.5-0.8
			c0.2-0.3,0.4-0.5,0.7-0.7s0.6-0.3,0.9-0.4c-0.2-0.2-0.3-0.4-0.5-0.5c-0.1-0.2-0.3-0.4-0.4-0.5c-0.1-0.2-0.2-0.4-0.2-0.6
			c-0.1-0.2-0.1-0.4-0.1-0.7c0-0.5,0.1-0.9,0.3-1.2c0.2-0.3,0.4-0.6,0.7-0.8c0.3-0.2,0.7-0.4,1.1-0.5s0.8-0.2,1.2-0.2
			c0.4,0,0.8,0.1,1.2,0.2c0.4,0.1,0.7,0.3,1,0.5s0.5,0.5,0.7,0.8c0.2,0.3,0.3,0.7,0.3,1.2c0,0.3-0.1,0.6-0.2,0.9s-0.2,0.5-0.4,0.8
			c-0.2,0.2-0.4,0.4-0.6,0.6s-0.5,0.3-0.8,0.5l1.4,1.5l1-1.4h2.6L148.2,371.7z M143.5,369.6c-0.2,0.1-0.3,0.2-0.4,0.3
			c-0.1,0.1-0.3,0.2-0.4,0.3c-0.1,0.1-0.2,0.2-0.3,0.4c-0.1,0.2-0.1,0.3-0.1,0.5c0,0.2,0,0.4,0.1,0.5s0.2,0.3,0.3,0.4
			c0.1,0.1,0.3,0.2,0.5,0.3s0.4,0.1,0.5,0.1c0.4,0,0.7-0.1,0.9-0.2c0.3-0.2,0.5-0.3,0.8-0.6L143.5,369.6z M144.3,365
			c-0.3,0-0.5,0.1-0.7,0.3c-0.2,0.2-0.3,0.4-0.3,0.7c0,0.1,0,0.3,0.1,0.4c0.1,0.1,0.1,0.2,0.2,0.4c0.1,0.1,0.2,0.2,0.3,0.3
			c0.1,0.1,0.2,0.2,0.3,0.3c0.1-0.1,0.3-0.2,0.4-0.2s0.3-0.2,0.4-0.3c0.1-0.1,0.2-0.2,0.3-0.4c0.1-0.1,0.1-0.3,0.1-0.4
			c0-0.3-0.1-0.6-0.3-0.7C144.8,365.1,144.6,365,144.3,365z"/>
	</g>
	<g class="st0">
		<path class="st1" d="M48.9,384.2c-0.2-0.2-0.5-0.4-0.8-0.5c-0.3-0.1-0.6-0.2-0.9-0.2c-0.2,0-0.3,0-0.5,0.1c-0.2,0-0.4,0.1-0.5,0.2
			s-0.3,0.2-0.4,0.3c-0.1,0.1-0.2,0.3-0.2,0.5c0,0.3,0.1,0.6,0.4,0.7c0.2,0.2,0.5,0.3,0.9,0.4c0.4,0.1,0.8,0.2,1.2,0.4
			s0.8,0.3,1.2,0.5c0.4,0.2,0.7,0.5,0.9,0.9c0.2,0.4,0.4,0.9,0.4,1.5c0,0.6-0.1,1.1-0.3,1.6s-0.5,0.8-0.9,1.1
			c-0.4,0.3-0.8,0.5-1.3,0.7c-0.5,0.1-1,0.2-1.6,0.2c-0.7,0-1.3-0.1-1.9-0.3c-0.6-0.2-1.1-0.6-1.7-1l1.7-1.8
			c0.2,0.3,0.5,0.6,0.9,0.7c0.4,0.2,0.7,0.3,1.1,0.3c0.2,0,0.4,0,0.6-0.1c0.2,0,0.4-0.1,0.5-0.2c0.2-0.1,0.3-0.2,0.4-0.3
			c0.1-0.1,0.1-0.3,0.1-0.5c0-0.3-0.1-0.6-0.4-0.8s-0.6-0.3-0.9-0.5c-0.4-0.1-0.8-0.3-1.2-0.4s-0.8-0.3-1.2-0.5
			c-0.4-0.2-0.7-0.5-0.9-0.9c-0.2-0.4-0.4-0.8-0.4-1.4c0-0.6,0.1-1.1,0.3-1.5c0.2-0.4,0.5-0.8,0.9-1.1c0.4-0.3,0.8-0.5,1.3-0.7
			c0.5-0.1,1-0.2,1.5-0.2c0.6,0,1.2,0.1,1.8,0.3s1.1,0.5,1.5,0.9L48.9,384.2z"/>
		<path class="st1" d="M61.3,388.2c0,0.6-0.1,1.2-0.3,1.8s-0.5,1-0.9,1.4s-0.8,0.7-1.4,0.9c-0.6,0.2-1.2,0.3-1.9,0.3
			c-0.7,0-1.4-0.1-2-0.3c-0.6-0.2-1-0.5-1.4-0.9s-0.7-0.9-0.9-1.4s-0.3-1.1-0.3-1.8v-6.6h2.4v6.5c0,0.3,0.1,0.6,0.2,0.9
			c0.1,0.3,0.3,0.5,0.4,0.7c0.2,0.2,0.4,0.4,0.7,0.5s0.6,0.2,0.9,0.2c0.3,0,0.6-0.1,0.9-0.2s0.5-0.3,0.7-0.5
			c0.2-0.2,0.3-0.5,0.4-0.7c0.1-0.3,0.2-0.6,0.2-0.9v-6.5h2.4V388.2z"/>
		<path class="st1" d="M68.8,384.2c-0.2-0.2-0.5-0.4-0.8-0.5c-0.3-0.1-0.6-0.2-0.9-0.2c-0.2,0-0.3,0-0.5,0.1c-0.2,0-0.4,0.1-0.5,0.2
			s-0.3,0.2-0.4,0.3c-0.1,0.1-0.2,0.3-0.2,0.5c0,0.3,0.1,0.6,0.4,0.7c0.2,0.2,0.5,0.3,0.9,0.4c0.4,0.1,0.8,0.2,1.2,0.4
			s0.8,0.3,1.2,0.5c0.4,0.2,0.7,0.5,0.9,0.9c0.2,0.4,0.4,0.9,0.4,1.5c0,0.6-0.1,1.1-0.3,1.6s-0.5,0.8-0.9,1.1
			c-0.4,0.3-0.8,0.5-1.3,0.7c-0.5,0.1-1,0.2-1.6,0.2c-0.7,0-1.3-0.1-1.9-0.3c-0.6-0.2-1.1-0.6-1.7-1l1.7-1.8
			c0.2,0.3,0.5,0.6,0.9,0.7c0.4,0.2,0.7,0.3,1.1,0.3c0.2,0,0.4,0,0.6-0.1c0.2,0,0.4-0.1,0.5-0.2c0.2-0.1,0.3-0.2,0.4-0.3
			c0.1-0.1,0.1-0.3,0.1-0.5c0-0.3-0.1-0.6-0.4-0.8s-0.6-0.3-0.9-0.5c-0.4-0.1-0.8-0.3-1.2-0.4s-0.8-0.3-1.2-0.5
			c-0.4-0.2-0.7-0.5-0.9-0.9c-0.2-0.4-0.4-0.8-0.4-1.4c0-0.6,0.1-1.1,0.3-1.5c0.2-0.4,0.5-0.8,0.9-1.1c0.4-0.3,0.8-0.5,1.3-0.7
			c0.5-0.1,1-0.2,1.5-0.2c0.6,0,1.2,0.1,1.8,0.3s1.1,0.5,1.5,0.9L68.8,384.2z"/>
		<path class="st1" d="M74.2,383.7h-3.1v-2.1h8.5v2.1h-3.1v8.6h-2.4V383.7z"/>
		<path class="st1" d="M83,381.6h1.9l4.7,10.7h-2.7L86,390h-4.2l-0.9,2.3h-2.6L83,381.6z M83.9,384.7l-1.3,3.3h2.6L83.9,384.7z"/>
		<path class="st1" d="M90.6,381.6H93v10.7h-2.4V381.6z"/>
		<path class="st1" d="M95.1,381.6h3.2l4.5,7.4h0v-7.4h2.4v10.7h-3.1l-4.7-7.6h0v7.6h-2.4V381.6z"/>
		<path class="st1" d="M111,381.6h1.9l4.7,10.7h-2.7L114,390h-4.2l-0.9,2.3h-2.6L111,381.6z M111.9,384.7l-1.3,3.3h2.6L111.9,384.7z
			"/>
		<path class="st1" d="M118.7,381.6h4c0.5,0,0.9,0,1.4,0.1c0.5,0.1,0.9,0.2,1.3,0.4c0.4,0.2,0.7,0.5,0.9,0.8
			c0.2,0.4,0.3,0.8,0.3,1.4c0,0.6-0.2,1.1-0.5,1.5c-0.3,0.4-0.8,0.7-1.3,0.9v0c0.4,0,0.7,0.1,1,0.3c0.3,0.1,0.5,0.3,0.7,0.6
			s0.4,0.5,0.5,0.8c0.1,0.3,0.2,0.6,0.2,1c0,0.6-0.1,1-0.4,1.4s-0.6,0.7-0.9,0.9c-0.4,0.2-0.8,0.4-1.3,0.5s-1,0.2-1.4,0.2h-4.4
			V381.6z M121,385.9h1.7c0.2,0,0.4,0,0.5-0.1c0.2,0,0.3-0.1,0.5-0.2s0.3-0.2,0.3-0.4c0.1-0.2,0.1-0.3,0.1-0.5c0-0.2,0-0.4-0.1-0.6
			c-0.1-0.1-0.2-0.3-0.4-0.3c-0.2-0.1-0.3-0.1-0.5-0.2c-0.2,0-0.4-0.1-0.6-0.1H121V385.9z M121,390.3h2.1c0.2,0,0.4,0,0.6-0.1
			c0.2,0,0.4-0.1,0.5-0.2c0.2-0.1,0.3-0.2,0.4-0.4s0.1-0.4,0.1-0.6c0-0.3-0.1-0.5-0.2-0.6s-0.3-0.3-0.5-0.4s-0.4-0.1-0.6-0.2
			s-0.4,0-0.6,0H121V390.3z"/>
		<path class="st1" d="M128.4,381.6h2.4v10.7h-2.4V381.6z"/>
		<path class="st1" d="M133,381.6h2.4v8.5h4.4v2.2H133V381.6z"/>
		<path class="st1" d="M141,381.6h2.4v10.7H141V381.6z"/>
		<path class="st1" d="M147.6,383.7h-3.1v-2.1h8.5v2.1h-3.1v8.6h-2.4V383.7z"/>
		<path class="st1" d="M156.8,387.7l-4-6.1h2.9l2.3,4l2.4-4h2.8l-4,6.1v4.6h-2.4V387.7z"/>
	</g>
	<g id="recycle_glyph">
		<g>
			<path class="st1" d="M154.5,306.9c0-0.1-0.1-0.2-0.1-0.2l-2-3.6l0,0l-0.1-0.1c-0.3-0.4-0.7-0.7-1.2-0.7c-0.2,0-0.5,0.1-0.7,0.2
				l-0.5,0.3l-2,1.1l0,0c-0.4,0.2-0.7,0.7-0.7,1.3c0,0.2,0.1,0.5,0.2,0.7l0,0l2,3.7c0,0,0.1,0.1,0.1,0.2c0.2,0.4,0.3,0.9,0.3,1.4
				c0,1.8-1.4,3.3-3.2,3.3l-5.1,0.1c-0.4,0-0.8-0.4-0.8-0.8v-0.1v-1.4c0-0.3-0.3-0.6-0.6-0.6c-0.1,0-0.2,0-0.3,0.1l-0.1,0.1
				l-1.8,1.5l-1.6,1.4l-2.6,2.2c-0.2,0.2-0.3,0.4-0.3,0.7c0,0.3,0.1,0.5,0.3,0.7l2.6,2.1l3.4,2.7l0.1,0.1c0.1,0.1,0.2,0.1,0.3,0.1
				c0.3,0,0.6-0.3,0.6-0.6l0,0v-1.4V321c0-0.5,0.4-0.9,0.9-0.9l5-0.1c2.7,0,5.1-1.3,6.7-3.2c0.6-0.8,1.2-1.6,1.5-2.6
				c0.4-1,0.6-2.1,0.6-3.3C155.5,309.5,155.2,308.1,154.5,306.9z"/>
			<path class="st1" d="M128.6,314.1c-0.2-0.1-0.4-0.2-0.7-0.2l0,0l-4.2-0.1c-0.1,0-0.1,0-0.2,0c-0.5,0-0.9-0.2-1.4-0.4
				c-1.6-0.9-2.1-2.9-1.3-4.4l2.5-4.5c0.2-0.4,0.7-0.5,1.1-0.3h0.1l1.2,0.7l0,0c0.3,0.2,0.7,0.1,0.8-0.2c0.1-0.1,0.1-0.2,0.1-0.4
				v-0.1l-0.4-2.3L126,300l-0.6-3.3c0-0.3-0.2-0.5-0.5-0.6c-0.2-0.1-0.5-0.1-0.8,0l-3.1,1.2l-4.1,1.6h-0.1c-0.1,0-0.2,0.1-0.2,0.2
				c-0.2,0.3-0.1,0.7,0.2,0.8l1.2,0.7h0.1c0.4,0.3,0.5,0.8,0.3,1.2l-2.5,4.4c-1.3,2.4-1.5,5.1-0.6,7.4c0.3,0.9,0.9,1.8,1.5,2.6
				c0.7,0.8,1.5,1.6,2.6,2.1c1.3,0.7,2.7,1.1,4,1.1c0.1,0,0.2,0,0.3,0l4.1,0.1l0,0h0.1c0.5,0,1-0.3,1.2-0.7c0.1-0.2,0.2-0.5,0.2-0.7
				v-0.6v-2.2l0,0C129.4,314.9,129.1,314.4,128.6,314.1z"/>
			<path class="st1" d="M138.4,289.4l2.6,4.4c0.2,0.4,0,0.9-0.3,1.1l-0.1,0.1l-1.2,0.7c-0.3,0.2-0.4,0.5-0.2,0.8
				c0.1,0.1,0.2,0.2,0.3,0.2h0.1l2.2,0.8l2,0.7l3.2,1.1c0.2,0.1,0.5,0.1,0.8-0.1c0.2-0.1,0.4-0.4,0.4-0.6l0.5-3.3l0.7-4.3v-0.1
				c0-0.1,0-0.2-0.1-0.3c-0.2-0.3-0.5-0.4-0.8-0.2l0,0l-1.2,0.7h-0.1c-0.4,0.2-1,0.1-1.2-0.3l-2.6-4.3c-1.4-2.3-3.7-3.8-6.2-4.2
				c-1-0.2-2-0.2-3,0c-1.1,0.2-2.1,0.6-3.1,1.1c-1.3,0.7-2.3,1.8-3,2.9c0,0.1-0.1,0.2-0.1,0.2l-2.1,3.5l-0.1,0.1
				c-0.2,0.4-0.2,1,0,1.4c0.1,0.2,0.3,0.4,0.5,0.5l0.5,0.3l1.9,1.2l0,0c0.4,0.3,1,0.3,1.5,0c0.2-0.1,0.4-0.3,0.5-0.5l0,0l2.2-3.6
				c0,0,0.1-0.1,0.1-0.2c0.3-0.4,0.6-0.7,1-1C135.5,287.4,137.5,287.9,138.4,289.4z"/>
		</g>
	</g>
	<g id="chart">
		<path class="st1" d="M124.5,327.8c-2.1,0-3.7,1.7-3.7,3.7c0,0.4,0.1,0.8,0.2,1.2l-9,7.8c-0.6-0.5-1.4-0.8-2.3-0.8
			c-1,0-1.9,0.4-2.6,1.1l-7.1-3.5c-0.1-1.9-1.7-3.5-3.7-3.5c-2.1,0-3.7,1.7-3.7,3.7c0,0.6,0.1,1.1,0.4,1.6l-7.2,8.3
			c-0.4-0.2-0.8-0.2-1.3-0.2c-2.1,0-3.7,1.7-3.7,3.7s1.7,3.7,3.7,3.7s3.7-1.7,3.7-3.7c0-0.5-0.1-1-0.3-1.4l7.3-8.4
			c0.4,0.1,0.7,0.2,1.1,0.2c1.1,0,2.1-0.5,2.7-1.2l6.9,3.5c0,2,1.7,3.7,3.7,3.7c2.1,0,3.7-1.7,3.7-3.7c0-0.1,0-0.1,0-0.2l9.6-8.3
			c0.5,0.2,1,0.3,1.5,0.3c2.1,0,3.7-1.7,3.7-3.7C128.2,329.4,126.6,327.8,124.5,327.8z"/>
	</g>
</g>
<g>
	<path class="st2" d="M753.7,420.7H648c-9.7,0-17.6-7.9-17.6-17.6V297.5c0-9.7,7.9-17.6,17.6-17.6h105.7c9.7,0,17.6,7.9,17.6,17.6
		v105.7C771.2,412.8,763.4,420.7,753.7,420.7z"/>
	<g class="st0">
		<path class="st1" d="M663.8,377.2c-0.2-0.2-0.5-0.4-0.8-0.5c-0.3-0.1-0.6-0.2-0.9-0.2c-0.2,0-0.3,0-0.5,0.1
			c-0.2,0-0.4,0.1-0.5,0.2s-0.3,0.2-0.4,0.3c-0.1,0.1-0.2,0.3-0.2,0.5c0,0.3,0.1,0.6,0.4,0.7c0.2,0.2,0.5,0.3,0.9,0.4
			c0.4,0.1,0.8,0.2,1.2,0.4c0.4,0.1,0.8,0.3,1.2,0.5s0.7,0.5,0.9,0.9c0.2,0.4,0.4,0.9,0.4,1.5c0,0.6-0.1,1.1-0.3,1.6
			s-0.5,0.8-0.9,1.1c-0.4,0.3-0.8,0.5-1.3,0.7s-1,0.2-1.6,0.2c-0.7,0-1.3-0.1-1.9-0.3c-0.6-0.2-1.1-0.6-1.7-1l1.7-1.8
			c0.2,0.3,0.5,0.6,0.9,0.7c0.4,0.2,0.7,0.3,1.1,0.3c0.2,0,0.4,0,0.6-0.1c0.2,0,0.4-0.1,0.5-0.2c0.2-0.1,0.3-0.2,0.4-0.3
			c0.1-0.1,0.1-0.3,0.1-0.5c0-0.3-0.1-0.6-0.4-0.8s-0.6-0.3-0.9-0.5c-0.4-0.1-0.8-0.3-1.2-0.4c-0.4-0.1-0.8-0.3-1.2-0.5
			c-0.4-0.2-0.7-0.5-0.9-0.9c-0.2-0.4-0.4-0.8-0.4-1.4c0-0.6,0.1-1.1,0.3-1.5c0.2-0.4,0.5-0.8,0.9-1.1c0.4-0.3,0.8-0.5,1.3-0.7
			c0.5-0.1,1-0.2,1.5-0.2c0.6,0,1.2,0.1,1.8,0.3s1.1,0.5,1.5,0.9L663.8,377.2z"/>
		<path class="st1" d="M669.3,376.7h-3.1v-2.1h8.5v2.1h-3.1v8.6h-2.4V376.7z"/>
		<path class="st1" d="M675.9,374.6h4.1c0.5,0,1.1,0.1,1.5,0.2c0.5,0.1,0.9,0.3,1.3,0.5s0.7,0.6,0.9,1s0.3,0.9,0.3,1.6
			c0,0.8-0.2,1.4-0.6,1.9c-0.4,0.5-1,0.9-1.7,1l2.7,4.5h-2.8l-2.2-4.3h-1.2v4.3h-2.4V374.6z M678.3,379h1.4c0.2,0,0.4,0,0.7,0
			c0.2,0,0.5-0.1,0.6-0.1c0.2-0.1,0.4-0.2,0.5-0.4s0.2-0.4,0.2-0.7c0-0.3-0.1-0.5-0.2-0.6c-0.1-0.2-0.3-0.3-0.4-0.4
			c-0.2-0.1-0.4-0.1-0.6-0.2s-0.4,0-0.6,0h-1.5V379z"/>
		<path class="st1" d="M689.2,374.6h1.9l4.7,10.7h-2.7l-0.9-2.3h-4.2l-0.9,2.3h-2.6L689.2,374.6z M690.1,377.7l-1.3,3.3h2.6
			L690.1,377.7z"/>
		<path class="st1" d="M697.6,376.7h-3.1v-2.1h8.5v2.1h-3.1v8.6h-2.4V376.7z"/>
		<path class="st1" d="M704.3,374.6h7.3v2.2h-4.9v2h4.6v2.2h-4.6v2.2h5.2v2.2h-7.5V374.6z"/>
		<path class="st1" d="M723.4,384.5c-0.7,0.4-1.4,0.6-2.2,0.8s-1.5,0.2-2.3,0.2c-0.8,0-1.6-0.1-2.3-0.4s-1.3-0.6-1.8-1.1
			c-0.5-0.5-0.9-1.1-1.2-1.8s-0.4-1.5-0.4-2.3s0.1-1.6,0.4-2.3s0.7-1.3,1.2-1.8c0.5-0.5,1.1-0.9,1.8-1.1c0.7-0.3,1.5-0.4,2.3-0.4
			c0.9,0,1.6,0.1,2.4,0.3c0.7,0.2,1.4,0.6,1.9,1.1l-1.7,1.8c-0.3-0.3-0.7-0.6-1.1-0.8c-0.4-0.2-0.9-0.3-1.5-0.3
			c-0.5,0-1,0.1-1.4,0.3c-0.4,0.2-0.8,0.4-1,0.7c-0.3,0.3-0.5,0.7-0.7,1.1c-0.2,0.4-0.2,0.9-0.2,1.4c0,0.5,0.1,1,0.2,1.4
			c0.2,0.4,0.4,0.8,0.7,1.1c0.3,0.3,0.6,0.5,1,0.7c0.4,0.2,0.9,0.3,1.4,0.3c0.5,0,1-0.1,1.3-0.2s0.7-0.2,0.9-0.4v-1.7h-1.9v-2.2h4.2
			V384.5z"/>
		<path class="st1" d="M725.4,374.6h2.4v10.7h-2.4V374.6z"/>
		<path class="st1" d="M736.9,377.4c-0.2-0.3-0.5-0.5-0.9-0.6c-0.3-0.2-0.7-0.2-1.2-0.2s-0.9,0.1-1.2,0.3c-0.4,0.2-0.7,0.4-1,0.7
			c-0.3,0.3-0.5,0.7-0.7,1.1c-0.2,0.4-0.2,0.9-0.2,1.4c0,0.5,0.1,1,0.2,1.4c0.2,0.4,0.4,0.8,0.6,1.1c0.3,0.3,0.6,0.5,1,0.7
			c0.4,0.2,0.8,0.3,1.2,0.3c0.5,0,0.9-0.1,1.3-0.3c0.4-0.2,0.7-0.5,0.9-0.8l2,1.5c-0.5,0.6-1,1.1-1.7,1.4c-0.7,0.3-1.4,0.5-2.1,0.5
			c-0.8,0-1.6-0.1-2.3-0.4s-1.3-0.6-1.8-1.1c-0.5-0.5-0.9-1.1-1.2-1.8s-0.4-1.5-0.4-2.3s0.1-1.6,0.4-2.3s0.7-1.3,1.2-1.8
			c0.5-0.5,1.1-0.9,1.8-1.1c0.7-0.3,1.5-0.4,2.3-0.4c0.3,0,0.6,0,0.9,0.1c0.3,0.1,0.7,0.1,1,0.3s0.6,0.3,0.9,0.5
			c0.3,0.2,0.6,0.4,0.8,0.7L736.9,377.4z"/>
	</g>
	<g class="st0">
		<path class="st1" d="M645.6,392.7h4c0.6,0,1.1,0.1,1.6,0.2c0.5,0.1,0.9,0.3,1.3,0.5c0.4,0.2,0.7,0.6,0.9,1
			c0.2,0.4,0.3,0.9,0.3,1.6c0,0.6-0.1,1.1-0.3,1.6c-0.2,0.4-0.5,0.8-0.8,1c-0.4,0.3-0.8,0.4-1.3,0.5s-1,0.2-1.6,0.2h-1.7v4.2h-2.4
			V392.7z M647.9,397.2h1.6c0.2,0,0.4,0,0.6-0.1c0.2,0,0.4-0.1,0.5-0.2s0.3-0.2,0.4-0.4s0.1-0.4,0.1-0.6c0-0.3-0.1-0.5-0.2-0.7
			c-0.1-0.2-0.3-0.3-0.5-0.4s-0.4-0.1-0.7-0.2s-0.5,0-0.7,0h-1.2V397.2z"/>
		<path class="st1" d="M657.5,392.7h1.9l4.7,10.7h-2.7l-0.9-2.3h-4.2l-0.9,2.3h-2.6L657.5,392.7z M658.4,395.8l-1.3,3.3h2.6
			L658.4,395.8z"/>
		<path class="st1" d="M665.2,392.7h4.1c0.5,0,1.1,0.1,1.5,0.2s0.9,0.3,1.3,0.5c0.4,0.2,0.7,0.6,0.9,1s0.3,0.9,0.3,1.6
			c0,0.8-0.2,1.4-0.6,1.9c-0.4,0.5-1,0.9-1.7,1l2.7,4.5h-2.8l-2.2-4.3h-1.2v4.3h-2.4V392.7z M667.5,397.1h1.4c0.2,0,0.4,0,0.7,0
			c0.2,0,0.5-0.1,0.6-0.1c0.2-0.1,0.3-0.2,0.5-0.4s0.2-0.4,0.2-0.7c0-0.3-0.1-0.5-0.2-0.6c-0.1-0.2-0.3-0.3-0.4-0.4
			c-0.2-0.1-0.4-0.1-0.6-0.2c-0.2,0-0.4,0-0.7,0h-1.5V397.1z"/>
		<path class="st1" d="M676.8,394.8h-3.1v-2.1h8.5v2.1h-3.1v8.6h-2.4V394.8z"/>
		<path class="st1" d="M683.4,392.7h3.2l4.5,7.4h0v-7.4h2.4v10.7h-3.1l-4.7-7.6h0v7.6h-2.4V392.7z"/>
		<path class="st1" d="M695.8,392.7h7.3v2.2h-4.9v2h4.6v2.2h-4.6v2.2h5.2v2.2h-7.5V392.7z"/>
		<path class="st1" d="M705.2,392.7h4.1c0.5,0,1.1,0.1,1.5,0.2c0.5,0.1,0.9,0.3,1.3,0.5s0.7,0.6,0.9,1s0.3,0.9,0.3,1.6
			c0,0.8-0.2,1.4-0.6,1.9c-0.4,0.5-1,0.9-1.7,1l2.7,4.5H711l-2.2-4.3h-1.2v4.3h-2.4V392.7z M707.6,397.1h1.4c0.2,0,0.4,0,0.7,0
			c0.2,0,0.5-0.1,0.6-0.1c0.2-0.1,0.4-0.2,0.5-0.4s0.2-0.4,0.2-0.7c0-0.3-0.1-0.5-0.2-0.6c-0.1-0.2-0.3-0.3-0.4-0.4
			c-0.2-0.1-0.4-0.1-0.6-0.2s-0.4,0-0.6,0h-1.5V397.1z"/>
		<path class="st1" d="M720.3,395.3c-0.2-0.2-0.5-0.4-0.8-0.5c-0.3-0.1-0.6-0.2-0.9-0.2c-0.2,0-0.3,0-0.5,0.1
			c-0.2,0-0.4,0.1-0.5,0.2s-0.3,0.2-0.4,0.3c-0.1,0.1-0.2,0.3-0.2,0.5c0,0.3,0.1,0.6,0.4,0.7c0.2,0.2,0.5,0.3,0.9,0.4
			c0.4,0.1,0.8,0.2,1.2,0.4c0.4,0.1,0.8,0.3,1.2,0.5s0.7,0.5,0.9,0.9c0.2,0.4,0.4,0.9,0.4,1.5c0,0.6-0.1,1.1-0.3,1.6
			s-0.5,0.8-0.9,1.1c-0.4,0.3-0.8,0.5-1.3,0.7s-1,0.2-1.6,0.2c-0.7,0-1.3-0.1-1.9-0.3c-0.6-0.2-1.1-0.6-1.7-1l1.7-1.8
			c0.2,0.3,0.5,0.6,0.9,0.7c0.4,0.2,0.7,0.3,1.1,0.3c0.2,0,0.4,0,0.6-0.1c0.2,0,0.4-0.1,0.5-0.2c0.2-0.1,0.3-0.2,0.4-0.3
			c0.1-0.1,0.1-0.3,0.1-0.5c0-0.3-0.1-0.6-0.4-0.8s-0.6-0.3-0.9-0.5c-0.4-0.1-0.8-0.3-1.2-0.4c-0.4-0.1-0.8-0.3-1.2-0.5
			c-0.4-0.2-0.7-0.5-0.9-0.9c-0.2-0.4-0.4-0.8-0.4-1.4c0-0.6,0.1-1.1,0.3-1.5c0.2-0.4,0.5-0.8,0.9-1.1c0.4-0.3,0.8-0.5,1.3-0.7
			c0.5-0.1,1-0.2,1.5-0.2c0.6,0,1.2,0.1,1.8,0.3s1.1,0.5,1.5,0.9L720.3,395.3z"/>
		<path class="st1" d="M723.7,392.7h2.4v4h4.6v-4h2.4v10.7h-2.4v-4.6H726v4.6h-2.4V392.7z"/>
		<path class="st1" d="M735.1,392.7h2.4v10.7h-2.4V392.7z"/>
		<path class="st1" d="M739.6,392.7h4c0.6,0,1.1,0.1,1.6,0.2c0.5,0.1,0.9,0.3,1.3,0.5c0.4,0.2,0.7,0.6,0.9,1s0.3,0.9,0.3,1.6
			c0,0.6-0.1,1.1-0.3,1.6c-0.2,0.4-0.5,0.8-0.8,1c-0.4,0.3-0.8,0.4-1.3,0.5c-0.5,0.1-1,0.2-1.6,0.2H742v4.2h-2.4V392.7z M742,397.2
			h1.6c0.2,0,0.4,0,0.6-0.1c0.2,0,0.4-0.1,0.5-0.2c0.2-0.1,0.3-0.2,0.4-0.4s0.1-0.4,0.1-0.6c0-0.3-0.1-0.5-0.2-0.7
			c-0.1-0.2-0.3-0.3-0.5-0.4s-0.4-0.1-0.7-0.2c-0.2,0-0.5,0-0.7,0H742V397.2z"/>
		<path class="st1" d="M754.4,395.3c-0.2-0.2-0.5-0.4-0.8-0.5c-0.3-0.1-0.6-0.2-0.9-0.2c-0.2,0-0.3,0-0.5,0.1
			c-0.2,0-0.4,0.1-0.5,0.2s-0.3,0.2-0.4,0.3c-0.1,0.1-0.2,0.3-0.2,0.5c0,0.3,0.1,0.6,0.4,0.7c0.2,0.2,0.5,0.3,0.9,0.4
			c0.4,0.1,0.8,0.2,1.2,0.4c0.4,0.1,0.8,0.3,1.2,0.5c0.4,0.2,0.7,0.5,0.9,0.9c0.2,0.4,0.4,0.9,0.4,1.5c0,0.6-0.1,1.1-0.3,1.6
			s-0.5,0.8-0.9,1.1c-0.4,0.3-0.8,0.5-1.3,0.7c-0.5,0.1-1,0.2-1.6,0.2c-0.7,0-1.3-0.1-1.9-0.3c-0.6-0.2-1.1-0.6-1.7-1l1.7-1.8
			c0.2,0.3,0.5,0.6,0.9,0.7c0.4,0.2,0.7,0.3,1.1,0.3c0.2,0,0.4,0,0.6-0.1c0.2,0,0.4-0.1,0.5-0.2s0.3-0.2,0.4-0.3
			c0.1-0.1,0.1-0.3,0.1-0.5c0-0.3-0.1-0.6-0.4-0.8s-0.6-0.3-0.9-0.5s-0.8-0.3-1.2-0.4c-0.4-0.1-0.8-0.3-1.2-0.5
			c-0.4-0.2-0.7-0.5-0.9-0.9c-0.2-0.4-0.4-0.8-0.4-1.4c0-0.6,0.1-1.1,0.3-1.5s0.5-0.8,0.9-1.1c0.4-0.3,0.8-0.5,1.3-0.7
			c0.5-0.1,1-0.2,1.5-0.2c0.6,0,1.2,0.1,1.8,0.3s1.1,0.5,1.5,0.9L754.4,395.3z"/>
	</g>
	<g>
		<path class="st1" d="M683.7,338.8L683.7,338.8c0.8-1,0.8-2.4,0.1-3.5c-0.1-0.1-0.2-0.3-0.3-0.4l-0.7-0.7c-0.1-0.1-0.1-0.1-0.2-0.2
			c0,0-0.1,0-0.1-0.1l-0.1-0.1c0,0-0.1,0-0.1-0.1l-0.1-0.1h-0.1c-0.1,0-0.1-0.1-0.2-0.1h-0.1c-0.1,0-0.1,0-0.2-0.1c0,0,0,0-0.1,0
			s-0.1,0-0.2-0.1l0,0c-0.2,0-0.4-0.1-0.6-0.1c-0.4,0-0.8,0.1-1.2,0.2l0,0c-0.1,0-0.1,0.1-0.2,0.1c0,0,0,0-0.1,0l-0.1,0.1
			c-0.1,0-0.1,0.1-0.2,0.1l-0.1,0.1c-0.1,0.1-0.1,0.1-0.2,0.2l-1.5,1.5c-1.1,1.1-1.1,3,0,4.2l0.3,0.3l0,0l0.4,0.4
			c0.6,0.6,1.3,0.9,2.1,0.9s1.5-0.3,2.1-0.9l1.5-1.5C683.6,338.9,683.6,338.9,683.7,338.8z"/>
		<path class="st1" d="M744,316.6c0-0.4-0.2-0.8-0.4-1.1l-11.1-11.1l0,0l0,0l0,0c0,0,0,0-0.1-0.1l0,0l-8.5-8.5l-0.1-0.1
			c-0.2-0.2-0.5-0.3-0.9-0.3h-0.1h-0.1c-0.4,0-0.7,0.2-1,0.4l-5,5c-0.6,0.6-0.6,1.6,0,2.1l0.1,0.1l19.7,19.7c0.3,0.3,0.6,0.4,1,0.4
			h0.1h0.1c0.4,0,0.7-0.2,1-0.4l5-5C743.9,317.4,744,317,744,316.6z M738.9,318.9c-0.4,0.4-0.9,0.6-1.4,0.6s-1.1-0.2-1.4-0.6
			c-0.8-0.8-0.8-2.1,0-2.9c0.4-0.4,0.9-0.6,1.4-0.6s1,0.2,1.4,0.5c0.1,0.1,0.2,0.3,0.3,0.3C739.7,317.1,739.6,318.2,738.9,318.9z"/>
		<path class="st1" d="M687.3,303c0.6-0.6,0.6-1.6,0-2.1l-5.1-5c-0.3-0.3-0.7-0.4-1.1-0.4c-0.1,0-0.3,0-0.4,0.1
			c-0.2,0.1-0.3,0.2-0.5,0.4l-8.4,8.4l-0.1,0.1l-0.1,0.1l-11.1,11.1c-0.2,0.2-0.4,0.5-0.6,0.8c0,0,0,0,0,0.1c0,0,0,0,0,0.1v0.1
			c0,0.4,0.2,0.8,0.4,1l5.1,5c0.3,0.2,0.6,0.4,0.9,0.4c0,0,0,0,0.1,0h0.1c0.4,0,0.8-0.2,1-0.4L687.3,303L687.3,303z M668,318.9
			c-0.4,0.4-0.9,0.6-1.4,0.6s-1.1-0.2-1.4-0.6c-0.8-0.8-0.8-2.1,0-2.9c0.4-0.4,0.9-0.6,1.4-0.6s1,0.2,1.4,0.5
			c0.1,0.1,0.2,0.3,0.3,0.3C668.8,317.1,668.7,318.2,668,318.9z"/>
		<path class="st1" d="M688.9,345.4l0.5-0.5c0.1-0.1,0.1-0.1,0.2-0.2l0,0c0.4-0.5,0.6-1.1,0.6-1.7c0-0.2,0-0.4,0-0.6v-0.1
			c-0.1-0.5-0.3-1-0.7-1.4c0-0.1-0.1-0.1-0.2-0.2l-0.7-0.7l0,0c-0.1-0.1-0.1-0.1-0.2-0.2c0,0,0,0-0.1-0.1c-0.1,0-0.1-0.1-0.2-0.1
			c0,0,0,0-0.1,0s-0.1-0.1-0.2-0.1l0,0c-0.1,0-0.1-0.1-0.2-0.1l0,0c-0.3-0.1-0.7-0.2-1.1-0.2c-0.5,0-1,0.1-1.4,0.4c0,0,0,0-0.1,0
			s-0.1,0.1-0.2,0.1c-0.1,0-0.1,0.1-0.2,0.2c-0.1,0.1-0.2,0.1-0.2,0.2l-1.5,1.5c-0.6,0.6-0.9,1.3-0.9,2.1c0,0.8,0.3,1.5,0.9,2.1
			l0.6,0.6c0.1,0,0.1,0.1,0.1,0.1c0.5,0.5,1.3,0.8,2,0.8c0.8,0,1.5-0.3,2.1-0.9l0.7-0.7C688.7,345.5,688.8,345.5,688.9,345.4z"/>
		<path class="st1" d="M725.6,334.4L725.6,334.4l-11-11l-2.4-2.4l0,0l0,0l-4.2-4.2l-5.2,5.2v0.1l-0.9,3.4c-0.2,0.4-0.3,0.8-0.5,1.2
			c-1.2,2.5-3.3,4.1-5.7,4.4c-0.9,0.1-3,0-4-1.3c-0.4-0.5-0.5-1.2-0.5-2.1c0.1-1.1,0.4-2,0.4-2.1l0.1-0.2v-0.1l2.2-8.3v-0.1l7-7.1
			l0,0l-0.4-0.4l-1.4-1.4c-0.3-0.3-1.1-0.6-1.5-0.6l-2.5,0.2l0,0L691,308l-3.4-3.4L669.2,323l3.1,3.1l0.1,0.1l6.1,6.1l0,0l0,0
			c0.7-0.4,1.4-0.5,2.1-0.5l0,0l0,0c0.1,0,0.3,0,0.4,0h0.1c0.1,0,0.1,0,0.2,0c0.1,0,0.2,0,0.2,0h0.1c0.1,0,0.2,0,0.2,0.1
			c0,0,0,0,0.1,0s0.2,0.1,0.3,0.1c0,0,0,0,0.1,0s0.2,0.1,0.3,0.1l0,0c0.2,0.1,0.4,0.2,0.6,0.3l0,0c0.1,0.1,0.2,0.1,0.3,0.2l0,0
			c0.1,0.1,0.2,0.2,0.3,0.2l0.7,0.7c0.1,0.1,0.2,0.2,0.3,0.3c0,0,0,0,0.1,0.1s0.1,0.2,0.2,0.3l0,0c0.1,0.1,0.1,0.2,0.2,0.3v0.1
			c0.1,0.1,0.1,0.2,0.1,0.3l0,0c0,0.1,0.1,0.2,0.1,0.3v0.1c0,0.1,0.1,0.2,0.1,0.3l0,0c0,0.1,0,0.2,0.1,0.3v0.1c0,0.1,0,0.2,0,0.3
			c0,0,0,0,0,0.1s0,0.2,0,0.3v0.1c0,0.1,0,0.2,0,0.3c0,0,0,0,0,0.1s0,0.2,0,0.3c0.9-0.2,1.8-0.1,2.6,0.3l0,0c0.1,0,0.1,0,0.2,0.1
			c0,0,0,0,0.1,0c0,0,0.1,0,0.1,0.1c0,0,0.1,0,0.1,0.1c0,0,0.1,0,0.1,0.1c0.1,0,0.1,0.1,0.2,0.1c0,0,0,0,0.1,0l0.1,0.1
			c0,0,0,0,0.1,0.1l0.1,0.1c0,0,0,0,0.1,0.1s0.1,0.1,0.2,0.2l0.7,0.7c0.6,0.6,1,1.3,1.2,2.1c0,0.1,0.1,0.2,0.1,0.3v0.1l0,0
			c0,0.1,0,0.2,0,0.3c0,0,0,0,0,0.1s0,0.2,0,0.3c0,0,0,0,0,0.1s0,0.2,0,0.3l0,0c0,0.1,0,0.2,0,0.3l0,0c1-0.2,2.1-0.1,3,0.4l0,0
			c0.2,0.1,0.3,0.2,0.5,0.3l0.1,0.1c0,0,0.1,0,0.1,0.1l0.1,0.1c0,0,0,0,0.1,0.1s0.1,0.1,0.2,0.2l0.7,0.7c0.1,0.1,0.2,0.2,0.3,0.3
			c0,0,0,0.1,0.1,0.1c0.1,0.1,0.1,0.2,0.2,0.3l0,0c0.1,0.1,0.1,0.2,0.2,0.3v0.1c0,0.1,0.1,0.2,0.1,0.3c0,0,0,0,0,0.1
			s0.1,0.2,0.1,0.3v0.1c0,0.1,0.1,0.2,0.1,0.3v0.1c0,0.1,0,0.2,0.1,0.3v0.1c0,0.1,0,0.2,0,0.3v0.1c0,0.1,0,0.2,0,0.4c0,0,0,0,0,0.1
			s0,0.2,0,0.3v0.1c0,0.1,0,0.2-0.1,0.3h0.1l0,0c0.1,0,0.2,0,0.3,0h0.1c0.1,0,0.2,0,0.3,0l0,0c1,0,1.9,0.3,2.7,0.9l0,0
			c0.1,0,0.1,0.1,0.2,0.1l0,0c0.1,0.1,0.1,0.1,0.2,0.2l0.7,0.7c0.1,0.1,0.2,0.2,0.3,0.3l0.1,0.1c0.1,0.1,0.1,0.1,0.2,0.2l0.1,0.1
			c0,0.1,0.1,0.1,0.1,0.2l0.1,0.1c0,0.1,0.1,0.1,0.1,0.2s0,0.1,0.1,0.2c0,0.1,0.1,0.1,0.1,0.2s0,0.1,0.1,0.2c0,0.1,0,0.1,0.1,0.2
			c0,0.1,0,0.1,0,0.2s0,0.1,0,0.2s0,0.1,0,0.2s0,0.1,0,0.2s0,0.3,0,0.4v0.1c0,0.1,0,0.2,0,0.2v0.1c0,0.1,0,0.2,0,0.2v0.1
			c0,0.1,0,0.2,0,0.2v0.1c0,0.1,0,0.2-0.1,0.2v0.1c0,0.1-0.1,0.2-0.1,0.2v0.1c0,0.1-0.1,0.2-0.1,0.2l0,0c0,0,0,0,0,0.1l0.8,0.8
			c0.5,0.5,1.3,0.8,2,0.9l0,0l0,0l0,0c0.8,0,1.5-0.3,2-0.9l0.7-0.7c0.6-0.6,0.9-1.3,0.9-2.1c0-0.8-0.3-1.5-0.9-2.1l-4-4l0,0l0,0
			l-5.2-5.2l0,0l-3.4-3.4c-0.2-0.1-0.3-0.4-0.3-0.6c0-0.4,0.3-0.8,0.8-0.8c0.2,0,0.4,0.1,0.5,0.2l0,0l0,0l8.6,8.6
			c0.1,0,0.1,0.1,0.2,0.2l4.6,4.6c0.6,0.6,1.3,0.9,2.1,0.9s1.5-0.3,2.1-0.9l0.7-0.7c0.6-0.6,0.9-1.3,0.9-2.1c0-0.8-0.3-1.5-0.9-2.1
			l-4-4l0,0l-6.8-6.8l-2.6-2.6l0,0c-0.1-0.1-0.2-0.3-0.2-0.5c0-0.4,0.3-0.8,0.8-0.8c0.2,0,0.3,0.1,0.5,0.2l0,0l0,0c0,0,0,0,0.1,0.1
			l9.1,9.1c0.1,0.1,0.1,0.1,0.2,0.2l3.9,3.9l0,0l0.1,0.1l0,0l0.5,0.5c1.1,1.1,3,1.1,4.2,0l0.7-0.7c1.1-1.1,1.1-3,0-4.2l0,0l-1.9-1.9
			l-0.5-0.5L708.2,328l0,0l-0.4-0.4l0,0c-0.1-0.1-0.2-0.3-0.2-0.5c0-0.4,0.3-0.8,0.8-0.8c0.2,0,0.4,0.1,0.5,0.2l0,0l1.6,1.6l0.1,0.1
			v0.1l8.3,8.3c0.1,0.1,0.2,0.1,0.2,0.2l3.9,3.9l0.1,0.1l0,0l0.1,0.1l0.5,0.5c0.6,0.6,1.3,0.9,2.1,0.9s1.5-0.3,2.1-0.9l0.7-0.7
			c1.1-1.1,1.1-3,0-4.2L725.6,334.4z"/>
		<path class="st1" d="M716.3,304.7l-3.1,3.1c-0.1,0.2-0.4,0.3-0.6,0.3l0,0l0,0l-6.3-0.5c-0.5,0-1.2,0.2-1.5,0.6l-1.7,1.7l-0.6,0.6
			l0,0l-7.2,7.2v0.1l-2.1,7.9c0,0.1,0,0.1-0.1,0.2L693,326c0,0-0.3,0.9-0.4,1.8c0,0.5,0,0.8,0.2,1c0.4,0.6,1.8,0.8,2.5,0.7
			c1.8-0.2,3.5-1.6,4.5-3.6c0.2-0.3,0.3-0.6,0.4-1l0.9-3.5l0,0l0.1-0.3l0,0l0.1-0.1l6.4-6.4l5.2,5.2c0.1,0,0.1,0.1,0.2,0.2l2.9,2.9
			l9.3,9.3l9.2-9.2L716.3,304.7L716.3,304.7z"/>
		<path class="st1" d="M702,354.4v-0.1v-0.1v-0.1V354v-0.1v-0.1v-0.1v-0.1c0,0,0-0.1-0.1-0.1c0,0,0-0.1-0.1-0.1l-0.1-0.1
			c0,0,0-0.1-0.1-0.1l-0.1-0.1c0,0,0,0-0.1-0.1s-0.1-0.1-0.2-0.2l-0.7-0.7c-0.1-0.1-0.1-0.1-0.2-0.2c0,0-0.1,0-0.1-0.1l-0.1-0.1
			l-0.1-0.1c0,0-0.1,0-0.1-0.1c0,0-0.1,0-0.1-0.1h-0.1c0,0-0.1,0-0.1-0.1h-0.1h-0.1h-0.1h-0.1c-0.1,0-0.1,0-0.2,0h-0.1
			c-0.1,0-0.1,0-0.2,0c0,0,0,0-0.1,0s-0.1,0-0.2,0c0,0,0,0-0.1,0s-0.1,0-0.2,0l0,0c-0.1,0-0.1,0-0.2,0l0,0c-0.1,0-0.1,0-0.2,0.1l0,0
			c-0.1,0-0.1,0-0.2,0.1c0,0,0,0-0.1,0s-0.1,0-0.2,0.1c0,0-0.1,0-0.1,0.1c0,0-0.1,0-0.1,0.1c-0.1,0-0.1,0.1-0.2,0.1
			c-0.1,0.1-0.2,0.2-0.3,0.3l-1.5,1.5c-0.6,0.6-0.9,1.3-0.9,2.1c0,0.8,0.3,1.5,0.9,2.1l0.3,0.3c0,0,0,0,0.1,0.1l0.3,0.3
			c0.6,0.6,1.3,0.9,2.1,0.9s1.5-0.3,2.1-0.9l1.5-1.5c0.1-0.1,0.2-0.2,0.3-0.3l0,0c0,0,0-0.1,0.1-0.1l0.1-0.1c0,0,0-0.1,0.1-0.1
			c0,0,0-0.1,0.1-0.1c0,0,0-0.1,0.1-0.1v-0.1c0,0,0-0.1,0.1-0.1V356v-0.1v-0.1v-0.1v-0.1v-0.1v-0.1v-0.1v-0.1
			C702,354.5,702,354.4,702,354.4z"/>
		<path class="st1" d="M695.5,350.5c0.8-0.9,0.9-2.3,0.3-3.3c-0.1-0.2-0.3-0.5-0.5-0.7l-0.7-0.7c-0.1-0.1-0.1-0.1-0.2-0.2
			c-0.8-0.6-1.8-0.8-2.8-0.5l0,0c-0.1,0-0.1,0-0.2,0.1c0,0,0,0-0.1,0s-0.1,0.1-0.2,0.1c0,0,0,0-0.1,0s-0.1,0.1-0.2,0.1
			c0,0,0,0-0.1,0s-0.1,0.1-0.2,0.2c-0.1,0.1-0.2,0.1-0.2,0.2l-0.7,0.7l-0.8,0.8c-0.6,0.6-0.9,1.3-0.9,2.1c0,0.8,0.3,1.5,0.9,2.1
			l0.4,0.4c0.1,0,0.1,0.1,0.1,0.1l0.1,0.1c0.6,0.6,1.3,0.9,2.1,0.9s1.5-0.3,2.1-0.9l1.5-1.5C695.4,350.7,695.5,350.6,695.5,350.5z"
			/>
	</g>
</g>
<line class="st2" x1="395.9" y1="169.3" x2="395.9" y2="233.8"/>
<line class="st2" x1="300.2" y1="374.7" x2="241.1" y2="448.2"/>
<line class="st2" x1="288" y1="306.3" x2="173.4" y2="314.3"/>
<line class="st2" x1="293.9" y1="240.1" x2="191.6" y2="171.2"/>
<line class="st2" x1="505.1" y1="241.1" x2="624" y2="180.2"/>
<line class="st2" x1="509.9" y1="313.5" x2="627.4" y2="353.1"/>
<line class="st2" x1="498.7" y1="375.2" x2="539.4" y2="452.1"/>
</svg>
