<?xml version="1.0" encoding="utf-8"?>
<!-- Generator: Adobe Illustrator 20.0.0, SVG Export Plug-In . SVG Version: 6.00 Build 0)  -->
<svg version="1.1" id="Layer_1" xmlns="http://www.w3.org/2000/svg" xmlns:xlink="http://www.w3.org/1999/xlink" x="0px" y="0px"
	 viewBox="0 0 792 612" style="enable-background:new 0 0 792 612;" xml:space="preserve">
<style type="text/css">
	.st0{fill:#0056A5;}
	.st1{font-family:'Avenir-Heavy';}
	.st2{font-size:77.9328px;}
	.st3{letter-spacing:-14;}
	.st4{letter-spacing:-3;}
	.st5{font-size:27.4311px;}
	.st6{fill:none;stroke:#0056A5;stroke-width:7;stroke-miterlimit:10;}
	.st7{font-family:'Avenir-Black';}
	.st8{font-size:30.0669px;}
	.st9{fill:#94C5EA;}
	.st10{fill:#9C979B;}
	.st11{fill:#9E989C;}
	.st12{fill:#9E989D;}
	.st13{fill:#9D979C;}
	.st14{fill:#9D979B;}
	.st15{fill:#F4F3F4;}
	.st16{fill:#E2E0E7;}
	.st17{fill:#F1EFEF;}
	.st18{fill:#DDDBE2;}
	.st19{font-size:15.1269px;}
	.st20{opacity:0.5;}
	.st21{fill:#B0D0E8;}
	.st22{fill:#C1C1C0;}
	.st23{fill:#FFFFFF;}
	.st24{fill:#F9F9FA;}
	.st25{opacity:0.64;}
	.st26{font-size:21.3502px;}
	.st27{fill:#5F8DC9;}
	.st28{font-size:18.1454px;}
	.st29{fill:none;}
	.st30{font-size:15.1141px;}
</style>
<g>
	<g>
		<text transform="matrix(1 0 0 1 309.8066 319.9131)"><tspan x="0" y="0" class="st0 st1 st2 st3">1</tspan><tspan x="32.1" y="0" class="st0 st1 st2 st4">00K</tspan></text>
	</g>
	<text transform="matrix(1 0 0 1 312.7065 346.7627)" class="st0 st1 st5">DONATIONS</text>
</g>
<g>
	<rect x="76.4" y="74.7" class="st0" width="4" height="10"/>
	<path class="st0" d="M82.4,66.6h3.8v-4h-3.8c-3.3,0-6,2.7-6,6v0l4,0C80.4,67.5,81.3,66.6,82.4,66.6z"/>
	<rect x="92.2" y="62.6" class="st0" width="10" height="4"/>
	<rect x="76.4" y="90.7" class="st0" width="4" height="10"/>
	<rect x="108.2" y="62.6" class="st0" width="10" height="4"/>
	<rect x="131.6" y="73.1" class="st0" width="4" height="10"/>
	<path class="st0" d="M129.6,107.3h-1.4h-2.3h-10.4h-5.7H107c0.5,1.2,0.8,2.6,0.8,4h1.9h5.7h10.4h2.3h1.4c3.3,0,6-2.7,6-6v0l-4,0
		C131.6,106.4,130.7,107.3,129.6,107.3z"/>
	<rect x="131.6" y="89.2" class="st0" width="4" height="10"/>
	<path class="st0" d="M131.4,67.9l3.7-1.5c-0.9-2.3-3.1-3.8-5.6-3.8h-5.3v4h5.3C130.4,66.6,131.1,67.1,131.4,67.9z"/>
	<path class="st0" d="M82.4,107.3c-0.8,0-1.5-0.5-1.9-1.3l-3.7,1.5c0.9,2.3,3.1,3.7,5.6,3.7h1.1h3c0-1.4,0.3-2.8,0.8-4h-3.9H82.4z"
		/>
	<ellipse class="st0" cx="152.6" cy="111.3" rx="7.7" ry="7.4"/>
	<ellipse class="st0" cx="97.2" cy="111.3" rx="7.7" ry="7.4"/>
	<path class="st0" d="M169.5,96.8L157,76.3c-0.6-0.9-1.9-1.7-3-1.7h-13.4c-1.1,0-2,0.9-2,2v32.7c0,1.1,0.9,2,2,2h1.3
		c0-5.7,4.8-10.4,10.7-10.4c5.9,0,10.7,4.7,10.7,10.4h5.2c1.1,0,2-0.9,2-2v-8.8C170.5,99.5,170,97.8,169.5,96.8z M160.9,91.8
		L143.5,87c-0.5-0.1-1-0.7-1-1.3v-6.2c0-0.5,0.5-1,1-1h9.2c0.5,0,1.2,0.4,1.5,0.9l7.1,11.7C161.6,91.7,161.4,91.9,160.9,91.8z"/>
</g>
<path class="st6" d="M176.3,180.2H70.6c-9.7,0-17.6-7.9-17.6-17.6V57c0-9.7,7.9-17.6,17.6-17.6h105.7c9.7,0,17.6,7.9,17.6,17.6
	v105.7C193.8,172.3,186,180.2,176.3,180.2z"/>
<path class="st6" d="M492.4,376.4H305.7c-9.7,0-17.6-7.9-17.6-17.6V253.2c0-9.7,7.9-17.6,17.6-17.6h186.7c9.7,0,17.6,7.9,17.6,17.6
	v105.7C509.9,368.5,502,376.4,492.4,376.4z"/>
<text transform="matrix(1 0 0 1 67.7804 161.7894)" class="st0 st7 st8">SMADC</text>
<g>
	<path class="st6" d="M452.4,169.3H346.7c-9.7,0-17.6-7.9-17.6-17.6V46.1c0-9.7,7.9-17.6,17.6-17.6h105.7c9.7,0,17.6,7.9,17.6,17.6
		v105.7C469.9,161.5,462,169.3,452.4,169.3z"/>
	<text transform="matrix(1 0 0 1 350.2515 150.9367)" class="st0 st7 st8">SMBIN</text>
	<g>
		<path class="st0" d="M354.4,43c0.1,0,0.3,0,0.4,0c0,10.2,0,20.4,0,30.6c0,1.2,0.2,1.8,1.6,1.8c3.3-0.1,6.6-0.1,9.9,0
			c1.4,0,1.6-0.6,1.6-1.8c0-10.2,0-20.4,0-30.6c0.1,0,0.3,0,0.4,0c0,10.2,0,20.4,0,30.6c0,1.2,0.2,1.8,1.6,1.8
			c3.4-0.1,6.8-0.1,10.2,0c1.4,0,1.6-0.6,1.6-1.8c0-10.2,0-20.4,0-30.6c0.1,0,0.3,0,0.4,0c0,10.2,0,20.3,0,30.5
			c0,1.4,0.4,1.8,1.8,1.8c4-0.1,8,0,12,0c0,6.4,0.1,12.9,0.1,19.3c-2.9,1.5-5.9,2.9-9,4c-4,0-8,0-11.9-0.1
			c-1.4-8.6-9.2-13.6-16.8-12.3c-5.9,1-11.2,6.4-11.6,12.3c-1.5,0-3.5,0.5-4.4-0.3c-1.1-0.9-0.3-3-0.3-4.5c0-6.2,0-12.4,0-18.5
			c3.6,0,7.2,0,10.8,0c1.4,0,1.8-0.5,1.8-1.8C354.4,63.4,354.4,53.2,354.4,43z"/>
		<path class="st0" d="M395.8,75.3c-4,0-8,0-12,0c-1.4,0-1.8-0.4-1.8-1.8c0.1-10.2,0-20.3,0-30.5c3.3,0,6.7-0.1,10,0
			c2.2,0,3.7,1.6,3.7,3.7C395.9,56.2,395.8,65.8,395.8,75.3z"/>
		<path class="st0" d="M381.7,43c0,10.2,0,20.4,0,30.6c0,1.2-0.2,1.8-1.6,1.8c-3.4-0.1-6.8-0.1-10.2,0c-1.4,0-1.6-0.6-1.6-1.8
			c0-10.2,0-20.4,0-30.6C372.7,43,377.2,43,381.7,43z"/>
		<path class="st0" d="M367.8,43c0,10.2,0,20.4,0,30.6c0,1.2-0.2,1.8-1.6,1.8c-3.3-0.1-6.6-0.1-9.9,0c-1.4,0-1.6-0.6-1.6-1.8
			c0-10.2,0-20.4,0-30.6C359.2,43,363.5,43,367.8,43z"/>
		<path class="st0" d="M354.4,43c0,10.2,0,20.3,0,30.5c0,1.3-0.4,1.8-1.8,1.8c-3.6-0.1-7.2,0-10.8,0c0-9.5-0.1-19,0-28.6
			c0-2.2,1.6-3.7,3.7-3.7C348.5,42.9,351.5,43,354.4,43z"/>
		<path class="st9" d="M386.9,98.6c3.1-1.1,6.1-2.5,9-4c4.1-1.8,8.1-3.6,12.2-5.3c0.9-0.4,0.6-0.9,0.5-1.6c-0.4-1.8-1.5-3.3-1.3-5.3
			c0.5-0.1,1-0.1,1.5-0.2c0.5,1.4,1,2.8,1.4,4.3c0.3,1.1,0.7,1.4,1.9,0.9c8.2-3.8,16.4-7.6,24.7-11.1c1.9-0.8,0.7-2,0.9-3
			c0.5-0.1,1-0.3,1.5-0.4c1.8,3.6,2.8,7.6,4.3,11.3c0.4,1,0.5,2,1.2,2.9c0.1,0.8,0.3,1.5,0.8,2.1c-0.1,0.7,0.2,1.3,0.5,1.9
			c0.5,1.6,1.1,3.2,1.6,4.8c0.4,1.1,0.7,2.2,1.5,3.1c-0.4,0.5-0.9,0.9-0.9,1.6c-1.4-0.7-1.7-2.1-2.2-3.4c-0.7-1.6-1-3.4-2-4.9
			c0-0.7-0.2-1.3-0.6-1.9c-0.3-0.8-0.5-1.6-0.8-2.4c-0.6-1.6-0.8-4-1.9-4.5c-1.3-0.6-2.8,1.5-4.2,2.4c-6.1,4.2-12.2,8.5-18.2,12.7
			c-0.3-0.5-0.7-1.1-1-1.6c2.1-1.5,4.1-3,6.2-4.5c5.2-3.6,10.3-7.3,15.5-10.8c1.8-1.2,0.3-2.3,0-3.4c-0.4-1.4-1.3-0.3-1.9-0.1
			c-8.1,3.6-16.2,7.3-24.4,10.9c-1.4,0.6-1.6,1.3-1.1,2.6c0.5,1.1,0.7,2.4,1.1,3.6c-0.6,0.2-1.3,0.4-1.9,0.7
			c-0.4-1.4-0.8-2.8-1.1-4.2c-0.2-0.8-0.5-1.1-1.4-0.7c-4.2,2-8.4,3.9-12.7,5.8c-1.1,0.3-2.2,0.8-3.1,1.5c-0.9,0.2-1.7,0.5-2.7,1.2
			c6.2,0,12.1,0,18,0c0,0.7,0,1.3,0,2c-11.4,0-22.9,0-34.3,0.1c-1,0-2.1,0-3.1,0c-1.7,0-3.4-0.1-5.1-0.1c0-0.6,0-1.3,0-1.9
			c1.7,0,3.4-0.1,5.1-0.1c0.6,0,1.2,0,1.9,0.1c0.8,1.3,1.6,1.3,2.5,0c2.8,0,5.5,0,8.3,0C384.6,99.8,385.9,99.5,386.9,98.6z"/>
		<path class="st0" d="M446.1,91.1c-0.3-0.6-0.6-1.2-0.5-1.9c2.2-0.5,4.3-1.1,6.6-0.5c0.9,0.3,1.3-0.4,1.8-0.9
			c5.9,2.1,9.5,7.3,9.2,12.9c-0.3,6.4-4.3,11.1-10.5,12.5c-8.4,1.9-16.6-5.2-15.8-13.8c0.1-0.6,0.1-1.2,0.1-1.8c1.8-0.7,2-2.6,3-3.9
			c1-1.4,2.2-2.6,3.6-3.5c0.4,0.6,0.5,1.2,0.6,1.9c-4.3,3.3-5.5,8.3-3.2,12.9c2.2,4.3,7.3,6.5,11.8,5.1c5.6-1.7,8.6-7.5,6.8-12.9
			C457.6,91.7,451.9,89,446.1,91.1z"/>
		<path class="st0" d="M370.6,101.8c1,0,2.1,0,3.1,0c-1,7.2-6.5,12-13.5,11.8c-5.6-0.1-12.4-4.3-12.8-13.1c1.8,0.2,1.3-1.3,1.5-2.2
			c1-5.8,6.5-10.3,12.2-10c6.4,0.4,11.2,5.2,11.5,11.3c-0.6,0-1.2,0-1.9-0.1c0-0.4-0.1-0.7-0.1-1.1c-1.3-5-5.4-8.5-10.1-8.3
			c-4.8,0.1-8.8,3.6-9.6,8.2c-0.3,0.3-0.3,0.7-0.4,1.1c-0.5,5.5,3.6,10.2,9.2,10.9C365,111.1,369.9,107.2,370.6,101.8z"/>
		<path class="st10" d="M372.5,99.8c-0.3-6.1-5.2-10.9-11.5-11.3c-5.6-0.4-11.1,4.2-12.2,10c-0.1,0.8,0.4,2.4-1.5,2.2
			c-1.5-0.1-0.8-1.2-0.9-2c0.4-5.8,5.7-11.3,11.6-12.3c7.6-1.3,15.5,3.7,16.8,12.3c0,0.4,0,0.8,0,1.2
			C374.2,101.1,373.4,101,372.5,99.8z"/>
		<path class="st0" d="M417.5,97c0.3,0.5,0.7,1.1,1,1.6c1.5,4.6-1.8,8.4-6.4,7.5c-0.1-0.8,0.5-1.3,0.8-2c2.8,0,4-1.3,3.8-4
			c-0.2-0.8-0.6-1.4-1.3-1.8c-0.2-0.4-0.7-0.4-1.1-0.6c-0.9-0.4-1.7,0-2.4,0.5c-0.8,0.2-1.2,0.8-1.3,1.6c-0.4,0.7-0.5,1.3,0,2
			c-0.1,0.7,0.5,1,0.8,1.5c-0.2,0.7-0.2,1.6-1.3,1.7c-1.1-0.8-1.5-2.1-2-3.2c0-0.7,0-1.3,0-2c0.6-1.5,1.4-2.9,2.9-3.7
			c0.6-0.2,1.3-0.4,1.9-0.7c0.6,0,1.2,0.1,1.8,0.1c0.7,0.3,1.4,0.7,2.1,1C417,96.7,417.3,96.8,417.5,97z"/>
		<path class="st11" d="M439.2,73c-0.5,0.1-1,0.3-1.5,0.4c-0.7-1.9-1.4-3.8-2.1-5.7c-0.5-1.2-0.1-1.7,1.1-1.9
			c1.2-0.2,2.3-0.6,3.4-0.8c1.3-0.2,1.3-0.9,0.7-1.8c-0.9-1.6-2.3-2.5-4.1-2.5c-1.6,0-3.1,0-4.7,0c-0.5,0-1.1,0-1.1-0.8
			c0-0.8,0.6-0.8,1.1-0.8c1.8,0,3.7-0.1,5.5,0.1c2.8,0.2,5.2,2.8,5.6,5.6c0.1,0.9-0.3,1.3-1.1,1.5c-1.6,0.4-3.9,0.2-4.4,1.4
			c-0.5,1.2,0.8,3,1.3,4.6C439,72.5,439.1,72.7,439.2,73z"/>
		<path class="st0" d="M403.3,69.8c-0.6,0.1-1.2,0.2-1.7,0.3c-3.2,0.2-2.5,1.1-2.7-2.3c-0.1-1.2,0.4-1.4,1.5-1.4
			c3.1,0.1,6.2,0,9.2,0c0.7,0,1.4-0.1,1.5,1c0,1-0.5,1.2-1.3,1.3c-1.5,0.2-3,0.5-4.4,0.7C404.7,69.6,404,69.7,403.3,69.8z"/>
		<path class="st10" d="M443.5,90.4c-1.4,0.9-2.6,2.1-3.6,3.5c-0.9,1.3-1.2,3.2-3,3.9c-1.3-2.3,0.3-4,1.4-5.7c1.1-1.7,2.7-3,4.4-4.1
			C443,88.8,443.3,89.6,443.5,90.4z"/>
		<path class="st12" d="M403.3,69.8c0.7-0.1,1.4-0.3,2-0.4c-0.3,0.4-0.3,0.8-0.2,1.3c1.2,3.9,2.4,7.7,3.6,11.6
			c-0.5,0.1-1,0.1-1.5,0.2C405.7,78.4,404.6,74.1,403.3,69.8z"/>
		<path class="st10" d="M453.9,87.9c-0.5,0.5-0.9,1.1-1.8,0.9c-2.2-0.7-4.4-0.1-6.6,0.5c-0.5-0.6-0.7-1.3-0.8-2.1
			c2.5-1.2,5.2-0.9,7.8-0.8C453.6,86.4,453.9,87,453.9,87.9z"/>
		<path class="st13" d="M412.8,104.1c-0.3,0.7-0.8,1.2-0.8,2c-0.7,0.7-1,1.7-1.5,2.5c-0.3,0.4-0.5,0.8-1.1,0.6
			c-0.6-0.3-0.5-0.8-0.3-1.3c0.3-0.9,1.4-1.7,0.8-2.9c1.1-0.1,1-1,1.3-1.7c0.5-0.4,0.7-0.9,0.7-1.5c0.6-0.4,0.4-1.6,1.5-1.6
			c0.6,0,0.8,0.6,0.8,1.1C413.9,102.2,413.4,103.2,412.8,104.1z"/>
		<path class="st10" d="M365.5,101.7c-2,3.7-5,4.7-7.8,2.6c-2-1.5-1.8-3.6-1.7-5.7c2.8-4.1,6.9-4.1,9.1,0c0.1,0.4,0.3,0.8,0.4,1.1
			C365.5,100.4,365.5,101.1,365.5,101.7z M360.3,99c-0.6,0.1-1.2,0.6-1.2,1.5c0,1,0.6,1.5,1.4,1.5c1,0,1.6-0.6,1.5-1.6
			C362.1,99.5,361.6,98.9,360.3,99z"/>
		<path class="st14" d="M447.7,95.9c0.7,0,1.3-0.1,2-0.1c2.4-0.1,4.3,1.2,4.9,3.1c0.6,2-0.2,4.5-1.8,5.6c-1.8,1.2-4.2,1.1-5.9-0.2
			c-1.6-1.3-2.2-3.8-1.3-5.9c0.2-0.4,0.4-0.8,0.6-1.2c0.5,1.3,0.8,2.7,2.2,3.4c0.3,1,0.9,1.6,2,1.3c0.8-0.2,1.3-0.8,1.1-1.6
			c-0.2-1.3-1.2-1.4-2.2-1.3C448.3,98.1,448.1,96.9,447.7,95.9z"/>
		<path class="st0" d="M449.2,99c1.1-0.1,2,0.1,2.2,1.3c0.1,0.8-0.3,1.4-1.1,1.6c-1.1,0.3-1.7-0.4-2-1.3
			C448.3,99.9,448.8,99.5,449.2,99z"/>
		<path class="st0" d="M395.8,97c0.2,1.1,0,1.8-1.4,1.6c-0.6-0.1-1.2-0.1-1.8-0.1C393.7,97.8,394.7,97.4,395.8,97z"/>
		<path class="st0" d="M370.6,98.6c-1.8,0-3.7,0-5.5,0c-2.1-4.1-6.3-4.1-9.1,0c-1.7,0-3.4,0-5.1-0.1c0.8-4.6,4.9-8.1,9.6-8.2
			C365.2,90.2,369.3,93.6,370.6,98.6z"/>
		<path class="st9" d="M414.4,101.3c0-0.6-0.2-1.1-0.8-1.1c-1.1-0.1-0.9,1.1-1.5,1.6c-0.5,0-1.1,0-1.6,0c-0.5-0.7-0.4-1.3,0-2
			c1.3,0.2,2.1,0,1.3-1.6c0.7-0.6,1.5-0.9,2.4-0.5c-0.8,0.3-0.4,1-0.1,1.2c0.6,0.4,0.9-0.2,1.2-0.6c0.7,0.4,1.1,1.1,1.3,1.8
			C415.9,100.5,415.1,100.9,414.4,101.3z"/>
		<path class="st15" d="M414.4,101.3c0.8-0.4,1.5-0.9,2.3-1.3c0.2,2.8-1,4-3.8,4C413.4,103.2,413.9,102.2,414.4,101.3z"/>
		<path class="st14" d="M414.7,95.5c1-0.5,1.1-1.7,1.7-2.5c0.3-0.4,0.6-0.7,1.1-0.5c0.5,0.3,0.5,0.7,0.4,1.2c-0.3,1-1.2,1.7-1,2.9
			C416.1,96.2,415.4,95.9,414.7,95.5z"/>
		<path class="st16" d="M411.8,98.2c0.8,1.6,0,1.8-1.3,1.6C410.6,99,411,98.4,411.8,98.2z"/>
		<path class="st17" d="M410.5,101.8c0.5,0,1.1,0,1.6,0c-0.1,0.6-0.3,1.1-0.7,1.5C411,102.8,410.4,102.5,410.5,101.8z"/>
		<path class="st18" d="M415.3,98.2c-0.3,0.4-0.6,1-1.2,0.6c-0.3-0.2-0.7-0.9,0.1-1.2C414.6,97.8,415.1,97.8,415.3,98.2z"/>
		<path class="st0" d="M360.3,99c1.2,0,1.8,0.5,1.8,1.4c0.1,1-0.6,1.6-1.5,1.6c-0.9,0-1.4-0.5-1.4-1.5
			C359.2,99.5,359.8,99.1,360.3,99z"/>
	</g>
</g>
<path class="st6" d="M747.3,186.1H641.6c-9.7,0-17.6-7.9-17.6-17.6V62.9c0-9.7,7.9-17.6,17.6-17.6h105.7c9.7,0,17.6,7.9,17.6,17.6
	v105.7C764.8,178.3,757,186.1,747.3,186.1z"/>
<text transform="matrix(1 0 0 1 643.8594 148.4015)"><tspan x="0" y="0" class="st0 st7 st19">GPS &amp; ROUTE </tspan><tspan x="-3.1" y="18.2" class="st0 st7 st19">OPTIMIZATION</tspan></text>
<g>
	<g class="st20">
		<g>
			<defs>
				<rect id="SVGID_1_" x="651.7" y="118.4" width="88.5" height="12.7"/>
			</defs>
			<clipPath id="SVGID_2_">
				<use xlink:href="#SVGID_1_"  style="overflow:visible;"/>
			</clipPath>
			<g style="clip-path:url(#SVGID_2_);">
				
					<image style="overflow:visible;" width="369" height="57" xlink:href="7E0E26CCB796025D.png"  transform="matrix(0.24 0 0 0.24 651.7415 118.4124)">
				</image>
			</g>
		</g>
	</g>
	<g>
		<g>
			<polygon class="st9" points="680.5,76.2 666.1,94.2 666.1,94.2 661.1,91.6 651.7,86.6 651.7,76.2 			"/>
		</g>
		<g>
			<polygon class="st9" points="679.3,103.4 671.3,114.6 658.1,107.3 666.6,96.6 			"/>
		</g>
		<g>
			<path class="st21" d="M680.5,76.2l-14.4,18l-5-2.6l-9.4-5v2.1l13.2,7l-8.4,10.6l-4.7-2.6v21.7h34.1V76.2H680.5z M666.6,96.6
				l12.7,6.7l-8,11.3l-13.2-7.4h0L666.6,96.6z"/>
		</g>
		<g>
			<polygon class="st9" points="713,112.4 713,120 685.9,125.4 685.9,106.8 699.2,100.1 700.3,101.3 703,104.3 711,113.2 			"/>
		</g>
		<g>
			<polygon class="st9" points="713,69.9 713,81.8 712.2,82.5 709.8,92.6 709.8,92.6 685.9,104.7 685.9,104.7 685.9,97.4 
				686.6,96.4 708.1,71.1 			"/>
		</g>
		<g>
			<polygon class="st9" points="686.6,96.4 685.9,97.4 685.9,76.2 705,71.8 708.1,71.1 			"/>
		</g>
		<g>
			<polygon class="st9" points="713,81.8 713,112.4 711,113.2 703,104.3 700.3,101.3 699.2,100.1 685.9,106.8 685.9,104.7 
				685.9,104.7 709.8,92.6 709.8,92.6 712.2,82.5 			"/>
		</g>
		<g>
			<polygon class="st21" points="740.2,76.2 740.2,86.3 713,91.1 713,87.1 713.9,83.6 727.1,73.2 			"/>
		</g>
		<g>
			<polygon class="st21" points="727.1,73.2 713.9,83.6 713,87.1 713,69.9 724.8,72.6 			"/>
		</g>
		<g>
			<polygon class="st21" points="740.2,88.2 740.2,116.2 718.3,108.9 714.4,99.8 713,96.5 713,93.1 713.3,92.9 			"/>
		</g>
		<g>
			<polygon class="st21" points="740.2,118.2 740.2,125.4 726.9,122.8 719.8,111.4 			"/>
		</g>
		<g>
			<polygon class="st21" points="740.2,118.2 719.8,111.4 726.9,122.8 724.4,122.3 713,120 713,96.5 714.4,99.8 718.3,108.9 
				740.2,116.2 			"/>
		</g>
		<g>
			<polygon class="st22" points="740.2,86.3 740.2,88.2 713.3,92.9 713,93.1 713,91.1 			"/>
		</g>
		<g>
			<g>
				<polygon class="st0" points="740.2,89.9 740.2,93.9 714.4,99.8 713,100.1 712.6,100.2 710.2,100.8 704.8,103.4 703,104.3 
					685.9,112.7 685.9,112.7 685.1,113 672.2,125.4 661.4,125.4 668.5,123.7 682.8,109.8 685.9,108.3 685.9,108.3 700.3,101.3 
					702,100.4 708.9,97 711,96.6 712.9,96.1 713,96.1 				"/>
			</g>
		</g>
		<path class="st23" d="M713,93.1l0.3-0.2l26.9-4.8v-1.9L713,91.1h0l-0.2,0l-0.1,0l-0.7,0.4l1-4.4l0.8-3.6l13.3-10.4l-2.4-0.5
			L713,81.8l-0.8,0.7l-2.4,10.1v0l-23.9,12.1l0,0h0l-3.8-2l3.8-5.3l0,0l0.7-1l21.5-25.3l0,0l-3.1,0.7h0l-19.2,22.6l0,0l-0.7,0.8l0,0
			l-4.7,6.6l-12.6-6.7l15.1-18.9h-2.4l-14.4,18l-5-2.6l-9.4-5v2.1l13.2,7l-8.4,10.6l-4.7-2.6v2.2l3.5,2l-3.5,4.4v3l5.2-6.5l14.9,8.3
			l9.2-12.8l4.9,2.6l0,0h0v0l13.4-6.8l1.1,1.2l2.7,3l8,8.9l2-0.8l4.2-1.6l7.2,11.4l2.5,0.5l-7.1-11.4l20.4,6.8v-2l-21.9-7.3
			l-3.9-9.1l-1.4-3.3l-0.2-0.4l-1-2.4L713,93.1L713,93.1z M671.3,114.6l-13.2-7.4h0l8.5-10.6l12.7,6.7L671.3,114.6z M711,96.6
			l1.6,3.6l0.5,1.1l3.3,7.8l-3.3,1.3l-1.5,0.6l-6.8-7.6l-2.7-3l-1.1-1.2l9.2-4.6h0L711,96.6z"/>
		<g>
			<polygon class="st9" points="664.9,95.7 656.5,106.3 651.7,103.7 651.7,88.7 			"/>
		</g>
	</g>
	<g>
		<g>
			<defs>
				<polygon id="SVGID_3_" points="651.7,76.2 685.9,76.2 651.7,125.4 				"/>
			</defs>
			<clipPath id="SVGID_4_">
				<use xlink:href="#SVGID_3_"  style="overflow:visible;"/>
			</clipPath>
		</g>
	</g>
	<g>
		<g>
			<path class="st0" d="M706.6,79.5L706.6,79.5L697,92.4l-9.7-12.9h0c-1.6-2.1-2.6-4.6-2.6-7.5c0-6.7,5.5-12.2,12.2-12.2
				s12.2,5.5,12.2,12.2C709.2,74.8,708.2,77.4,706.6,79.5z"/>
		</g>
		<g>
			<circle class="st24" cx="697" cy="72" r="6.3"/>
		</g>
		<g class="st25">
			<g>
				<defs>
					<path id="SVGID_5_" d="M706.6,79.5L706.6,79.5L697,92.4V59.8c6.7,0,12.2,5.5,12.2,12.2C709.2,74.8,708.2,77.4,706.6,79.5z"/>
				</defs>
				<clipPath id="SVGID_6_">
					<use xlink:href="#SVGID_5_"  style="overflow:visible;"/>
				</clipPath>
				<g style="clip-path:url(#SVGID_6_);">
					
						<image style="overflow:visible;" width="51" height="140" xlink:href="7E0E26CCB796025F.png"  transform="matrix(0.24 0 0 0.24 696.9863 59.8206)">
					</image>
				</g>
			</g>
		</g>
	</g>
</g>
<g>
	<path class="st6" d="M625.8,592.9H520.1c-9.7,0-17.6-7.9-17.6-17.6V469.7c0-9.7,7.9-17.6,17.6-17.6h105.7c9.7,0,17.6,7.9,17.6,17.6
		v105.7C643.3,585.1,635.5,592.9,625.8,592.9z"/>
	<text transform="matrix(1 0 0 1 540.1638 554.9939)"><tspan x="0" y="0" class="st0 st7 st26">DATA </tspan><tspan x="-12.9" y="25.6" class="st0 st7 st26">SCIENCE</tspan></text>
	<g>
		<path class="st0" d="M548.3,520c-17.7-19.8-7.8-51.3,18-57.5c19.5-4.6,39,8.1,42.6,27.9c3.4,19.1-9.1,37.3-28.3,40.7
			c-10.8,1.9-20.6-0.8-29-7.9c-0.3-0.2-0.5-0.5-0.9-0.6C550.2,521.5,549.1,520.9,548.3,520z M601.1,513.4c0.4-0.5,0.8-1.1,1.1-1.7
			c3.3-6.2,4.5-12.9,3.5-19.9c-2.1-14.4-14.5-25.9-29.1-26.7c-10.2-0.6-18.9,2.8-25.7,10.5c-7.2,8.1-9.8,17.7-7.3,28.2
			c2.8,12,10.4,20,22.3,23.3c12,3.3,22.6,0.2,31.5-8.7c1.4-1.4,2.8-2.8,3.5-4.7C601,513.5,601.1,513.5,601.1,513.4z"/>
		<path class="st0" d="M547.5,526c0.2,1.2-0.3,2.1-1.2,3c-1.5,1.5-3,3-4.5,4.5c-1.5,1.4-3.2,1.6-4.5,0.3c-1.3-1.3-1.2-3.1,0.3-4.6
			c1.3-1.3,2.7-2.6,3.9-4c1.1-1.2,2.2-1.9,3.8-1.7C546.5,524.1,547.2,524.9,547.5,526z"/>
		<path class="st27" d="M547.5,526c-0.3-1.1-1.1-1.9-2.1-2.5c0.5-1,1.5-1.6,2.2-2.4c0.3-0.3,0.8-0.6,0.8-1.1
			c0.8,0.9,1.8,1.5,2.3,2.6C549.8,523.9,548.5,524.8,547.5,526z"/>
		<path class="st27" d="M557.1,486.8c0.6-1.2,0.7-2.6,1.1-3.8c0.2-0.7,0.4-1.1,1.1-1.1c0.7,0,1,0.5,1.1,1.2c0.3,1.3,0.4,2.6,0.9,3.8
			c0.1,0.7,0.2,1.4,0.3,2.1c1.4,7.2,2.9,14.5,4.3,21.8c0.5-0.2,0.5-0.7,0.6-1c1.3-4,2.6-8.1,3.8-12.1c0.2-0.6,0.3-1.1,1-1.2
			c0.7-0.2,1.1,0.4,1.4,0.9c1,1.3,1.9,2.7,3,4.2c1.2-2.8,2.3-5.5,3.4-8.1c0.1-0.2,0.1-0.4,0.2-0.6c0.2-0.5,0.5-0.9,1.1-1
			c0.7,0,1,0.4,1.2,1c1.1,2.7,2.3,5.5,3.5,8.2c0.6,1.5,1.3,3.1,1.9,4.6c0.3,0.8,0.7,1,1.5,1c3.7,0,7.5,0,11.2,0c0.6,0,1.1,0,1.4,0.6
			c0.4,0.8-0.1,1.5-1.2,1.5c-4.3,0-8.6,0-13,0c-0.9,0-1.2-0.5-1.5-1.2c-1.5-3.5-3-7.1-4.4-10.6c-0.1-0.3-0.3-0.6-0.5-1.1
			c-1.1,2.6-2.1,5.2-3.2,7.7c-0.2,0.6-0.4,1.2-1.1,1.3c-0.7,0.1-1.1-0.4-1.4-0.9c-0.9-1.3-1.8-2.6-2.9-4c-1.3,4-2.5,7.9-3.7,11.7
			c-0.2,0.7-0.5,1.3-0.5,2.1c-0.6,0.6-0.6,1.4-0.9,2.2c-0.2,0.6-0.5,0.9-1.1,0.9c-0.6,0-1-0.4-1.1-1.1c-0.1-0.7-0.3-1.3-0.5-1.9
			c-0.2-0.7-0.3-1.4-0.5-2.1c-0.3-3.1-1.1-6.1-1.7-9.1c-0.8-4.5-1.8-9-2.7-13.6c-0.6,0.3-0.6,0.8-0.6,1.2
			c-1.4,5.7-2.7,11.4-4.1,17.1c-0.4,1.9-1.1,2.1-2.6,0.9c-1.9-1.7-3.9-3.5-5.8-5.2c-0.6-0.5-0.9-1.1-0.3-1.8
			c0.6-0.7,1.2-0.3,1.8,0.2c1.7,1.5,3.3,2.9,5.1,4.5c0.6-2.6,1.2-5.1,1.8-7.6c0.7-3.1,1.4-6.2,2.1-9.3
			C557,488.2,557.1,487.5,557.1,486.8z"/>
		<path class="st21" d="M561.7,488.9c-0.1-0.7-0.2-1.4-0.3-2.1c1.6,0,3.2,0,4.8,0c11.7,0,23.5,0,35.2,0c0.3,0,0.6,0,1,0
			c0.7,0,1,0.4,1.1,1c0,0.7-0.4,1.1-1.1,1.1c-0.3,0-0.6,0-1,0c-12.7,0-25.4,0-38,0C562.7,488.9,562.2,488.9,561.7,488.9z"/>
		<path class="st21" d="M567.8,513.5c0-0.7,0.4-1.4,0.5-2.1c10.3,0,20.7,0,31,0c1.8,0,1.9,0.1,1.8,1.9c-0.2,0-0.2,0.1-0.2,0.2
			c-10.5,0-21.1,0-31.6,0C568.8,513.6,568.3,513.6,567.8,513.5z"/>
		<path class="st21" d="M563.8,511.5c0.2,0.7,0.3,1.4,0.5,2.1c-4.4,0-8.9,0-13.3,0c-0.9,0-1.6-0.2-1.5-1.2c0.1-0.8,0.7-1,1.4-0.9
			C555.2,511.5,559.5,511.5,563.8,511.5z"/>
		<path class="st21" d="M557.1,486.8c0,0.7-0.2,1.4-0.4,2c-3,0-5.9,0-8.9,0c-0.7,0-1.2-0.3-1.2-1.1c0-0.7,0.5-1,1.2-1
			C550.9,486.7,554,486.8,557.1,486.8z"/>
	</g>
</g>
<g>
	<path class="st6" d="M287.4,588.9H181.8c-9.7,0-17.6-7.9-17.6-17.6V465.7c0-9.7,7.9-17.6,17.6-17.6h105.7c9.7,0,17.6,7.9,17.6,17.6
		v105.7C305,581.1,297.1,588.9,287.4,588.9z"/>
	<text transform="matrix(1 0 0 1 199.7642 552.3144)"><tspan x="0" y="0" class="st0 st7 st28">MOBILE</tspan><tspan x="-19.8" y="21.8" class="st0 st7 st28">PLATFORMS</tspan></text>
	<g id="phone">
		<g>
			<path class="st29" d="M247,467.7h-23.6c-1.1,0-2,0.9-2,2v51.2c0,1.1,0.9,2,2,2H247c1.1,0,2-0.9,2-2v-51.1
				C249,468.6,248.1,467.7,247,467.7z M235.2,520.8c-2.2,0-3.9-1.8-3.9-3.9s1.8-3.9,3.9-3.9s3.9,1.8,3.9,3.9
				C239.1,519.1,237.4,520.8,235.2,520.8z M239.1,473.6h-7.9c-1.1,0-2-0.9-2-2s0.9-2,2-2h7.9c1.1,0,2,0.9,2,2
				S240.2,473.6,239.1,473.6z"/>
			<path class="st0" d="M247,463.8h-23.6c-3.3,0-5.9,2.6-5.9,5.9v51.2c0,3.3,2.6,5.9,5.9,5.9H247c3.3,0,5.9-2.6,5.9-5.9v-51.2
				C252.9,466.4,250.3,463.8,247,463.8z M249,520.8c0,1.1-0.9,2-2,2h-23.6c-1.1,0-2-0.9-2-2v-51.2c0-1.1,0.9-2,2-2H247
				c1.1,0,2,0.9,2,2V520.8z"/>
			<path class="st0" d="M235.2,513c-2.2,0-3.9,1.8-3.9,3.9c0,2.2,1.8,3.9,3.9,3.9s3.9-1.8,3.9-3.9C239.1,514.7,237.4,513,235.2,513z
				"/>
			<path class="st0" d="M239.1,469.7h-7.9c-1.1,0-2,0.9-2,2s0.9,2,2,2h7.9c1.1,0,2-0.9,2-2S240.2,469.7,239.1,469.7z"/>
		</g>
	</g>
</g>
<g>
	<g>
		<path class="st0" d="M73.7,318.9c0.1,0.1,0.2,0.3,0.2,0.5c0,0.2-0.1,0.3-0.2,0.5c-0.1,0.1-0.3,0.2-0.5,0.2c-0.2,0-0.3-0.1-0.5-0.2
			c-0.1-0.1-0.2-0.3-0.2-0.5c0-0.2,0.1-0.3,0.2-0.5c0.1-0.1,0.3-0.2,0.5-0.2C73.5,318.7,73.6,318.8,73.7,318.9L73.7,318.9z
			 M73.8,318.8c-0.2-0.2-0.3-0.2-0.5-0.2c-0.2,0-0.4,0.1-0.5,0.2c-0.2,0.2-0.2,0.3-0.2,0.6c0,0.2,0.1,0.4,0.2,0.6
			c0.1,0.1,0.3,0.2,0.6,0.2c0.2,0,0.4-0.1,0.5-0.2c0.2-0.2,0.2-0.3,0.2-0.6C74.1,319.2,74,319,73.8,318.8L73.8,318.8z M73.4,319.3
			c0,0-0.1,0-0.1,0h-0.1v-0.2h0.1c0.1,0,0.1,0,0.1,0c0,0,0.1,0.1,0.1,0.1C73.4,319.3,73.4,319.3,73.4,319.3L73.4,319.3z M73.2,319.5
			L73.2,319.5L73.2,319.5c0.1,0,0.2,0,0.2,0c0,0,0.1,0,0.1,0.1c0,0,0,0.1,0,0.1c0,0.1,0,0.1,0,0.1h0.2l0,0c0,0,0,0,0,0c0,0,0,0,0,0
			v-0.1c0-0.1,0-0.2-0.1-0.2c0,0-0.1,0-0.1,0c0.1,0,0.1,0,0.1-0.1c0,0,0.1-0.1,0.1-0.2c0-0.1,0-0.2-0.1-0.2c0,0-0.1,0-0.2,0
			c0,0-0.1,0-0.2,0c-0.1,0-0.2,0-0.2,0v0.9h0.2V319.5L73.2,319.5z"/>
		<g>
			<circle class="st0" cx="56.3" cy="313.9" r="0.4"/>
			<path class="st0" d="M62.7,313.5c-0.2,0-0.4,0.2-0.4,0.4c0,0.2,0.2,0.4,0.4,0.4c0.2,0,0.4-0.2,0.4-0.4c0,0,0,0,0,0s0,0,0,0
				C63.1,313.6,62.9,313.5,62.7,313.5z"/>
			<circle class="st0" cx="59.5" cy="313.9" r="0.4"/>
			<circle class="st0" cx="53.1" cy="314" r="0.4"/>
			<path class="st0" d="M50.3,287.1v31.2h23.8v-31.2H50.3z M51.9,305v-3l0,0H53c1.8,0,3.5-0.9,4.4-2.3L56,299
				c-0.7,0.9-1.8,1.5-3.1,1.5h-1l-0.1,0v-11.8H60h1.3l0,10.4c0,3.7-3,6.6-6.6,6.6l0,0h-2.8V305z M52.9,316.8c-0.8,0.1-0.9,0-0.9,0
				c-0.1,0-0.1-0.1-0.1-0.1V316c0-0.1,0.1-0.1,0.1-0.1l0.4,0c0.4,0,0.6-0.1,0.8-0.4c0,0,0.1-0.1,0.1-0.1c0-0.1-0.1-0.2-0.2-0.2
				c0,0-0.1,0-0.1,0l0,0c-0.2,0.2-0.3,0.3-0.6,0.3l-0.1,0H52c-0.1,0-0.1-0.1-0.1-0.1v-2.5c0-0.1,0.1-0.1,0.1-0.1h2.2
				c0.1,0,0.1,0.1,0.1,0.1v2.2l0,0.2C54.3,316.2,53.4,316.8,52.9,316.8z M57.6,315c0,0.1-0.1,0.1-0.2,0.1h-2.2
				c-0.1,0-0.2-0.1-0.2-0.1v-2.1c0-0.1,0.1-0.1,0.2-0.1h2.2c0.1,0,0.2,0.1,0.2,0.1V315z M60.8,315c0,0.1-0.1,0.1-0.2,0.1h-2.2
				c-0.1,0-0.2-0.1-0.2-0.1v-2.1c0-0.1,0.1-0.1,0.2-0.1h2.2c0.1,0,0.2,0.1,0.2,0.1V315z M64,315c0,0.1-0.1,0.1-0.1,0.1h-0.5h0h-1.8
				c-0.1,0-0.1-0.1-0.1-0.1v-2.1c0-0.1,0.1-0.1,0.1-0.1H63c0.1,0,0.1-0.1,0.1-0.1l0-0.9c0-0.1,0.1-0.1,0.1-0.1h0.6
				c0.1,0,0.1,0.1,0.1,0.1V315z M68.1,315c0,0.1-0.1,0.1-0.1,0.1h-0.6c0,0,0,0,0,0l-0.7,0c0,0,0,0,0,0H66c0,0,0,0,0,0l-0.7,0l0,0
				h-0.5h-0.1c-0.1,0-0.1-0.1-0.1-0.1v-2.1c0-0.1,0.1-0.1,0.1-0.1h0.6c0.1,0,0.1,0.1,0.1,0.1v1v0.3c0,0.1,0.1,0.1,0.1,0.1h0.2
				c0.1,0,0.1-0.1,0.1-0.1v-0.3v-1c0-0.1,0.1-0.1,0.1-0.1h0.6c0.1,0,0.1,0.1,0.1,0.1v1v0.3c0,0.1,0.1,0.1,0.1,0.1h0.2
				c0.1,0,0.1-0.1,0.1-0.1l0,0v-0.3l0-1c0-0.1,0.1-0.1,0.1-0.1h0.6c0.1,0,0.1,0.1,0.1,0.1V315z M69.6,315c0,0.1-0.1,0.1-0.1,0.1
				h-0.6c-0.1,0-0.1-0.1-0.1-0.1v-2.1c0-0.1,0.1-0.1,0.1-0.1h0.6c0.1,0,0.1,0.1,0.1,0.1V315z M69.6,312.4c0,0.1-0.1,0.1-0.1,0.1
				h-0.6c-0.1,0-0.1-0.1-0.1-0.1v-0.6c0-0.1,0.1-0.1,0.1-0.1h0.6c0.1,0,0.1,0.1,0.1,0.1V312.4z M71,315c0,0.1-0.1,0.1-0.1,0.1h-0.6
				c-0.1,0-0.1-0.1-0.1-0.1v-3.3c0-0.1,0.1-0.1,0.1-0.1h0.6c0.1,0,0.1,0.1,0.1,0.1V315z M72.5,315c0,0.1-0.1,0.1-0.1,0.1h-0.6
				c-0.1,0-0.1-0.1-0.1-0.1v-3.3c0-0.1,0.1-0.1,0.1-0.1h0.6c0.1,0,0.1,0.1,0.1,0.1V315z M72.5,310.4H51.9v-2v-1.1l2.8,0
				c4.6,0,8.3-3.7,8.3-8.3v-10.4h1h8.5V310.4z"/>
			<circle class="st0" cx="56.6" cy="293.7" r="2.1"/>
		</g>
		<g>
			<g>
				<path class="st0" d="M78.8,300.8v-13.7h4.8l4.2,7.6h0v-7.6h4v13.7h-4.6l-4.5-7.7v7.7H78.8z"/>
			</g>
			<g>
				<path class="st0" d="M96.9,300.8v-3.9l-4.7-9.9H97l2,5.4l2-5.4h4.8l-4.7,9.9v3.9H96.9z"/>
			</g>
			<g>
				<path class="st0" d="M78.8,318.1v-13.7h4.8l4.2,7.6h0v-7.6h4v13.7h-4.6l-4.5-7.7v7.7H78.8z"/>
			</g>
			<g>
				<path class="st0" d="M99.7,313.1v-8.7h4.2v8.3c0,2-0.3,3.4-0.9,4.2c-0.8,1.1-2.2,1.6-4.3,1.6c-2.1,0-3.6-0.4-4.4-1.3
					c-0.9-0.9-1.3-2.5-1.3-5h4.2c0,1,0,1.6,0.1,1.9c0.2,0.6,0.5,0.9,1.1,0.9C99.2,315.2,99.7,314.5,99.7,313.1z"/>
			</g>
		</g>
	</g>
	<path class="st6" d="M155.8,409.6H50.1c-9.7,0-17.6-7.9-17.6-17.6V286.4c0-9.7,7.9-17.6,17.6-17.6h105.7c9.7,0,17.6,7.9,17.6,17.6
		V392C173.4,401.7,165.5,409.6,155.8,409.6z"/>
	<text transform="matrix(1 0 0 1 51.6387 374.1896)"><tspan x="0" y="0" class="st0 st7 st30">BRANDING &amp; </tspan><tspan x="-9.1" y="18.1" class="st0 st7 st30">SUSTAINABILITY</tspan></text>
	<g id="recycle_glyph">
		<g>
			<path class="st0" d="M154.5,306.9c0-0.1-0.1-0.2-0.1-0.2l-2-3.6c0,0,0,0,0,0l-0.1-0.1c-0.3-0.4-0.7-0.7-1.2-0.7
				c-0.2,0-0.5,0.1-0.7,0.2l-0.5,0.3l-2,1.1l0,0c-0.4,0.2-0.7,0.7-0.7,1.3c0,0.2,0.1,0.5,0.2,0.7c0,0,0,0,0,0l2,3.7
				c0,0,0.1,0.1,0.1,0.2c0.2,0.4,0.3,0.9,0.3,1.4c0,1.8-1.4,3.3-3.2,3.3l-5.1,0.1c-0.4,0-0.8-0.4-0.8-0.8v-0.1l0-1.4
				c0-0.3-0.3-0.6-0.6-0.6c-0.1,0-0.2,0-0.3,0.1l-0.1,0.1l-1.8,1.5l-1.6,1.4l-2.6,2.2c-0.2,0.2-0.3,0.4-0.3,0.7
				c0,0.3,0.1,0.5,0.3,0.7l2.6,2.1l3.4,2.7l0.1,0.1c0.1,0.1,0.2,0.1,0.3,0.1c0.3,0,0.6-0.3,0.6-0.6l0,0l0-1.4V321
				c0-0.5,0.4-0.9,0.9-0.9l5-0.1c2.7,0,5.1-1.3,6.7-3.2c0.6-0.8,1.2-1.6,1.5-2.6c0.4-1,0.6-2.1,0.6-3.3
				C155.5,309.5,155.2,308.1,154.5,306.9z"/>
			<path class="st0" d="M128.6,314.1c-0.2-0.1-0.4-0.2-0.7-0.2c0,0,0,0,0,0l-4.2-0.1c-0.1,0-0.1,0-0.2,0c-0.5,0-0.9-0.2-1.4-0.4
				c-1.6-0.9-2.1-2.9-1.3-4.4l2.5-4.5c0.2-0.4,0.7-0.5,1.1-0.3l0.1,0l1.2,0.7v0c0.3,0.2,0.7,0.1,0.8-0.2c0.1-0.1,0.1-0.2,0.1-0.4
				l0-0.1l-0.4-2.3L126,300l-0.6-3.3c0-0.3-0.2-0.5-0.5-0.6c-0.2-0.1-0.5-0.1-0.8,0l-3.1,1.2l-4.1,1.6l-0.1,0
				c-0.1,0-0.2,0.1-0.2,0.2c-0.2,0.3-0.1,0.7,0.2,0.8l1.2,0.7l0.1,0c0.4,0.3,0.5,0.8,0.3,1.2l-2.5,4.4c-1.3,2.4-1.5,5.1-0.6,7.4
				c0.3,0.9,0.9,1.8,1.5,2.6c0.7,0.8,1.5,1.6,2.6,2.1c1.3,0.7,2.7,1.1,4,1.1c0.1,0,0.2,0,0.3,0l4.1,0.1l0,0h0.1c0.5,0,1-0.3,1.2-0.7
				c0.1-0.2,0.2-0.5,0.2-0.7l0-0.6l0-2.2h0C129.4,314.9,129.1,314.4,128.6,314.1z"/>
			<path class="st0" d="M138.4,289.4l2.6,4.4c0.2,0.4,0,0.9-0.3,1.1l-0.1,0.1l-1.2,0.7c-0.3,0.2-0.4,0.5-0.2,0.8
				c0.1,0.1,0.2,0.2,0.3,0.2l0.1,0l2.2,0.8l2,0.7l3.2,1.1c0.2,0.1,0.5,0.1,0.8-0.1c0.2-0.1,0.4-0.4,0.4-0.6l0.5-3.3l0.7-4.3l0-0.1
				c0-0.1,0-0.2-0.1-0.3c-0.2-0.3-0.5-0.4-0.8-0.2l0,0l-1.2,0.7l-0.1,0c-0.4,0.2-1,0.1-1.2-0.3l-2.6-4.3c-1.4-2.3-3.7-3.8-6.2-4.2
				c-1-0.2-2-0.2-3,0c-1.1,0.2-2.1,0.6-3.1,1.1c-1.3,0.7-2.3,1.8-3,2.9c0,0.1-0.1,0.2-0.1,0.2l-2.1,3.5l-0.1,0.1
				c-0.2,0.4-0.2,1,0,1.4c0.1,0.2,0.3,0.4,0.5,0.5l0.5,0.3l1.9,1.2v0c0.4,0.3,1,0.3,1.5,0c0.2-0.1,0.4-0.3,0.5-0.5c0,0,0,0,0,0
				l2.2-3.6c0,0,0.1-0.1,0.1-0.2c0.3-0.4,0.6-0.7,1-1C135.5,287.4,137.5,287.9,138.4,289.4z"/>
		</g>
	</g>
	<g id="chart">
		<path class="st0" d="M124.5,327.8c-2.1,0-3.7,1.7-3.7,3.7c0,0.4,0.1,0.8,0.2,1.2l-9,7.8c-0.6-0.5-1.4-0.8-2.3-0.8
			c-1,0-1.9,0.4-2.6,1.1l-7.1-3.5c-0.1-1.9-1.7-3.5-3.7-3.5c-2.1,0-3.7,1.7-3.7,3.7c0,0.6,0.1,1.1,0.4,1.6l-7.2,8.3
			c-0.4-0.2-0.8-0.2-1.3-0.2c-2.1,0-3.7,1.7-3.7,3.7s1.7,3.7,3.7,3.7s3.7-1.7,3.7-3.7c0-0.5-0.1-1-0.3-1.4l7.3-8.4
			c0.4,0.1,0.7,0.2,1.1,0.2c1.1,0,2.1-0.5,2.7-1.2l6.9,3.5c0,2,1.7,3.7,3.7,3.7c2.1,0,3.7-1.7,3.7-3.7c0-0.1,0-0.1,0-0.2l9.6-8.3
			c0.5,0.2,1,0.3,1.5,0.3c2.1,0,3.7-1.7,3.7-3.7C128.2,329.4,126.6,327.8,124.5,327.8z"/>
	</g>
</g>
<g>
	<path class="st6" d="M753.7,420.7H648c-9.7,0-17.6-7.9-17.6-17.6V297.5c0-9.7,7.9-17.6,17.6-17.6h105.7c9.7,0,17.6,7.9,17.6,17.6
		v105.7C771.2,412.8,763.4,420.7,753.7,420.7z"/>
	<text transform="matrix(1 0 0 1 657.4709 385.2864)"><tspan x="0" y="0" class="st0 st7 st30">STRATEGIC </tspan><tspan x="-13" y="18.1" class="st0 st7 st30">PARTNERSHIPS</tspan></text>
	<g>
		<path class="st0" d="M683.7,338.8L683.7,338.8c0.8-1,0.8-2.4,0.1-3.5c-0.1-0.1-0.2-0.3-0.3-0.4l-0.7-0.7c-0.1-0.1-0.1-0.1-0.2-0.2
			c0,0-0.1,0-0.1-0.1c0,0-0.1-0.1-0.1-0.1c0,0-0.1,0-0.1-0.1c0,0-0.1-0.1-0.1-0.1c0,0-0.1,0-0.1,0c-0.1,0-0.1-0.1-0.2-0.1
			c0,0-0.1,0-0.1,0c-0.1,0-0.1,0-0.2-0.1c0,0,0,0-0.1,0c-0.1,0-0.1,0-0.2-0.1c0,0,0,0,0,0c-0.2,0-0.4-0.1-0.6-0.1
			c-0.4,0-0.8,0.1-1.2,0.2c0,0,0,0,0,0c-0.1,0-0.1,0.1-0.2,0.1c0,0,0,0-0.1,0c0,0-0.1,0.1-0.1,0.1c-0.1,0-0.1,0.1-0.2,0.1
			c0,0-0.1,0.1-0.1,0.1c-0.1,0.1-0.1,0.1-0.2,0.2l-1.5,1.5c-1.1,1.1-1.1,3,0,4.2l0.3,0.3c0,0,0,0,0,0l0.4,0.4
			c0.6,0.6,1.3,0.9,2.1,0.9c0.8,0,1.5-0.3,2.1-0.9l1.5-1.5C683.6,338.9,683.6,338.9,683.7,338.8z"/>
		<path class="st0" d="M744,316.6c0-0.4-0.2-0.8-0.4-1.1l-11.1-11.1c0,0,0,0,0,0l0,0c0,0,0,0,0,0c0,0,0,0-0.1-0.1l0,0l-8.5-8.5
			c0,0-0.1-0.1-0.1-0.1c-0.2-0.2-0.5-0.3-0.9-0.3c0,0-0.1,0-0.1,0c0,0-0.1,0-0.1,0c-0.4,0-0.7,0.2-1,0.4l-5,5
			c-0.6,0.6-0.6,1.6,0,2.1l0.1,0.1l19.7,19.7c0.3,0.3,0.6,0.4,1,0.4c0,0,0.1,0,0.1,0c0,0,0.1,0,0.1,0c0.4,0,0.7-0.2,1-0.4l5-5
			C743.9,317.4,744,317,744,316.6z M738.9,318.9c-0.4,0.4-0.9,0.6-1.4,0.6c-0.5,0-1.1-0.2-1.4-0.6c-0.8-0.8-0.8-2.1,0-2.9
			c0.4-0.4,0.9-0.6,1.4-0.6c0.5,0,1,0.2,1.4,0.5c0.1,0.1,0.2,0.3,0.3,0.3C739.7,317.1,739.6,318.2,738.9,318.9z"/>
		<path class="st0" d="M687.3,303c0.6-0.6,0.6-1.6,0-2.1l-5.1-5c-0.3-0.3-0.7-0.4-1.1-0.4c-0.1,0-0.3,0-0.4,0.1
			c-0.2,0.1-0.3,0.2-0.5,0.4l-8.4,8.4l-0.1,0.1c0,0-0.1,0.1-0.1,0.1l-11.1,11.1c-0.2,0.2-0.4,0.5-0.6,0.8c0,0,0,0,0,0.1
			c0,0,0,0,0,0.1c0,0,0,0.1,0,0.1c0,0.4,0.2,0.8,0.4,1l5.1,5c0.3,0.2,0.6,0.4,0.9,0.4c0,0,0,0,0.1,0c0,0,0.1,0,0.1,0
			c0.4,0,0.8-0.2,1-0.4L687.3,303L687.3,303z M668,318.9c-0.4,0.4-0.9,0.6-1.4,0.6c-0.5,0-1.1-0.2-1.4-0.6c-0.8-0.8-0.8-2.1,0-2.9
			c0.4-0.4,0.9-0.6,1.4-0.6c0.5,0,1,0.2,1.4,0.5c0.1,0.1,0.2,0.3,0.3,0.3C668.8,317.1,668.7,318.2,668,318.9z"/>
		<path class="st0" d="M688.9,345.4l0.5-0.5c0.1-0.1,0.1-0.1,0.2-0.2l0,0c0.4-0.5,0.6-1.1,0.6-1.7c0-0.2,0-0.4,0-0.6l0-0.1
			c-0.1-0.5-0.3-1-0.7-1.4c0-0.1-0.1-0.1-0.2-0.2l-0.7-0.7c0,0,0,0,0,0c-0.1-0.1-0.1-0.1-0.2-0.2c0,0,0,0-0.1-0.1
			c-0.1,0-0.1-0.1-0.2-0.1c0,0,0,0-0.1,0c-0.1,0-0.1-0.1-0.2-0.1c0,0,0,0,0,0c-0.1,0-0.1-0.1-0.2-0.1c0,0,0,0,0,0
			c-0.3-0.1-0.7-0.2-1.1-0.2c-0.5,0-1,0.1-1.4,0.4c0,0,0,0-0.1,0c-0.1,0-0.1,0.1-0.2,0.1c-0.1,0-0.1,0.1-0.2,0.2
			c-0.1,0.1-0.2,0.1-0.2,0.2l-1.5,1.5c-0.6,0.6-0.9,1.3-0.9,2.1c0,0.8,0.3,1.5,0.9,2.1l0.6,0.6c0.1,0,0.1,0.1,0.1,0.1
			c0.5,0.5,1.3,0.8,2,0.8c0.8,0,1.5-0.3,2.1-0.9l0.7-0.7C688.7,345.5,688.8,345.5,688.9,345.4z"/>
		<path class="st0" d="M725.6,334.4L725.6,334.4l-11-11l-2.4-2.4l0,0c0,0,0,0,0,0l-4.2-4.2l-5.2,5.2l0,0.1l-0.9,3.4
			c-0.2,0.4-0.3,0.8-0.5,1.2c-1.2,2.5-3.3,4.1-5.7,4.4c-0.9,0.1-3,0-4-1.3c-0.4-0.5-0.5-1.2-0.5-2.1c0.1-1.1,0.4-2,0.4-2.1l0.1-0.2
			c0,0,0-0.1,0-0.1l2.2-8.3l0-0.1l7-7.1l0,0l-0.4-0.4l-1.4-1.4c-0.3-0.3-1.1-0.6-1.5-0.6l-2.5,0.2l0,0l-4.1,0.4l-3.4-3.4l-18.4,18.4
			l3.1,3.1c0,0,0.1,0.1,0.1,0.1l6.1,6.1c0,0,0,0,0,0c0,0,0,0,0,0c0.7-0.4,1.4-0.5,2.1-0.5c0,0,0,0,0,0c0,0,0,0,0,0
			c0.1,0,0.3,0,0.4,0c0,0,0.1,0,0.1,0c0.1,0,0.1,0,0.2,0c0.1,0,0.2,0,0.2,0c0,0,0.1,0,0.1,0c0.1,0,0.2,0,0.2,0.1c0,0,0,0,0.1,0
			c0.1,0,0.2,0.1,0.3,0.1c0,0,0,0,0.1,0c0.1,0,0.2,0.1,0.3,0.1c0,0,0,0,0,0c0.2,0.1,0.4,0.2,0.6,0.3c0,0,0,0,0,0
			c0.1,0.1,0.2,0.1,0.3,0.2c0,0,0,0,0,0c0.1,0.1,0.2,0.2,0.3,0.2l0.7,0.7c0.1,0.1,0.2,0.2,0.3,0.3c0,0,0,0,0.1,0.1
			c0.1,0.1,0.1,0.2,0.2,0.3c0,0,0,0,0,0c0.1,0.1,0.1,0.2,0.2,0.3c0,0,0,0.1,0,0.1c0.1,0.1,0.1,0.2,0.1,0.3c0,0,0,0,0,0
			c0,0.1,0.1,0.2,0.1,0.3c0,0,0,0.1,0,0.1c0,0.1,0.1,0.2,0.1,0.3c0,0,0,0,0,0c0,0.1,0,0.2,0.1,0.3c0,0,0,0.1,0,0.1
			c0,0.1,0,0.2,0,0.3c0,0,0,0,0,0.1c0,0.1,0,0.2,0,0.3c0,0,0,0.1,0,0.1c0,0.1,0,0.2,0,0.3c0,0,0,0,0,0.1c0,0.1,0,0.2,0,0.3
			c0.9-0.2,1.8-0.1,2.6,0.3c0,0,0,0,0,0c0.1,0,0.1,0,0.2,0.1c0,0,0,0,0.1,0c0,0,0.1,0,0.1,0.1c0,0,0.1,0,0.1,0.1c0,0,0.1,0,0.1,0.1
			c0.1,0,0.1,0.1,0.2,0.1c0,0,0,0,0.1,0c0,0,0.1,0.1,0.1,0.1c0,0,0,0,0.1,0.1c0,0,0.1,0.1,0.1,0.1c0,0,0,0,0.1,0.1
			c0.1,0.1,0.1,0.1,0.2,0.2l0.7,0.7c0.6,0.6,1,1.3,1.2,2.1c0,0.1,0.1,0.2,0.1,0.3c0,0,0,0.1,0,0.1l0,0c0,0.1,0,0.2,0,0.3
			c0,0,0,0,0,0.1c0,0.1,0,0.2,0,0.3c0,0,0,0,0,0.1c0,0.1,0,0.2,0,0.3c0,0,0,0,0,0c0,0.1,0,0.2,0,0.3c0,0,0,0,0,0
			c1-0.2,2.1-0.1,3,0.4c0,0,0,0,0,0c0.2,0.1,0.3,0.2,0.5,0.3c0,0,0.1,0.1,0.1,0.1c0,0,0.1,0,0.1,0.1c0,0,0.1,0.1,0.1,0.1
			c0,0,0,0,0.1,0.1c0.1,0.1,0.1,0.1,0.2,0.2l0.7,0.7c0.1,0.1,0.2,0.2,0.3,0.3c0,0,0,0.1,0.1,0.1c0.1,0.1,0.1,0.2,0.2,0.3
			c0,0,0,0,0,0c0.1,0.1,0.1,0.2,0.2,0.3c0,0,0,0.1,0,0.1c0,0.1,0.1,0.2,0.1,0.3c0,0,0,0,0,0.1c0,0.1,0.1,0.2,0.1,0.3
			c0,0,0,0.1,0,0.1c0,0.1,0.1,0.2,0.1,0.3c0,0,0,0.1,0,0.1c0,0.1,0,0.2,0.1,0.3c0,0,0,0.1,0,0.1c0,0.1,0,0.2,0,0.3c0,0,0,0.1,0,0.1
			c0,0.1,0,0.2,0,0.4c0,0,0,0,0,0.1c0,0.1,0,0.2,0,0.3c0,0,0,0.1,0,0.1c0,0.1,0,0.2-0.1,0.3c0,0,0.1,0,0.1,0c0,0,0,0,0,0
			c0.1,0,0.2,0,0.3,0c0,0,0.1,0,0.1,0c0.1,0,0.2,0,0.3,0c0,0,0,0,0,0c1,0,1.9,0.3,2.7,0.9c0,0,0,0,0,0c0.1,0,0.1,0.1,0.2,0.1
			c0,0,0,0,0,0c0.1,0.1,0.1,0.1,0.2,0.2l0.7,0.7c0.1,0.1,0.2,0.2,0.3,0.3c0,0,0.1,0.1,0.1,0.1c0.1,0.1,0.1,0.1,0.2,0.2
			c0,0,0.1,0.1,0.1,0.1c0,0.1,0.1,0.1,0.1,0.2c0,0,0.1,0.1,0.1,0.1c0,0.1,0.1,0.1,0.1,0.2c0,0.1,0,0.1,0.1,0.2
			c0,0.1,0.1,0.1,0.1,0.2c0,0.1,0,0.1,0.1,0.2c0,0.1,0,0.1,0.1,0.2c0,0.1,0,0.1,0,0.2c0,0.1,0,0.1,0,0.2c0,0.1,0,0.1,0,0.2
			c0,0.1,0,0.1,0,0.2c0,0.1,0,0.3,0,0.4c0,0,0,0.1,0,0.1c0,0.1,0,0.2,0,0.2c0,0,0,0.1,0,0.1c0,0.1,0,0.2,0,0.2c0,0,0,0.1,0,0.1
			c0,0.1,0,0.2,0,0.2c0,0,0,0.1,0,0.1c0,0.1,0,0.2-0.1,0.2c0,0,0,0.1,0,0.1c0,0.1-0.1,0.2-0.1,0.2c0,0,0,0.1,0,0.1
			c0,0.1-0.1,0.2-0.1,0.2c0,0,0,0,0,0c0,0,0,0,0,0.1l0.8,0.8c0.5,0.5,1.3,0.8,2,0.9c0,0,0,0,0,0c0,0,0,0,0,0c0,0,0,0,0,0
			c0.8,0,1.5-0.3,2-0.9l0.7-0.7c0.6-0.6,0.9-1.3,0.9-2.1c0-0.8-0.3-1.5-0.9-2.1l-4-4l0,0c0,0,0,0,0,0l-5.2-5.2c0,0,0,0,0,0l-3.4-3.4
			c-0.2-0.1-0.3-0.4-0.3-0.6c0-0.4,0.3-0.8,0.8-0.8c0.2,0,0.4,0.1,0.5,0.2l0,0l0,0l8.6,8.6c0.1,0,0.1,0.1,0.2,0.2l4.6,4.6
			c0.6,0.6,1.3,0.9,2.1,0.9c0.8,0,1.5-0.3,2.1-0.9l0.7-0.7c0.6-0.6,0.9-1.3,0.9-2.1c0-0.8-0.3-1.5-0.9-2.1l-4-4c0,0,0,0,0,0
			l-6.8-6.8l-2.6-2.6l0,0c-0.1-0.1-0.2-0.3-0.2-0.5c0-0.4,0.3-0.8,0.8-0.8c0.2,0,0.3,0.1,0.5,0.2l0,0l0,0c0,0,0,0,0.1,0.1l9.1,9.1
			c0.1,0.1,0.1,0.1,0.2,0.2l3.9,3.9c0,0,0,0,0,0l0.1,0.1l0,0l0.5,0.5c1.1,1.1,3,1.1,4.2,0l0.7-0.7c1.1-1.1,1.1-3,0-4.2l0,0l-1.9-1.9
			l-0.5-0.5l-11.5-11.5l0,0l-0.4-0.4l0,0c-0.1-0.1-0.2-0.3-0.2-0.5c0-0.4,0.3-0.8,0.8-0.8c0.2,0,0.4,0.1,0.5,0.2l0,0l1.6,1.6
			l0.1,0.1l0,0.1l8.3,8.3c0.1,0.1,0.2,0.1,0.2,0.2l3.9,3.9c0,0,0.1,0.1,0.1,0.1l0,0l0.1,0.1l0.5,0.5c0.6,0.6,1.3,0.9,2.1,0.9
			s1.5-0.3,2.1-0.9l0.7-0.7c1.1-1.1,1.1-3,0-4.2L725.6,334.4z"/>
		<path class="st0" d="M716.3,304.7l-3.1,3.1c-0.1,0.2-0.4,0.3-0.6,0.3c0,0,0,0,0,0c0,0,0,0,0,0l-6.3-0.5c-0.5,0-1.2,0.2-1.5,0.6
			l-1.7,1.7l-0.6,0.6l0,0l-7.2,7.2l0,0.1l-2.1,7.9c0,0.1,0,0.1-0.1,0.2L693,326c0,0-0.3,0.9-0.4,1.8c0,0.5,0,0.8,0.2,1
			c0.4,0.6,1.8,0.8,2.5,0.7c1.8-0.2,3.5-1.6,4.5-3.6c0.2-0.3,0.3-0.6,0.4-1l0.9-3.5c0,0,0,0,0,0l0.1-0.3l0,0l0.1-0.1l6.4-6.4
			l5.2,5.2c0.1,0,0.1,0.1,0.2,0.2l2.9,2.9l9.3,9.3l9.2-9.2L716.3,304.7L716.3,304.7z"/>
		<path class="st0" d="M702,354.4c0,0,0-0.1,0-0.1c0,0,0-0.1,0-0.1c0,0,0-0.1,0-0.1c0,0,0-0.1,0-0.1c0,0,0-0.1,0-0.1
			c0,0,0-0.1,0-0.1c0,0,0-0.1,0-0.1c0,0,0-0.1,0-0.1c0,0,0-0.1-0.1-0.1c0,0,0-0.1-0.1-0.1c0,0-0.1-0.1-0.1-0.1c0,0,0-0.1-0.1-0.1
			c0,0-0.1-0.1-0.1-0.1c0,0,0,0-0.1-0.1c-0.1-0.1-0.1-0.1-0.2-0.2l-0.7-0.7c-0.1-0.1-0.1-0.1-0.2-0.2c0,0-0.1,0-0.1-0.1
			c0,0-0.1-0.1-0.1-0.1c0,0-0.1-0.1-0.1-0.1c0,0-0.1,0-0.1-0.1c0,0-0.1,0-0.1-0.1c0,0-0.1,0-0.1,0c0,0-0.1,0-0.1-0.1
			c0,0-0.1,0-0.1,0c0,0-0.1,0-0.1,0c0,0-0.1,0-0.1,0c0,0-0.1,0-0.1,0c-0.1,0-0.1,0-0.2,0c0,0-0.1,0-0.1,0c-0.1,0-0.1,0-0.2,0
			c0,0,0,0-0.1,0c-0.1,0-0.1,0-0.2,0c0,0,0,0-0.1,0c-0.1,0-0.1,0-0.2,0c0,0,0,0,0,0c-0.1,0-0.1,0-0.2,0c0,0,0,0,0,0
			c-0.1,0-0.1,0-0.2,0.1c0,0,0,0,0,0c-0.1,0-0.1,0-0.2,0.1c0,0,0,0-0.1,0c-0.1,0-0.1,0-0.2,0.1c0,0-0.1,0-0.1,0.1c0,0-0.1,0-0.1,0.1
			c-0.1,0-0.1,0.1-0.2,0.1c-0.1,0.1-0.2,0.2-0.3,0.3l-1.5,1.5c-0.6,0.6-0.9,1.3-0.9,2.1c0,0.8,0.3,1.5,0.9,2.1l0.3,0.3
			c0,0,0,0,0.1,0.1l0.3,0.3c0.6,0.6,1.3,0.9,2.1,0.9c0.8,0,1.5-0.3,2.1-0.9l1.5-1.5c0.1-0.1,0.2-0.2,0.3-0.3l0,0c0,0,0-0.1,0.1-0.1
			c0,0,0.1-0.1,0.1-0.1c0,0,0-0.1,0.1-0.1c0,0,0-0.1,0.1-0.1c0,0,0-0.1,0.1-0.1c0,0,0-0.1,0-0.1c0,0,0-0.1,0.1-0.1c0,0,0-0.1,0-0.1
			c0,0,0-0.1,0-0.1c0,0,0-0.1,0-0.1c0,0,0-0.1,0-0.1c0,0,0-0.1,0-0.1c0,0,0-0.1,0-0.1c0,0,0-0.1,0-0.1c0,0,0-0.1,0-0.1
			c0,0,0-0.1,0-0.1C702,354.5,702,354.4,702,354.4z"/>
		<path class="st0" d="M695.5,350.5c0.8-0.9,0.9-2.3,0.3-3.3c-0.1-0.2-0.3-0.5-0.5-0.7l-0.7-0.7c-0.1-0.1-0.1-0.1-0.2-0.2
			c-0.8-0.6-1.8-0.8-2.8-0.5c0,0,0,0,0,0c-0.1,0-0.1,0-0.2,0.1c0,0,0,0-0.1,0c-0.1,0-0.1,0.1-0.2,0.1c0,0,0,0-0.1,0
			c-0.1,0-0.1,0.1-0.2,0.1c0,0,0,0-0.1,0c-0.1,0-0.1,0.1-0.2,0.2c-0.1,0.1-0.2,0.1-0.2,0.2l-0.7,0.7l-0.8,0.8
			c-0.6,0.6-0.9,1.3-0.9,2.1c0,0.8,0.3,1.5,0.9,2.1l0.4,0.4c0.1,0,0.1,0.1,0.1,0.1l0.1,0.1c0.6,0.6,1.3,0.9,2.1,0.9
			c0.8,0,1.5-0.3,2.1-0.9l1.5-1.5C695.4,350.7,695.5,350.6,695.5,350.5z"/>
	</g>
</g>
<line class="st6" x1="395.9" y1="169.3" x2="395.9" y2="233.8"/>
<line class="st6" x1="300.2" y1="374.7" x2="241.1" y2="448.2"/>
<line class="st6" x1="288" y1="306.3" x2="173.4" y2="314.3"/>
<line class="st6" x1="293.9" y1="240.1" x2="191.6" y2="171.2"/>
<line class="st6" x1="505.1" y1="241.1" x2="624" y2="180.2"/>
<line class="st6" x1="509.9" y1="313.5" x2="627.4" y2="353.1"/>
<line class="st6" x1="498.7" y1="375.2" x2="539.4" y2="452.1"/>
</svg>
