<?xml version="1.0" encoding="utf-8"?>
<!-- Generator: Adobe Illustrator 20.1.0, SVG Export Plug-In . SVG Version: 6.00 Build 0)  -->
<!DOCTYPE svg PUBLIC "-//W3C//DTD SVG 1.1//EN" "http://www.w3.org/Graphics/SVG/1.1/DTD/svg11.dtd">
<svg version="1.1" id="Layer_1" xmlns="http://www.w3.org/2000/svg" xmlns:xlink="http://www.w3.org/1999/xlink" x="0px" y="0px"
	 viewBox="0 0 147.8 147.8" style="enable-background:new 0 0 147.8 147.8;" xml:space="preserve">
<style type="text/css">
	.st0{fill:#0056A5;}
	.st1{fill:none;stroke:#0056A5;stroke-width:7;stroke-miterlimit:10;}
	.st2{enable-background:new    ;}
</style>
<title>branding</title>
<g id="Layer_2">
	<g id="Layer_1-2">
		<path class="st0" d="M44.7,53.6c0.1,0.1,0.2,0.3,0.2,0.5c0,0.2-0.1,0.3-0.2,0.5c-0.2,0.3-0.7,0.3-0.9,0c0,0,0,0,0,0
			c-0.2-0.3-0.2-0.7,0-0.9C44,53.3,44.4,53.3,44.7,53.6C44.7,53.6,44.7,53.6,44.7,53.6z M44.8,53.5c-0.1-0.1-0.3-0.2-0.5-0.2
			c-0.2,0-0.4,0.1-0.5,0.2c-0.2,0.1-0.2,0.4-0.2,0.6c0,0.4,0.3,0.8,0.8,0.8s0.8-0.3,0.8-0.8C45,53.8,44.9,53.6,44.8,53.5L44.8,53.5z
			 M44.3,54c0,0-0.1,0-0.1,0h-0.1v-0.2h0h0.1c0,0,0.1,0.1,0.1,0.1C44.4,53.9,44.4,53.9,44.3,54L44.3,54z M44.1,54.2h0.2
			c0,0,0,0,0.1,0.1c0,0,0,0.1,0,0.1c0,0,0,0.1,0,0.1h0.2v-0.2c0-0.1,0-0.1-0.1-0.2c0,0-0.1,0-0.1,0c0.1,0,0.1,0,0.2-0.1
			c0,0,0.1-0.1,0.1-0.2c0-0.1,0-0.2-0.1-0.2c-0.1,0-0.1,0-0.2,0h-0.4v0.9h0.2L44.1,54.2L44.1,54.2z"/>
		<circle class="st0" cx="27.3" cy="48.6" r="0.4"/>
		<path class="st0" d="M33.7,48.2c-0.2,0-0.4,0.2-0.4,0.4c0,0.2,0.2,0.4,0.4,0.4c0.2,0,0.4-0.2,0.4-0.4l0,0l0,0
			C34.1,48.4,33.9,48.2,33.7,48.2C33.7,48.2,33.7,48.2,33.7,48.2z"/>
		<circle class="st0" cx="30.5" cy="48.6" r="0.4"/>
		<circle class="st0" cx="24" cy="48.6" r="0.4"/>
		<path class="st0" d="M21.2,21.8v31.2H45V21.8H21.2z M22.8,39.8v-3h1.1c1.8,0,3.4-0.8,4.5-2.3L27,33.7c-0.8,0.9-1.9,1.5-3.1,1.5
			h-1.1V23.4h9.5v10.4c0,3.7-3,6.6-6.6,6.6h-2.8V39.8z M23.8,51.5c-0.3,0-0.6,0-0.9,0c-0.1,0-0.1-0.1-0.1-0.1l0,0v-0.7
			c0-0.1,0.1-0.1,0.1-0.1l0,0h0.4c0.3,0,0.6-0.1,0.8-0.4c0,0,0-0.1,0-0.1c0-0.1-0.1-0.2-0.2-0.2c0,0-0.1,0-0.1,0l0,0
			c-0.1,0.2-0.4,0.3-0.6,0.3h-0.4c-0.1,0-0.1-0.1-0.1-0.1l0,0v-2.5c0-0.1,0.1-0.1,0.1-0.1l0,0h2.2c0.1,0,0.1,0.1,0.1,0.1l0,0V50
			C25.2,50.8,24.6,51.4,23.8,51.5L23.8,51.5z M28.6,49.7c0,0.1-0.1,0.2-0.2,0.2h-2.3c-0.1,0-0.2-0.1-0.2-0.2v-2.1
			c0-0.1,0.1-0.2,0.2-0.2h2.2c0.1,0,0.2,0.1,0.2,0.2L28.6,49.7z M31.8,49.7c0,0.1-0.1,0.2-0.2,0.2h-2.3c-0.1,0-0.2-0.1-0.2-0.2v-2.1
			c0-0.1,0.1-0.2,0.2-0.2h2.2c0.1,0,0.2,0.1,0.2,0.2L31.8,49.7z M35,49.7c0,0.1-0.1,0.2-0.1,0.2h0h-2.4c-0.1,0-0.2-0.1-0.2-0.1v0
			v-2.1c0-0.1,0.1-0.2,0.1-0.2h0h1.5c0.1,0,0.1,0,0.2-0.1v-0.9c0-0.1,0.1-0.2,0.1-0.2h0h0.6c0.1,0,0.2,0.1,0.2,0.1v0L35,49.7z
			 M39.1,49.7c0,0.1-0.1,0.2-0.1,0.2h0h-3.3c-0.1,0-0.2-0.1-0.2-0.1v0v-2.1c0-0.1,0.1-0.2,0.1-0.2h0h0.6c0.1,0,0.2,0.1,0.2,0.1v0
			v1.2c0,0.1,0.1,0.2,0.1,0.2h0h0.2c0.1,0,0.2-0.1,0.2-0.1v0v-1.2c0-0.1,0.1-0.2,0.1-0.2h0h0.6c0.1,0,0.2,0.1,0.2,0.1v0v1.2
			c0,0.1,0.1,0.2,0.1,0.2h0H38c0.1,0,0.1-0.1,0.2-0.1v-1.3c0-0.1,0.1-0.2,0.1-0.2h0h0.6c0.1,0,0.2,0.1,0.2,0.1v0L39.1,49.7z
			 M40.5,49.7c0,0.1-0.1,0.2-0.1,0.2h0h-0.6c-0.1,0-0.2-0.1-0.2-0.1v0v-2.1c0-0.1,0.1-0.2,0.1-0.2h0h0.6c0.1,0,0.2,0.1,0.2,0.1v0
			V49.7z M40.5,47.1c0,0.1-0.1,0.2-0.1,0.2h0h-0.6c-0.1,0-0.2-0.1-0.2-0.1v0v-0.7c0-0.1,0.1-0.2,0.1-0.2h0h0.6
			c0.1,0,0.2,0.1,0.2,0.1v0V47.1z M42,49.7c0,0.1-0.1,0.2-0.1,0.2h0h-0.6c-0.1,0-0.2-0.1-0.2-0.1v0v-3.3c0-0.1,0.1-0.2,0.1-0.2h0
			h0.6c0.1,0,0.2,0.1,0.2,0.1v0V49.7z M43.4,49.7c0,0.1-0.1,0.2-0.1,0.2h0h-0.6c-0.1,0-0.2-0.1-0.2-0.1v0v-3.3
			c0-0.1,0.1-0.2,0.1-0.2h0h0.6c0.1,0,0.2,0.1,0.2,0.1v0V49.7z M43.4,45.1H22.8V42h2.8c4.6,0,8.3-3.7,8.3-8.3c0,0,0,0,0,0V23.4h9.5
			L43.4,45.1z"/>
		<circle class="st0" cx="27.5" cy="28.4" r="2.1"/>
		<path class="st0" d="M49.7,35.5V21.8h4.8l4.2,7.6l0,0v-7.6h4v13.7h-4.6l-4.4-7.7v7.7H49.7z"/>
		<path class="st0" d="M67.9,35.5v-3.9l-4.7-9.9h4.8l2,5.4l2-5.4h4.8L72,31.6v3.9H67.9z"/>
		<path class="st0" d="M49.7,52.7V39h4.8l4.2,7.6l0,0V39h4v13.7h-4.6l-4.4-7.7v7.7H49.7z"/>
		<path class="st0" d="M70.6,47.8V39h4.2v8.3c0.1,1.5-0.2,3-0.9,4.2c-0.8,1.1-2.2,1.6-4.3,1.6S66,52.8,65.2,52
			c-0.9-0.9-1.3-2.6-1.3-5h4.2c0,0.6,0,1.3,0.1,1.9c0.1,0.6,0.6,1,1.1,0.9C70.2,49.9,70.6,49.2,70.6,47.8z"/>
		<path class="st1" d="M21.1,3.5h105.7c9.7,0,17.6,7.9,17.6,17.6v105.7c0,9.7-7.9,17.6-17.6,17.6H21.1c-9.7,0-17.6-7.9-17.6-17.6
			V21.1C3.5,11.4,11.4,3.5,21.1,3.5z"/>
		<g class="st2">
			<path class="st0" d="M23.7,98.2h4c0.5,0,0.9,0,1.4,0.1s0.9,0.2,1.3,0.4s0.7,0.5,0.9,0.8c0.2,0.4,0.3,0.8,0.3,1.4
				c0,0.6-0.2,1.1-0.5,1.5c-0.3,0.4-0.8,0.7-1.3,0.9v0c0.4,0.1,0.7,0.1,1,0.3c0.3,0.1,0.5,0.3,0.7,0.6s0.4,0.5,0.5,0.8
				c0.1,0.3,0.2,0.6,0.2,1c0,0.6-0.1,1-0.4,1.4c-0.2,0.4-0.6,0.7-0.9,0.9s-0.8,0.4-1.3,0.5c-0.5,0.1-1,0.2-1.4,0.2h-4.4V98.2z
				 M26,102.4h1.7c0.2,0,0.4,0,0.5-0.1c0.2,0,0.3-0.1,0.5-0.2c0.1-0.1,0.3-0.2,0.3-0.4c0.1-0.2,0.1-0.3,0.1-0.5c0-0.2,0-0.4-0.1-0.6
				c-0.1-0.1-0.2-0.3-0.4-0.3c-0.2-0.1-0.3-0.1-0.5-0.2c-0.2,0-0.4-0.1-0.6-0.1H26V102.4z M26,106.9h2.1c0.2,0,0.4,0,0.6-0.1
				s0.4-0.1,0.5-0.2s0.3-0.2,0.4-0.4s0.1-0.4,0.1-0.6c0-0.3-0.1-0.5-0.2-0.6s-0.3-0.3-0.5-0.4c-0.2-0.1-0.4-0.1-0.6-0.2
				c-0.2,0-0.4,0-0.6,0H26V106.9z"/>
			<path class="st0" d="M33.5,98.2h4.1c0.5,0,1.1,0.1,1.5,0.2c0.5,0.1,0.9,0.3,1.3,0.5c0.4,0.2,0.7,0.6,0.9,1s0.3,0.9,0.3,1.6
				c0,0.8-0.2,1.4-0.6,1.9c-0.4,0.5-1,0.9-1.7,1l2.7,4.5h-2.8l-2.2-4.3h-1.2v4.3h-2.4V98.2z M35.8,102.6h1.4c0.2,0,0.4,0,0.7,0
				c0.2,0,0.5-0.1,0.6-0.1c0.2-0.1,0.3-0.2,0.5-0.4c0.1-0.2,0.2-0.4,0.2-0.7c0-0.3-0.1-0.5-0.2-0.7s-0.3-0.3-0.4-0.4
				c-0.2-0.1-0.4-0.1-0.6-0.2c-0.2,0-0.4,0-0.6,0h-1.5V102.6z"/>
			<path class="st0" d="M46.8,98.2h1.9l4.7,10.7h-2.7l-0.9-2.3h-4.2l-0.9,2.3h-2.6L46.8,98.2z M47.7,101.3l-1.3,3.3H49L47.7,101.3z"
				/>
			<path class="st0" d="M54.4,98.2h3.2l4.5,7.4h0v-7.4h2.4v10.7h-3.1l-4.7-7.6h0v7.6h-2.4V98.2z"/>
			<path class="st0" d="M66.8,98.2h3.5c0.9,0,1.7,0.1,2.4,0.3c0.8,0.2,1.4,0.5,2,0.9c0.6,0.4,1,1,1.4,1.7c0.3,0.7,0.5,1.5,0.5,2.5
				c0,0.9-0.2,1.6-0.5,2.3c-0.3,0.7-0.8,1.2-1.3,1.7c-0.6,0.4-1.2,0.8-1.9,1c-0.7,0.2-1.5,0.3-2.3,0.3h-3.9V98.2z M69.1,106.7h1.2
				c0.5,0,1.1-0.1,1.5-0.2c0.5-0.1,0.9-0.3,1.2-0.6s0.6-0.6,0.8-1c0.2-0.4,0.3-0.9,0.3-1.5c0-0.5-0.1-1-0.3-1.4
				c-0.2-0.4-0.5-0.7-0.8-1s-0.7-0.4-1.2-0.6s-0.9-0.2-1.4-0.2h-1.4V106.7z"/>
			<path class="st0" d="M78.2,98.2h2.4v10.7h-2.4V98.2z"/>
			<path class="st0" d="M82.7,98.2h3.2l4.5,7.4h0v-7.4h2.4v10.7h-3.1l-4.7-7.6h0v7.6h-2.4V98.2z"/>
			<path class="st0" d="M104.7,108.1c-0.7,0.4-1.4,0.6-2.2,0.8c-0.8,0.2-1.5,0.2-2.3,0.2c-0.8,0-1.6-0.1-2.3-0.4s-1.3-0.6-1.8-1.1
				c-0.5-0.5-0.9-1.1-1.2-1.8c-0.3-0.7-0.4-1.5-0.4-2.3s0.1-1.6,0.4-2.3s0.7-1.3,1.2-1.8s1.1-0.9,1.8-1.1c0.7-0.3,1.5-0.4,2.3-0.4
				c0.9,0,1.6,0.1,2.4,0.3c0.7,0.2,1.4,0.6,1.9,1.1l-1.7,1.8c-0.3-0.3-0.7-0.6-1.1-0.8c-0.4-0.2-0.9-0.3-1.5-0.3
				c-0.5,0-1,0.1-1.4,0.3s-0.8,0.4-1,0.7c-0.3,0.3-0.5,0.7-0.7,1.1c-0.2,0.4-0.2,0.9-0.2,1.4c0,0.5,0.1,1,0.2,1.4
				c0.2,0.4,0.4,0.8,0.7,1.1c0.3,0.3,0.6,0.5,1,0.7c0.4,0.2,0.9,0.3,1.4,0.3c0.5,0,1-0.1,1.3-0.2c0.4-0.1,0.7-0.2,0.9-0.4v-1.7h-1.9
				v-2.2h4.2V108.1z"/>
			<path class="st0" d="M119.1,106.3l2.4,2.5h-2.9l-0.9-1c-0.4,0.5-0.9,0.8-1.4,1s-1.1,0.3-1.7,0.3c-0.5,0-1-0.1-1.4-0.2
				s-0.9-0.3-1.2-0.6c-0.4-0.3-0.6-0.6-0.9-1c-0.2-0.4-0.3-0.9-0.3-1.4c0-0.3,0.1-0.7,0.2-1c0.1-0.3,0.3-0.6,0.5-0.8
				c0.2-0.3,0.4-0.5,0.7-0.7c0.3-0.2,0.6-0.3,0.9-0.4c-0.2-0.2-0.3-0.4-0.5-0.5c-0.1-0.2-0.3-0.4-0.4-0.5c-0.1-0.2-0.2-0.4-0.2-0.6
				c-0.1-0.2-0.1-0.4-0.1-0.7c0-0.5,0.1-0.9,0.3-1.2c0.2-0.3,0.4-0.6,0.7-0.8c0.3-0.2,0.7-0.4,1.1-0.5c0.4-0.1,0.8-0.2,1.2-0.2
				c0.4,0,0.8,0.1,1.2,0.2c0.4,0.1,0.7,0.3,1,0.5c0.3,0.2,0.5,0.5,0.7,0.8c0.2,0.3,0.3,0.7,0.3,1.2c0,0.3-0.1,0.6-0.2,0.9
				c-0.1,0.3-0.2,0.5-0.4,0.8c-0.2,0.2-0.4,0.4-0.6,0.6c-0.2,0.2-0.5,0.4-0.8,0.5l1.4,1.5l1-1.4h2.6L119.1,106.3z M114.5,104.3
				c-0.2,0.1-0.3,0.2-0.4,0.3c-0.1,0.1-0.3,0.2-0.4,0.3c-0.1,0.1-0.2,0.2-0.3,0.4c-0.1,0.2-0.1,0.3-0.1,0.5s0,0.4,0.1,0.5
				c0.1,0.2,0.2,0.3,0.3,0.4c0.1,0.1,0.3,0.2,0.5,0.3c0.2,0.1,0.4,0.1,0.5,0.1c0.4,0,0.7-0.1,0.9-0.2s0.5-0.3,0.8-0.6L114.5,104.3z
				 M115.2,99.7c-0.3,0-0.5,0.1-0.7,0.3s-0.3,0.4-0.3,0.7c0,0.1,0,0.3,0.1,0.4s0.1,0.2,0.2,0.4c0.1,0.1,0.2,0.2,0.3,0.3
				c0.1,0.1,0.2,0.2,0.3,0.3c0.1-0.1,0.3-0.2,0.4-0.2c0.1-0.1,0.3-0.2,0.4-0.3c0.1-0.1,0.2-0.2,0.3-0.4c0.1-0.1,0.1-0.3,0.1-0.4
				c0-0.3-0.1-0.6-0.3-0.7C115.7,99.8,115.5,99.7,115.2,99.7z"/>
		</g>
		<g class="st2">
			<path class="st0" d="M20.6,118.9c-0.2-0.2-0.5-0.4-0.8-0.5s-0.6-0.2-0.9-0.2c-0.2,0-0.3,0-0.5,0.1s-0.4,0.1-0.5,0.2
				c-0.2,0.1-0.3,0.2-0.4,0.3c-0.1,0.1-0.2,0.3-0.2,0.5c0,0.3,0.1,0.6,0.4,0.7c0.2,0.2,0.5,0.3,0.9,0.4c0.4,0.1,0.8,0.2,1.2,0.4
				c0.4,0.1,0.8,0.3,1.2,0.5s0.7,0.5,0.9,0.9c0.2,0.4,0.4,0.9,0.4,1.5c0,0.6-0.1,1.1-0.3,1.6s-0.5,0.8-0.9,1.1s-0.8,0.5-1.3,0.6
				s-1,0.2-1.6,0.2c-0.7,0-1.3-0.1-1.9-0.3c-0.6-0.2-1.1-0.6-1.7-1l1.7-1.8c0.2,0.3,0.5,0.6,0.9,0.7c0.4,0.2,0.7,0.3,1.1,0.3
				c0.2,0,0.4,0,0.6-0.1c0.2,0,0.4-0.1,0.5-0.2s0.3-0.2,0.4-0.3c0.1-0.1,0.1-0.3,0.1-0.5c0-0.3-0.1-0.6-0.4-0.8
				c-0.2-0.2-0.6-0.3-0.9-0.5s-0.8-0.3-1.2-0.4c-0.4-0.1-0.8-0.3-1.2-0.5s-0.7-0.5-0.9-0.9c-0.2-0.4-0.4-0.8-0.4-1.4
				c0-0.6,0.1-1.1,0.3-1.5c0.2-0.4,0.5-0.8,0.9-1.1c0.4-0.3,0.8-0.5,1.3-0.7c0.5-0.1,1-0.2,1.5-0.2c0.6,0,1.2,0.1,1.8,0.3
				c0.6,0.2,1.1,0.5,1.5,0.9L20.6,118.9z"/>
			<path class="st0" d="M33,122.9c0,0.6-0.1,1.2-0.3,1.8s-0.5,1-0.9,1.4c-0.4,0.4-0.8,0.7-1.4,0.9c-0.6,0.2-1.2,0.3-1.9,0.3
				c-0.7,0-1.4-0.1-2-0.3c-0.6-0.2-1-0.5-1.4-0.9c-0.4-0.4-0.7-0.9-0.9-1.4s-0.3-1.1-0.3-1.8v-6.6h2.4v6.5c0,0.3,0.1,0.6,0.2,0.9
				c0.1,0.3,0.3,0.5,0.4,0.7c0.2,0.2,0.4,0.4,0.7,0.5c0.3,0.1,0.6,0.2,0.9,0.2c0.3,0,0.6-0.1,0.9-0.2c0.3-0.1,0.5-0.3,0.7-0.5
				c0.2-0.2,0.3-0.5,0.4-0.7s0.2-0.6,0.2-0.9v-6.5H33V122.9z"/>
			<path class="st0" d="M40.4,118.9c-0.2-0.2-0.5-0.4-0.8-0.5s-0.6-0.2-0.9-0.2c-0.2,0-0.3,0-0.5,0.1s-0.4,0.1-0.5,0.2
				c-0.2,0.1-0.3,0.2-0.4,0.3c-0.1,0.1-0.2,0.3-0.2,0.5c0,0.3,0.1,0.6,0.4,0.7c0.2,0.2,0.5,0.3,0.9,0.4c0.4,0.1,0.8,0.2,1.2,0.4
				c0.4,0.1,0.8,0.3,1.2,0.5s0.7,0.5,0.9,0.9c0.2,0.4,0.4,0.9,0.4,1.5c0,0.6-0.1,1.1-0.3,1.6s-0.5,0.8-0.9,1.1s-0.8,0.5-1.3,0.6
				s-1,0.2-1.6,0.2c-0.7,0-1.3-0.1-1.9-0.3c-0.6-0.2-1.1-0.6-1.7-1l1.7-1.8c0.2,0.3,0.5,0.6,0.9,0.7c0.4,0.2,0.7,0.3,1.1,0.3
				c0.2,0,0.4,0,0.6-0.1c0.2,0,0.4-0.1,0.5-0.2s0.3-0.2,0.4-0.3c0.1-0.1,0.1-0.3,0.1-0.5c0-0.3-0.1-0.6-0.4-0.8
				c-0.2-0.2-0.6-0.3-0.9-0.5s-0.8-0.3-1.2-0.4c-0.4-0.1-0.8-0.3-1.2-0.5s-0.7-0.5-0.9-0.9c-0.2-0.4-0.4-0.8-0.4-1.4
				c0-0.6,0.1-1.1,0.3-1.5c0.2-0.4,0.5-0.8,0.9-1.1c0.4-0.3,0.8-0.5,1.3-0.7c0.5-0.1,1-0.2,1.5-0.2c0.6,0,1.2,0.1,1.8,0.3
				c0.6,0.2,1.1,0.5,1.5,0.9L40.4,118.9z"/>
		</g>
		<g class="st2">
			<path class="st0" d="M45.9,118.4h-3.1v-2.1h8.5v2.1h-3.1v8.6h-2.4V118.4z"/>
		</g>
		<g class="st2">
			<path class="st0" d="M54.6,116.3h1.9l4.7,10.7h-2.7l-0.9-2.3h-4.2l-0.9,2.3H50L54.6,116.3z M55.5,119.4l-1.3,3.3h2.6L55.5,119.4z
				"/>
			<path class="st0" d="M62.3,116.3h2.4V127h-2.4V116.3z"/>
			<path class="st0" d="M66.8,116.3H70l4.5,7.4h0v-7.4h2.4V127h-3.1l-4.7-7.6h0v7.6h-2.4V116.3z"/>
			<path class="st0" d="M82.6,116.3h1.9l4.7,10.7h-2.7l-0.9-2.3h-4.2l-0.9,2.3H78L82.6,116.3z M83.5,119.4l-1.3,3.3h2.6L83.5,119.4z
				"/>
			<path class="st0" d="M90.3,116.3h4c0.5,0,0.9,0,1.4,0.1c0.5,0.1,0.9,0.2,1.3,0.4c0.4,0.2,0.7,0.5,0.9,0.8
				c0.2,0.4,0.3,0.8,0.3,1.4c0,0.6-0.2,1.1-0.5,1.5c-0.3,0.4-0.8,0.7-1.3,0.9v0c0.4,0.1,0.7,0.1,1,0.3c0.3,0.1,0.5,0.3,0.7,0.6
				c0.2,0.2,0.4,0.5,0.5,0.8c0.1,0.3,0.2,0.6,0.2,1c0,0.6-0.1,1-0.4,1.4c-0.2,0.4-0.6,0.7-0.9,0.9s-0.8,0.4-1.3,0.5
				c-0.5,0.1-1,0.2-1.4,0.2h-4.4V116.3z M92.6,120.6h1.7c0.2,0,0.4,0,0.5-0.1c0.2,0,0.3-0.1,0.5-0.2s0.3-0.2,0.3-0.4
				c0.1-0.2,0.1-0.3,0.1-0.5c0-0.2,0-0.4-0.1-0.6c-0.1-0.1-0.2-0.3-0.4-0.3c-0.2-0.1-0.3-0.1-0.5-0.2c-0.2,0-0.4-0.1-0.6-0.1h-1.6
				V120.6z M92.6,125h2.1c0.2,0,0.4,0,0.6-0.1s0.4-0.1,0.5-0.2c0.2-0.1,0.3-0.2,0.4-0.4s0.1-0.4,0.1-0.6c0-0.3-0.1-0.5-0.2-0.6
				s-0.3-0.3-0.5-0.4c-0.2-0.1-0.4-0.1-0.6-0.2s-0.4,0-0.6,0h-1.8V125z"/>
			<path class="st0" d="M100,116.3h2.4V127H100V116.3z"/>
			<path class="st0" d="M104.6,116.3h2.4v8.5h4.4v2.2h-6.7V116.3z"/>
			<path class="st0" d="M112.6,116.3h2.4V127h-2.4V116.3z"/>
			<path class="st0" d="M119.2,118.4h-3.1v-2.1h8.5v2.1h-3.1v8.6h-2.4V118.4z"/>
			<path class="st0" d="M128.4,122.4l-4-6.1h2.9l2.3,4l2.4-4h2.8l-4,6.1v4.6h-2.4V122.4z"/>
		</g>
		<g id="recycle_glyph">
			<path class="st0" d="M125.4,41.6l-0.1-0.2l-2-3.6l0,0l-0.1-0.1c-0.3-0.4-0.7-0.7-1.3-0.7c-0.2,0-0.5,0.1-0.7,0.2l-0.5,0.3l-2,1.1
				l0,0c-0.5,0.3-0.7,0.7-0.7,1.3c0,0.2,0.1,0.5,0.2,0.7l0,0l2,3.7l0.1,0.2c0.8,1.6,0.1,3.6-1.5,4.4c-0.4,0.2-0.8,0.3-1.3,0.3
				l-5.1,0.1c-0.4,0-0.8-0.4-0.8-0.8v-0.1v-1.4c0-0.3-0.3-0.6-0.6-0.6c-0.1,0-0.2,0-0.3,0.1l-0.1,0.1l-1.8,1.5l-1.6,1.4l-2.6,2.2
				c-0.2,0.2-0.3,0.4-0.3,0.7c0,0.3,0.1,0.5,0.3,0.7l2.6,2.1l3.4,2.8l0.1,0.1c0.1,0.1,0.2,0.1,0.3,0.1c0.3,0,0.6-0.3,0.6-0.6
				c0,0,0,0,0,0l0,0v-1.4v-0.1c0-0.5,0.4-0.9,0.9-0.9l5-0.1c4.9-0.1,8.9-4.1,8.8-9.1c0,0,0,0,0,0C126.5,44.2,126.1,42.8,125.4,41.6z
				"/>
			<path class="st0" d="M99.6,48.8c-0.2-0.1-0.4-0.2-0.7-0.2l0,0l-4.2-0.1h-0.2c-0.5,0-1-0.2-1.4-0.4c-1.6-0.9-2.1-2.9-1.3-4.4
				l2.5-4.5c0.3-0.4,0.7-0.5,1.1-0.3h0.1l1.2,0.7l0,0c0.3,0.2,0.7,0.1,0.8-0.2c0,0,0,0,0,0c0.1-0.1,0.1-0.2,0.1-0.3v-0.1l-0.4-2.3
				l-0.4-2l-0.6-3.3c-0.1-0.3-0.2-0.5-0.4-0.6c-0.2-0.1-0.5-0.1-0.8,0L92,31.9l-4.1,1.6h-0.1c-0.1,0-0.2,0.1-0.2,0.2
				c-0.2,0.3-0.1,0.7,0.2,0.8l1.2,0.7h0.1c0.4,0.2,0.5,0.8,0.3,1.2l-2.4,4.4c-1.8,3.2-1.5,7.3,0.9,10.2c1.6,2,4,3.1,6.6,3.2h0.3
				l4.1,0.1h0.1c0.5,0,1-0.3,1.2-0.7c0.1-0.2,0.2-0.4,0.2-0.7v-0.6v-2.2l0,0C100.3,49.5,100,49.1,99.6,48.8z"/>
			<path class="st0" d="M109.3,24.1l2.6,4.4c0.2,0.4,0.1,0.9-0.3,1.1l-0.1,0.1l-1.2,0.7c-0.3,0.2-0.4,0.5-0.2,0.8c0,0,0,0,0,0
				c0.1,0.1,0.2,0.2,0.3,0.2h0.1l2.2,0.8l2,0.7l3.2,1.1c0.3,0.1,0.5,0.1,0.8-0.1c0.2-0.1,0.4-0.4,0.4-0.6l0.5-3.3l0.7-4.3v-0.1
				c0-0.1,0-0.2-0.1-0.3c-0.2-0.3-0.5-0.4-0.8-0.2c0,0,0,0,0,0l0,0l-1.2,0.7H118c-0.4,0.2-0.9,0.1-1.2-0.3l-2.6-4.3
				c-1.4-2.2-3.6-3.7-6.2-4.1c-1-0.2-2-0.2-3,0c-1.1,0.2-2.2,0.6-3.1,1.1c-1.2,0.7-2.2,1.7-3,2.9c-0.1,0.1-0.1,0.2-0.1,0.2l-2.1,3.5
				l-0.1,0.1c-0.3,0.4-0.3,1,0,1.4c0.1,0.2,0.3,0.4,0.5,0.5l0.5,0.3l1.9,1.2l0,0c0.4,0.3,1,0.3,1.5,0c0.2-0.1,0.4-0.3,0.5-0.5l0,0
				l2.2-3.6c0-0.1,0.1-0.1,0.1-0.2c0.3-0.4,0.6-0.7,1-1C106.3,22.1,108.3,22.5,109.3,24.1C109.3,24.1,109.3,24.1,109.3,24.1z"/>
		</g>
		<g id="chart">
			<path class="st0" d="M95.5,62.5c-2,0-3.7,1.7-3.7,3.7c0,0.4,0.1,0.8,0.2,1.2l-9,7.8c-1.5-1.2-3.6-1.1-4.9,0.2L71,71.8
				c-0.1-2-1.9-3.6-4-3.4s-3.6,1.9-3.4,4c0,0.5,0.1,0.9,0.3,1.3L56.7,82c-1.9-0.7-4.1,0.3-4.8,2.2c-0.7,1.9,0.3,4.1,2.2,4.8
				c1.9,0.7,4.1-0.3,4.8-2.2c0.2-0.4,0.2-0.9,0.2-1.3c0-0.5-0.1-1-0.3-1.4l7.3-8.4c0.4,0.1,0.7,0.2,1.1,0.2c1,0,2-0.5,2.7-1.2
				l6.9,3.5c0,2.1,1.7,3.7,3.7,3.7c2.1,0,3.7-1.7,3.7-3.7c0-0.1,0-0.1,0-0.2l9.7-8.3c0.5,0.2,1,0.3,1.5,0.3c2,0,3.7-1.7,3.7-3.7
				C99.2,64.1,97.6,62.5,95.5,62.5C95.5,62.4,95.5,62.4,95.5,62.5L95.5,62.5z"/>
		</g>
	</g>
</g>
</svg>
