<svg xmlns="http://www.w3.org/2000/svg" viewBox="0 0 147.79 147.79"><defs><style>.cls-1,.cls-3{fill:#0056a5;}.cls-2{fill:none;stroke:#0056a5;stroke-miterlimit:10;stroke-width:7px;}.cls-3{font-size:15.11px;font-family:Avenir-Black, Avenir;}.cls-4{letter-spacing:-0.09em;}</style></defs><title>branding</title><g id="Layer_2" data-name="Layer 2"><g id="Layer_1-2" data-name="Layer 1"><path class="cls-1" d="M44.68,53.6a.62.62,0,0,1,.19.45.63.63,0,0,1-.19.46.64.64,0,0,1-.91,0,.65.65,0,0,1,0-.91.63.63,0,0,1,.91,0Zm.1-.1a.75.75,0,0,0-.55-.23.76.76,0,0,0-.53.21.74.74,0,0,0-.24.57.78.78,0,1,0,1.33-.55Zm-.45.49a.21.21,0,0,1-.12,0h-.09v-.25h.05l.13,0a.1.1,0,0,1,.07.1.12.12,0,0,1,0,.1Zm-.21.19h.17a.1.1,0,0,1,.06.06.39.39,0,0,1,0,.11.61.61,0,0,0,0,.12h.22v-.15a.23.23,0,0,0-.08-.19.29.29,0,0,0-.12,0,.28.28,0,0,0,.15-.06.19.19,0,0,0,.06-.16.22.22,0,0,0-.11-.21.42.42,0,0,0-.17,0h-.42v.86h.23v-.3Z"/><circle class="cls-1" cx="27.27" cy="48.57" r="0.4"/><path class="cls-1" d="M33.65,48.17a.4.4,0,1,0,.39.43s0,0,0,0,0,0,0,0A.4.4,0,0,0,33.65,48.17Z"/><circle class="cls-1" cx="30.46" cy="48.57" r="0.4"/><circle class="cls-1" cx="24" cy="48.64" r="0.4"/><path class="cls-1" d="M21.2,21.75V52.91H45V21.75Zm1.63,18v-3h1.08a5.48,5.48,0,0,0,4.45-2.26L27,33.66a3.94,3.94,0,0,1-3.09,1.48H22.83V23.37H32.3V33.75a6.64,6.64,0,0,1-6.64,6.64H22.83Zm1,11.8a3.32,3.32,0,0,1-.89,0,.13.13,0,0,1-.13-.13v-.71a.13.13,0,0,1,.13-.13h.36a1,1,0,0,0,.82-.39.18.18,0,0,0,.05-.12.19.19,0,0,0-.31-.15l0,0a.76.76,0,0,1-.59.26H22.9a.13.13,0,0,1-.13-.13V47.54a.13.13,0,0,1,.13-.13h2.21a.13.13,0,0,1,.13.13V50A1.74,1.74,0,0,1,23.79,51.53Zm4.74-1.84a.17.17,0,0,1-.18.15H26.1a.17.17,0,0,1-.18-.15V47.56a.17.17,0,0,1,.18-.15h2.24a.17.17,0,0,1,.18.15Zm3.2,0a.17.17,0,0,1-.18.15H29.3a.17.17,0,0,1-.18-.15V47.56a.17.17,0,0,1,.18-.15h2.24a.17.17,0,0,1,.18.15Zm3.19,0a.15.15,0,0,1-.15.15H32.44a.15.15,0,0,1-.15-.15V47.56a.15.15,0,0,1,.15-.15H33.9a.15.15,0,0,0,.15-.12V46.4a.15.15,0,0,1,.15-.15h.58a.15.15,0,0,1,.15.15Zm4.11,0a.15.15,0,0,1-.15.15H35.65a.15.15,0,0,1-.15-.15V47.56a.15.15,0,0,1,.15-.15h.58a.15.15,0,0,1,.15.15v1.25a.15.15,0,0,0,.15.15h.16a.15.15,0,0,0,.15-.15V47.56a.15.15,0,0,1,.15-.15h.57a.15.15,0,0,1,.15.15v1.25a.15.15,0,0,0,.15.15H38a.15.15,0,0,0,.15-.13V47.56a.15.15,0,0,1,.15-.15h.58a.15.15,0,0,1,.15.15Zm1.46,0a.15.15,0,0,1-.15.15h-.58a.15.15,0,0,1-.15-.15V47.56a.15.15,0,0,1,.15-.15h.58a.15.15,0,0,1,.15.15Zm0-2.65a.15.15,0,0,1-.15.15h-.58a.15.15,0,0,1-.15-.15V46.4a.15.15,0,0,1,.15-.15h.58a.15.15,0,0,1,.15.15Zm1.45,2.65a.15.15,0,0,1-.15.15h-.57a.15.15,0,0,1-.15-.15V46.4a.15.15,0,0,1,.15-.15h.57a.15.15,0,0,1,.15.15Zm1.45,0a.15.15,0,0,1-.15.15h-.57a.15.15,0,0,1-.15-.15V46.4a.15.15,0,0,1,.15-.15h.57a.15.15,0,0,1,.15.15Zm0-4.64H22.83V42h2.84a8.27,8.27,0,0,0,8.26-8.28V23.37h9.49Z"/><circle class="cls-1" cx="27.55" cy="28.43" r="2.11"/><path class="cls-1" d="M49.69,35.46V21.75h4.78l4.24,7.61h0V21.75h4V35.46h-4.6L53.7,27.78v7.68Z"/><path class="cls-1" d="M67.86,35.46V31.6l-4.7-9.85h4.78l2,5.38,2-5.38h4.78L72,31.6v3.86Z"/><path class="cls-1" d="M49.69,52.74V39h4.78l4.24,7.61h0V39h4V52.74h-4.6L53.7,45.06v7.68Z"/><path class="cls-1" d="M70.61,47.75V39h4.18v8.32a7.49,7.49,0,0,1-.92,4.25q-1.17,1.63-4.29,1.63T65.21,52q-1.32-1.34-1.32-5h4.18a9.6,9.6,0,0,0,.12,1.94,1.11,1.11,0,0,0,1.14.94Q70.61,49.88,70.61,47.75Z"/><rect class="cls-2" x="3.5" y="3.5" width="140.79" height="140.79" rx="17.56" ry="17.56"/><text class="cls-3" transform="translate(22.58 108.87)">BRANDING &amp; <tspan x="-8.4" y="18.14">SUS</tspan><tspan class="cls-4" x="20.15" y="18.14">T</tspan><tspan x="27.43" y="18.14">AINABILITY</tspan></text><g id="recycle_glyph" data-name="recycle glyph"><path class="cls-1" d="M125.44,41.59l-.13-.24-2-3.59h0l-.06-.09A1.41,1.41,0,0,0,122,37a1.52,1.52,0,0,0-.67.18l-.54.3-2,1.08h0a1.43,1.43,0,0,0-.73,1.26,1.39,1.39,0,0,0,.18.66s0,0,0,0l2,3.68.09.16A3.26,3.26,0,0,1,117.56,49l-5.13.08a.87.87,0,0,1-.81-.84v-.1l0-1.43a.62.62,0,0,0-.62-.6.56.56,0,0,0-.34.11l-.08.07-1.76,1.51-1.58,1.36-2.55,2.19a.94.94,0,0,0-.32.71.91.91,0,0,0,.34.7l2.62,2.12,3.42,2.75.1.08a.58.58,0,0,0,.33.09.6.6,0,0,0,.59-.62h0l0-1.43v-.11a.9.9,0,0,1,.88-.87l5-.08a8.94,8.94,0,0,0,8.81-9.1A8.26,8.26,0,0,0,125.44,41.59Z"/><path class="cls-1" d="M99.59,48.82a1.33,1.33,0,0,0-.66-.18h0l-4.2-.08h-.19a3.17,3.17,0,0,1-1.39-.4,3.26,3.26,0,0,1-1.26-4.43l2.49-4.49a.88.88,0,0,1,1.14-.29l.09,0,1.25.69h0a.6.6,0,0,0,.82-.23.59.59,0,0,0,.07-.35l0-.11-.43-2.28-.39-2.05-.62-3.31a.93.93,0,0,0-.45-.63.91.91,0,0,0-.77,0l-3.13,1.21-4.1,1.59-.12,0a.53.53,0,0,0-.25.24.61.61,0,0,0,.24.82l1.24.7.09,0a.9.9,0,0,1,.32,1.19l-2.45,4.41A9,9,0,0,0,87.81,51a9,9,0,0,0,6.57,3.24h.27l4.1.08h.11a1.43,1.43,0,0,0,1.22-.73,1.45,1.45,0,0,0,.18-.67l0-.62,0-2.25h0A1.38,1.38,0,0,0,99.59,48.82Z"/><path class="cls-1" d="M109.32,24.11l2.64,4.4a.87.87,0,0,1-.33,1.12l-.09.06-1.22.73a.6.6,0,0,0-.21.83.59.59,0,0,0,.27.24l.1,0,2.19.77,2,.69,3.17,1.12a.92.92,0,0,0,.77-.08.94.94,0,0,0,.43-.64l.52-3.33.67-4.34,0-.12a.62.62,0,0,0-.08-.34.6.6,0,0,0-.83-.21h0l-1.21.73-.09,0a.9.9,0,0,1-1.19-.31l-2.59-4.33A8.93,8.93,0,0,0,108.07,17a9.31,9.31,0,0,0-3,0,9,9,0,0,0-3.11,1.15A8.85,8.85,0,0,0,99,21a2.26,2.26,0,0,0-.14.24l-2.12,3.51-.06.09a1.43,1.43,0,0,0,0,1.43,1.35,1.35,0,0,0,.49.49l.52.31,1.92,1.16h0a1.4,1.4,0,0,0,1.46,0,1.37,1.37,0,0,0,.48-.48v0l2.17-3.59a1.63,1.63,0,0,1,.1-.16,3.32,3.32,0,0,1,1-1A3.24,3.24,0,0,1,109.32,24.11Z"/></g><g id="chart"><path class="cls-1" d="M95.47,62.46a3.71,3.71,0,0,0-3.71,3.71,3.91,3.91,0,0,0,.2,1.21l-9,7.77a3.71,3.71,0,0,0-4.9.25L71,71.85a3.71,3.71,0,1,0-7.06,1.83L56.72,82a3.71,3.71,0,1,0,2.41,3.48,3.59,3.59,0,0,0-.28-1.4l7.32-8.41a3.58,3.58,0,0,0,1.11.17A3.73,3.73,0,0,0,70,74.62l6.91,3.47a3.71,3.71,0,0,0,7.43,0,1.61,1.61,0,0,0,0-.21L94,69.56a3.75,3.75,0,0,0,1.5.31,3.71,3.71,0,1,0,0-7.42Z"/></g></g></g></svg>