<svg xmlns="http://www.w3.org/2000/svg" viewBox="0 0 147.79 147.79"><defs><style>.cls-1{fill:none;stroke:#0056a5;stroke-miterlimit:10;stroke-width:7px;}.cls-2{font-size:21.35px;font-family:Avenir-Black, Avenir;}.cls-2,.cls-4{fill:#0056a5;}.cls-3{letter-spacing:-0.09em;}.cls-5{fill:#5f8dc9;}.cls-6{fill:#b0d0e8;}</style></defs><title>data</title><g id="Layer_2" data-name="Layer 2"><g id="Layer_1-2" data-name="Layer 1"><rect class="cls-1" x="3.5" y="3.5" width="140.79" height="140.79" rx="17.56" ry="17.56"/><text class="cls-2" transform="translate(43.07 106.37)">D<tspan class="cls-3" x="16.2" y="0">AT</tspan><tspan x="40.35" y="0">A </tspan><tspan x="-14.82" y="25.62">SCIENCE</tspan></text><path class="cls-4" d="M49.29,71.39c-17.68-19.8-7.8-51.33,18-57.49A35,35,0,1,1,81.54,82.49c-10.84,1.92-20.58-.84-29-7.94-.27-.23-.48-.54-.88-.57C51.11,72.87,50.07,72.25,49.29,71.39Zm52.8-6.64a19.55,19.55,0,0,0,1.1-1.65,31.63,31.63,0,0,0-25.6-46.63C67.4,15.9,58.7,19.31,51.88,26.95c-7.23,8.1-9.75,17.67-7.26,28.18,2.84,12,10.43,20,22.27,23.27,12,3.32,22.64.22,31.46-8.67a14.59,14.59,0,0,0,3.5-4.72Z"/><path class="cls-4" d="M48.46,77.38a3.38,3.38,0,0,1-1.16,3c-1.53,1.49-3,3-4.55,4.53s-3.24,1.57-4.53.33-1.17-3.1.33-4.61c1.31-1.32,2.69-2.59,3.93-4a4.39,4.39,0,0,1,3.84-1.71A3.85,3.85,0,0,1,48.46,77.38Z"/><path class="cls-5" d="M48.46,77.38a3.85,3.85,0,0,0-2.13-2.46,14.29,14.29,0,0,1,2.19-2.4c.3-.35.75-.59.77-1.13.78.86,1.83,1.48,2.34,2.59C50.73,75.27,49.4,76.14,48.46,77.38Z"/><path class="cls-5" d="M58.09,38.16a19.12,19.12,0,0,0,1.08-3.84c.18-.65.45-1.13,1.14-1.13s1,.52,1.12,1.16a24.91,24.91,0,0,0,.87,3.77l.31,2.14L66.9,62c.52-.22.48-.69.59-1q1.95-6,3.84-12.11c.17-.55.34-1.08,1-1.22s1.08.37,1.43.85c1,1.34,1.93,2.69,3,4.2l3.38-8.12q.11-.27.22-.55c.19-.51.47-.93,1.08-1s1,.41,1.2,1c1.15,2.74,2.31,5.47,3.46,8.21.64,1.53,1.32,3.05,1.9,4.61a1.32,1.32,0,0,0,1.48,1c3.73,0,7.45,0,11.18,0,.58,0,1.12,0,1.43.61.4.77-.14,1.53-1.17,1.53-4.32,0-8.64,0-13,0-.9,0-1.24-.52-1.53-1.22Q84.23,53.46,82,48.15c-.13-.32-.31-.63-.53-1.07l-3.19,7.69c-.23.55-.39,1.16-1.11,1.26s-1.05-.43-1.4-.92l-2.88-4L69.25,62.82a9,9,0,0,0-.54,2.09,6.07,6.07,0,0,0-.86,2.17,1.14,1.14,0,0,1-1.11.89c-.64,0-1-.44-1.08-1.06s-.31-1.29-.47-1.94l-.46-2.12c-.33-3.07-1.12-6.06-1.69-9.09-.85-4.51-1.77-9-2.68-13.58-.62.29-.55.82-.65,1.23Q57.66,50,55.64,58.51c-.45,1.88-1.15,2.12-2.56.85-1.95-1.75-3.88-3.51-5.84-5.24-.62-.54-.95-1.14-.34-1.83s1.23-.3,1.76.17C50.32,53.93,52,55.4,53.75,57c.63-2.64,1.22-5.09,1.79-7.55.72-3.08,1.42-6.17,2.13-9.25A6.67,6.67,0,0,0,58.09,38.16Z"/><path class="cls-6" d="M62.6,40.27l-.31-2.14c1.58,0,3.17,0,4.75,0h35.18c.32,0,.63,0,1,0a1,1,0,0,1,1.06,1,1,1,0,0,1-1.11,1.1h-39C63.63,40.23,63.12,40.25,62.6,40.27Z"/><path class="cls-6" d="M68.71,64.91a9,9,0,0,1,.54-2.09l31,0c1.76,0,1.88.12,1.83,1.91a.23.23,0,0,0-.24.24H70.25C69.73,65,69.22,64.94,68.71,64.91Z"/><path class="cls-6" d="M64.73,62.86,65.19,65c-4.43,0-8.86,0-13.3,0-.85,0-1.55-.16-1.48-1.2.06-.82.68-1,1.38-.95Z"/><path class="cls-6" d="M58.09,38.16a6.67,6.67,0,0,1-.41,2l-8.9,0c-.75,0-1.24-.3-1.22-1.1s.47-1,1.17-1Z"/></g></g></svg>