<?xml version="1.0" encoding="utf-8"?>
<!-- Generator: Adobe Illustrator 20.1.0, SVG Export Plug-In . SVG Version: 6.00 Build 0)  -->
<!DOCTYPE svg PUBLIC "-//W3C//DTD SVG 1.1//EN" "http://www.w3.org/Graphics/SVG/1.1/DTD/svg11.dtd">
<svg version="1.1" id="Layer_1" xmlns="http://www.w3.org/2000/svg" xmlns:xlink="http://www.w3.org/1999/xlink" x="0px" y="0px"
	 viewBox="0 0 147.8 147.8" style="enable-background:new 0 0 147.8 147.8;" xml:space="preserve">
<style type="text/css">
	.st0{fill:none;stroke:#0056A5;stroke-width:7;stroke-miterlimit:10;}
	.st1{enable-background:new    ;}
	.st2{fill:#0056A5;}
	.st3{opacity:0.5;}
	.st4{clip-path:url(#SVGID_2_);}
	.st5{fill:#94C5EA;}
	.st6{fill:#B0D0E8;}
	.st7{fill:#C1C1C0;}
	.st8{fill:#FFFFFF;}
	.st9{fill:#F9F9FA;}
	.st10{opacity:0.64;}
	.st11{clip-path:url(#SVGID_4_);}
</style>
<g>
	
		<image style="overflow:visible;enable-background:new    ;" width="59" height="146" xlink:href="2B007A175CB41B6F.png"  transform="matrix(0.2075 0 0 0.2301 76.46 17.98)">
	</image>
</g>
<g>
	
		<image style="overflow:visible;enable-background:new    ;" width="375" height="59" xlink:href="2B007A175CB41B6D.png"  transform="matrix(0.2362 0 0 0.2319 31.21 76.57)">
	</image>
</g>
<title>gps</title>
<g>
	<g id="Layer_2">
		<g id="Layer_1-2">
			<path class="st0" d="M21.1,3.5h105.7c9.7,0,17.6,7.9,17.6,17.6v105.7c0,9.7-7.9,17.6-17.6,17.6H21.1c-9.7,0-17.6-7.9-17.6-17.6
				V21.1C3.5,11.4,11.4,3.5,21.1,3.5z"/>
			<g class="st1">
				<path class="st2" d="M34.1,105.8c-0.7,0.4-1.4,0.6-2.2,0.8s-1.5,0.2-2.3,0.2c-0.8,0-1.6-0.1-2.3-0.4c-0.7-0.3-1.3-0.6-1.8-1.1
					c-0.5-0.5-0.9-1.1-1.2-1.8c-0.3-0.7-0.4-1.5-0.4-2.3c0-0.9,0.1-1.6,0.4-2.3c0.3-0.7,0.7-1.3,1.2-1.8c0.5-0.5,1.1-0.9,1.8-1.1
					s1.5-0.4,2.3-0.4c0.9,0,1.6,0.1,2.4,0.3c0.7,0.2,1.4,0.6,1.9,1.1l-1.7,1.8c-0.3-0.3-0.7-0.6-1.1-0.8c-0.4-0.2-0.9-0.3-1.5-0.3
					c-0.5,0-1,0.1-1.4,0.3c-0.4,0.2-0.8,0.4-1.1,0.7s-0.5,0.7-0.7,1.1c-0.2,0.4-0.2,0.9-0.2,1.4c0,0.5,0.1,1,0.2,1.4
					c0.2,0.4,0.4,0.8,0.7,1.1s0.6,0.5,1.1,0.7c0.4,0.2,0.9,0.3,1.4,0.3c0.5,0,1-0.1,1.3-0.2s0.7-0.2,0.9-0.4v-1.7h-1.9v-2.2h4.2
					V105.8z"/>
				<path class="st2" d="M36.2,95.8h4c0.6,0,1.1,0.1,1.6,0.2s0.9,0.3,1.3,0.5c0.4,0.2,0.7,0.6,0.9,1s0.3,0.9,0.3,1.6
					c0,0.6-0.1,1.1-0.3,1.6c-0.2,0.4-0.5,0.8-0.8,1c-0.4,0.3-0.8,0.4-1.3,0.5c-0.5,0.1-1,0.2-1.6,0.2h-1.7v4.2h-2.4V95.8z
					 M38.6,100.4h1.6c0.2,0,0.4,0,0.6-0.1c0.2,0,0.4-0.1,0.5-0.2c0.2-0.1,0.3-0.2,0.4-0.4c0.1-0.2,0.1-0.4,0.1-0.6
					c0-0.3-0.1-0.5-0.2-0.7c-0.1-0.2-0.3-0.3-0.5-0.4s-0.4-0.1-0.7-0.2s-0.5,0-0.7,0h-1.2V100.4z"/>
				<path class="st2" d="M51,98.5c-0.2-0.2-0.5-0.4-0.8-0.5c-0.3-0.1-0.6-0.2-0.9-0.2c-0.2,0-0.3,0-0.5,0.1s-0.4,0.1-0.5,0.2
					c-0.2,0.1-0.3,0.2-0.4,0.3c-0.1,0.1-0.2,0.3-0.2,0.5c0,0.3,0.1,0.6,0.4,0.7c0.2,0.2,0.5,0.3,0.9,0.4c0.4,0.1,0.8,0.2,1.2,0.4
					s0.8,0.3,1.2,0.5s0.7,0.5,0.9,0.9s0.4,0.9,0.4,1.5c0,0.6-0.1,1.1-0.3,1.6c-0.2,0.4-0.5,0.8-0.9,1.1c-0.4,0.3-0.8,0.5-1.3,0.7
					c-0.5,0.1-1,0.2-1.6,0.2c-0.7,0-1.3-0.1-1.9-0.3c-0.6-0.2-1.1-0.6-1.7-1l1.7-1.8c0.2,0.3,0.5,0.6,0.9,0.7s0.7,0.3,1.1,0.3
					c0.2,0,0.4,0,0.6-0.1c0.2,0,0.4-0.1,0.5-0.2c0.2-0.1,0.3-0.2,0.4-0.3c0.1-0.1,0.1-0.3,0.1-0.5c0-0.3-0.1-0.6-0.4-0.8
					c-0.2-0.2-0.6-0.3-0.9-0.5s-0.8-0.3-1.2-0.4s-0.8-0.3-1.2-0.5s-0.7-0.5-0.9-0.9c-0.2-0.4-0.4-0.8-0.4-1.4c0-0.6,0.1-1.1,0.3-1.5
					c0.2-0.4,0.5-0.8,0.9-1.1c0.4-0.3,0.8-0.5,1.3-0.7c0.5-0.1,1-0.2,1.5-0.2c0.6,0,1.2,0.1,1.8,0.3c0.6,0.2,1.1,0.5,1.5,0.9
					L51,98.5z"/>
				<path class="st2" d="M66.8,104l2.4,2.5h-2.9l-0.9-1c-0.4,0.5-0.9,0.8-1.4,1c-0.5,0.2-1.1,0.3-1.7,0.3c-0.5,0-1-0.1-1.4-0.2
					c-0.5-0.1-0.9-0.3-1.2-0.6c-0.4-0.3-0.6-0.6-0.9-1s-0.3-0.9-0.3-1.4c0-0.3,0.1-0.7,0.2-1c0.1-0.3,0.3-0.6,0.5-0.8
					s0.4-0.5,0.7-0.7s0.6-0.3,0.9-0.4c-0.2-0.2-0.3-0.4-0.5-0.5c-0.1-0.2-0.3-0.4-0.4-0.5s-0.2-0.4-0.2-0.6
					c-0.1-0.2-0.1-0.4-0.1-0.7c0-0.5,0.1-0.9,0.3-1.2c0.2-0.3,0.4-0.6,0.7-0.8c0.3-0.2,0.7-0.4,1.1-0.5c0.4-0.1,0.8-0.2,1.2-0.2
					c0.4,0,0.8,0.1,1.2,0.2c0.4,0.1,0.7,0.3,1,0.5c0.3,0.2,0.5,0.5,0.7,0.8c0.2,0.3,0.3,0.7,0.3,1.2c0,0.3-0.1,0.6-0.2,0.9
					s-0.2,0.5-0.4,0.8c-0.2,0.2-0.4,0.4-0.6,0.6s-0.5,0.4-0.8,0.5l1.4,1.5l1-1.4h2.6L66.8,104z M62.1,102c-0.2,0.1-0.3,0.2-0.4,0.3
					c-0.1,0.1-0.3,0.2-0.4,0.3c-0.1,0.1-0.2,0.2-0.3,0.4c-0.1,0.2-0.1,0.3-0.1,0.5s0,0.4,0.1,0.5s0.2,0.3,0.3,0.4
					c0.1,0.1,0.3,0.2,0.5,0.3c0.2,0.1,0.4,0.1,0.5,0.1c0.4,0,0.7-0.1,0.9-0.2c0.3-0.2,0.5-0.3,0.8-0.6L62.1,102z M62.8,97.4
					c-0.3,0-0.5,0.1-0.7,0.3s-0.3,0.4-0.3,0.7c0,0.1,0,0.3,0.1,0.4s0.1,0.2,0.2,0.4c0.1,0.1,0.2,0.2,0.3,0.3s0.2,0.2,0.3,0.3
					c0.1-0.1,0.3-0.2,0.4-0.2s0.3-0.2,0.4-0.3c0.1-0.1,0.2-0.2,0.3-0.4c0.1-0.1,0.1-0.3,0.1-0.4c0-0.3-0.1-0.6-0.3-0.7
					C63.4,97.5,63.1,97.4,62.8,97.4z"/>
				<path class="st2" d="M74.8,95.8H79c0.5,0,1.1,0.1,1.6,0.2c0.5,0.1,0.9,0.3,1.3,0.5s0.7,0.6,0.9,1c0.2,0.4,0.3,0.9,0.3,1.6
					c0,0.8-0.2,1.4-0.6,1.9c-0.4,0.5-1,0.9-1.7,1l2.7,4.5h-2.8l-2.2-4.3h-1.2v4.3h-2.4V95.8z M77.2,100.3h1.4c0.2,0,0.4,0,0.7,0
					c0.2,0,0.5-0.1,0.6-0.1c0.2-0.1,0.4-0.2,0.5-0.4c0.1-0.2,0.2-0.4,0.2-0.7c0-0.3-0.1-0.5-0.2-0.7c-0.1-0.2-0.3-0.3-0.4-0.4
					c-0.2-0.1-0.4-0.1-0.6-0.2s-0.4,0-0.7,0h-1.5V100.3z"/>
				<path class="st2" d="M84.1,101.2c0-0.9,0.1-1.6,0.4-2.3c0.3-0.7,0.7-1.3,1.2-1.8s1.1-0.9,1.8-1.1s1.5-0.4,2.3-0.4
					c0.8,0,1.6,0.1,2.3,0.4s1.3,0.6,1.8,1.1s0.9,1.1,1.2,1.8c0.3,0.7,0.4,1.5,0.4,2.3c0,0.9-0.1,1.6-0.4,2.3
					c-0.3,0.7-0.7,1.3-1.2,1.8s-1.1,0.9-1.8,1.1c-0.7,0.3-1.5,0.4-2.3,0.4c-0.8,0-1.6-0.1-2.3-0.4c-0.7-0.3-1.3-0.6-1.8-1.1
					s-0.9-1.1-1.2-1.8C84.2,102.8,84.1,102.1,84.1,101.2z M86.5,101.2c0,0.5,0.1,1,0.2,1.4c0.2,0.4,0.4,0.8,0.7,1.1
					c0.3,0.3,0.6,0.5,1.1,0.7c0.4,0.2,0.9,0.3,1.4,0.3c0.5,0,1-0.1,1.4-0.3c0.4-0.2,0.8-0.4,1.1-0.7c0.3-0.3,0.5-0.7,0.7-1.1
					c0.2-0.4,0.2-0.9,0.2-1.4c0-0.5-0.1-1-0.2-1.4c-0.2-0.4-0.4-0.8-0.7-1.1c-0.3-0.3-0.6-0.5-1.1-0.7c-0.4-0.2-0.9-0.3-1.4-0.3
					c-0.5,0-1,0.1-1.4,0.3c-0.4,0.2-0.8,0.4-1.1,0.7c-0.3,0.3-0.5,0.7-0.7,1.1C86.6,100.2,86.5,100.7,86.5,101.2z"/>
				<path class="st2" d="M106.3,102.4c0,0.6-0.1,1.2-0.3,1.8c-0.2,0.5-0.5,1-0.9,1.4s-0.8,0.7-1.4,0.9c-0.6,0.2-1.2,0.3-2,0.3
					c-0.7,0-1.4-0.1-2-0.3c-0.6-0.2-1-0.5-1.4-0.9s-0.7-0.9-0.9-1.4c-0.2-0.5-0.3-1.1-0.3-1.8v-6.6h2.4v6.5c0,0.3,0.1,0.6,0.2,0.9
					c0.1,0.3,0.3,0.5,0.4,0.7s0.4,0.4,0.7,0.5c0.3,0.1,0.6,0.2,0.9,0.2c0.3,0,0.6-0.1,0.9-0.2c0.3-0.1,0.5-0.3,0.7-0.5
					s0.3-0.5,0.4-0.7c0.1-0.3,0.2-0.6,0.2-0.9v-6.5h2.4V102.4z"/>
				<path class="st2" d="M110.5,97.9h-3.1v-2.1h8.5v2.1h-3.1v8.6h-2.4V97.9z"/>
				<path class="st2" d="M117.2,95.8h7.3V98h-4.9v2h4.6v2.2h-4.6v2.2h5.2v2.2h-7.5V95.8z"/>
			</g>
			<g class="st1">
				<path class="st2" d="M21.5,119.4c0-0.9,0.1-1.6,0.4-2.3c0.3-0.7,0.7-1.3,1.2-1.8c0.5-0.5,1.1-0.9,1.8-1.1s1.5-0.4,2.3-0.4
					s1.6,0.1,2.3,0.4s1.3,0.6,1.8,1.1c0.5,0.5,0.9,1.1,1.2,1.8c0.3,0.7,0.4,1.5,0.4,2.3c0,0.9-0.1,1.6-0.4,2.3
					c-0.3,0.7-0.7,1.3-1.2,1.8c-0.5,0.5-1.1,0.9-1.8,1.1c-0.7,0.3-1.5,0.4-2.3,0.4s-1.6-0.1-2.3-0.4c-0.7-0.3-1.3-0.6-1.8-1.1
					c-0.5-0.5-0.9-1.1-1.2-1.8C21.6,121,21.5,120.2,21.5,119.4z M23.9,119.4c0,0.5,0.1,1,0.2,1.4c0.2,0.4,0.4,0.8,0.7,1.1
					s0.6,0.5,1.1,0.7c0.4,0.2,0.9,0.3,1.4,0.3s1-0.1,1.4-0.3c0.4-0.2,0.8-0.4,1.1-0.7s0.5-0.7,0.7-1.1c0.2-0.4,0.2-0.9,0.2-1.4
					c0-0.5-0.1-1-0.2-1.4c-0.2-0.4-0.4-0.8-0.7-1.1s-0.6-0.5-1.1-0.7c-0.4-0.2-0.9-0.3-1.4-0.3s-1,0.1-1.4,0.3
					c-0.4,0.2-0.8,0.4-1.1,0.7s-0.5,0.7-0.7,1.1C24,118.4,23.9,118.9,23.9,119.4z"/>
				<path class="st2" d="M34.6,114h4c0.6,0,1.1,0.1,1.6,0.2s0.9,0.3,1.3,0.5c0.4,0.2,0.7,0.6,0.9,1s0.3,0.9,0.3,1.6
					c0,0.6-0.1,1.1-0.3,1.6c-0.2,0.4-0.5,0.8-0.8,1c-0.4,0.3-0.8,0.4-1.3,0.5c-0.5,0.1-1,0.2-1.6,0.2H37v4.2h-2.4V114z M37,118.5
					h1.6c0.2,0,0.4,0,0.6-0.1c0.2,0,0.4-0.1,0.5-0.2c0.2-0.1,0.3-0.2,0.4-0.4c0.1-0.2,0.1-0.4,0.1-0.6c0-0.3-0.1-0.5-0.2-0.7
					c-0.1-0.2-0.3-0.3-0.5-0.4s-0.4-0.1-0.7-0.2s-0.5,0-0.7,0H37V118.5z"/>
				<path class="st2" d="M46.2,116.1h-3.1V114h8.5v2.1h-3.1v8.6h-2.4V116.1z"/>
				<path class="st2" d="M52.8,114h2.4v10.7h-2.4V114z"/>
				<path class="st2" d="M57.3,114h3.6l2.5,7h0l2.5-7h3.6v10.7h-2.4v-8.2h0l-2.8,8.2h-1.8l-2.7-8.2h0v8.2h-2.4V114z"/>
				<path class="st2" d="M71.6,114h2.4v10.7h-2.4V114z"/>
				<path class="st2" d="M75.5,122.5l5.4-6.4h-5.2V114h8.1v2.1l-5.3,6.4H84v2.2h-8.5V122.5z"/>
			</g>
			<g class="st1">
				<path class="st2" d="M89.1,114h2l4.7,10.7h-2.7l-0.9-2.3H88l-0.9,2.3h-2.6L89.1,114z M90,117.1l-1.3,3.3h2.6L90,117.1z"/>
			</g>
			<g class="st1">
				<path class="st2" d="M97.5,116.1h-3.1V114h8.5v2.1h-3.1v8.6h-2.4V116.1z"/>
				<path class="st2" d="M104.1,114h2.4v10.7h-2.4V114z"/>
				<path class="st2" d="M108,119.4c0-0.9,0.1-1.6,0.4-2.3c0.3-0.7,0.7-1.3,1.2-1.8c0.5-0.5,1.1-0.9,1.8-1.1s1.5-0.4,2.3-0.4
					c0.8,0,1.6,0.1,2.3,0.4s1.3,0.6,1.8,1.1c0.5,0.5,0.9,1.1,1.2,1.8c0.3,0.7,0.4,1.5,0.4,2.3c0,0.9-0.1,1.6-0.4,2.3
					c-0.3,0.7-0.7,1.3-1.2,1.8c-0.5,0.5-1.1,0.9-1.8,1.1c-0.7,0.3-1.5,0.4-2.3,0.4c-0.8,0-1.6-0.1-2.3-0.4c-0.7-0.3-1.3-0.6-1.8-1.1
					c-0.5-0.5-0.9-1.1-1.2-1.8C108.2,121,108,120.2,108,119.4z M110.5,119.4c0,0.5,0.1,1,0.2,1.4c0.2,0.4,0.4,0.8,0.7,1.1
					c0.3,0.3,0.6,0.5,1.1,0.7c0.4,0.2,0.9,0.3,1.4,0.3c0.5,0,1-0.1,1.4-0.3c0.4-0.2,0.8-0.4,1.1-0.7c0.3-0.3,0.5-0.7,0.7-1.1
					c0.2-0.4,0.2-0.9,0.2-1.4c0-0.5-0.1-1-0.2-1.4c-0.2-0.4-0.4-0.8-0.7-1.1c-0.3-0.3-0.6-0.5-1.1-0.7c-0.4-0.2-0.9-0.3-1.4-0.3
					c-0.5,0-1,0.1-1.4,0.3c-0.4,0.2-0.8,0.4-1.1,0.7c-0.3,0.3-0.5,0.7-0.7,1.1C110.5,118.4,110.5,118.9,110.5,119.4z"/>
				<path class="st2" d="M121.2,114h3.2l4.6,7.4h0V114h2.4v10.7h-3.1l-4.7-7.6h0v7.6h-2.4V114z"/>
			</g>
			<g class="st3">
				<g>
					<defs>
						<rect id="SVGID_1_" x="31.2" y="76.6" width="88.5" height="12.8"/>
					</defs>
					<clipPath id="SVGID_2_">
						<use xlink:href="#SVGID_1_"  style="overflow:visible;"/>
					</clipPath>
					<g class="st4">
						<g>
							
								<image style="overflow:visible;enable-background:new    ;" width="375" height="59" xlink:href="2B007A175CB41B73.png"  transform="matrix(0.2362 0 0 0.2319 31.21 76.57)">
							</image>
						</g>
					</g>
				</g>
			</g>
			<polygon class="st5" points="60,34.3 45.6,52.4 45.6,52.4 40.6,49.7 31.2,44.8 31.2,34.3 			"/>
			<polygon class="st5" points="58.8,61.5 50.8,72.8 37.6,65.4 46.1,54.8 			"/>
			<path class="st6" d="M60,34.3l-14.4,18l-5-2.6l-9.4-5v2.2l13.2,7L36,64.5l-4.7-2.6v21.7h34.1V34.3H60z M46.1,54.8l12.7,6.7
				l-8,11.3l-13.2-7.4l0,0L46.1,54.8z"/>
			<polygon class="st5" points="92.5,70.6 92.5,78.2 65.3,83.6 65.3,65 78.7,58.2 79.8,59.4 82.5,62.4 90.5,71.4 			"/>
			<polygon class="st5" points="92.5,28.1 92.5,40 91.7,40.6 89.3,50.8 89.3,50.8 65.3,62.9 65.3,62.8 65.3,55.6 66.1,54.5 
				87.6,29.2 			"/>
			<polygon class="st5" points="66.1,54.5 65.3,55.6 65.3,34.3 84.5,29.9 87.6,29.2 			"/>
			<polygon class="st5" points="92.5,40 92.5,70.6 90.5,71.4 82.5,62.4 79.8,59.4 78.7,58.2 65.3,65 65.3,62.8 65.3,62.9 89.3,50.8 
				89.3,50.8 91.7,40.6 			"/>
			<polygon class="st6" points="119.7,34.3 119.7,44.4 92.5,49.2 92.5,45.3 93.3,41.7 106.6,31.3 			"/>
			<polygon class="st6" points="106.6,31.3 93.3,41.7 92.5,45.3 92.5,28.1 104.3,30.8 			"/>
			<polygon class="st6" points="119.7,46.3 119.7,74.4 97.8,67.1 93.9,57.9 92.5,54.7 92.5,51.2 92.8,51.1 			"/>
			<polygon class="st6" points="119.7,76.3 119.7,83.6 106.4,80.9 99.3,69.5 			"/>
			<polygon class="st6" points="119.7,76.3 99.3,69.5 106.4,80.9 103.9,80.4 92.5,78.2 92.5,54.7 93.9,57.9 97.8,67.1 119.7,74.4 
							"/>
			<polygon class="st7" points="119.7,44.4 119.7,46.3 92.8,51.1 92.5,51.2 92.5,49.2 			"/>
			<polygon class="st2" points="119.7,48 119.7,52 93.9,57.9 92.5,58.3 92,58.4 89.7,58.9 84.2,61.6 82.5,62.4 65.3,70.8 65.3,70.8 
				64.6,71.2 51.7,83.6 40.9,83.6 47.9,81.8 62.3,67.9 65.3,66.5 65.3,66.5 79.8,59.4 81.5,58.5 88.3,55.2 90.5,54.7 92.3,54.3 
				92.5,54.2 			"/>
			<path class="st8" d="M92.5,51.2l0.3-0.2l26.9-4.8v-1.9l-27.2,4.8l0,0h-0.2h-0.1l-0.7,0.4l1-4.4l0.8-3.6l13.3-10.4l-2.4-0.5
				L92.5,40l-0.8,0.7l-2.4,10.1l0,0L65.3,62.9l0,0l-3.8-2l3.8-5.3l0,0l0.7-1l21.5-25.4l0,0l-3.1,0.7l0,0L65.3,52.5l0,0l-0.7,0.8l0,0
				L59.9,60l-12.6-6.7l15.1-18.9H60l-14.4,18l-5-2.6l-9.4-5v2.2l13.2,7L36,64.5l-4.7-2.6V64l3.5,2l-3.5,4.4v3l5.2-6.5l14.9,8.3
				l9.2-12.8l4.8,2.6l0,0l13.4-6.8l1.1,1.2l2.7,3l8,8.9l2-0.8l4.2-1.6l7.2,11.4l2.5,0.5l-7.1-11.4l20.4,6.8v-2L97.8,67l-3.9-9.1
				l-1.4-3.2l-0.2-0.4l-1-2.4L92.5,51.2L92.5,51.2z M50.8,72.8l-13.2-7.4l0,0l8.5-10.6l12.7,6.7L50.8,72.8z M90.5,54.7l1.5,3.6
				l0.5,1.1l3.3,7.8l-3.3,1.3L91,69.1l-6.8-7.6l-2.7-3l-1.1-1.2l9.2-4.6l0,0L90.5,54.7z"/>
			<polygon class="st5" points="44.4,53.9 35.9,64.5 31.2,61.8 31.2,46.9 			"/>
			<path class="st2" d="M86.1,37.6L86.1,37.6l-9.7,12.9l-9.7-12.9l0,0c-4.1-5.3-3.1-13,2.2-17.1c5.3-4.1,13-3.1,17.1,2.2
				C89.5,27.1,89.5,33.2,86.1,37.6L86.1,37.6z"/>
			<circle class="st9" cx="76.5" cy="30.2" r="6.3"/>
			<g class="st10">
				<g>
					<defs>
						<path id="SVGID_3_" d="M86.1,37.6L86.1,37.6l-9.7,12.9V18c6.7,0,12.2,5.4,12.2,12.2C88.7,32.9,87.8,35.5,86.1,37.6L86.1,37.6z
							"/>
					</defs>
					<clipPath id="SVGID_4_">
						<use xlink:href="#SVGID_3_"  style="overflow:visible;"/>
					</clipPath>
					<g class="st11">
						<g>
							
								<image style="overflow:visible;enable-background:new    ;" width="59" height="146" xlink:href="2B007A175CB41B75.png"  transform="matrix(0.2075 0 0 0.2301 76.46 17.98)">
							</image>
						</g>
					</g>
				</g>
			</g>
		</g>
	</g>
</g>
</svg>
