<svg xmlns="http://www.w3.org/2000/svg" viewBox="0 0 235.07 140"><defs><style>.cls-1{fill:#0056a5;}</style></defs><title>Asset 1</title><g id="Layer_2" data-name="Layer 2"><g id="Layer_1-2" data-name="Layer 1"><path class="cls-1" d="M99.35,134.81a2.63,2.63,0,0,1,.79,1.9,2.66,2.66,0,0,1-.79,1.94,2.69,2.69,0,0,1-3.83,0,2.73,2.73,0,0,1,0-3.85,2.67,2.67,0,0,1,3.85,0Zm.41-.42a3.17,3.17,0,0,0-2.32-1,3.22,3.22,0,0,0-2.26.89,3.13,3.13,0,0,0-1,2.4,3.29,3.29,0,1,0,5.61-2.32Zm-1.92,2.07a.89.89,0,0,1-.52.13h-.37v-1.06h.23a1.59,1.59,0,0,1,.55.08A.42.42,0,0,1,98,136a.5.5,0,0,1-.19.43Zm-.89.79h.41a1.07,1.07,0,0,1,.33.06.44.44,0,0,1,.27.27A1.65,1.65,0,0,1,98,138a2.57,2.57,0,0,0,.06.5H99l0-.1a.55.55,0,0,1,0-.11.82.82,0,0,1,0-.11v-.33a1,1,0,0,0-.32-.82,1.24,1.24,0,0,0-.52-.21,1.19,1.19,0,0,0,.63-.25A.8.8,0,0,0,99,136a.92.92,0,0,0-.49-.87,1.76,1.76,0,0,0-.72-.19H96v3.64h1v-1.29Z"/><ellipse class="cls-1" cx="25.67" cy="113.49" rx="1.67" ry="1.68"/><path class="cls-1" d="M52.67,111.82a1.68,1.68,0,1,0,1.67,1.84q0-.08,0-.16t0-.16A1.68,1.68,0,0,0,52.67,111.82Z"/><ellipse class="cls-1" cx="39.2" cy="113.49" rx="1.67" ry="1.68"/><circle class="cls-1" cx="11.84" cy="113.81" r="1.68"/><path class="cls-1" d="M0,0V131.88H100.91V0ZM6.88,76.08V63.56h4.59A23.18,23.18,0,0,0,30.29,54l-5.84-3.56A16.67,16.67,0,0,1,11.4,56.68H7.29l-.41,0V6.88H47V50.8a28.1,28.1,0,0,1-28.1,28.1h-12Zm4.06,50c-3.59.3-3.75.14-3.75.14a.57.57,0,0,1-.57-.57v-3a.57.57,0,0,1,.57-.57H8.71a4,4,0,0,0,3.49-1.66.74.74,0,0,0,.21-.51.8.8,0,0,0-1.31-.62l-.11.1a3.24,3.24,0,0,1-2.49,1.11H7.19a.57.57,0,0,1-.57-.57V109.16a.57.57,0,0,1,.57-.57h9.34a.57.57,0,0,1,.57.57v10.22C17.11,123.13,13.28,125.84,10.94,126ZM31,118.25a.72.72,0,0,1-.78.62H20.74a.72.72,0,0,1-.78-.62v-9a.72.72,0,0,1,.78-.62h9.49a.72.72,0,0,1,.78.62Zm13.53,0a.72.72,0,0,1-.78.62H34.27a.72.72,0,0,1-.78-.62v-9a.72.72,0,0,1,.78-.62h9.49a.72.72,0,0,1,.78.62Zm13.5,0a.62.62,0,0,1-.62.62H47.56a.62.62,0,0,1-.62-.62v-9a.62.62,0,0,1,.62-.62h6.17a.62.62,0,0,0,.62-.53v-3.75a.62.62,0,0,1,.62-.62h2.45a.62.62,0,0,1,.62.62Zm17.41,0a.62.62,0,0,1-.62.62H72.38l-.17,0H69.33l-.14,0H61.14a.62.62,0,0,1-.62-.62v-9a.62.62,0,0,1,.62-.62h2.45a.62.62,0,0,1,.62.62v5.31a.62.62,0,0,0,.62.62h.7a.62.62,0,0,0,.62-.62v-5.31a.62.62,0,0,1,.62-.62h2.41a.62.62,0,0,1,.62.62v5.31a.62.62,0,0,0,.62.62h.7a.63.63,0,0,0,.62-.54v-5.39a.62.62,0,0,1,.62-.62h2.45a.62.62,0,0,1,.62.62Zm6.17,0a.62.62,0,0,1-.62.62H78.55a.62.62,0,0,1-.62-.62v-9a.62.62,0,0,1,.62-.62H81a.62.62,0,0,1,.62.62Zm0-11.21a.62.62,0,0,1-.62.62H78.55a.62.62,0,0,1-.62-.62v-2.7a.62.62,0,0,1,.62-.62H81a.62.62,0,0,1,.62.62Zm6.14,11.21a.62.62,0,0,1-.62.62H84.73a.62.62,0,0,1-.62-.62V104.34a.62.62,0,0,1,.62-.62h2.41a.62.62,0,0,1,.62.62Zm6.14,0a.62.62,0,0,1-.62.62H90.86a.62.62,0,0,1-.62-.62V104.34a.62.62,0,0,1,.62-.62h2.41a.62.62,0,0,1,.62.62ZM94,98.62H6.88V85.79h12a35,35,0,0,0,35-35V6.88H94Z"/><circle class="cls-1" cx="26.85" cy="28.29" r="8.92"/><path class="cls-1" d="M120.55,58V0h20.22l18,32.19h.19V0h17V58H156.4l-18.9-32.52V58Z"/><path class="cls-1" d="M197.46,58V41.7L177.56,0h20.22l8.54,22.76L214.86,0h20.22l-19.9,41.7V58Z"/><path class="cls-1" d="M120.55,131.17v-58h20.22l18,32.19h.19V73.13h17v58H156.4l-18.9-32.52v32.52Z"/><path class="cls-1" d="M209.08,110V73.13h17.7v35.2q0,12.52-3.89,18-5,6.91-18.15,6.91t-18.52-5.36q-5.59-5.69-5.59-21h17.71a40.63,40.63,0,0,0,.5,8.21q1.07,4,4.83,4Q209.08,119.06,209.08,110Z"/></g></g></svg>