<?xml version="1.0" encoding="utf-8"?>
<!-- Generator: Adobe Illustrator 20.1.0, SVG Export Plug-In . SVG Version: 6.00 Build 0)  -->
<!DOCTYPE svg PUBLIC "-//W3C//DTD SVG 1.1//EN" "http://www.w3.org/Graphics/SVG/1.1/DTD/svg11.dtd">
<svg version="1.1" id="Layer_1" xmlns="http://www.w3.org/2000/svg" xmlns:xlink="http://www.w3.org/1999/xlink" x="0px" y="0px"
	 viewBox="0 0 147.8 147.8" style="enable-background:new 0 0 147.8 147.8;" xml:space="preserve">
<style type="text/css">
	.st0{fill:none;stroke:#0056A5;stroke-width:7;stroke-miterlimit:10;}
	.st1{enable-background:new    ;}
	.st2{fill:#0056A5;}
	.st3{fill:none;}
</style>
<title>mobile</title>
<g id="Layer_2">
	<g id="Layer_1-2">
		<path class="st0" d="M21.1,3.5h105.7c9.7,0,17.6,7.9,17.6,17.6v105.7c0,9.7-7.9,17.6-17.6,17.6H21.1c-9.7,0-17.6-7.9-17.6-17.6
			V21.1C3.5,11.4,11.4,3.5,21.1,3.5z"/>
		<g class="st1">
			<path class="st2" d="M40.4,94.8h4.3l3,8.4h0l3-8.4h4.3v12.9H52v-9.9h0l-3.4,9.9h-2.2l-3.2-9.9h0v9.9h-2.8V94.8z"/>
			<path class="st2" d="M56.8,101.2c0-1,0.2-2,0.5-2.8c0.3-0.8,0.8-1.5,1.4-2.1s1.3-1,2.2-1.4c0.8-0.3,1.8-0.5,2.8-0.5
				s1.9,0.2,2.8,0.5c0.8,0.3,1.6,0.8,2.2,1.4s1.1,1.3,1.4,2.1c0.3,0.8,0.5,1.8,0.5,2.8s-0.2,2-0.5,2.8s-0.8,1.5-1.4,2.1
				s-1.3,1-2.2,1.4c-0.8,0.3-1.8,0.5-2.8,0.5s-1.9-0.2-2.8-0.5c-0.8-0.3-1.6-0.8-2.2-1.4s-1.1-1.3-1.4-2.1S56.8,102.3,56.8,101.2z
				 M59.7,101.2c0,0.6,0.1,1.2,0.3,1.7c0.2,0.5,0.5,0.9,0.8,1.3c0.4,0.4,0.8,0.7,1.3,0.9c0.5,0.2,1,0.3,1.6,0.3s1.2-0.1,1.6-0.3
				c0.5-0.2,0.9-0.5,1.3-0.9c0.4-0.4,0.6-0.8,0.8-1.3c0.2-0.5,0.3-1.1,0.3-1.7c0-0.6-0.1-1.1-0.3-1.7c-0.2-0.5-0.5-0.9-0.8-1.3
				c-0.4-0.4-0.8-0.7-1.3-0.9c-0.5-0.2-1-0.3-1.6-0.3s-1.2,0.1-1.6,0.3c-0.5,0.2-0.9,0.5-1.3,0.9c-0.4,0.4-0.6,0.8-0.8,1.3
				C59.8,100.1,59.7,100.6,59.7,101.2z"/>
			<path class="st2" d="M72.6,94.8h4.8c0.6,0,1.1,0,1.7,0.1c0.6,0.1,1.1,0.2,1.5,0.5c0.4,0.2,0.8,0.6,1.1,1c0.3,0.4,0.4,1,0.4,1.7
				c0,0.7-0.2,1.3-0.6,1.8c-0.4,0.5-0.9,0.8-1.6,1v0c0.4,0.1,0.8,0.2,1.2,0.4s0.6,0.4,0.9,0.7c0.2,0.3,0.4,0.6,0.6,1
				s0.2,0.8,0.2,1.2c0,0.7-0.1,1.2-0.4,1.7c-0.3,0.5-0.7,0.8-1.1,1.1s-1,0.5-1.6,0.6c-0.6,0.1-1.1,0.2-1.7,0.2h-5.3V94.8z
				 M75.4,99.9h2.1c0.2,0,0.4,0,0.6-0.1c0.2,0,0.4-0.1,0.6-0.2c0.2-0.1,0.3-0.3,0.4-0.4c0.1-0.2,0.2-0.4,0.2-0.7
				c0-0.3-0.1-0.5-0.2-0.7c-0.1-0.2-0.3-0.3-0.4-0.4c-0.2-0.1-0.4-0.2-0.6-0.2c-0.2,0-0.5-0.1-0.7-0.1h-1.9V99.9z M75.4,105.3H78
				c0.2,0,0.4,0,0.7-0.1c0.2,0,0.4-0.1,0.6-0.3s0.3-0.3,0.4-0.5c0.1-0.2,0.2-0.4,0.2-0.7c0-0.3-0.1-0.5-0.2-0.7
				c-0.2-0.2-0.3-0.3-0.6-0.4c-0.2-0.1-0.5-0.2-0.7-0.2c-0.3,0-0.5-0.1-0.7-0.1h-2.1V105.3z"/>
			<path class="st2" d="M84.3,94.8h2.8v12.9h-2.8V94.8z"/>
			<path class="st2" d="M89.8,94.8h2.8V105h5.2v2.6h-8.1V94.8z"/>
			<path class="st2" d="M99.6,94.8h8.7v2.6h-5.9v2.4h5.6v2.6h-5.6v2.6h6.2v2.6h-9.1V94.8z"/>
		</g>
		<g class="st1">
			<path class="st2" d="M21.4,116.6h4.8c0.7,0,1.3,0.1,1.9,0.2c0.6,0.1,1.1,0.3,1.6,0.6c0.4,0.3,0.8,0.7,1.1,1.2s0.4,1.1,0.4,1.9
				c0,0.8-0.1,1.4-0.4,1.9c-0.2,0.5-0.6,0.9-1,1.2c-0.4,0.3-0.9,0.5-1.5,0.6c-0.6,0.1-1.2,0.2-1.9,0.2h-2.1v5h-2.8V116.6z M24.2,122
				h1.9c0.3,0,0.5,0,0.7-0.1c0.2,0,0.4-0.1,0.6-0.2s0.3-0.3,0.5-0.5c0.1-0.2,0.2-0.5,0.2-0.8c0-0.3-0.1-0.6-0.2-0.8
				c-0.2-0.2-0.3-0.4-0.6-0.5c-0.2-0.1-0.5-0.2-0.8-0.2c-0.3,0-0.6,0-0.8,0h-1.5V122z"/>
			<path class="st2" d="M32.9,116.6h2.8v10.2H41v2.6h-8.1V116.6z"/>
		</g>
		<g class="st1">
			<path class="st2" d="M46.8,116.6h2.3l5.6,12.9h-3.2l-1.1-2.7h-5l-1.1,2.7h-3.1L46.8,116.6z M47.9,120.3l-1.6,4h3.1L47.9,120.3z"
				/>
		</g>
		<g class="st1">
			<path class="st2" d="M56.8,119.1h-3.7v-2.5h10.2v2.5h-3.7v10.3h-2.8V119.1z"/>
			<path class="st2" d="M64.8,116.6h8.6v2.6h-5.8v2.6H73v2.6h-5.4v5h-2.8V116.6z"/>
			<path class="st2" d="M74.8,123c0-1,0.2-2,0.5-2.8c0.3-0.8,0.8-1.5,1.4-2.1s1.3-1,2.2-1.4s1.8-0.5,2.8-0.5c1,0,1.9,0.2,2.8,0.5
				c0.8,0.3,1.6,0.8,2.2,1.4s1.1,1.3,1.4,2.1c0.3,0.8,0.5,1.8,0.5,2.8s-0.2,2-0.5,2.8c-0.3,0.8-0.8,1.5-1.4,2.1s-1.3,1-2.2,1.4
				c-0.8,0.3-1.8,0.5-2.8,0.5c-1,0-1.9-0.2-2.8-0.5s-1.6-0.8-2.2-1.4s-1.1-1.3-1.4-2.1C75,125,74.8,124,74.8,123z M77.7,123
				c0,0.6,0.1,1.2,0.3,1.7c0.2,0.5,0.5,0.9,0.8,1.3c0.4,0.4,0.8,0.7,1.3,0.9c0.5,0.2,1,0.3,1.6,0.3c0.6,0,1.2-0.1,1.6-0.3
				c0.5-0.2,0.9-0.5,1.3-0.9c0.4-0.4,0.6-0.8,0.8-1.3c0.2-0.5,0.3-1.1,0.3-1.7c0-0.6-0.1-1.1-0.3-1.7c-0.2-0.5-0.5-0.9-0.8-1.3
				c-0.4-0.4-0.8-0.7-1.3-0.9c-0.5-0.2-1-0.3-1.6-0.3c-0.6,0-1.2,0.1-1.6,0.3c-0.5,0.2-0.9,0.5-1.3,0.9s-0.6,0.8-0.8,1.3
				C77.8,121.9,77.7,122.4,77.7,123z"/>
			<path class="st2" d="M90.6,116.6h5c0.7,0,1.3,0.1,1.9,0.2c0.6,0.1,1.1,0.3,1.5,0.6c0.4,0.3,0.8,0.7,1.1,1.2
				c0.3,0.5,0.4,1.1,0.4,1.9c0,0.9-0.2,1.7-0.7,2.3c-0.5,0.6-1.2,1-2.1,1.2l3.3,5.4h-3.4l-2.7-5.1h-1.4v5.1h-2.8V116.6z M93.4,121.9
				h1.7c0.3,0,0.5,0,0.8,0c0.3,0,0.5-0.1,0.8-0.2c0.2-0.1,0.4-0.2,0.6-0.4c0.2-0.2,0.2-0.5,0.2-0.8c0-0.3-0.1-0.6-0.2-0.8
				c-0.1-0.2-0.3-0.3-0.5-0.4c-0.2-0.1-0.4-0.2-0.7-0.2c-0.3,0-0.5-0.1-0.8-0.1h-1.9V121.9z"/>
			<path class="st2" d="M102.3,116.6h4.3l3,8.4h0l3-8.4h4.3v12.9H114v-9.9h0l-3.4,9.9h-2.2l-3.2-9.9h0v9.9h-2.8V116.6z"/>
			<path class="st2" d="M125.8,119.7c-0.2-0.3-0.5-0.5-0.9-0.6c-0.4-0.1-0.8-0.2-1.1-0.2c-0.2,0-0.4,0-0.6,0.1
				c-0.2,0-0.4,0.1-0.6,0.2s-0.4,0.2-0.5,0.4c-0.1,0.2-0.2,0.4-0.2,0.6c0,0.4,0.1,0.7,0.4,0.9c0.3,0.2,0.7,0.4,1.1,0.5
				c0.4,0.1,0.9,0.3,1.4,0.4c0.5,0.1,1,0.4,1.4,0.6c0.4,0.3,0.8,0.6,1.1,1.1c0.3,0.4,0.4,1,0.4,1.8c0,0.7-0.1,1.3-0.4,1.9
				c-0.3,0.5-0.6,1-1.1,1.3c-0.5,0.4-1,0.6-1.6,0.8c-0.6,0.2-1.2,0.3-1.9,0.3c-0.8,0-1.6-0.1-2.3-0.4c-0.7-0.3-1.4-0.7-2-1.2l2-2.2
				c0.3,0.4,0.7,0.7,1.1,0.9s0.9,0.3,1.4,0.3c0.2,0,0.5,0,0.7-0.1c0.2-0.1,0.4-0.1,0.6-0.2c0.2-0.1,0.3-0.2,0.5-0.4
				c0.1-0.2,0.2-0.4,0.2-0.6c0-0.4-0.1-0.7-0.4-0.9c-0.3-0.2-0.7-0.4-1.1-0.6c-0.4-0.2-0.9-0.3-1.5-0.5c-0.5-0.2-1-0.4-1.5-0.6
				c-0.4-0.3-0.8-0.6-1.1-1.1s-0.4-1-0.4-1.7c0-0.7,0.1-1.3,0.4-1.8s0.6-1,1.1-1.3s1-0.6,1.6-0.8c0.6-0.2,1.2-0.3,1.8-0.3
				c0.7,0,1.4,0.1,2.1,0.3s1.3,0.6,1.8,1L125.8,119.7z"/>
		</g>
		<g id="phone">
			<path class="st3" d="M86.3,23H62.7c-1.1,0-2,0.9-2,2v51.2c0,1.1,0.9,2,2,2h23.6c1.1,0,2-0.9,2-2V25C88.3,23.9,87.4,23,86.3,23z
				 M74.5,76.2c-2.2,0-3.9-1.8-3.9-3.9s1.8-3.9,3.9-3.9s3.9,1.8,3.9,3.9S76.7,76.2,74.5,76.2L74.5,76.2z M78.4,28.9h-7.9
				c-1.1,0.2-2.1-0.5-2.3-1.6s0.5-2.1,1.6-2.3c0.2,0,0.5,0,0.7,0h7.9c1.1-0.2,2.1,0.5,2.3,1.6s-0.5,2.1-1.6,2.3
				C78.9,29,78.7,29,78.4,28.9z"/>
			<path class="st2" d="M86.3,19.1H62.7c-3.3,0-5.9,2.6-5.9,5.9v51.2c0,3.3,2.6,5.9,5.9,5.9h0h23.6c3.3,0,5.9-2.6,5.9-5.9l0,0V25
				C92.2,21.7,89.6,19.1,86.3,19.1z M88.3,76.2c0,1.1-0.9,2-2,2H62.7c-1.1,0-2-0.9-2-2V25c0-1.1,0.9-2,2-2h23.6c1.1,0,2,0.9,2,2
				V76.2z"/>
			<path class="st2" d="M74.5,68.3c-2.2,0-3.9,1.8-3.9,3.9s1.8,3.9,3.9,3.9s3.9-1.8,3.9-3.9S76.7,68.3,74.5,68.3L74.5,68.3z"/>
			<path class="st2" d="M78.4,25h-7.9c-1.1-0.2-2.1,0.5-2.3,1.6s0.5,2.1,1.6,2.3c0.2,0,0.5,0,0.7,0h7.9c1.1,0.2,2.1-0.5,2.3-1.6
				s-0.5-2.1-1.6-2.3C78.9,25,78.7,25,78.4,25z"/>
		</g>
	</g>
</g>
</svg>
