<svg xmlns="http://www.w3.org/2000/svg" viewBox="0 0 314.67 172.56"><defs><style>.cls-1{fill:none;}.cls-1,.cls-4{stroke:#0056a5;stroke-miterlimit:10;stroke-width:6px;}.cls-2,.cls-4{fill:#fff;}.cls-3{fill:#0056a5;}</style></defs><title>mobile-bike</title><g id="Layer_2" data-name="Layer 2"><g id="Layer_1-2" data-name="Layer 1"><rect class="cls-1" x="3" y="3" width="166.44" height="139.92" rx="21.72" ry="21.72"/><circle class="cls-2" cx="165.94" cy="133.79" r="31.5"/><g id="Bike"><path class="cls-3" d="M278.47,97.26a35.53,35.53,0,0,0-10.9,1.7c-.3-.7-.6-1.4-.8-2,0,0-.3-.8-.8-2,0-.1-.1-.2-.1-.3a.35.35,0,0,0-.1-.2,9.79,9.79,0,0,1-.7-1.8c-3.6-8.8-11.6-28.1-11.6-28.1a3.17,3.17,0,0,0-2.8-1.9H234a3,3,0,0,0,0,6h14.7l6.5,15.9H201l-3.6-9.7c2.6.9,4.8,2.7,7,6.5a3,3,0,0,0,2.6,1.5,2.82,2.82,0,0,0,1.5-.4,3.06,3.06,0,0,0,1.1-4.1c-5.9-10.5-13.4-10.3-21.3-10.2h-3.1a3,3,0,0,0,0,6h5.6l4.8,13-11,15.5a35.81,35.81,0,0,0-19.1-5.5,36.2,36.2,0,1,0,36.1,39.2h14.5a2,2,0,0,0,.7-.1c.1,0,.1,0,.2-.1a.76.76,0,0,0,.4-.2c.1,0,.1-.1.2-.1a.52.52,0,0,1,.4-.2l.2-.2.1-.1,40.3-42.6,3.4,8.3a36.49,36.49,0,1,0,16.5-3.8Zm-25.9-6.8-35.4,37.4-14-37.4Zm-87.1,73.2a30.2,30.2,0,1,1,15.7-56l-16.8,24.1a3.12,3.12,0,0,0-.2,3.1,2.92,2.92,0,0,0,2.7,1.6h28.8A30.37,30.37,0,0,1,165.47,163.66Zm30.1-33.2h-23l13.4-19.2A30.33,30.33,0,0,1,195.57,130.46Zm6,0a36.18,36.18,0,0,0-12.2-24.2l8.7-12.4,13.7,36.6Zm76.9,33.2a30.23,30.23,0,0,1-14.2-56.9l11.4,27.8,5.6-2.3-11.4-27.8a30.23,30.23,0,1,1,8.6,59.2Z"/></g><circle class="cls-4" cx="46.19" cy="134.46" r="35.1"/></g></g></svg>