<svg xmlns="http://www.w3.org/2000/svg" viewBox="0 0 147.79 147.79"><defs><style>.cls-1,.cls-4{fill:none;}.cls-1{stroke:#0056a5;stroke-miterlimit:10;stroke-width:7px;}.cls-2{font-size:18.15px;font-family:Avenir-Black, Avenir;}.cls-2,.cls-5{fill:#0056a5;}.cls-3{letter-spacing:-0.09em;}</style></defs><title>mobile</title><g id="Layer_2" data-name="Layer 2"><g id="Layer_1-2" data-name="Layer 1"><rect class="cls-1" x="3.5" y="3.5" width="140.79" height="140.79" rx="17.56" ry="17.56"/><text class="cls-2" transform="translate(39.05 107.66)">MOBILE<tspan x="-19" y="21.77">PL</tspan><tspan class="cls-3" x="2.18" y="21.77">A</tspan><tspan x="13.95" y="21.77">TFORMS</tspan></text><g id="phone"><path class="cls-4" d="M86.29,23H62.67a2,2,0,0,0-2,2V76.15a2,2,0,0,0,2,2H86.29a2,2,0,0,0,2-2V25A2,2,0,0,0,86.29,23ZM74.48,76.15a3.93,3.93,0,1,1,3.93-3.93A3.93,3.93,0,0,1,74.48,76.15Zm3.94-47.21H70.55a2,2,0,1,1,0-3.93h7.87a2,2,0,1,1,0,3.93Z"/><path class="cls-5" d="M86.29,19.1H62.67A5.91,5.91,0,0,0,56.76,25V76.16a5.91,5.91,0,0,0,5.91,5.91H86.29a5.91,5.91,0,0,0,5.91-5.91V25A5.91,5.91,0,0,0,86.29,19.1Zm2,57.06a2,2,0,0,1-2,2H62.67a2,2,0,0,1-2-2V25a2,2,0,0,1,2-2H86.29a2,2,0,0,1,2,2Z"/><path class="cls-5" d="M74.48,68.3a3.93,3.93,0,1,0,3.93,3.93A3.93,3.93,0,0,0,74.48,68.3Z"/><path class="cls-5" d="M78.42,25H70.55a2,2,0,1,0,0,3.93h7.87a2,2,0,1,0,0-3.93Z"/></g></g></g></svg>