<svg xmlns="http://www.w3.org/2000/svg" viewBox="0 0 147.79 147.79"><defs><style>.cls-1{fill:none;stroke:#0056a5;stroke-miterlimit:10;stroke-width:7px;}.cls-2{font-size:15.11px;font-family:Avenir-Black, Avenir;}.cls-2,.cls-7{fill:#0056a5;}.cls-3{letter-spacing:-0.09em;}.cls-4{letter-spacing:0em;}.cls-5{letter-spacing:-0.07em;}.cls-6{letter-spacing:-0.02em;}</style></defs><title>partner</title><g id="Layer_2" data-name="Layer 2"><g id="Layer_1-2" data-name="Layer 1"><rect class="cls-1" x="3.5" y="3.5" width="140.79" height="140.79" rx="17.56" ry="17.56"/><text class="cls-2" transform="translate(31.24 108.87)">STR<tspan class="cls-3" x="27.14" y="0">A</tspan><tspan class="cls-4" x="36.95" y="0">TEGIC </tspan><tspan class="cls-5" x="-13.02" y="18.14">P</tspan><tspan x="-4.62" y="18.14">A</tspan><tspan class="cls-6" x="6.58" y="18.14">R</tspan><tspan class="cls-4" x="16.1" y="18.14">TNERSHIPS</tspan></text><path class="cls-7" d="M56.81,62.34h0a2.94,2.94,0,0,0-.23-3.9l-.66-.66-.21-.19-.07-.06-.15-.11-.09-.06-.15-.09-.09,0L55,57.16l-.08,0-.19-.07-.06,0L54.44,57h0a3,3,0,0,0-.56-.05,3,3,0,0,0-1.19.25h0l-.19.09-.07,0-.14.08-.15.11-.13.1-.19.17-1.47,1.47a3,3,0,0,0,0,4.16l.26.26,0,0,.36.36a3,3,0,0,0,4.16,0l1.47-1.47A3,3,0,0,0,56.81,62.34Z"/><path class="cls-7" d="M117.09,40.21a1.51,1.51,0,0,0-.44-1.07L105.52,28h0l0,0,0,0-.06-.06,0,0-8.46-8.46-.1-.09A1.5,1.5,0,0,0,96,19h-.18a1.5,1.5,0,0,0-1,.44l-5,5a1.52,1.52,0,0,0,0,2.15l.06.06,19.67,19.67a1.5,1.5,0,0,0,1,.44h.18a1.5,1.5,0,0,0,1-.44l5-5A1.5,1.5,0,0,0,117.09,40.21ZM112,42.54a2,2,0,1,1-.09-3,1.12,1.12,0,0,0,.31.35A2,2,0,0,1,112,42.54Z"/><path class="cls-7" d="M60.37,26.55a1.52,1.52,0,0,0,0-2.15l-5.14-5A1.51,1.51,0,0,0,54.16,19a1.54,1.54,0,0,0-.41.06,3,3,0,0,0-.5.4l-8.37,8.37-.13.13-.08.08L33.52,39.15a3,3,0,0,0-.59.83v.07s0,0,0,.06a.76.76,0,0,1,0,.12,1.5,1.5,0,0,0,.44,1l5.14,5a1.5,1.5,0,0,0,.92.43h.18a1.5,1.5,0,0,0,1-.44L60.32,26.61Zm-19.29,16a2,2,0,1,1-.09-3,1.11,1.11,0,0,0,.31.35A2,2,0,0,1,41.08,42.54Z"/><path class="cls-7" d="M62,69l.5-.5.21-.24h0a2.94,2.94,0,0,0,.63-1.66,3,3,0,0,0,0-.61v-.07a2.91,2.91,0,0,0-.66-1.41l-.15-.17-.66-.66,0,0-.17-.15-.07-.05-.16-.12-.06,0-.18-.11,0,0-.22-.1h0a3,3,0,0,0-2.54.15l-.05,0-.16.1-.21.15-.24.21L56.2,65.13a3,3,0,0,0,0,4.16l.56.56a.76.76,0,0,1,.15.14,2.95,2.95,0,0,0,4.12,0l.72-.72A.76.76,0,0,1,62,69Z"/><path class="cls-7" d="M98.64,58h0l-11-11-2.38-2.38,0,0,0,0L81,40.34l-5.25,5.25v.06L74.81,49a10.52,10.52,0,0,1-.52,1.19,7.75,7.75,0,0,1-5.67,4.43c-.9.12-3,0-4-1.33a3,3,0,0,1-.45-2.06,11.67,11.67,0,0,1,.41-2.13l.06-.21a.75.75,0,0,1,0-.11l2.23-8.31,0-.07,7-7.08h0L73.63,33l-1.37-1.37a2.29,2.29,0,0,0-1.51-.55l-2.47.21h0l-4.1.36-3.37-3.39L42.37,46.7l3.12,3.12.09.09L51.65,56l0,0h0a4.46,4.46,0,0,1,2.12-.53h0l.38,0h.08l.18,0,.24,0,.12,0,.23.06h.05l.3.1.05,0,.3.13h0a4.4,4.4,0,0,1,.59.35l0,0,.26.2,0,0,.25.23.66.66.25.28.06.07.21.28h0c.07.1.13.2.19.31l0,.08.15.29v0c0,.11.09.22.13.33l0,.08c0,.1.06.2.09.3v0c0,.11,0,.23.07.34v.08c0,.1,0,.2,0,.3v.05c0,.12,0,.23,0,.35s0,.06,0,.08,0,.2,0,.3v.06c0,.1,0,.2,0,.3a4.46,4.46,0,0,1,2.59.25h0l.16.07.07,0,.13.07.11.06.1.06.2.13.07,0,.14.1.07.06.14.11.06.05.19.18.66.66a4.41,4.41,0,0,1,1.16,2.05q0,.17.07.34v.11c0,.11,0,.23,0,.34v.07q0,.16,0,.33v.06c0,.1,0,.21,0,.31v0c0,.11,0,.22,0,.33v0a4.44,4.44,0,0,1,3,.44h0a4.44,4.44,0,0,1,.46.29l.11.08.08.07.13.11.07.06.19.18.66.66.26.28.06.08.2.27,0,0c.07.1.13.21.19.31l0,.08.14.27,0,.06c0,.11.09.22.13.33l0,.08q0,.14.08.28l0,.08c0,.11,0,.23.07.35v.08q0,.14,0,.29v.09c0,.12,0,.23,0,.35v.06c0,.1,0,.2,0,.3v.1c0,.11,0,.23-.06.34h.12l.28,0h.42a4.42,4.42,0,0,1,2.71.92l0,0,.16.13,0,0,.19.18.66.66.26.29.08.1.16.21.08.13L76,76l.08.14.1.19.07.15.08.19.06.16.06.19,0,.17,0,.19c0,.06,0,.12,0,.18s0,.11,0,.17,0,.29,0,.43,0,.08,0,.11,0,.16,0,.24,0,.09,0,.13,0,.16,0,.23l0,.13c0,.08,0,.16,0,.23l0,.13-.07.23,0,.12-.09.24,0,.1-.12.24h0l0,.05.75.75a2.91,2.91,0,0,0,2,.85H79a2.91,2.91,0,0,0,2-.85l.66-.66a3,3,0,0,0,0-4.16l-4-4h0l0,0-5.22-5.22h0L69,63.72A.76.76,0,1,1,70,62.54l0,0,0,0,8.61,8.61a.77.77,0,0,1,.18.18L83.41,76a3,3,0,0,0,4.16,0l.66-.66a3,3,0,0,0,0-4.16l-4-4h0l-6.76-6.76-2.57-2.57h0a.75.75,0,0,1-.17-.47.75.75,0,0,1,1.23-.59h0l0,0,.07.07,9.15,9.15a.76.76,0,0,1,.19.19L89.24,70h0l.06.06h0l.54.54a3,3,0,0,0,4.16,0l.66-.66a3,3,0,0,0,0-4.16l0,0L92.7,63.83l-.5-.48L80.73,51.88h0l-.39-.39h0a.75.75,0,0,1,1.06-1.07h0L83,52l.1.07,0,.05,8.32,8.32a.77.77,0,0,1,.21.2l3.89,3.89.08.09,0,0,.13.13.51.51a3,3,0,0,0,4.16,0l.66-.66a3,3,0,0,0,0-4.16Z"/><path class="cls-7" d="M89.36,28.24l-3.05,3.07a.79.79,0,0,1-.62.31h0l-6.25-.55a2.3,2.3,0,0,0-1.51.55l-1.73,1.73L75.5,34h0l-7.19,7.22v.05l-2.12,7.89a.76.76,0,0,1-.05.2l-.05.2a10.26,10.26,0,0,0-.36,1.83,1.57,1.57,0,0,0,.17,1,3.29,3.29,0,0,0,2.55.72,6.25,6.25,0,0,0,4.52-3.62,9.07,9.07,0,0,0,.43-1l.94-3.51h0l.07-.25,0,0,.12-.12L81,38.19l5.2,5.2a.77.77,0,0,1,.18.18l2.92,2.92,9.35,9.35,9.16-9.16L89.36,28.24Z"/><path class="cls-7" d="M75.09,78s0-.07,0-.11,0-.09,0-.14l0-.11,0-.13,0-.12,0-.12,0-.12,0-.11-.06-.12-.05-.1-.08-.13-.06-.09-.1-.14-.05-.07-.18-.19-.66-.66-.21-.19-.1-.08-.12-.09L73,75.08l-.1-.06L72.78,75l-.1,0-.15-.06-.11,0-.14,0-.13,0-.12,0-.17,0h-.61l-.19,0h0l-.19,0h0l-.19.06,0,0-.18.07-.06,0-.16.08-.09.05-.12.07-.21.14a2.94,2.94,0,0,0-.29.25L68,77a3,3,0,0,0,0,4.16l.31.31.05.05.29.29a3,3,0,0,0,4.16,0l1.47-1.47A3,3,0,0,0,74.5,80h0l.07-.1.08-.13.07-.12.05-.1.06-.13,0-.1.05-.14,0-.1L75,79l0-.1,0-.15v-.1s0-.1,0-.15,0-.07,0-.11,0-.1,0-.15,0-.07,0-.11S75.09,78,75.09,78Z"/><path class="cls-7" d="M68.61,74.12a3,3,0,0,0,.29-3.28,2.87,2.87,0,0,0-.49-.66l-.66-.66-.21-.19a3,3,0,0,0-2.76-.53h0l-.2.07-.06,0-.17.08-.07,0-.16.09-.07,0-.21.16-.22.2-.68.68-.8.8a3,3,0,0,0,0,4.16l.39.39a.75.75,0,0,1,.14.14l.12.12a3,3,0,0,0,4.16,0l1.47-1.47Z"/></g></g></svg>