<svg xmlns="http://www.w3.org/2000/svg" viewBox="0 0 147.79 147.79"><defs><style>.cls-1,.cls-3{fill:#0056a5;}.cls-2{fill:none;stroke:#0056a5;stroke-miterlimit:10;stroke-width:7px;}.cls-3{font-size:30.07px;font-family:Avenir-Black, Avenir;}</style></defs><title>smadc</title><g id="Layer_2" data-name="Layer 2"><g id="Layer_1-2" data-name="Layer 1"><rect class="cls-1" x="26.84" y="38.79" width="4" height="10.03"/><path class="cls-1" d="M32.84,30.73H36.6v-4H32.84a6,6,0,0,0-6,6v0l4,0A2,2,0,0,1,32.84,30.73Z"/><rect class="cls-1" x="42.62" y="26.73" width="10.03" height="4"/><rect class="cls-1" x="26.84" y="54.85" width="4" height="10.03"/><rect class="cls-1" x="58.67" y="26.73" width="10.03" height="4"/><rect class="cls-1" x="82" y="37.23" width="4" height="10.03"/><path class="cls-1" d="M80,71.36H57.44a10.11,10.11,0,0,1,.85,4H80a6,6,0,0,0,6-6v0l-4,0A2,2,0,0,1,80,71.36Z"/><rect class="cls-1" x="82" y="53.28" width="4" height="10.03"/><path class="cls-1" d="M81.86,32l3.71-1.49A6,6,0,0,0,80,26.73H74.72v4H80A2,2,0,0,1,81.86,32Z"/><path class="cls-1" d="M32.84,71.36A2,2,0,0,1,31,70.1l-3.7,1.51a6,6,0,0,0,5.55,3.74h4.07a10.1,10.1,0,0,1,.85-4H32.84Z"/><ellipse class="cls-1" cx="103.03" cy="75.43" rx="7.7" ry="7.41"/><ellipse class="cls-1" cx="47.6" cy="75.43" rx="7.7" ry="7.41"/><path class="cls-1" d="M119.91,60.95,107.46,40.44a4,4,0,0,0-3-1.71H91a2,2,0,0,0-2,2v32.7a2,2,0,0,0,2,2h1.35a10.7,10.7,0,0,1,21.39,0h5.22a2,2,0,0,0,2-2V64.66A8.46,8.46,0,0,0,119.91,60.95Zm-8.55-5.05L94,51.14a1.39,1.39,0,0,1-1-1.26V43.73a1,1,0,0,1,1-1h9.19a2,2,0,0,1,1.52.85l7.12,11.73C112.09,55.78,111.89,56,111.36,55.9Z"/><rect class="cls-2" x="3.5" y="3.5" width="140.79" height="140.79" rx="17.56" ry="17.56"/><text class="cls-3" transform="translate(18.23 125.89)">SMADC</text></g></g></svg>