<svg xmlns="http://www.w3.org/2000/svg" viewBox="0 0 147.79 147.79"><defs><style>.cls-1{fill:none;stroke:#0056a5;stroke-miterlimit:10;stroke-width:7px;}.cls-2{font-size:30.07px;font-family:Avenir-Black, Avenir;}.cls-2,.cls-3{fill:#0056a5;}.cls-4{fill:#94c5ea;}.cls-5{fill:#9c979b;}.cls-6{fill:#9e989c;}.cls-7{fill:#9e989d;}.cls-8{fill:#9d979c;}.cls-9{fill:#9d979b;}.cls-10{fill:#f4f3f4;}.cls-11{fill:#e2e0e7;}.cls-12{fill:#f1efef;}.cls-13{fill:#dddbe2;}</style></defs><title>smbin</title><g id="Layer_2" data-name="Layer 2"><g id="Layer_1-2" data-name="Layer 1"><rect class="cls-1" x="3.5" y="3.5" width="140.79" height="140.79" rx="17.56" ry="17.56"/><text class="cls-2" transform="translate(24.63 125.89)">SMBIN</text><path class="cls-3" d="M28.82,18h.43c0,10.18,0,20.37,0,30.55,0,1.2.21,1.8,1.6,1.76q4.92-.13,9.85,0c1.39,0,1.61-.56,1.6-1.76,0-10.18,0-20.37,0-30.55h.43c0,10.18,0,20.37,0,30.55,0,1.2.21,1.8,1.6,1.76q5.12-.13,10.25,0c1.39,0,1.61-.56,1.6-1.76C56,38.35,56,28.16,56,18h.43c0,10.17,0,20.34,0,30.51,0,1.35.36,1.83,1.76,1.8,4-.09,8,0,12,0l.09,19.33a74.35,74.35,0,0,1-9,4l-11.93-.05A14.57,14.57,0,0,0,32.53,61.28c-5.89,1-11.17,6.42-11.58,12.26-1.5,0-3.49.5-4.38-.26-1.05-.9-.33-3-.34-4.51,0-6.18,0-12.35,0-18.53,3.61,0,7.22,0,10.83,0,1.41,0,1.77-.45,1.76-1.8C28.81,38.32,28.82,28.15,28.82,18Z"/><path class="cls-3" d="M70.19,50.25c-4,0-8,0-12,0-1.4,0-1.77-.45-1.76-1.8.05-10.17,0-20.34,0-30.51,3.35,0,6.7-.08,10,0a3.62,3.62,0,0,1,3.73,3.74C70.25,31.2,70.21,40.72,70.19,50.25Z"/><path class="cls-3" d="M56,18c0,10.18,0,20.37,0,30.55,0,1.2-.21,1.8-1.6,1.76q-5.12-.13-10.25,0c-1.39,0-1.61-.56-1.6-1.76,0-10.18,0-20.37,0-30.55Z"/><path class="cls-3" d="M42.23,18c0,10.18,0,20.37,0,30.55,0,1.2-.21,1.8-1.6,1.76q-4.92-.13-9.85,0c-1.39,0-1.61-.56-1.6-1.76,0-10.18,0-20.37,0-30.55Z"/><path class="cls-3" d="M28.82,18c0,10.17,0,20.34,0,30.51,0,1.35-.35,1.84-1.76,1.8-3.61-.09-7.22,0-10.83,0,0-9.52-.06-19,0-28.57A3.62,3.62,0,0,1,20,17.93C22.91,17.89,25.86,18,28.82,18Z"/><path class="cls-4" d="M61.28,73.59a74.42,74.42,0,0,0,9-4c4.06-1.78,8.11-3.59,12.19-5.34.89-.38.65-.87.5-1.55-.39-1.76-1.5-3.35-1.29-5.25l1.53-.16c.48,1.43,1,2.84,1.4,4.29.3,1.14.7,1.45,1.88.91,8.22-3.77,16.44-7.56,24.74-11.13,1.95-.84.73-2,.89-3l1.46-.43c1.82,3.64,2.8,7.6,4.32,11.35a10.92,10.92,0,0,0,1.21,2.88,3.28,3.28,0,0,0,.81,2.05,3.27,3.27,0,0,0,.51,1.88l1.64,4.77a8.46,8.46,0,0,0,1.52,3.09,3,3,0,0,0-.92,1.61c-1.43-.69-1.74-2.1-2.2-3.42a32.36,32.36,0,0,0-2-4.93,3.46,3.46,0,0,0-.59-1.85l-.79-2.39c-.6-1.58-.83-4-1.91-4.5-1.3-.57-2.78,1.47-4.15,2.41C105,65,98.9,69.3,92.83,73.53l-1-1.59c2.08-1.49,4.14-3,6.23-4.46,5.15-3.62,10.29-7.26,15.49-10.81,1.79-1.22.33-2.33,0-3.4-.39-1.36-1.32-.32-1.87-.07-8.14,3.62-16.24,7.33-24.39,10.92-1.41.62-1.63,1.31-1.11,2.63.45,1.15.71,2.38,1.06,3.57L85.36,71c-.38-1.39-.78-2.76-1.13-4.16-.2-.81-.52-1.05-1.35-.66-4.21,2-8.44,3.9-12.66,5.84a9.69,9.69,0,0,0-3.14,1.49,6.05,6.05,0,0,0-2.67,1.24h18l0,2-34.28.06H45l-5.15-.08,0-1.95,5.15-.08,1.87.06c.82,1.27,1.64,1.3,2.46,0,2.76,0,5.51,0,8.27,0A5.06,5.06,0,0,0,61.28,73.59Z"/><path class="cls-3" d="M120.43,66.06a3.27,3.27,0,0,1-.51-1.88c2.17-.55,4.34-1.15,6.58-.49.91.27,1.27-.37,1.76-.85,5.88,2.14,9.52,7.25,9.22,12.94a13.16,13.16,0,1,1-26.29-1.23c.05-.59.08-1.18.12-1.77,1.76-.73,2-2.58,3-3.92a13.17,13.17,0,0,1,3.61-3.54,3.46,3.46,0,0,1,.59,1.85c-4.3,3.28-5.53,8.26-3.19,12.87a10.11,10.11,0,0,0,18.6-7.77C132,66.66,126.23,64,120.43,66.06Z"/><path class="cls-3" d="M45,76.76h3.14c-1,7.2-6.51,12-13.55,11.84A13.2,13.2,0,0,1,21.8,75.52c1.82.21,1.31-1.32,1.46-2.15,1-5.77,6.53-10.34,12.16-10a12,12,0,0,1,11.51,11.3l-1.87-.06L45,73.59c-1.26-5-5.4-8.45-10.06-8.33a10,10,0,0,0-9.65,8.25c-.35.28-.32.69-.35,1.08a10.14,10.14,0,0,0,9.22,10.88A10,10,0,0,0,45,76.76Z"/><path class="cls-5" d="M46.93,74.71a12,12,0,0,0-11.51-11.3c-5.63-.38-11.15,4.18-12.16,10-.15.83.36,2.36-1.46,2.15-1.5-.14-.78-1.23-.85-2,.42-5.84,5.69-11.25,11.58-12.26A14.57,14.57,0,0,1,49.35,73.54l0,1.18C48.56,76,47.74,76,46.93,74.71Z"/><path class="cls-3" d="M91.85,71.94l1,1.59C94.38,78.1,91,82,86.46,81c-.06-.78.49-1.31.76-2,2.84,0,4-1.29,3.83-4a2.85,2.85,0,0,0-1.34-1.83c-.22-.44-.7-.4-1.06-.58a2.32,2.32,0,0,0-2.44.55,1.69,1.69,0,0,0-1.33,1.58,1.77,1.77,0,0,0,0,2c-.1.71.5,1,.83,1.51-.24.71-.17,1.64-1.27,1.7-1.1-.81-1.46-2.07-2-3.24l0-2A6.47,6.47,0,0,1,85.36,71l1.92-.65,1.84.14,2.08,1Z"/><path class="cls-6" d="M113.58,47.91l-1.46.43c-.7-1.9-1.35-3.83-2.12-5.7-.5-1.22-.07-1.67,1.1-1.87s2.29-.55,3.45-.77,1.27-.89.74-1.83a4.61,4.61,0,0,0-4.14-2.53c-1.57,0-3.15,0-4.72,0-.54,0-1.09,0-1.1-.78s.57-.76,1.1-.76c1.84,0,3.68-.1,5.5.05a6.55,6.55,0,0,1,5.59,5.56c.12.91-.26,1.3-1.1,1.51-1.56.38-3.91.16-4.41,1.43s.8,3,1.31,4.55C113.4,47.42,113.49,47.66,113.58,47.91Z"/><path class="cls-3" d="M77.71,44.8c-.58.09-1.15.22-1.73.26-3.19.23-2.48,1.12-2.65-2.29-.06-1.15.37-1.43,1.45-1.41,3.08.06,6.15,0,9.23,0,.72,0,1.44-.14,1.46,1,0,1-.47,1.16-1.29,1.26-1.49.18-3,.48-4.44.73Z"/><path class="cls-5" d="M117.91,65.33a13.17,13.17,0,0,0-3.61,3.54c-.95,1.34-1.23,3.2-3,3.92-1.28-2.33.28-4,1.39-5.72a14.63,14.63,0,0,1,4.42-4.13Z"/><path class="cls-7" d="M77.71,44.8l2-.41a1.17,1.17,0,0,0-.15,1.27C80.82,49.52,82,53.4,83.2,57.27l-1.53.16C80.09,53.3,79,49,77.71,44.8Z"/><path class="cls-5" d="M128.27,62.84c-.49.48-.86,1.12-1.76.85-2.24-.66-4.42-.05-6.58.49a3.28,3.28,0,0,1-.81-2.05c2.51-1.22,5.17-.9,7.82-.81C127.93,61.36,128.25,62,128.27,62.84Z"/><path class="cls-8" d="M87.22,79c-.26.65-.82,1.19-.76,2A10.24,10.24,0,0,0,85,83.53c-.26.42-.53.81-1.07.57s-.51-.75-.32-1.31c.32-.93,1.35-1.68.81-2.86,1.1-.06,1-1,1.27-1.7a2.22,2.22,0,0,0,.75-1.51c.59-.43.38-1.64,1.47-1.56.64,0,.81.55.85,1.11Z"/><path class="cls-5" d="M39.88,76.67c-2,3.65-5,4.66-7.81,2.6-2-1.49-1.8-3.61-1.66-5.71,2.77-4.1,6.94-4.09,9.08,0l.42,1.14Zm-5.15-2.73a1.42,1.42,0,0,0-1.16,1.51A1.32,1.32,0,0,0,35,76.93a1.46,1.46,0,0,0,1.54-1.63C36.49,74.44,35.93,73.89,34.73,73.94Z"/><path class="cls-9" d="M122.08,70.83c.65,0,1.3-.12,2-.13a4.69,4.69,0,0,1,4.88,3.13,5.08,5.08,0,0,1-1.82,5.58,5,5,0,0,1-5.86-.18,5.13,5.13,0,0,1-1.34-5.87c.17-.42.38-.83.57-1.24.46,1.32.77,2.73,2.21,3.42.33,1,.92,1.61,2,1.33a1.35,1.35,0,0,0,1.12-1.6c-.21-1.26-1.16-1.42-2.22-1.34A8.46,8.46,0,0,1,122.08,70.83Z"/><path class="cls-3" d="M123.59,73.92c1.06-.08,2,.08,2.22,1.34a1.35,1.35,0,0,1-1.12,1.6c-1.11.28-1.7-.35-2-1.33A3,3,0,0,1,123.59,73.92Z"/><path class="cls-3" d="M70.22,72c.21,1.1,0,1.79-1.37,1.56a14,14,0,0,0-1.77-.08A9.68,9.68,0,0,1,70.22,72Z"/><path class="cls-3" d="M45,73.59H39.49c-2.14-4.11-6.31-4.12-9.08,0l-5.14-.06a10,10,0,0,1,9.65-8.25C39.58,65.14,43.72,68.57,45,73.59Z"/><path class="cls-4" d="M88.75,76.27c0-.56-.21-1.06-.85-1.11-1.1-.08-.88,1.13-1.47,1.56H84.86a1.77,1.77,0,0,1,0-2c1.31.2,2.14,0,1.33-1.58a2.32,2.32,0,0,1,2.44-.55c-.85.31-.43,1-.12,1.18.56.4.87-.22,1.18-.6A2.85,2.85,0,0,1,91,75Z"/><path class="cls-10" d="M88.75,76.27,91,75c.21,2.75-1,4-3.83,4Z"/><path class="cls-9" d="M89.12,70.46c1-.54,1.07-1.72,1.65-2.55.27-.38.57-.75,1.1-.46a.86.86,0,0,1,.36,1.17c-.33,1-1.16,1.74-1,2.87Z"/><path class="cls-11" d="M86.21,73.13c.81,1.58,0,1.79-1.33,1.58A1.69,1.69,0,0,1,86.21,73.13Z"/><path class="cls-12" d="M84.86,76.73h1.58a2.22,2.22,0,0,1-.75,1.51C85.36,77.76,84.76,77.43,84.86,76.73Z"/><path class="cls-13" d="M89.71,73.16c-.31.38-.62,1-1.18.6-.31-.22-.73-.87.12-1.18C89,72.76,89.49,72.72,89.71,73.16Z"/><path class="cls-3" d="M34.73,73.94c1.21,0,1.76.5,1.82,1.36A1.46,1.46,0,0,1,35,76.93a1.32,1.32,0,0,1-1.44-1.47A1.42,1.42,0,0,1,34.73,73.94Z"/></g></g></svg>