<svg xmlns="http://www.w3.org/2000/svg" viewBox="0 0 379.38 202.07"><defs><style>.cls-1{fill:#0056a5;}</style></defs><title>van</title><g id="Layer_2" data-name="Layer 2"><g id="Layer_1-2" data-name="Layer 1"><path class="cls-1" d="M298.67,142.26c-17.15,0-31.05,13.39-31.05,29.91s13.9,29.9,31.05,29.9,31.05-13.4,31.05-29.9S315.82,142.26,298.67,142.26Z"/><path class="cls-1" d="M83.3,142.26c-17.14,0-31,13.39-31,29.91s13.9,29.9,31,29.9,31.05-13.4,31.05-29.9S100.45,142.26,83.3,142.26Z"/><path class="cls-1" d="M375.11,113.83l-66.76-107A16.16,16.16,0,0,0,296,0L246.46.09,230.34.1H8.06A8.09,8.09,0,0,0,0,8.16v156a8.09,8.09,0,0,0,8.06,8.06h32.1c0-23.16,19.35-42,43.13-42s43.14,18.84,43.14,42h129.1c0-23.16,19.35-42,43.14-42s43.14,18.84,43.14,42h29.51a8.09,8.09,0,0,0,8.06-8.06V128.73A33.22,33.22,0,0,0,375.11,113.83ZM340,93.21l-69.52-19a5.61,5.61,0,0,1-3.89-5.09V20.21a4.06,4.06,0,0,1,4-4l20.49,0a8.1,8.1,0,0,1,6.16,3.42l44.49,71.31C343,92.73,342.16,93.8,340,93.21Z"/></g></g></svg>