<svg xmlns="http://www.w3.org/2000/svg" viewBox="344.991 25.888 348.109 169.237"><defs><style>.a{fill:#545351;}</style></defs><g transform="translate(344.991 25.888)"><rect class="a" width="134.077" height="134.077" transform="translate(17.733 17.938)"/><path class="a" d="M6.15,40.695H0V0H40.695V6.15H6.15Z"/><g transform="translate(129.362 128.644)"><path class="a" d="M166.792,166.092H126.2v-6.15h34.442V125.5h6.15Z" transform="translate(-126.2 -125.5)"/></g><g transform="translate(186.56 40.49)"><path class="a" d="M182,70.952,186.305,40.2h6.458l-4.305,30.752Z" transform="translate(-182 -39.482)"/><path class="a" d="M211.058,70.952,204.7,45.633a89.011,89.011,0,0,1-.82,13.633L202.14,70.952H196.4L200.705,40.2h8.1l6.56,25.319a61.635,61.635,0,0,1,.512-12.1L217.721,40.2h5.74l-4.305,30.752Z" transform="translate(-181.639 -39.482)"/><path class="a" d="M250.021,43.4l-3.588,3.485a8.357,8.357,0,0,0-6.253-2.563c-2.87,0-5.023,1.435-5.023,3.793,0,1.948,1.23,2.768,5.33,4.2,4.715,1.538,7.893,3.793,7.893,8.713,0,4.51-3.075,10.661-12.916,10.661A14.287,14.287,0,0,1,224.6,67.279l3.793-3.69a9.282,9.282,0,0,0,7.073,3.075c3.485,0,6.048-1.64,6.048-4.613,0-2.153-1.23-3.383-5.023-4.715-5.638-1.743-8.1-4.305-8.1-8.508,0-4.305,3.383-9.328,11.685-9.328A13.181,13.181,0,0,1,250.021,43.4Z" transform="translate(-180.933 -39.5)"/><path class="a" d="M267.353,45.325l-3.587,25.626h-6.458L260.9,45.325h-8l.717-5.125h22.859l-1.435,5.125Z" transform="translate(-180.223 -39.482)"/><path class="a" d="M279.828,64.084l-2.665,6.868H270.5L284.133,40.2h7.893l5.023,30.752h-6.765l-.717-6.868Zm7.483-19.374-5.535,14.453h7.175Z" transform="translate(-179.783 -39.482)"/><g transform="translate(0.513 47.255)"><path class="a" d="M208.434,89.493l-3.793,3.383a7.659,7.659,0,0,0-5.74-2.358c-7.483,0-9.738,8.918-9.738,15.786,0,4.818,1.948,6.663,5.535,6.663a9.051,9.051,0,0,0,4.613-1.128l1.128-7.483h-4.305V99.641h11.173l-2.05,15.068a20.8,20.8,0,0,1-11.071,3.178c-7.585,0-11.686-4.2-11.686-12.2,0-9.123,4.715-19.989,16.5-19.989A12.859,12.859,0,0,1,208.434,89.493Z" transform="translate(-182.5 -85.597)"/><path class="a" d="M230.266,111.924l-1.333,5.228H211.2L215.505,86.4h6.458l-3.588,25.524Z" transform="translate(-181.781 -85.58)"/><path class="a" d="M240.528,110.284l-2.665,6.868H231.2L244.833,86.4h7.893l5.022,30.752h-6.765l-.718-6.868Zm7.483-19.374-5.535,14.453h7.175Z" transform="translate(-181.28 -85.58)"/><path class="a" d="M276.055,117.152,269.7,91.833a89.056,89.056,0,0,1-.82,13.633l-1.64,11.686H261.5L265.8,86.4h8.1l6.561,25.319a61.654,61.654,0,0,1,.512-12.1L282.821,86.4h5.74l-4.305,30.752Z" transform="translate(-180.52 -85.58)"/><path class="a" d="M316.6,89.29l-3.588,3.485a7.055,7.055,0,0,0-5.125-2.153c-6.971,0-9.021,8.918-9.021,14.658,0,5.228,2.255,7.381,5.741,7.381,2.563,0,4.51-1.333,6.458-2.665l2.562,4a15.044,15.044,0,0,1-9.738,3.793c-7.175,0-11.685-4.408-11.685-12.711,0-8.406,4.2-19.476,15.581-19.476A11.7,11.7,0,0,1,316.6,89.29Z" transform="translate(-179.751 -85.6)"/><path class="a" d="M327.948,91.115l-1.127,8h9.533l-.615,4.715h-9.533l-1.23,8.508h11.686l-.718,4.818H317.8L322.106,86.4h18.041l-1.332,4.715Z" transform="translate(-179.11 -85.58)"/></g></g></g></svg>