<?xml version="1.0" encoding="utf-8"?>
<!-- Generator: Adobe Illustrator 20.1.0, SVG Export Plug-In . SVG Version: 6.00 Build 0)  -->
<!DOCTYPE svg PUBLIC "-//W3C//DTD SVG 1.1//EN" "http://www.w3.org/Graphics/SVG/1.1/DTD/svg11.dtd">
<svg version="1.1" id="Layer_1" xmlns="http://www.w3.org/2000/svg" xmlns:xlink="http://www.w3.org/1999/xlink" x="0px" y="0px"
	 viewBox="0 0 147.8 147.8" style="enable-background:new 0 0 147.8 147.8;" xml:space="preserve">
<style type="text/css">
	.st0{fill:none;stroke:#0056A5;stroke-width:7;stroke-miterlimit:10;}
	.st1{enable-background:new    ;}
	.st2{fill:#0056A5;}
	.st3{fill:#5F8DC9;}
	.st4{fill:#B0D0E8;}
</style>
<title>data</title>
<g id="Layer_2">
	<g id="Layer_1-2">
		<path class="st0" d="M21.1,3.5h105.7c9.7,0,17.6,7.9,17.6,17.6v105.7c0,9.7-7.9,17.6-17.6,17.6H21.1c-9.7,0-17.6-7.9-17.6-17.6
			V21.1C3.5,11.4,11.4,3.5,21.1,3.5z"/>
		<g class="st1">
			<path class="st2" d="M44.6,91.3h5c1.2,0,2.4,0.1,3.4,0.4s2,0.7,2.9,1.3c0.8,0.6,1.5,1.4,1.9,2.4c0.5,1,0.7,2.1,0.7,3.5
				c0,1.2-0.2,2.3-0.7,3.2c-0.5,0.9-1.1,1.7-1.9,2.3c-0.8,0.6-1.7,1.1-2.7,1.4c-1,0.3-2.1,0.5-3.2,0.5h-5.4V91.3z M47.9,103.3h1.7
				c0.8,0,1.5-0.1,2.1-0.2c0.7-0.2,1.2-0.4,1.7-0.8c0.5-0.4,0.9-0.8,1.1-1.4c0.3-0.6,0.4-1.3,0.4-2.2c0-0.7-0.1-1.4-0.4-1.9
				c-0.3-0.5-0.7-1-1.1-1.4s-1-0.6-1.7-0.8s-1.3-0.3-2-0.3h-2V103.3z"/>
		</g>
		<g class="st1">
			<path class="st2" d="M65.8,91.3h2.8l6.6,15.1h-3.8l-1.3-3.2h-5.9l-1.3,3.2h-3.7L65.8,91.3z M67.1,95.7l-1.8,4.7h3.7L67.1,95.7z"
				/>
			<path class="st2" d="M75.7,94.2h-4.3v-2.9h12v2.9H79v12.2h-3.3V94.2z"/>
		</g>
		<g class="st1">
			<path class="st2" d="M89.9,91.3h2.8l6.6,15.1h-3.8l-1.3-3.2h-5.9l-1.3,3.2h-3.7L89.9,91.3z M91.2,95.7l-1.8,4.7h3.7L91.2,95.7z"
				/>
		</g>
		<g class="st1">
			<path class="st2" d="M37.3,120.6c-0.3-0.3-0.6-0.6-1.1-0.8c-0.5-0.2-0.9-0.2-1.3-0.2c-0.2,0-0.5,0-0.7,0.1
				c-0.3,0.1-0.5,0.1-0.7,0.3c-0.2,0.1-0.4,0.3-0.6,0.5c-0.1,0.2-0.2,0.4-0.2,0.7c0,0.5,0.2,0.8,0.5,1c0.3,0.2,0.8,0.4,1.3,0.6
				c0.5,0.2,1.1,0.3,1.7,0.5s1.2,0.4,1.7,0.7c0.5,0.3,1,0.7,1.3,1.3c0.3,0.5,0.5,1.2,0.5,2.1c0,0.8-0.2,1.6-0.5,2.2
				c-0.3,0.6-0.7,1.1-1.3,1.6c-0.5,0.4-1.2,0.7-1.9,0.9c-0.7,0.2-1.4,0.3-2.2,0.3c-1,0-1.9-0.2-2.7-0.4s-1.6-0.8-2.3-1.5l2.4-2.6
				c0.3,0.5,0.8,0.8,1.3,1.1c0.5,0.2,1.1,0.4,1.6,0.4c0.3,0,0.5,0,0.8-0.1c0.3-0.1,0.5-0.2,0.7-0.3c0.2-0.1,0.4-0.3,0.5-0.5
				c0.1-0.2,0.2-0.4,0.2-0.7c0-0.5-0.2-0.8-0.5-1.1c-0.3-0.3-0.8-0.5-1.3-0.7c-0.5-0.2-1.1-0.4-1.7-0.6c-0.6-0.2-1.2-0.4-1.7-0.7
				c-0.5-0.3-1-0.7-1.3-1.2c-0.3-0.5-0.5-1.2-0.5-2c0-0.8,0.2-1.5,0.5-2.1c0.3-0.6,0.7-1.1,1.3-1.5s1.1-0.7,1.8-0.9
				c0.7-0.2,1.4-0.3,2.2-0.3c0.9,0,1.7,0.1,2.5,0.4c0.8,0.2,1.5,0.6,2.2,1.2L37.3,120.6z"/>
			<path class="st2" d="M51.9,120.8c-0.3-0.4-0.7-0.7-1.2-0.9s-1-0.3-1.7-0.3c-0.6,0-1.2,0.1-1.7,0.4s-1,0.6-1.4,1
				c-0.4,0.4-0.7,1-0.9,1.5c-0.2,0.6-0.3,1.2-0.3,1.9c0,0.7,0.1,1.4,0.3,2c0.2,0.6,0.5,1.1,0.9,1.5c0.4,0.4,0.8,0.8,1.4,1
				c0.5,0.2,1.1,0.4,1.7,0.4c0.7,0,1.3-0.1,1.8-0.4c0.5-0.3,1-0.7,1.3-1.2l2.8,2.1c-0.6,0.9-1.5,1.6-2.4,2c-1,0.4-2,0.6-3,0.6
				c-1.2,0-2.3-0.2-3.3-0.6c-1-0.4-1.9-0.9-2.6-1.6c-0.7-0.7-1.3-1.5-1.7-2.5c-0.4-1-0.6-2.1-0.6-3.3s0.2-2.3,0.6-3.3s1-1.8,1.7-2.5
				s1.6-1.2,2.6-1.6c1-0.4,2.1-0.6,3.3-0.6c0.4,0,0.9,0,1.3,0.1s0.9,0.2,1.4,0.4c0.4,0.2,0.9,0.4,1.3,0.7c0.4,0.3,0.8,0.6,1.1,1
				L51.9,120.8z"/>
			<path class="st2" d="M56.6,116.9H60V132h-3.3V116.9z"/>
			<path class="st2" d="M63.1,116.9h10.3v3.1h-6.9v2.8H73v3.1h-6.6v3.1h7.3v3.1H63.1V116.9z"/>
			<path class="st2" d="M76.4,116.9H81l6.4,10.5h0v-10.5h3.3V132h-4.4l-6.6-10.8h0V132h-3.3V116.9z"/>
			<path class="st2" d="M103.7,120.8c-0.3-0.4-0.7-0.7-1.2-0.9s-1-0.3-1.7-0.3s-1.2,0.1-1.7,0.4s-1,0.6-1.4,1
				c-0.4,0.4-0.7,1-0.9,1.5s-0.3,1.2-0.3,1.9c0,0.7,0.1,1.4,0.3,2s0.5,1.1,0.9,1.5c0.4,0.4,0.8,0.8,1.4,1c0.5,0.2,1.1,0.4,1.7,0.4
				c0.7,0,1.3-0.1,1.8-0.4c0.5-0.3,1-0.7,1.3-1.2l2.8,2.1c-0.6,0.9-1.5,1.6-2.4,2c-1,0.4-2,0.6-3,0.6c-1.2,0-2.3-0.2-3.3-0.6
				s-1.9-0.9-2.6-1.6c-0.7-0.7-1.3-1.5-1.7-2.5c-0.4-1-0.6-2.1-0.6-3.3s0.2-2.3,0.6-3.3c0.4-1,1-1.8,1.7-2.5
				c0.7-0.7,1.6-1.2,2.6-1.6s2.1-0.6,3.3-0.6c0.4,0,0.9,0,1.3,0.1s0.9,0.2,1.4,0.4c0.4,0.2,0.9,0.4,1.3,0.7c0.4,0.3,0.8,0.6,1.1,1
				L103.7,120.8z"/>
			<path class="st2" d="M108.6,116.9h10.3v3.1h-6.9v2.8h6.6v3.1h-6.6v3.1h7.3v3.1h-10.7V116.9z"/>
		</g>
		<path class="st2" d="M49.3,71.4c-17.7-19.8-7.8-51.3,18-57.5c18.9-3.9,37.5,8.2,41.4,27.2s-8.2,37.5-27.2,41.4l0,0
			c-10.8,1.9-20.6-0.8-29-7.9c-0.3-0.2-0.5-0.5-0.9-0.6C51.1,72.9,50.1,72.2,49.3,71.4z M102.1,64.8c0.4-0.5,0.8-1.1,1.1-1.7
			c8.3-15.4,2.6-34.6-12.7-42.9c-4-2.2-8.4-3.4-12.9-3.7C67.4,15.9,58.7,19.3,51.9,27c-7.2,8.1-9.8,17.7-7.3,28.2
			c2.8,12,10.4,20,22.3,23.3c12,3.3,22.6,0.2,31.5-8.7c1.5-1.3,2.7-2.9,3.5-4.7L102.1,64.8z"/>
		<path class="st2" d="M48.5,77.4c0.1,1.1-0.3,2.3-1.2,3c-1.5,1.5-3,3-4.5,4.5s-3.2,1.6-4.5,0.3s-1.2-3.1,0.3-4.6
			c1.3-1.3,2.7-2.6,3.9-4c0.9-1.2,2.4-1.8,3.8-1.7C47.4,75.4,48.1,76.3,48.5,77.4z"/>
		<path class="st3" d="M48.5,77.4c-0.3-1.1-1.1-2-2.1-2.5c0.6-0.9,1.4-1.7,2.2-2.4c0.3-0.3,0.8-0.6,0.8-1.1c0.8,0.9,1.8,1.5,2.3,2.6
			C50.7,75.3,49.4,76.1,48.5,77.4z"/>
		<path class="st3" d="M58.1,38.2c0.5-1.2,0.9-2.5,1.1-3.8c0.2-0.7,0.5-1.1,1.1-1.1s1,0.5,1.1,1.2c0.2,1.3,0.5,2.5,0.9,3.8l0.3,2.1
			L66.9,62c0.5-0.2,0.5-0.7,0.6-1c1.3-4,2.6-8,3.8-12.1c0.2-0.5,0.3-1.1,1-1.2s1.1,0.4,1.4,0.8c1,1.3,1.9,2.7,3,4.2l3.4-8.1
			c0.1-0.2,0.1-0.4,0.2-0.5c0.2-0.5,0.5-0.9,1.1-1s1,0.4,1.2,1c1.2,2.7,2.3,5.5,3.5,8.2c0.6,1.5,1.3,3,1.9,4.6
			c0.2,0.7,0.8,1.1,1.5,1c3.7,0,7.4,0,11.2,0c0.6,0,1.1,0,1.4,0.6c0.4,0.8-0.1,1.5-1.2,1.5c-4.3,0-8.6,0-13,0
			c-0.9,0-1.2-0.5-1.5-1.2c-1.4-3.6-2.9-7.1-4.4-10.6c-0.1-0.3-0.3-0.6-0.5-1.1l-3.2,7.7c-0.2,0.5-0.4,1.2-1.1,1.3s-1.1-0.4-1.4-0.9
			l-2.9-4l-3.6,11.7c-0.3,0.7-0.4,1.4-0.5,2.1c-0.4,0.7-0.7,1.4-0.9,2.2c-0.1,0.5-0.6,0.9-1.1,0.9c-0.6,0-1-0.4-1.1-1.1
			s-0.3-1.3-0.5-1.9l-0.5-2.1c-0.3-3.1-1.1-6.1-1.7-9.1c-0.8-4.5-1.8-9-2.7-13.6c-0.6,0.3-0.5,0.8-0.7,1.2
			c-1.4,5.7-2.7,11.4-4.1,17.1c-0.5,1.9-1.2,2.1-2.6,0.8c-2-1.8-3.9-3.5-5.8-5.2c-0.6-0.5-1-1.1-0.3-1.8s1.2-0.3,1.8,0.2
			c1.7,1.5,3.3,2.9,5.1,4.5c0.6-2.6,1.2-5.1,1.8-7.5c0.7-3.1,1.4-6.2,2.1-9.2C57.9,39.5,58.1,38.9,58.1,38.2z"/>
		<path class="st4" d="M62.6,40.3l-0.3-2.1c1.6,0,3.2,0,4.7,0h35.2c0.3,0,0.6,0,1,0c0.6,0,1,0.4,1.1,0.9c0,0,0,0,0,0.1
			c0.1,0.5-0.3,1-0.9,1.1c-0.1,0-0.1,0-0.2,0h-39C63.6,40.2,63.1,40.2,62.6,40.3z"/>
		<path class="st4" d="M68.7,64.9c0.1-0.7,0.3-1.4,0.5-2.1h31c1.8,0,1.9,0.1,1.8,1.9c-0.1,0-0.2,0.1-0.2,0.2c0,0,0,0,0,0H70.2
			C69.7,65,69.2,64.9,68.7,64.9z"/>
		<path class="st4" d="M64.7,62.9l0.5,2.1c-4.4,0-8.9,0-13.3,0c-0.8,0-1.5-0.2-1.5-1.2c0.1-0.8,0.7-1,1.4-1L64.7,62.9z"/>
		<path class="st4" d="M58.1,38.2c0,0.7-0.2,1.4-0.4,2h-8.9c-0.8,0-1.2-0.3-1.2-1.1s0.5-1,1.2-1L58.1,38.2z"/>
	</g>
</g>
</svg>
