<?xml version="1.0" encoding="utf-8"?>
<!-- Generator: Adobe Illustrator 20.1.0, SVG Export Plug-In . SVG Version: 6.00 Build 0)  -->
<!DOCTYPE svg PUBLIC "-//W3C//DTD SVG 1.1//EN" "http://www.w3.org/Graphics/SVG/1.1/DTD/svg11.dtd">
<svg version="1.1" id="Layer_1" xmlns="http://www.w3.org/2000/svg" xmlns:xlink="http://www.w3.org/1999/xlink" x="0px" y="0px"
	 viewBox="0 0 147.8 147.8" style="enable-background:new 0 0 147.8 147.8;" xml:space="preserve">
<style type="text/css">
	.st0{fill:none;stroke:#0056A5;stroke-width:7;stroke-miterlimit:10;}
	.st1{enable-background:new    ;}
	.st2{fill:#0056A5;}
</style>
<title>partner</title>
<g id="Layer_2">
	<g id="Layer_1-2">
		<path class="st0" d="M21.1,3.5h105.7c9.7,0,17.6,7.9,17.6,17.6v105.7c0,9.7-7.9,17.6-17.6,17.6H21.1c-9.7,0-17.6-7.9-17.6-17.6
			V21.1C3.5,11.4,11.4,3.5,21.1,3.5z"/>
		<g class="st1">
			<path class="st2" d="M37.6,100.8c-0.2-0.2-0.5-0.4-0.8-0.5s-0.6-0.2-0.9-0.2c-0.2,0-0.3,0-0.5,0.1c-0.2,0-0.4,0.1-0.5,0.2
				c-0.2,0.1-0.3,0.2-0.4,0.3c-0.1,0.1-0.2,0.3-0.2,0.5c0,0.3,0.1,0.6,0.4,0.7c0.2,0.2,0.5,0.3,0.9,0.4c0.4,0.1,0.8,0.2,1.2,0.4
				c0.4,0.1,0.8,0.3,1.2,0.5c0.4,0.2,0.7,0.5,0.9,0.9c0.2,0.4,0.4,0.9,0.4,1.5c0,0.6-0.1,1.1-0.3,1.6s-0.5,0.8-0.9,1.1
				s-0.8,0.5-1.3,0.6c-0.5,0.1-1,0.2-1.6,0.2c-0.7,0-1.3-0.1-1.9-0.3c-0.6-0.2-1.1-0.6-1.7-1l1.7-1.8c0.2,0.3,0.5,0.6,0.9,0.7
				c0.4,0.2,0.7,0.3,1.1,0.3c0.2,0,0.4,0,0.6-0.1c0.2,0,0.4-0.1,0.5-0.2s0.3-0.2,0.4-0.3c0.1-0.1,0.1-0.3,0.1-0.5
				c0-0.3-0.1-0.6-0.4-0.8c-0.2-0.2-0.6-0.3-0.9-0.5c-0.4-0.1-0.8-0.3-1.2-0.4c-0.4-0.1-0.8-0.3-1.2-0.5c-0.4-0.2-0.7-0.5-0.9-0.9
				c-0.2-0.4-0.4-0.8-0.4-1.4c0-0.6,0.1-1.1,0.3-1.5c0.2-0.4,0.5-0.8,0.9-1.1c0.4-0.3,0.8-0.5,1.3-0.7c0.5-0.1,1-0.2,1.5-0.2
				c0.6,0,1.2,0.1,1.8,0.3s1.1,0.5,1.5,0.9L37.6,100.8z"/>
			<path class="st2" d="M43.1,100.3H40v-2.1h8.5v2.1h-3.1v8.6h-2.4V100.3z"/>
			<path class="st2" d="M49.7,98.2h4.1c0.5,0,1.1,0.1,1.5,0.2s0.9,0.3,1.3,0.5c0.4,0.2,0.7,0.6,0.9,1s0.3,0.9,0.3,1.6
				c0,0.8-0.2,1.4-0.6,1.9c-0.4,0.5-1,0.9-1.7,1l2.7,4.5h-2.8l-2.2-4.3H52v4.3h-2.4V98.2z M52,102.6h1.4c0.2,0,0.4,0,0.7,0
				c0.2,0,0.5-0.1,0.6-0.1c0.2-0.1,0.3-0.2,0.5-0.4c0.1-0.2,0.2-0.4,0.2-0.7c0-0.3-0.1-0.5-0.2-0.7c-0.1-0.2-0.3-0.3-0.4-0.4
				c-0.2-0.1-0.4-0.1-0.6-0.2s-0.4,0-0.6,0H52V102.6z"/>
		</g>
		<g class="st1">
			<path class="st2" d="M63,98.2h1.9l4.7,10.7h-2.7l-0.9-2.3h-4.2l-0.9,2.3h-2.6L63,98.2z M63.9,101.3l-1.3,3.3h2.6L63.9,101.3z"/>
		</g>
		<g class="st1">
			<path class="st2" d="M71.3,100.3h-3.1v-2.1h8.5v2.1h-3.1v8.6h-2.4V100.3z"/>
			<path class="st2" d="M78,98.2h7.3v2.2h-4.9v2H85v2.2h-4.6v2.2h5.2v2.2H78V98.2z"/>
			<path class="st2" d="M97.2,108.1c-0.7,0.4-1.4,0.6-2.2,0.8c-0.8,0.2-1.5,0.2-2.3,0.2c-0.8,0-1.6-0.1-2.3-0.4
				c-0.7-0.3-1.3-0.6-1.8-1.1c-0.5-0.5-0.9-1.1-1.2-1.8c-0.3-0.7-0.4-1.5-0.4-2.3s0.1-1.6,0.4-2.3s0.7-1.3,1.2-1.8s1.1-0.9,1.8-1.1
				c0.7-0.3,1.5-0.4,2.3-0.4c0.9,0,1.6,0.1,2.4,0.3c0.7,0.2,1.4,0.6,1.9,1.1l-1.7,1.8c-0.3-0.3-0.7-0.6-1.1-0.8s-0.9-0.3-1.5-0.3
				c-0.5,0-1,0.1-1.4,0.3c-0.4,0.2-0.8,0.4-1.1,0.7s-0.5,0.7-0.7,1.1c-0.2,0.4-0.2,0.9-0.2,1.4c0,0.5,0.1,1,0.2,1.4
				c0.2,0.4,0.4,0.8,0.7,1.1c0.3,0.3,0.6,0.5,1.1,0.7c0.4,0.2,0.9,0.3,1.4,0.3c0.5,0,1-0.1,1.3-0.2c0.4-0.1,0.7-0.2,0.9-0.4v-1.7H93
				v-2.2h4.2V108.1z"/>
			<path class="st2" d="M99.2,98.2h2.4v10.7h-2.4V98.2z"/>
			<path class="st2" d="M110.7,101c-0.2-0.3-0.5-0.5-0.9-0.6c-0.3-0.2-0.7-0.2-1.2-0.2s-0.9,0.1-1.2,0.3s-0.7,0.4-1,0.7
				c-0.3,0.3-0.5,0.7-0.7,1.1c-0.2,0.4-0.2,0.9-0.2,1.4c0,0.5,0.1,1,0.2,1.4c0.2,0.4,0.4,0.8,0.6,1.1c0.3,0.3,0.6,0.5,1,0.7
				c0.4,0.2,0.8,0.3,1.2,0.3c0.5,0,0.9-0.1,1.3-0.3s0.7-0.5,0.9-0.8l2,1.5c-0.5,0.6-1,1.1-1.7,1.4c-0.7,0.3-1.4,0.5-2.1,0.5
				c-0.8,0-1.6-0.1-2.3-0.4s-1.3-0.6-1.8-1.1c-0.5-0.5-0.9-1.1-1.2-1.8c-0.3-0.7-0.4-1.5-0.4-2.3s0.1-1.6,0.4-2.3s0.7-1.3,1.2-1.8
				s1.1-0.9,1.8-1.1c0.7-0.3,1.5-0.4,2.3-0.4c0.3,0,0.6,0,0.9,0.1s0.7,0.1,1,0.3s0.6,0.3,0.9,0.5c0.3,0.2,0.6,0.4,0.8,0.7L110.7,101
				z"/>
		</g>
		<g class="st1">
			<path class="st2" d="M19.3,116.3h4c0.6,0,1.1,0.1,1.6,0.2s0.9,0.3,1.3,0.5c0.4,0.2,0.7,0.6,0.9,1c0.2,0.4,0.3,0.9,0.3,1.6
				c0,0.6-0.1,1.1-0.3,1.6c-0.2,0.4-0.5,0.8-0.8,1s-0.8,0.4-1.3,0.5c-0.5,0.1-1,0.2-1.6,0.2h-1.7v4.2h-2.4V116.3z M21.7,120.8h1.6
				c0.2,0,0.4,0,0.6-0.1c0.2,0,0.4-0.1,0.5-0.2c0.2-0.1,0.3-0.2,0.4-0.4s0.1-0.4,0.1-0.6c0-0.3-0.1-0.5-0.2-0.7s-0.3-0.3-0.5-0.4
				c-0.2-0.1-0.4-0.1-0.7-0.2c-0.2,0-0.5,0-0.7,0h-1.2V120.8z"/>
		</g>
		<g class="st1">
			<path class="st2" d="M31.2,116.3h1.9l4.7,10.7h-2.7l-0.9-2.3h-4.2l-0.9,2.3h-2.6L31.2,116.3z M32.1,119.4l-1.3,3.3h2.6
				L32.1,119.4z"/>
		</g>
		<g class="st1">
			<path class="st2" d="M38.9,116.3H43c0.5,0,1.1,0.1,1.5,0.2c0.5,0.1,0.9,0.3,1.3,0.5c0.4,0.2,0.7,0.6,0.9,1s0.3,0.9,0.3,1.6
				c0,0.8-0.2,1.4-0.6,1.9c-0.4,0.5-1,0.9-1.7,1l2.7,4.5h-2.8l-2.2-4.3h-1.2v4.3h-2.4V116.3z M41.3,120.7h1.4c0.2,0,0.4,0,0.7,0
				c0.2,0,0.5-0.1,0.6-0.1c0.2-0.1,0.3-0.2,0.5-0.4c0.1-0.2,0.2-0.4,0.2-0.7c0-0.3-0.1-0.5-0.2-0.7s-0.3-0.3-0.4-0.4
				c-0.2-0.1-0.4-0.1-0.6-0.2c-0.2,0-0.4,0-0.6,0h-1.5V120.7z"/>
		</g>
		<g class="st1">
			<path class="st2" d="M50.5,118.4h-3.1v-2.1h8.5v2.1h-3.1v8.6h-2.4V118.4z"/>
			<path class="st2" d="M57.1,116.3h3.2l4.5,7.4h0v-7.4h2.4V127h-3.1l-4.7-7.6h0v7.6h-2.4V116.3z"/>
			<path class="st2" d="M69.5,116.3h7.3v2.2h-4.9v2h4.6v2.2h-4.6v2.2H77v2.2h-7.5V116.3z"/>
			<path class="st2" d="M78.9,116.3h4.1c0.5,0,1.1,0.1,1.5,0.2s0.9,0.3,1.3,0.5c0.4,0.2,0.7,0.6,0.9,1s0.3,0.9,0.3,1.6
				c0,0.8-0.2,1.4-0.6,1.9c-0.4,0.5-1,0.9-1.7,1l2.7,4.5h-2.8l-2.2-4.3h-1.2v4.3h-2.4V116.3z M81.3,120.7h1.4c0.2,0,0.4,0,0.7,0
				c0.2,0,0.5-0.1,0.6-0.1c0.2-0.1,0.3-0.2,0.5-0.4c0.1-0.2,0.2-0.4,0.2-0.7c0-0.3-0.1-0.5-0.2-0.7c-0.1-0.2-0.3-0.3-0.4-0.4
				c-0.2-0.1-0.4-0.1-0.6-0.2s-0.4,0-0.6,0h-1.5V120.7z"/>
			<path class="st2" d="M94,118.9c-0.2-0.2-0.5-0.4-0.8-0.5s-0.6-0.2-0.9-0.2c-0.2,0-0.3,0-0.5,0.1c-0.2,0-0.4,0.1-0.5,0.2
				c-0.2,0.1-0.3,0.2-0.4,0.3c-0.1,0.1-0.2,0.3-0.2,0.5c0,0.3,0.1,0.6,0.4,0.7c0.2,0.2,0.5,0.3,0.9,0.4c0.4,0.1,0.8,0.2,1.2,0.4
				c0.4,0.1,0.8,0.3,1.2,0.5c0.4,0.2,0.7,0.5,0.9,0.9c0.2,0.4,0.4,0.9,0.4,1.5c0,0.6-0.1,1.1-0.3,1.6s-0.5,0.8-0.9,1.1
				s-0.8,0.5-1.3,0.6c-0.5,0.1-1,0.2-1.6,0.2c-0.7,0-1.3-0.1-1.9-0.3c-0.6-0.2-1.1-0.6-1.7-1l1.7-1.8c0.2,0.3,0.5,0.6,0.9,0.7
				c0.4,0.2,0.7,0.3,1.1,0.3c0.2,0,0.4,0,0.6-0.1c0.2,0,0.4-0.1,0.5-0.2s0.3-0.2,0.4-0.3c0.1-0.1,0.1-0.3,0.1-0.5
				c0-0.3-0.1-0.6-0.4-0.8s-0.6-0.3-0.9-0.5c-0.4-0.1-0.8-0.3-1.2-0.4c-0.4-0.1-0.8-0.3-1.2-0.5c-0.4-0.2-0.7-0.5-0.9-0.9
				c-0.2-0.4-0.4-0.8-0.4-1.4c0-0.6,0.1-1.1,0.3-1.5c0.2-0.4,0.5-0.8,0.9-1.1c0.4-0.3,0.8-0.5,1.3-0.7c0.5-0.1,1-0.2,1.5-0.2
				c0.6,0,1.2,0.1,1.8,0.3c0.6,0.2,1.1,0.5,1.5,0.9L94,118.9z"/>
			<path class="st2" d="M97.4,116.3h2.4v4h4.6v-4h2.4V127h-2.4v-4.6h-4.6v4.6h-2.4V116.3z"/>
			<path class="st2" d="M108.8,116.3h2.4V127h-2.4V116.3z"/>
			<path class="st2" d="M113.3,116.3h4c0.6,0,1.1,0.1,1.6,0.2c0.5,0.1,0.9,0.3,1.3,0.5s0.7,0.6,0.9,1c0.2,0.4,0.3,0.9,0.3,1.6
				c0,0.6-0.1,1.1-0.3,1.6c-0.2,0.4-0.5,0.8-0.8,1s-0.8,0.4-1.3,0.5c-0.5,0.1-1,0.2-1.6,0.2h-1.7v4.2h-2.4V116.3z M115.7,120.8h1.6
				c0.2,0,0.4,0,0.6-0.1c0.2,0,0.4-0.1,0.5-0.2c0.2-0.1,0.3-0.2,0.4-0.4s0.1-0.4,0.1-0.6c0-0.3-0.1-0.5-0.2-0.7s-0.3-0.3-0.5-0.4
				c-0.2-0.1-0.4-0.1-0.7-0.2c-0.2,0-0.5,0-0.7,0h-1.2V120.8z"/>
			<path class="st2" d="M128.1,118.9c-0.2-0.2-0.5-0.4-0.8-0.5s-0.6-0.2-0.9-0.2c-0.2,0-0.3,0-0.5,0.1c-0.2,0-0.4,0.1-0.5,0.2
				c-0.2,0.1-0.3,0.2-0.4,0.3c-0.1,0.1-0.2,0.3-0.2,0.5c0,0.3,0.1,0.6,0.4,0.7c0.2,0.2,0.5,0.3,0.9,0.4c0.4,0.1,0.8,0.2,1.2,0.4
				c0.4,0.1,0.8,0.3,1.2,0.5c0.4,0.2,0.7,0.5,0.9,0.9c0.2,0.4,0.4,0.9,0.4,1.5c0,0.6-0.1,1.1-0.3,1.6s-0.5,0.8-0.9,1.1
				s-0.8,0.5-1.3,0.6c-0.5,0.1-1,0.2-1.6,0.2c-0.7,0-1.3-0.1-1.9-0.3c-0.6-0.2-1.1-0.6-1.7-1l1.7-1.8c0.2,0.3,0.5,0.6,0.9,0.7
				c0.4,0.2,0.7,0.3,1.1,0.3c0.2,0,0.4,0,0.6-0.1c0.2,0,0.4-0.1,0.5-0.2s0.3-0.2,0.4-0.3c0.1-0.1,0.1-0.3,0.1-0.5
				c0-0.3-0.1-0.6-0.4-0.8s-0.6-0.3-0.9-0.5c-0.4-0.1-0.8-0.3-1.2-0.4c-0.4-0.1-0.8-0.3-1.2-0.5c-0.4-0.2-0.7-0.5-0.9-0.9
				c-0.2-0.4-0.4-0.8-0.4-1.4c0-0.6,0.1-1.1,0.3-1.5c0.2-0.4,0.5-0.8,0.9-1.1c0.4-0.3,0.8-0.5,1.3-0.7c0.5-0.1,1-0.2,1.5-0.2
				c0.6,0,1.2,0.1,1.8,0.3c0.6,0.2,1.1,0.5,1.5,0.9L128.1,118.9z"/>
		</g>
		<path class="st2" d="M56.8,62.3L56.8,62.3c0.9-1.2,0.8-2.8-0.2-3.9l-0.7-0.7l-0.2-0.2l-0.1-0.1l-0.2-0.1l-0.1-0.1l-0.2-0.1h-0.1
			L55,57.2h-0.1l-0.2-0.1h-0.1L54.4,57l0,0c-0.2,0-0.4-0.1-0.6,0c-0.4,0-0.8,0.1-1.2,0.2l0,0l-0.2,0.1h-0.1l-0.1,0.1l-0.2,0.1
			L52,57.6l-0.2,0.2l-1.5,1.5c-1.1,1.2-1.1,3,0,4.2l0.3,0.3l0,0L51,64c1.2,1.1,3,1.1,4.2,0l1.5-1.5C56.7,62.5,56.7,62.4,56.8,62.3z"
			/>
		<path class="st2" d="M117.1,40.2c0-0.4-0.2-0.8-0.4-1.1L105.5,28l0,0l0,0l0,0l-0.1-0.1l0,0L97,19.5l-0.1-0.1
			C96.7,19.2,96.3,19,96,19h-0.2c-0.4,0-0.7,0.2-1,0.4l-5,5c-0.6,0.6-0.6,1.6,0,2.1c0,0,0,0,0,0l0.1,0.1l19.7,19.7
			c0.3,0.3,0.6,0.4,1,0.4h0.2c0.4,0,0.7-0.2,1-0.4l5-5C117,41,117.1,40.6,117.1,40.2z M112,42.5c-0.8,0.8-2.1,0.7-2.8-0.1
			c-0.8-0.8-0.7-2.1,0.1-2.8c0.7-0.7,1.9-0.7,2.6-0.1c0.1,0.1,0.2,0.3,0.3,0.3C112.8,40.7,112.7,41.8,112,42.5z"/>
		<path class="st2" d="M60.4,26.5c0.6-0.6,0.6-1.6,0-2.1c0,0,0,0,0,0l-5.1-5c-0.3-0.3-0.7-0.4-1.1-0.4c-0.1,0-0.3,0-0.4,0.1
			c-0.2,0.1-0.3,0.2-0.5,0.4l-8.4,8.4L44.8,28L44.7,28L33.5,39.2c-0.2,0.2-0.4,0.5-0.6,0.8v0.1c0,0,0,0,0,0.1c0,0,0,0.1,0,0.1
			c0,0.4,0.2,0.7,0.4,1l5.1,5c0.2,0.2,0.6,0.4,0.9,0.4h0.2c0.4,0,0.7-0.2,1-0.4L60.4,26.5L60.4,26.5z M41.1,42.5
			c-0.8,0.8-2.1,0.7-2.8-0.1c-0.8-0.8-0.7-2.1,0.1-2.8c0.7-0.7,1.9-0.7,2.6-0.1c0.1,0.1,0.2,0.3,0.3,0.3
			C41.9,40.7,41.8,41.8,41.1,42.5L41.1,42.5z"/>
		<path class="st2" d="M62,69l0.5-0.5l0.2-0.2l0,0c0.4-0.5,0.6-1.1,0.6-1.7c0-0.2,0-0.4,0-0.6v-0.1c-0.1-0.5-0.3-1-0.7-1.4l-0.2-0.2
			l-0.7-0.7l0,0l-0.2-0.2l-0.1,0l-0.2-0.1h-0.1l-0.2-0.1l0,0L61,63.1l0,0c-0.8-0.3-1.8-0.3-2.5,0.2h0l-0.2,0.1L58,63.5l-0.2,0.2
			l-1.6,1.4c-1.1,1.2-1.1,3,0,4.2l0.6,0.6c0.1,0,0.1,0.1,0.2,0.1c1.1,1.1,3,1.1,4.1,0l0.7-0.7C61.8,69.2,61.9,69.1,62,69z"/>
		<path class="st2" d="M98.6,58L98.6,58l-11-11l-2.4-2.4l0,0l0,0L81,40.3l-5.2,5.2v0.1L74.8,49c-0.1,0.4-0.3,0.8-0.5,1.2
			c-1,2.3-3.2,4-5.7,4.4c-0.9,0.1-3,0-4-1.3c-0.4-0.6-0.6-1.3-0.4-2.1c0.1-0.7,0.2-1.4,0.4-2.1l0.1-0.2c0,0,0-0.1,0-0.1l2.2-8.3
			v-0.1l7-7.1l0,0L73.6,33l-1.4-1.4c-0.4-0.4-1-0.6-1.5-0.5l-2.5,0.2l0,0l-4.1,0.4l-3.4-3.4L42.4,46.7l3.1,3.1l0.1,0.1l6.1,6.1l0,0
			l0,0c0.7-0.3,1.4-0.5,2.1-0.5l0,0h0.4h0.1h0.2h0.2h0.1l0.2,0.1h0l0.3,0.1h0l0.3,0.1l0,0c0.2,0.1,0.4,0.2,0.6,0.3l0,0l0.3,0.2l0,0
			l0.2,0.2l0.7,0.7l0.2,0.3l0.1,0.1l0.2,0.3l0,0c0.1,0.1,0.1,0.2,0.2,0.3v0.1l0.2,0.3l0,0c0,0.1,0.1,0.2,0.1,0.3v0.1
			c0,0.1,0.1,0.2,0.1,0.3l0,0c0,0.1,0,0.2,0.1,0.3v0.1c0,0.1,0,0.2,0,0.3v0c0,0.1,0,0.2,0,0.3s0,0.1,0,0.1s0,0.2,0,0.3v0.1
			c0,0.1,0,0.2,0,0.3c0.9-0.2,1.8-0.1,2.6,0.2l0,0l0.2,0.1h0.1l0.1,0.1l0.1,0.1l0.1,0.1l0.2,0.1H62l0.1,0.1l0.1,0.1l0.1,0.1l0.1,0
			l0.2,0.2l0.7,0.7c0.6,0.6,1,1.3,1.2,2c0,0.1,0,0.2,0.1,0.3v0.1c0,0.1,0,0.2,0,0.3v0.1c0,0.1,0,0.2,0,0.3v0.1c0,0.1,0,0.2,0,0.3
			l0,0c0,0.1,0,0.2,0,0.3l0,0c1-0.2,2.1-0.1,3,0.4l0,0c0.2,0.1,0.3,0.2,0.5,0.3l0.1,0.1l0.1,0.1l0.1,0.1l0.1,0.1l0.2,0.2l0.7,0.7
			l0.3,0.3l0.1,0.1l0.2,0.3l0,0c0.1,0.1,0.1,0.2,0.2,0.3v0.1l0.1,0.3v0.1c0,0.1,0.1,0.2,0.1,0.3v0.1c0,0.1,0,0.2,0.1,0.3v0.1
			c0,0.1,0,0.2,0.1,0.3v0.1c0,0.1,0,0.2,0,0.3v0.1c0,0.1,0,0.2,0,0.3V72c0,0.1,0,0.2,0,0.3v0.1c0,0.1,0,0.2-0.1,0.3h0.1h0.3h0.4
			c1,0,1.9,0.3,2.7,0.9l0,0l0.2,0.1l0,0l0.2,0.2l0.7,0.7l0.3,0.3l0.1,0.1l0.2,0.2l0.1,0.1L76,76l0.1,0.1l0.1,0.2l0.1,0.2l0.1,0.2
			l0.1,0.2l0.1,0.2v0.2v0.2c0,0.1,0,0.1,0,0.2s0,0.1,0,0.2s0,0.3,0,0.4s0,0.1,0,0.1s0,0.2,0,0.2s0,0.1,0,0.1s0,0.2,0,0.2V79
			c0,0.1,0,0.2,0,0.2v0.1l-0.1,0.2v0.1L76.3,80v0.1l-0.1,0.2l0,0v0.1l0.8,0.8c0.5,0.5,1.2,0.8,2,0.8H79c0.8,0,1.5-0.3,2-0.8l0.7-0.7
			c1.1-1.2,1.1-3,0-4.2l-4-4l0,0l0,0l-5.2-5.2l0,0L69,63.7c-0.3-0.3-0.4-0.8-0.1-1.1c0.3-0.3,0.8-0.4,1.1-0.1l0,0l0,0l8.6,8.6
			c0.1,0,0.1,0.1,0.2,0.2l4.6,4.7c1.2,1.1,3,1.1,4.2,0l0.7-0.7c1.1-1.2,1.1-3,0-4.2l-4-4l0,0l-6.8-6.8l-2.6-2.6l0,0
			c-0.1-0.1-0.2-0.3-0.2-0.5c0-0.4,0.3-0.8,0.7-0.8c0.2,0,0.4,0.1,0.5,0.2l0,0l0,0l0.1,0.1l9.2,9.1c0.1,0.1,0.1,0.1,0.2,0.2l3.9,3.8
			l0,0l0.1,0.1l0,0l0.5,0.5c1.2,1.1,3,1.1,4.2,0l0.7-0.7c1.1-1.2,1.1-3,0-4.2l0,0l-2-1.9l-0.5-0.5L80.7,51.9l0,0l-0.4-0.4l0,0
			c-0.3-0.3-0.3-0.8,0-1.1c0.3-0.3,0.8-0.3,1.1,0l0,0L83,52l0.1,0.1v0l8.3,8.3c0.1,0.1,0.2,0.1,0.2,0.2l3.9,3.9l0.1,0.1l0,0l0.1,0.1
			l0.5,0.5c1.2,1.1,3,1.1,4.2,0l0.7-0.7c1.1-1.2,1.1-3,0-4.2L98.6,58z"/>
		<path class="st2" d="M89.4,28.2l-3.1,3.1c-0.1,0.2-0.4,0.3-0.6,0.3l0,0l-6.2-0.5c-0.6,0-1.1,0.2-1.5,0.5l-1.7,1.7L75.5,34l0,0
			l-7.2,7.2v0l-2.1,7.9c0,0.1,0,0.1-0.1,0.2l-0.1,0.2c-0.2,0.6-0.3,1.2-0.4,1.8c-0.1,0.3,0,0.7,0.2,1c0.7,0.6,1.6,0.8,2.6,0.7
			c2-0.4,3.7-1.7,4.5-3.6c0.2-0.3,0.3-0.7,0.4-1l0.9-3.5l0,0l0.1-0.2l0,0l0.1-0.1l6.5-6.4l5.2,5.2c0.1,0,0.1,0.1,0.2,0.2l2.9,2.9
			l9.3,9.3l9.2-9.2L89.4,28.2z"/>
		<path class="st2" d="M75.1,78c0,0,0-0.1,0-0.1s0-0.1,0-0.1v-0.1v-0.1v-0.1v-0.1v-0.1V77L75,76.9L75,76.8l-0.1-0.1l-0.1-0.1
			l-0.1-0.1l-0.1-0.1l-0.2-0.2l-0.7-0.7l-0.2-0.2l-0.1-0.1l-0.1-0.1L73,75.1L72.9,75l-0.1,0h-0.1l-0.2-0.1h-0.1h-0.1h-0.1H72h-0.2
			h-0.6h-0.2l0,0h-0.2l0,0L70.7,75l0,0l-0.2,0.1h-0.1l-0.2,0.1l-0.1,0.1l-0.1,0.1l-0.2,0.1c-0.1,0.1-0.2,0.2-0.3,0.2L68,77
			c-1.1,1.2-1.1,3,0,4.2l0.3,0.3l0.1,0.1l0.3,0.3c1.2,1.1,3,1.1,4.2,0l1.5-1.5c0.1-0.1,0.2-0.2,0.2-0.3l0,0l0.1-0.1l0.1-0.1l0.1-0.1
			l0.1-0.1l0.1-0.1v-0.1l0.1-0.1v-0.1L75,79v-0.1v-0.2v-0.1c0,0,0-0.1,0-0.2s0-0.1,0-0.1s0-0.1,0-0.2s0-0.1,0-0.1S75.1,78,75.1,78z"
			/>
		<path class="st2" d="M68.6,74.1c0.7-0.9,0.9-2.2,0.3-3.3c-0.1-0.2-0.3-0.5-0.5-0.7l-0.7-0.7l-0.2-0.2c-0.8-0.6-1.8-0.8-2.8-0.5
			l0,0l-0.2,0.1h-0.1l-0.2,0.1h-0.1L64.1,69h-0.1l-0.2,0.2l-0.2,0.2l-0.7,0.7l-0.8,0.8c-1.1,1.2-1.1,3,0,4.2l0.4,0.4
			c0.1,0,0.1,0.1,0.1,0.1l0.1,0.1c1.2,1.1,3,1.1,4.2,0l1.5-1.5L68.6,74.1z"/>
	</g>
</g>
</svg>
