<?xml version="1.0" encoding="utf-8"?>
<!-- Generator: Adobe Illustrator 20.1.0, SVG Export Plug-In . SVG Version: 6.00 Build 0)  -->
<!DOCTYPE svg PUBLIC "-//W3C//DTD SVG 1.1//EN" "http://www.w3.org/Graphics/SVG/1.1/DTD/svg11.dtd">
<svg version="1.1" id="Layer_1" xmlns="http://www.w3.org/2000/svg" xmlns:xlink="http://www.w3.org/1999/xlink" x="0px" y="0px"
	 viewBox="0 0 147.8 147.8" style="enable-background:new 0 0 147.8 147.8;" xml:space="preserve">
<style type="text/css">
	.st0{fill:#0056A5;}
	.st1{fill:none;stroke:#0056A5;stroke-width:7;stroke-miterlimit:10;}
	.st2{enable-background:new    ;}
</style>
<title>smadc</title>
<g id="Layer_2">
	<g id="Layer_1-2">
		<rect x="26.8" y="38.8" class="st0" width="4" height="10"/>
		<path class="st0" d="M32.8,30.7h3.8v-4h-3.8c-3.3,0-6,2.7-6,6l0,0h4C30.8,31.6,31.7,30.7,32.8,30.7z"/>
		<rect x="42.6" y="26.7" class="st0" width="10" height="4"/>
		<rect x="26.8" y="54.8" class="st0" width="4" height="10"/>
		<rect x="58.7" y="26.7" class="st0" width="10" height="4"/>
		<rect x="82" y="37.2" class="st0" width="4" height="10"/>
		<path class="st0" d="M80,71.4H57.4c0.6,1.3,0.8,2.6,0.8,4H80c3.3,0,6-2.7,6-6l0,0h-4C82,70.5,81.1,71.4,80,71.4z"/>
		<rect x="82" y="53.3" class="st0" width="4" height="10"/>
		<path class="st0" d="M81.9,32l3.7-1.5c-0.9-2.3-3.1-3.8-5.6-3.8h-5.3v4H80C80.8,30.7,81.6,31.2,81.9,32z"/>
		<path class="st0" d="M32.8,71.4c-0.8,0-1.5-0.5-1.8-1.3l-3.7,1.5c0.9,2.3,3.1,3.7,5.5,3.7h4.1c0-1.4,0.3-2.7,0.8-4L32.8,71.4
			L32.8,71.4z"/>
		<ellipse class="st0" cx="103" cy="75.4" rx="7.7" ry="7.4"/>
		<ellipse class="st0" cx="47.6" cy="75.4" rx="7.7" ry="7.4"/>
		<path class="st0" d="M119.9,61l-12.5-20.5c-0.7-1-1.8-1.6-3-1.7H91c-1.1,0-2,0.9-2,2v32.7c0,1.1,0.9,2,2,2h1.3
			c0.2-5.9,5.1-10.5,11-10.4c5.7,0.2,10.2,4.7,10.4,10.4h5.2c1.1,0,2-0.9,2-2v-8.8C120.9,63.4,120.5,62.1,119.9,61z M111.4,55.9
			L94,51.1c-0.6-0.2-1-0.7-1-1.3v-6.2c0-0.6,0.4-1,1-1h9.2c0.6,0,1.2,0.3,1.5,0.8l7.1,11.7C112.1,55.8,111.9,56,111.4,55.9z"/>
		<path class="st1" d="M21.1,3.5h105.7c9.7,0,17.6,7.9,17.6,17.6v105.7c0,9.7-7.9,17.6-17.6,17.6H21.1c-9.7,0-17.6-7.9-17.6-17.6
			V21.1C3.5,11.4,11.4,3.5,21.1,3.5z"/>
		<g class="st2">
			<path class="st0" d="M30.9,109.8c-0.4-0.5-0.9-0.8-1.5-1.1c-0.7-0.2-1.3-0.3-1.8-0.3c-0.3,0-0.7,0-1.1,0.1
				c-0.4,0.1-0.7,0.2-1,0.4c-0.3,0.2-0.6,0.4-0.8,0.7c-0.2,0.3-0.3,0.6-0.3,1c0,0.6,0.2,1.1,0.7,1.5s1.1,0.6,1.8,0.9
				c0.7,0.2,1.5,0.5,2.4,0.7c0.8,0.2,1.6,0.6,2.4,1c0.7,0.4,1.3,1,1.8,1.8c0.5,0.7,0.7,1.7,0.7,3c0,1.2-0.2,2.2-0.7,3.1
				c-0.4,0.9-1,1.6-1.8,2.2c-0.8,0.6-1.6,1-2.6,1.3c-1,0.3-2,0.4-3.1,0.4c-1.4,0-2.7-0.2-3.8-0.6c-1.2-0.4-2.3-1.1-3.3-2l3.3-3.7
				c0.5,0.6,1.1,1.1,1.8,1.5c0.7,0.4,1.5,0.5,2.3,0.5c0.4,0,0.8,0,1.2-0.1c0.4-0.1,0.7-0.2,1.1-0.4c0.3-0.2,0.6-0.4,0.8-0.7
				c0.2-0.3,0.3-0.6,0.3-1c0-0.6-0.2-1.1-0.7-1.5s-1.1-0.7-1.8-0.9c-0.7-0.3-1.5-0.5-2.4-0.8c-0.9-0.3-1.7-0.6-2.4-1.1
				c-0.7-0.4-1.4-1-1.8-1.7s-0.7-1.7-0.7-2.9c0-1.1,0.2-2.1,0.7-3c0.5-0.9,1.1-1.6,1.8-2.2c0.8-0.6,1.6-1,2.6-1.3c1-0.3,2-0.4,3-0.4
				c1.2,0,2.4,0.2,3.5,0.5c1.1,0.3,2.1,0.9,3,1.7L30.9,109.8z"/>
			<path class="st0" d="M37.7,104.6h7.1l4.9,13.9h0.1l4.9-13.9h7.1v21.3H57v-16.3H57l-5.6,16.3h-3.6l-5.4-16.3h-0.1v16.3h-4.7V104.6
				z"/>
			<path class="st0" d="M73,104.6h3.9l9.3,21.3h-5.3l-1.8-4.5h-8.3l-1.8,4.5h-5.2L73,104.6z M74.9,110.8l-2.6,6.6h5.2L74.9,110.8z"
				/>
			<path class="st0" d="M88.3,104.6h7c1.7,0,3.3,0.2,4.9,0.6c1.5,0.4,2.9,1,4,1.8c1.1,0.9,2,2,2.7,3.3c0.7,1.4,1,3,1,5
				c0,1.7-0.3,3.2-1,4.6c-0.7,1.3-1.5,2.4-2.6,3.3c-1.1,0.9-2.4,1.6-3.8,2s-3,0.7-4.5,0.7h-7.7V104.6z M93,121.6h2.4
				c1.1,0,2.1-0.1,3-0.3c0.9-0.2,1.7-0.6,2.4-1.1c0.7-0.5,1.2-1.2,1.6-2c0.4-0.8,0.6-1.8,0.6-3.1c0-1-0.2-1.9-0.6-2.7
				c-0.4-0.8-0.9-1.4-1.6-1.9s-1.4-0.9-2.3-1.1c-0.9-0.2-1.8-0.4-2.8-0.4H93V121.6z"/>
			<path class="st0" d="M125.1,110.1c-0.5-0.6-1-1-1.7-1.3c-0.7-0.3-1.4-0.5-2.3-0.5s-1.7,0.2-2.5,0.5c-0.8,0.3-1.4,0.8-2,1.4
				c-0.6,0.6-1,1.3-1.3,2.2s-0.5,1.8-0.5,2.7c0,1,0.2,1.9,0.5,2.8c0.3,0.8,0.7,1.6,1.3,2.2c0.5,0.6,1.2,1.1,1.9,1.4s1.5,0.5,2.4,0.5
				c1,0,1.8-0.2,2.6-0.6c0.7-0.4,1.4-1,1.8-1.7l3.9,2.9c-0.9,1.3-2,2.2-3.4,2.8c-1.4,0.6-2.8,0.9-4.3,0.9c-1.7,0-3.2-0.3-4.6-0.8
				c-1.4-0.5-2.6-1.3-3.6-2.2s-1.8-2.2-2.4-3.5c-0.6-1.4-0.9-2.9-0.9-4.6s0.3-3.2,0.9-4.6c0.6-1.4,1.4-2.6,2.4-3.5s2.2-1.7,3.6-2.2
				s2.9-0.8,4.6-0.8c0.6,0,1.2,0.1,1.9,0.2c0.7,0.1,1.3,0.3,1.9,0.5c0.6,0.2,1.2,0.6,1.8,1s1.1,0.9,1.6,1.5L125.1,110.1z"/>
		</g>
	</g>
</g>
</svg>
