<?xml version="1.0" encoding="utf-8"?>
<!-- Generator: Adobe Illustrator 20.1.0, SVG Export Plug-In . SVG Version: 6.00 Build 0)  -->
<!DOCTYPE svg PUBLIC "-//W3C//DTD SVG 1.1//EN" "http://www.w3.org/Graphics/SVG/1.1/DTD/svg11.dtd">
<svg version="1.1" id="Layer_1" xmlns="http://www.w3.org/2000/svg" xmlns:xlink="http://www.w3.org/1999/xlink" x="0px" y="0px"
	 viewBox="0 0 147.8 147.8" style="enable-background:new 0 0 147.8 147.8;" xml:space="preserve">
<style type="text/css">
	.st0{fill:none;stroke:#0056A5;stroke-width:7;stroke-miterlimit:10;}
	.st1{enable-background:new    ;}
	.st2{fill:#0056A5;}
	.st3{fill:#94C5EA;}
	.st4{fill:#9C979B;}
	.st5{fill:#9E989C;}
	.st6{fill:#9E989D;}
	.st7{fill:#9D979C;}
	.st8{fill:#9D979B;}
	.st9{fill:#F4F3F4;}
	.st10{fill:#E2E0E7;}
	.st11{fill:#F1EFEF;}
	.st12{fill:#DDDBE2;}
</style>
<title>smbin</title>
<g id="Layer_2">
	<g id="Layer_1-2">
		<path class="st0" d="M21.1,3.5h105.7c9.7,0,17.6,7.9,17.6,17.6v105.7c0,9.7-7.9,17.6-17.6,17.6H21.1c-9.7,0-17.6-7.9-17.6-17.6
			V21.1C3.5,11.4,11.4,3.5,21.1,3.5z"/>
		<g class="st1">
			<path class="st2" d="M37.3,109.8c-0.4-0.5-0.9-0.8-1.5-1.1c-0.7-0.2-1.3-0.3-1.8-0.3c-0.3,0-0.7,0-1.1,0.1
				c-0.4,0.1-0.7,0.2-1,0.4c-0.3,0.2-0.6,0.4-0.8,0.7c-0.2,0.3-0.3,0.6-0.3,1c0,0.6,0.2,1.1,0.7,1.5s1.1,0.6,1.8,0.9
				c0.7,0.2,1.5,0.5,2.4,0.7c0.8,0.2,1.6,0.6,2.4,1c0.7,0.4,1.3,1,1.8,1.8c0.5,0.7,0.7,1.7,0.7,3c0,1.2-0.2,2.2-0.7,3.1
				c-0.4,0.9-1,1.6-1.8,2.2c-0.8,0.6-1.6,1-2.6,1.3c-1,0.3-2,0.4-3.1,0.4c-1.4,0-2.7-0.2-3.8-0.6c-1.2-0.4-2.3-1.1-3.3-2l3.3-3.7
				c0.5,0.6,1.1,1.1,1.8,1.5c0.7,0.4,1.5,0.5,2.3,0.5c0.4,0,0.8,0,1.2-0.1c0.4-0.1,0.7-0.2,1.1-0.4c0.3-0.2,0.6-0.4,0.8-0.7
				c0.2-0.3,0.3-0.6,0.3-1c0-0.6-0.2-1.1-0.7-1.5s-1.1-0.7-1.8-0.9c-0.7-0.3-1.5-0.5-2.4-0.8c-0.9-0.3-1.7-0.6-2.4-1.1
				c-0.7-0.4-1.4-1-1.8-1.7s-0.7-1.7-0.7-2.9c0-1.1,0.2-2.1,0.7-3c0.5-0.9,1.1-1.6,1.8-2.2c0.8-0.6,1.6-1,2.6-1.3c1-0.3,2-0.4,3-0.4
				c1.2,0,2.4,0.2,3.5,0.5c1.1,0.3,2.1,0.9,3,1.7L37.3,109.8z"/>
			<path class="st2" d="M44.1,104.6h7.1l4.9,13.9h0.1l4.9-13.9h7.1v21.3h-4.7v-16.3h-0.1l-5.6,16.3h-3.6l-5.4-16.3h-0.1v16.3h-4.7
				V104.6z"/>
			<path class="st2" d="M72.4,104.6h7.9c0.9,0,1.8,0.1,2.8,0.2c0.9,0.1,1.8,0.4,2.5,0.8c0.7,0.4,1.3,0.9,1.8,1.6
				c0.5,0.7,0.7,1.6,0.7,2.8c0,1.2-0.3,2.2-1,3c-0.7,0.8-1.6,1.4-2.7,1.7v0.1c0.7,0.1,1.3,0.3,1.9,0.6c0.6,0.3,1.1,0.7,1.5,1.1
				c0.4,0.5,0.7,1,0.9,1.6c0.2,0.6,0.3,1.2,0.3,1.9c0,1.1-0.2,2.1-0.7,2.8c-0.5,0.8-1.1,1.4-1.9,1.8s-1.6,0.8-2.6,1
				c-1,0.2-1.9,0.3-2.8,0.3h-8.7V104.6z M77.1,113.1h3.4c0.4,0,0.7,0,1.1-0.1c0.4-0.1,0.7-0.2,0.9-0.4s0.5-0.4,0.7-0.7
				c0.2-0.3,0.3-0.7,0.3-1.1c0-0.4-0.1-0.8-0.3-1.1c-0.2-0.3-0.4-0.5-0.7-0.7s-0.6-0.3-1-0.3s-0.8-0.1-1.1-0.1h-3.2V113.1z
				 M77.1,121.9h4.2c0.4,0,0.7,0,1.1-0.1c0.4-0.1,0.7-0.2,1-0.4c0.3-0.2,0.5-0.5,0.7-0.8s0.3-0.7,0.3-1.2c0-0.5-0.1-0.9-0.4-1.2
				c-0.3-0.3-0.6-0.5-0.9-0.7c-0.4-0.2-0.8-0.3-1.2-0.3c-0.4-0.1-0.9-0.1-1.2-0.1h-3.5V121.9z"/>
			<path class="st2" d="M91.9,104.6h4.7v21.3h-4.7V104.6z"/>
			<path class="st2" d="M100.8,104.6h6.4l9.1,14.8h0.1v-14.8h4.7v21.3h-6.1l-9.3-15.2h-0.1v15.2h-4.7V104.6z"/>
		</g>
		<path class="st2" d="M28.8,18h0.4c0,10.2,0,20.4,0,30.5c0,1.2,0.2,1.8,1.6,1.8c3.3-0.1,6.6-0.1,9.9,0c1.4,0,1.6-0.6,1.6-1.8
			c0-10.2,0-20.4,0-30.5h0.4c0,10.2,0,20.4,0,30.5c0,1.2,0.2,1.8,1.6,1.8c3.4-0.1,6.8-0.1,10.2,0c1.4,0,1.6-0.6,1.6-1.8
			C56,38.3,56,28.2,56,18h0.4c0,10.2,0,20.3,0,30.5c0,1.3,0.4,1.8,1.8,1.8c4-0.1,8,0,12,0l0.1,19.3c-2.9,1.5-5.9,2.9-9,4l-11.9-0.1
			c-1.1-8-8.5-13.5-16.5-12.4c-0.1,0-0.2,0-0.3,0.1c-5.9,1-11.2,6.4-11.6,12.3c-1.5,0-3.5,0.5-4.4-0.3c-1.1-0.9-0.3-3-0.3-4.5
			c0-6.2,0-12.3,0-18.5c3.6,0,7.2,0,10.8,0c1.4,0,1.8-0.5,1.8-1.8C28.8,38.3,28.8,28.1,28.8,18z"/>
		<path class="st2" d="M70.2,50.2c-4,0-8,0-12,0c-1.4,0-1.8-0.5-1.8-1.8c0-10.2,0-20.3,0-30.5c3.3,0,6.7-0.1,10,0
			c2-0.1,3.7,1.5,3.7,3.5c0,0.1,0,0.2,0,0.2C70.2,31.2,70.2,40.7,70.2,50.2z"/>
		<path class="st2" d="M56,18c0,10.2,0,20.4,0,30.5c0,1.2-0.2,1.8-1.6,1.8c-3.4-0.1-6.8-0.1-10.2,0c-1.4,0-1.6-0.6-1.6-1.8
			c0-10.2,0-20.4,0-30.5H56z"/>
		<path class="st2" d="M42.2,18c0,10.2,0,20.4,0,30.5c0,1.2-0.2,1.8-1.6,1.8c-3.3-0.1-6.6-0.1-9.9,0c-1.4,0-1.6-0.6-1.6-1.8
			c0-10.2,0-20.4,0-30.5H42.2z"/>
		<path class="st2" d="M28.8,18c0,10.2,0,20.3,0,30.5c0,1.3-0.4,1.8-1.8,1.8c-3.6-0.1-7.2,0-10.8,0c0-9.5-0.1-19,0-28.6
			c-0.1-2,1.4-3.7,3.4-3.8c0.1,0,0.2,0,0.3,0C22.9,17.9,25.9,18,28.8,18z"/>
		<path class="st3" d="M61.3,73.6c3.1-1.1,6.1-2.5,9-4c4.1-1.8,8.1-3.6,12.2-5.3c0.9-0.4,0.7-0.9,0.5-1.5c-0.4-1.8-1.5-3.3-1.3-5.2
			l1.5-0.2c0.5,1.4,1,2.8,1.4,4.3c0.3,1.1,0.7,1.5,1.9,0.9c8.2-3.8,16.4-7.6,24.7-11.1c1.9-0.8,0.7-2,0.9-3l1.5-0.4
			c1.8,3.6,2.8,7.6,4.3,11.3c0.3,1,0.7,2,1.2,2.9c0,0.8,0.3,1.5,0.8,2c0,0.7,0.2,1.3,0.5,1.9l1.6,4.8c0.3,1.1,0.8,2.2,1.5,3.1
			c-0.5,0.4-0.8,1-0.9,1.6c-1.4-0.7-1.7-2.1-2.2-3.4c-0.5-1.7-1.2-3.3-2-4.9c0-0.7-0.2-1.3-0.6-1.8l-0.8-2.4c-0.6-1.6-0.8-4-1.9-4.5
			c-1.3-0.6-2.8,1.5-4.2,2.4c-6,4.1-12.1,8.4-18.2,12.7l-1-1.6c2.1-1.5,4.1-3,6.2-4.5c5.2-3.6,10.3-7.3,15.5-10.8
			c1.8-1.2,0.3-2.3,0-3.4c-0.4-1.4-1.3-0.3-1.9-0.1c-8.1,3.6-16.2,7.3-24.4,10.9c-1.4,0.6-1.6,1.3-1.1,2.6c0.4,1.2,0.7,2.4,1.1,3.6
			L85.4,71c-0.4-1.4-0.8-2.8-1.1-4.2c-0.2-0.8-0.5-1.1-1.3-0.7c-4.2,2-8.4,3.9-12.7,5.8c-1.1,0.3-2.2,0.8-3.1,1.5
			c-1,0.2-1.9,0.6-2.7,1.2h18v2l-34.3,0.1H45l-5.2-0.1v-1.9l5.2-0.1l1.9,0.1c0.8,1.3,1.6,1.3,2.5,0c2.8,0,5.5,0,8.3,0
			C58.9,74.9,60.3,74.5,61.3,73.6z"/>
		<path class="st2" d="M120.4,66.1c-0.4-0.6-0.5-1.2-0.5-1.9c2.2-0.5,4.3-1.2,6.6-0.5c0.9,0.3,1.3-0.4,1.8-0.8
			c5.9,2.1,9.5,7.2,9.2,12.9c-0.3,7.3-6.4,12.9-13.6,12.7c-7.3-0.3-12.9-6.4-12.7-13.6c0-0.1,0-0.2,0-0.3c0.1-0.6,0.1-1.2,0.1-1.8
			c1.8-0.7,2-2.6,3-3.9c1-1.4,2.2-2.6,3.6-3.5c0.4,0.5,0.6,1.2,0.6,1.8c-4.3,3.3-5.5,8.3-3.2,12.9c2.5,5,8.6,6.9,13.6,4.4
			c4.4-2.3,6.5-7.4,5-12.1C132,66.7,126.2,64,120.4,66.1z"/>
		<path class="st2" d="M45,76.8h3.1c-1,7.2-6.5,12-13.5,11.8c-7.1-0.2-12.7-6-12.8-13.1c1.8,0.2,1.3-1.3,1.5-2.2
			c1-5.8,6.5-10.3,12.2-10c6.2,0.2,11.2,5.1,11.5,11.3l-1.9-0.1l-0.1-1c-1.3-5-5.4-8.4-10.1-8.3c-4.8,0.1-8.8,3.5-9.6,8.2
			c-0.4,0.3-0.3,0.7-0.4,1.1c-0.4,5.5,3.7,10.4,9.2,10.9C39.5,86,44.3,82.1,45,76.8z"/>
		<path class="st4" d="M46.9,74.7c-0.4-6.2-5.3-11.1-11.5-11.3c-5.6-0.4-11.1,4.2-12.2,10c-0.1,0.8,0.4,2.4-1.5,2.2
			c-1.5-0.1-0.8-1.2-0.9-2c0.4-5.8,5.7-11.2,11.6-12.3c7.9-1.3,15.4,4,16.8,12c0,0.1,0,0.2,0,0.3v1.2C48.6,76,47.7,76,46.9,74.7z"/>
		<path class="st2" d="M91.8,71.9l1,1.6c1.5,4.6-1.8,8.5-6.4,7.5c-0.1-0.8,0.5-1.3,0.8-2c2.8,0,4-1.3,3.8-4
			c-0.2-0.8-0.7-1.4-1.3-1.8c-0.2-0.4-0.7-0.4-1.1-0.6c-0.9-0.3-1.8-0.1-2.4,0.6c-0.8,0.2-1.3,0.8-1.3,1.6c-0.4,0.6-0.4,1.4,0,2
			c-0.1,0.7,0.5,1,0.8,1.5c-0.2,0.7-0.2,1.6-1.3,1.7c-1.1-0.8-1.5-2.1-2-3.2v-2c0.5-1.6,1.5-2.9,2.9-3.7l1.9-0.7l1.8,0.1l2.1,1
			L91.8,71.9z"/>
		<path class="st5" d="M113.6,47.9l-1.5,0.4c-0.7-1.9-1.3-3.8-2.1-5.7c-0.5-1.2-0.1-1.7,1.1-1.9s2.3-0.5,3.4-0.8s1.3-0.9,0.7-1.8
			c-0.8-1.6-2.4-2.5-4.1-2.5c-1.6,0-3.2,0-4.7,0c-0.5,0-1.1,0-1.1-0.8s0.6-0.8,1.1-0.8c1.8,0,3.7-0.1,5.5,0c2.9,0.4,5.2,2.7,5.6,5.6
			c0.1,0.9-0.3,1.3-1.1,1.5c-1.6,0.4-3.9,0.2-4.4,1.4s0.8,3,1.3,4.5C113.4,47.4,113.5,47.7,113.6,47.9z"/>
		<path class="st2" d="M77.7,44.8c-0.6,0.1-1.2,0.2-1.7,0.3c-3.2,0.2-2.5,1.1-2.7-2.3c-0.1-1.2,0.4-1.4,1.4-1.4c3.1,0.1,6.2,0,9.2,0
			c0.7,0,1.4-0.1,1.5,1c0,1-0.5,1.2-1.3,1.3c-1.5,0.2-3,0.5-4.4,0.7L77.7,44.8z"/>
		<path class="st4" d="M117.9,65.3c-1.4,0.9-2.6,2.1-3.6,3.5c-0.9,1.3-1.2,3.2-3,3.9c-1.3-2.3,0.3-4,1.4-5.7
			c1.2-1.7,2.7-3.1,4.4-4.1L117.9,65.3z"/>
		<path class="st6" d="M77.7,44.8l2-0.4c-0.3,0.4-0.4,0.9-0.2,1.3c1.3,3.9,2.4,7.7,3.6,11.6l-1.5,0.2C80.1,53.3,79,49,77.7,44.8z"/>
		<path class="st4" d="M128.3,62.8c-0.5,0.5-0.9,1.1-1.8,0.8c-2.2-0.7-4.4,0-6.6,0.5c-0.5-0.6-0.8-1.3-0.8-2
			c2.5-1.2,5.2-0.9,7.8-0.8C127.9,61.4,128.2,62,128.3,62.8z"/>
		<path class="st7" d="M87.2,79c-0.3,0.7-0.8,1.2-0.8,2c-0.6,0.8-1.1,1.6-1.5,2.5c-0.3,0.4-0.5,0.8-1.1,0.6s-0.5-0.8-0.3-1.3
			c0.3-0.9,1.3-1.7,0.8-2.9c1.1-0.1,1-1,1.3-1.7c0.4-0.4,0.7-0.9,0.8-1.5c0.6-0.4,0.4-1.6,1.5-1.6c0.6,0,0.8,0.6,0.8,1.1L87.2,79z"
			/>
		<path class="st4" d="M39.9,76.7c-2,3.7-5,4.7-7.8,2.6c-2-1.5-1.8-3.6-1.7-5.7c2.8-4.1,6.9-4.1,9.1,0l0.4,1.1L39.9,76.7z
			 M34.7,73.9c-0.7,0.1-1.2,0.8-1.2,1.5c-0.1,0.7,0.4,1.4,1.1,1.5c0.1,0,0.2,0,0.3,0c0.8,0,1.5-0.6,1.5-1.4c0-0.1,0-0.2,0-0.3
			C36.5,74.4,35.9,73.9,34.7,73.9z"/>
		<path class="st8" d="M122.1,70.8c0.7,0,1.3-0.1,2-0.1c2.2-0.2,4.2,1.1,4.9,3.1c0.6,2.1-0.1,4.3-1.8,5.6c-1.8,1.2-4.2,1.1-5.9-0.2
			c-1.7-1.5-2.2-3.8-1.3-5.9c0.2-0.4,0.4-0.8,0.6-1.2c0.5,1.3,0.8,2.7,2.2,3.4c0.3,1,0.9,1.6,2,1.3c0.7-0.1,1.2-0.8,1.1-1.5
			c0,0,0,0,0-0.1c-0.2-1.3-1.2-1.4-2.2-1.3C122.9,73,122.4,72,122.1,70.8z"/>
		<path class="st2" d="M123.6,73.9c1.1-0.1,2,0.1,2.2,1.3c0.1,0.7-0.3,1.4-1.1,1.6c0,0,0,0-0.1,0c-1.1,0.3-1.7-0.3-2-1.3
			C122.8,74.9,123.1,74.3,123.6,73.9z"/>
		<path class="st2" d="M70.2,72c0.2,1.1,0,1.8-1.4,1.6c-0.6-0.1-1.2-0.1-1.8-0.1C68,72.8,69.1,72.3,70.2,72z"/>
		<path class="st2" d="M45,73.6h-5.5c-2.1-4.1-6.3-4.1-9.1,0l-5.1-0.1c0.8-4.7,4.9-8.2,9.6-8.2C39.6,65.1,43.7,68.6,45,73.6z"/>
		<path class="st3" d="M88.8,76.3c0-0.6-0.2-1.1-0.8-1.1c-1.1-0.1-0.9,1.1-1.5,1.6h-1.6c-0.4-0.6-0.4-1.4,0-2c1.3,0.2,2.1,0,1.3-1.6
			c0.6-0.6,1.6-0.9,2.4-0.6c-0.8,0.3-0.4,1-0.1,1.2c0.6,0.4,0.9-0.2,1.2-0.6c0.7,0.4,1.1,1.1,1.3,1.8L88.8,76.3z"/>
		<path class="st9" d="M88.8,76.3L91,75c0.2,2.8-1,4-3.8,4L88.8,76.3z"/>
		<path class="st8" d="M89.1,70.5c1-0.5,1.1-1.7,1.7-2.6c0.3-0.4,0.6-0.8,1.1-0.5c0.4,0.2,0.6,0.7,0.4,1.2c0,0,0,0,0,0
			c-0.3,1-1.2,1.7-1,2.9L89.1,70.5z"/>
		<path class="st10" d="M86.2,73.1c0.8,1.6,0,1.8-1.3,1.6C84.9,73.9,85.5,73.3,86.2,73.1z"/>
		<path class="st11" d="M84.9,76.7h1.6c0,0.6-0.3,1.1-0.8,1.5C85.4,77.8,84.8,77.4,84.9,76.7z"/>
		<path class="st12" d="M89.7,73.2c-0.3,0.4-0.6,1-1.2,0.6c-0.3-0.2-0.7-0.9,0.1-1.2C89,72.8,89.5,72.7,89.7,73.2z"/>
		<path class="st2" d="M34.7,73.9c1.2,0,1.8,0.5,1.8,1.4c0.1,0.8-0.5,1.5-1.3,1.6c-0.1,0-0.2,0-0.3,0c-0.7,0.1-1.4-0.5-1.4-1.2
			c0-0.1,0-0.2,0-0.3C33.5,74.7,34,74.1,34.7,73.9z"/>
	</g>
</g>
</svg>
